<?xml version="1.0" encoding="UTF-8"?>
<svg xmlns="http://www.w3.org/2000/svg" version="1.1" viewBox="0 0 120 120">
  <!-- Generator: Adobe Illustrator 28.6.0, SVG Export Plug-In . SVG Version: 1.2.0 Build 709)  -->
  <g>
    <g id="Ebene_1">
      <g id="Ebene_5">
        <g>
          <path d="M81.7,32.3c-7.2-12.2-15.9-20.3-21.7-20.3s-14.5,8.2-21.7,20.3c-4.9,8.2-12.9,24.9-13.3,46v2.3c.3,3.3,1.2,6.5,2.8,9.6,1.8,3.5,4.3,6.6,7.6,9.3,2.6,2.2,5.6,3.9,8.8,5.3.4.4.9.6,1.4.6h0c4.4,1.7,9.3,2.5,14.3,2.5,9.3,0,18-3,24.6-8.5,3.2-2.7,5.8-5.8,7.6-9.3,1.6-3.1,2.5-6.3,2.8-9.6v-2.3c-.4-21.2-8.5-37.9-13.3-46h.1ZM60,103.8c-4.4,0-8.7-.8-12.5-2.2-1.9-21.3-.5-35.6.9-45.7.2-1.1-.6-2.2-1.8-2.4-1.1-.2-2.2.6-2.3,1.8-1.4,10-2.8,24-1.2,44.5-8.4-4.4-14-12-14.2-20.7.2-20.5,8.1-36.7,12.8-44.5,7.5-12.7,15.1-18.3,18.2-18.3s10.7,5.7,18.2,18.3c4.7,7.9,12.5,24,12.8,44.5-.3,13.7-14,24.7-30.9,24.7Z"/>
          <path d="M73.9,43.5c-3-8.1-6.7-14.4-11.5-19-.8-.8-2.1-.8-2.9,0-.8.8-.8,2.2,0,3,8.9,8.7,14.2,23.8,17.8,50.4.2,1.1,1,1.8,2,1.8h.3c1.1-.2,1.9-1.2,1.8-2.4-1.9-14.2-4.3-25.3-7.5-33.8Z"/>
        </g>
      </g>
    </g>
  </g>
</svg>