<?xml version="1.0" encoding="UTF-8"?>
<svg xmlns="http://www.w3.org/2000/svg" version="1.1" viewBox="0 0 120 120">
  <defs>
    <style>
      .cls-1 {
        fill-rule: evenodd;
      }
    </style>
  </defs>
  <!-- Generator: Adobe Illustrator 28.6.0, SVG Export Plug-In . SVG Version: 1.2.0 Build 709)  -->
  <g>
    <g id="Ebene_1">
      <g id="Ebene_6">
        <g>
          <path class="cls-1" d="M94.3,70.8c-.5-2-1.2-4-2-5.8l-14.2-23.4-18-29.6-18,29.6-14.2,23.4c-.9,1.9-1.6,3.8-2,5.8-.5,2-.7,4.1-.7,6.2s.2,4.2.7,6.2,1.2,4,2,5.8c.9,1.9,2,3.6,3.2,5.3,1.3,1.6,2.7,3.2,4.3,4.6s3.3,2.7,5.2,3.8c1.9,1.1,3.9,2.1,5.9,2.9,2.1.8,4.3,1.4,6.6,1.8s4.6.6,7.1.6,4.8-.2,7.1-.6c2.3-.4,4.5-1,6.6-1.8s4.1-1.7,5.9-2.9c1.9-1.1,3.6-2.4,5.2-3.8s3-2.9,4.3-4.6c1.3-1.6,2.3-3.4,3.2-5.3.9-1.9,1.6-3.8,2-5.8s.7-4.1.7-6.2-.2-4.2-.7-6.2h-.2ZM89.3,82.5c-.4,1.7-1,3.4-1.7,5-.8,1.6-1.7,3.1-2.8,4.5-1.1,1.4-2.3,2.7-3.6,3.9-1.4,1.2-2.8,2.3-4.4,3.2-1.6,1-3.3,1.8-5.1,2.4-1.8.7-3.7,1.2-5.6,1.5-1.9.4-4,.5-6,.5s-4.1-.2-6-.5c-1.9-.4-3.8-.9-5.6-1.5-1.8-.7-3.5-1.5-5.1-2.4-1.6-1-3.1-2-4.4-3.2-1.4-1.2-2.6-2.5-3.7-3.9-1.1-1.4-2-2.9-2.8-4.5s-1.3-3.2-1.7-5c-.4-1.7-.6-3.5-.6-5.3s.2-3.6.6-5.3c.4-1.7,1-3.4,1.7-5l12.2-20,15.4-25.3,15.4,25.3,12.2,20c.8,1.6,1.3,3.2,1.7,5,.4,1.7.6,3.5.6,5.3s-.2,3.6-.6,5.3h0Z"/>
          <polyline points="58.3 70 62.7 70 62.7 79.3 72 79.3 72 83.7 62.7 83.7 62.7 93 58.3 93 58.3 83.7 49 83.7 49 79.3 58.3 79.3 58.3 70"/>
        </g>
      </g>
    </g>
  </g>
</svg>