<?xml version="1.0" encoding="UTF-8"?>
<svg xmlns="http://www.w3.org/2000/svg" version="1.1" viewBox="0 0 120 120">
  <defs>
    <style>
      .cls-1 {
        display: none;
      }
    </style>
  </defs>
  <!-- Generator: Adobe Illustrator 28.6.0, SVG Export Plug-In . SVG Version: 1.2.0 Build 709)  -->
  <g>
    <g id="Ebene_1">
      <g id="Ebene_18">
        <g>
          <g>
            <path d="M53.9,48.9c.5,0,1,.2,1.5.4.3,0,.5.2.7.3.8.3,1.6.8,2.3,1.3v-2.1c0-.4-.2-.9-.5-1.2-14.4-15.3-31.8-7.7-36.8-4.9-.4.2-.8.7-.9,1.2s0,1,.3,1.5c.8,1.1,1.8,2,2.7,2.7-2.9,2.4-8,7.5-11.3,15.3-.3.8,0,1.7.6,2.2.4.3,6.5,4.8,14.6,6.4-.6-1.2-.7-2.5,0-3.7-5.1-1.1-9.3-3.5-11.2-4.7,4.3-9.2,11.4-13.9,11.5-13.9.5-.4.9-1,.8-1.6,0-.7-.4-1.2-1-1.6-.4-.2-1.3-.8-2.2-1.4,6.4-2.9,18.3-6,28.9,4v-.2Z"/>
            <path d="M52.7,48.2c.7-18.7,6.1-22.3,14.9-28.6.4-.3,1-.4,1.6-.3s1,.4,1.2.9l3.4,6.1c10.8-9.2,28.5-.5,29.3,0,.7.3,1.1,1,1.1,1.7,0,1.6-1.6,17.7-6.4,23.1-.7.8-1.6.7-2.4,0s-.7-2.4,0-3.2c2.9-3.3,4.8-14.2,4.9-18.7-4-1.7-18.1-6.9-25.4,1.6-.4.5-1,.7-1.6.7s-1.2-.4-1.5-1l-3.5-6.2c-6.7,5.8-11.1,8.2-11.7,24.2,0,1-.9,1.9-1.9,1.9"/>
            <path d="M55.8,49.6h0c-1,.4-2.1,0-2.5-1.1,0-.2-6.6-17.5-16.1-23.2-.9-.5-1.2-1.7-.7-2.7.5-.9,1.7-1.2,2.7-.7,10.6,6.4,17.5,24.4,17.7,25.2.4,1,0,2.1-1.1,2.5"/>
          </g>
          <path d="M34.5,83.6c3.5,3.2,8.2,5.2,13.3,5.2,10.9,0,19.7-8.9,19.7-19.7s-8.9-19.7-19.7-19.7-19.7,8.9-19.7,19.7,2.5,10.9,6.4,14.5M43.6,92.3c-4.5-.8-8.6-2.9-11.8-5.9M31.7,86.4c-4.6-4.3-7.5-10.5-7.5-17.3,0-13,10.6-23.6,23.6-23.6s23.6,10.6,23.6,23.6-10.6,23.6-23.6,23.6-2.9,0-4.3-.4"/>
          <path d="M49.7,86.9c-1.1,0-2-.8-2-2s.8-2,2-2c4.1,0,7.3-3.3,7.3-7.3s.8-2,2-2,2,.9,2,2c0,6.2-5.1,11.3-11.3,11.3"/>
          <path d="M90,80.3c-1.1,0-2-.8-2-2s.8-2,2-2c4.1,0,7.3-3.3,7.3-7.3s.8-2,2-2,2,.9,2,2c0,6.2-5.1,11.3-11.3,11.3"/>
          <path d="M43.8,91.5l5.4,1.2c.8,0,1.1-1.1.4-1.6l-5.3-2c-.3-.3-.4-.6-.3-.9l3.1-5.1c.2-.7-.6-1.5-1.4-1.2l-4.7,2.9c-.4,0-.8,0-1.1-.3l-3.3-5c-.6-.6-1.6-.4-1.8.4l.9,4.8c0,.3-.4.6-.8.6l-6.4,1.8c-.8,0-1.1,1.1-.4,1.6l5.3,1c.3.3.4.6.3.9l-3.1,4.1c-.2.7.6,1.5,1.4,1.2l5.7-2.9c.4,0,.8,0,1.1.3l2.3,5c.6.6,1.6.4,1.8-.4v-5.8"/>
          <path class="cls-1" d="M36.4,81l2.4,2.2c.5.4,1.1.7,1.7.7s.4,0,.5,0l3.5-.7-.8,2.8c-.2.8,0,1.7.8,2.4l2,1.8-2.6.5c-.9.2-1.6.8-1.9,1.6l-.8,2.5-2.4-2.2c-.5-.4-1.1-.7-1.7-.7s-.4,0-.5,0l-3.5.7.8-2.8c.2-.8,0-1.7-.8-2.4l-2-1.8,2.6-.5c.9-.2,1.6-.8,1.9-1.6l.8-2.5ZM35.7,78.1c-.4,0-.9.3-1,.7l-1.1,3.8c0,.3-.4.6-.8.6l-4.4.8c-.8,0-1.1,1.1-.4,1.6l3.3,3c.3.3.4.6.3.9l-1.1,4.1c-.2.6.4,1.2,1.2,1.2h.3l4.7-.9h.3c.3,0,.6,0,.9.3l3.3,3c.3.3.6.3.9.3s.9-.3,1-.7l1.1-3.8c0-.3.4-.6.8-.6l4.4-.8c.8,0,1.1-1.1.4-1.6l-3.3-3c-.3-.3-.4-.6-.3-.9l1.1-4.1c.2-.6-.4-1.2-1.2-1.2h-.3l-4.7.9h-.3c-.3,0-.6,0-.9-.3l-3.3-3c-.2-.2-.5-.3-.9-.3Z"/>
          <path class="cls-1" d="M77.5,83.3l2.4,2.2c.5.4,1.1.7,1.7.7s.3,0,.5,0l3.5-.7-.8,2.8c-.2.8,0,1.7.7,2.4l2,1.8-2.6.5c-.9.2-1.6.8-1.9,1.6l-.7,2.5-2.4-2.2c-.5-.4-1.1-.7-1.7-.7s-.3,0-.5,0l-3.5.7.8-2.8c.2-.8,0-1.7-.7-2.4l-2-1.8,2.6-.5c.9-.2,1.6-.8,1.9-1.6l.7-2.5ZM76.9,80.3c-.4,0-.9.3-1,.7l-1.1,3.8c0,.3-.4.6-.8.6l-4.4.8c-.8,0-1.1,1.1-.4,1.6l3.3,3c.3.3.4.6.3.9l-1.1,4.1c-.2.6.4,1.2,1.2,1.2h.3l4.7-.9h.3c.3,0,.6,0,.9.3l3.3,3c.3.3.6.3.9.3s.9-.3,1-.7l1.1-3.8c0-.3.4-.6.8-.6l4.4-.8c.8,0,1.1-1.1.4-1.6l-3.3-3c-.3-.3-.4-.6-.3-.9l1.1-4.1c.2-.6-.4-1.2-1.2-1.2h-.3l-4.7.9h-.3c-.3,0-.6,0-.9-.3l-3.3-3c-.2-.2-.5-.3-.8-.3h0Z"/>
          <path d="M84,45.5c-7.7,0-14.5,3.7-18.8,9.3,1.1.9,1.9,2,2.4,3.3,3.5-5.3,9.6-8.9,16.5-8.9,10.9,0,19.7,8.9,19.7,19.7s-8.9,19.7-19.7,19.7-13.2-3.7-16.7-9.3c-.7,1.2-1.5,2.2-2.4,3.2h0c4.3,6.1,11.3,10,19.3,10,13,0,23.6-10.6,23.6-23.6s-10.6-23.6-23.6-23.6l-.2.2Z"/>
          <path d="M84.8,85.9l.4-3.4c0-.8-1-1.1-1.6-.5l-1.2,3.3c-.3.3-.6.4-.9.3l-5-3.3c-.7-.2-1.5.5-1.3,1.3l2.7,4.8c0,.4,0,.8-.4,1.1l-5.1,3.1c-.6.6-.5,1.6.3,1.8l4.9-.8c.3,0,.6.4.6.8l1.6,6.5c0,.8,1,1.1,1.6.5l1.2-5.3c.3-.3.6-.4.9-.3l4,3.3c.7.2,1.5-.5,1.3-1.3l-2.7-5.8c0-.4,0-.8.4-1.1l5.1-2.2c.6-.6.5-1.6-.3-1.8l-5.8-.3"/>
        </g>
      </g>
    </g>
  </g>
</svg>