<?xml version="1.0" encoding="UTF-8"?>
<svg xmlns="http://www.w3.org/2000/svg" version="1.1" viewBox="0 0 120 120">
  <defs>
    <style>
      .cls-1, .cls-2 {
        stroke: #000;
        stroke-miterlimit: 10;
      }

      .cls-2 {
        stroke-width: .5px;
      }
    </style>
  </defs>
  <!-- Generator: Adobe Illustrator 28.6.0, SVG Export Plug-In . SVG Version: 1.2.0 Build 709)  -->
  <g>
    <g id="Ebene_1">
      <g id="Ebene_7">
        <g>
          <path class="cls-1" d="M35.6,41.6l-.6,35.1c0,3.6-2.1,5.1-2.3,5.1-1.8,1.3-3.5,2.9-4.8,4.8-3.2,4.7-3.1,10.6.2,14.5,2.6,3.1,6.4,4.9,10.4,4.9s4.2-.4,6.2-1.3c1.6,1.5,4.6,2.7,7.8,2.7h1.7c2.9-.5,7.9-2.4,10.1-10.1,2.2-7.7-1.3-12.3-3.6-12.6s-3.5-1.7-3-1c2.4,3.3,4.3,11.3,3.9,12.8-1.8,5.8-5.1,7.5-7.7,7.9s-6-.7-7.1-1.7c-2.1-2.3-2.4-4.9-.6-8.2.2-.3.3-.8.2-1.2,0-.4-.4-.8-.7-1-.4-.2-.8-.2-1.2,0s-.7.4-.8.8c-1.8,3.4-2,6.5-.6,9.3-2.6,1-8.1,2.2-12.7-3.2-2.4-2.8-2.5-7.3,0-10.8,1.1-1.6,2.5-2.9,4.1-4,0,0,3.5-2.3,3.6-7.6l.6-34.9c0-1,.4-4.6-3.6-8.1-1.5-1.3-5.2-5.7-3.9-10.5s5.1-7.6,7.7-8,6,.7,7.1,1.7c2.1,2.3,2.4,4.9.6,8.2-.4.7,0,1.6.6,2l.7.2c.5,0,1-.3,1.3-.7,1.8-3.4,2-6.5.6-9.3,2.5-1,8.1-2.2,12.7,3.2,2.4,2.8,2.5,7.3,0,10.8-1.1,1.6-2.5,2.9-4.1,4,0,0-3.5,2.3-3.6,7.6h0c1-.7,2.1-1.5,3.2-2.2.3-1.2,1-2.2,1.9-3,1.9-1.3,3.5-2.9,4.9-4.8,3.2-4.7,3.1-10.6-.2-14.5-6.1-7.1-13.8-4.8-16.6-3.6h0c-1.9-1.8-5.7-3.1-9.4-2.5s-7.9,2.2-10.1,10c-1.7,6.1,2.4,11.6,4.8,13.7s2.6,5.1,2.6,5.2v.4h-.3Z"/>
          <path class="cls-2" d="M84,88.9l4.3-4.3.7-.7,3.6,3.9c.2.3.6.5,1,.5s.8,0,1-.4c.3-.3.4-.7.4-1.1s-.2-.8-.5-1l-3.8-4.1c-.9-.9-2.3-.9-3.3,0l-5-5c4.5-6.4,5.5-14.8,2.8-22.2s-8.9-12.9-16.3-14.7c-7.5-1.8-15.3.4-20.9,5.9-5.6,5.5-8.1,13.4-6.8,21.2s6.3,14.4,13.4,17.6c7,3.2,15.1,2.6,21.6-1.7l5,5.1c-.9,1-.8,2.5,0,3.4l11.3,11.6c.2.3.6.5,1,.5s.8,0,1-.4c.3-.3.4-.7.4-1.1s-.2-.8-.5-1l-11.1-11.4.7-.7h0ZM49.5,77.8c-3.8-3.9-6-9.3-6-14.8s2.1-10.9,5.9-14.8c3.8-3.9,9-6.2,14.4-6.2s10.6,2.2,14.4,6.2c3.8,3.9,6,9.3,5.9,14.8,0,5.6-2.2,10.9-6,14.8s-9,6.1-14.4,6.1-10.5-2.2-14.4-6.1h.2ZM80.1,79.7l.7-.8,4.7,4.7-2.4,2.4-4.8-4.8,1.8-1.6h0Z"/>
          <path d="M76.3,50c-3.3-3.4-7.8-5.3-12.5-5.3s-9.2,1.9-12.5,5.4c-3.3,3.4-5.2,8.1-5.2,12.9s1.9,9.5,5.2,12.9,7.8,5.4,12.5,5.4,9.2-1.9,12.5-5.3c3.4-3.4,5.2-8.1,5.2-12.9s-1.9-9.5-5.2-12.9h0v-.2ZM74.5,74c-2.8,2.9-6.7,4.6-10.7,4.6s-7.8-1.6-10.7-4.6c-2.8-2.9-4.4-6.9-4.4-11s1.6-8.1,4.4-11c2.8-2.9,6.7-4.6,10.7-4.6s7.8,1.6,10.7,4.6c2.8,2.9,4.4,6.9,4.4,11s-1.6,8.1-4.4,11h0Z"/>
          <path d="M70.4,58.9h-2.6v-2.7c0-.7-.3-1.4-.8-1.9s-1.2-.8-1.9-.8h-2.6c-1.4,0-2.6,1.2-2.6,2.7v2.7h-2.7c-1.4,0-2.6,1.2-2.6,2.7v2.7c0,.7.3,1.4.8,1.9s1.2.8,1.9.8h2.7v2.7c0,.7.3,1.4.8,1.9s1.2.8,1.9.8h2.6c.7,0,1.4-.3,1.9-.8s.8-1.2.8-1.9v-2.7h2.6c.7,0,1.4-.3,1.9-.8s.8-1.2.8-1.9v-2.7c0-.7-.3-1.4-.8-1.9s-1.2-.8-1.9-.8h-.2ZM70.4,64.3h-3.9c-.7,0-1.3.6-1.3,1.4v4.1h-2.6v-4.1c0-.4,0-.7-.4-1-.2-.3-.6-.4-.9-.4h-4v-2.7h4c.3,0,.7,0,.9-.4.2-.3.4-.6.4-1v-4.1h2.6v4.1c0,.4,0,.7.4,1,.2.3.6.4.9.4h3.9v2.7Z"/>
        </g>
      </g>
    </g>
  </g>
</svg>