<?xml version="1.0" encoding="UTF-8"?>
<svg xmlns="http://www.w3.org/2000/svg" version="1.1" viewBox="0 0 120 120">
  <defs>
    <style>
      .cls-1 {
        fill: #d1a87d;
      }

      .cls-2 {
        fill: #c78563;
      }

      .cls-3 {
        fill: #debe97;
      }
    </style>
  </defs>
  <!-- Generator: Adobe Illustrator 28.6.0, SVG Export Plug-In . SVG Version: 1.2.0 Build 709)  -->
  <g>
    <g id="Ebene_1">
      <g id="Ebene_1-2" data-name="Ebene_1">
        <g>
          <path class="cls-1" d="M12,76.3l45.9,31.7v-28.7L12,47.6v28.7h0Z"/>
          <path class="cls-3" d="M35.9,28l-22.3,15.7,46.5,32,22.3-15.7-46.5-32h0Z"/>
          <path class="cls-1" d="M35.9,28l46.5,32,25.6-16.4L61.5,12l-25.6,16Z"/>
          <path class="cls-2" d="M108,47.6l-45.9,31.7v28.7l45.9-31.7v-28.7h0Z"/>
          <path class="cls-3" d="M16.4,57.3l35,24.2v15.6l-35-24.2v-15.6h0Z"/>
        </g>
        <path d="M72.3,49.9h0c0,2.2-.6,4.1-1.7,5.8h0c-1.1,1.7-2.8,3-4.9,4h0c-2.2.9-4.7,1.4-7.6,1.4h0c-2.4,0-4.4-.2-6.1-.5h0c-1.6-.3-3.3-.9-5.1-1.7h0v-8.5h0c1.9.9,3.8,1.7,5.8,2.2h0c2,.5,3.9.8,5.6.8h0c1.5,0,2.5-.2,3.2-.7h0c.7-.5,1-1.1,1-1.9h0c0-.5,0-.9-.4-1.3h0c-.3-.4-.7-.7-1.3-1.1h0c-.6-.4-2.2-1.1-4.8-2.3h0c-2.4-1-4.1-2.1-5.3-3h0c-1.2-1-2.1-2.1-2.6-3.4h0c-.6-1.3-.9-2.8-.9-4.5h0c0-3.3,1.2-5.8,3.7-7.6h0c2.4-1.8,5.8-2.7,10-2.7h0c3.8,0,7.6.8,11.5,2.5h0l-3,7.4h0c-3.4-1.5-6.3-2.3-8.8-2.3h0c-1.3,0-2.2.2-2.8.7h0c-.6.4-.9,1-.9,1.6h0c0,.7.4,1.3,1.1,1.9h0c.7.5,2.7,1.5,6,3h0c3.1,1.4,5.3,2.8,6.5,4.4h0c1.2,1.6,1.8,3.6,1.8,5.9h0Z"/>
      </g>
    </g>
  </g>
</svg>