<?xml version="1.0" encoding="UTF-8"?>
<svg xmlns="http://www.w3.org/2000/svg" version="1.1" viewBox="0 0 120 120">
  <defs>
    <style>
      .cls-1 {
        stroke: #292c30;
      }

      .cls-1, .cls-2, .cls-3, .cls-4, .cls-5, .cls-6 {
        fill: none;
      }

      .cls-1, .cls-2, .cls-4, .cls-5 {
        stroke-linecap: round;
        stroke-linejoin: round;
        stroke-width: 4px;
      }

      .cls-2 {
        stroke: #e9e9f1;
      }

      .cls-4 {
        stroke: #292b30;
      }

      .cls-5 {
        stroke: #c1c1d0;
      }

      .cls-7 {
        display: none;
      }

      .cls-8, .cls-9 {
        fill-rule: evenodd;
      }

      .cls-6, .cls-9 {
        stroke: #000;
        stroke-miterlimit: 10;
        stroke-width: 3px;
      }

      .cls-10 {
        fill: #fefefe;
      }

      .cls-9 {
        fill: #fff;
      }
    </style>
  </defs>
  <!-- Generator: Adobe Illustrator 28.6.0, SVG Export Plug-In . SVG Version: 1.2.0 Build 709)  -->
  <g>
    <g id="Ebene_1">
      <g id="Ebene_20">
        <g id="Ebene_1-4">
          <g class="cls-7">
            <path d="M88.3,104.3c-11.4,1.4-51,0-64,.5-3,.2-6.2-.7-7.7-3.7-1.5-2.6-1.9-5.8-3.5-8.1-1-1.5-2.2-2.6-3.7-3.7-18.8-13-31-33.6-33.1-56.2-.3-7.4-3-20.1,6.7-22.2,3.4-.7,9-.9,11.7.5,1.9,1,1.1,2.5-.6,3.1-4,1.7-10.2-.5-12.4,3.9-1.6,4.5-.7,10-.4,14.7,2.1,22.9,15.8,42.7,34.9,55,1.7,1.5,2.7,3.4,3.3,5.5,1,3.2.5,6.5,4.2,6.2h57.9c2.7,0,4.5.3,5.4-.7,1.8-2.2.5-5.4-2.6-5.1H31.6c-1.2,0-2.6,0-3.4-.8-1.1-1-1-2.9.4-3.7,11.1-1.4,43.2,0,55-.5,9.1-1.3,12.7,10.5,5,15h-.3v.3Z"/>
            <path d="M98.3,89.2c-4.4-1.6,8-10.8,9.4-13,13-14.1,20-33.1,19.8-52.2-.3-3.5-.3-7.9-3-8.8-15.2-.6-103.3.2-119.1-.3-2.3-.5-2.3-4.4,0-4.8.4-.1.9-.1,1.4-.1h116.5c2.2,0,3.8.4,5.9,2.4,6.4,6,2.4,27.7,0,35.7-4.3,14.5-12.5,27.6-23.9,37.5-1.9,1.6-4.2,3.6-6.8,3.6,0,0-.2,0-.2,0Z"/>
            <path d="M101.6,67.2c-1.4-1.1,3.8-5.7,5.2-7.5,7.3-8.2,12.3-21.9,10.1-32.5-.6-2.2-2.3-2.4-4.2-2.3h-62.9c-1.2,0-3.3-.4-3.1-1.6,0-1,1.9-1.5,3-1.4h58c8,0,11.6-1.1,12.6,8.2.3,10-2.9,20-8.7,28.1-1.9,2.6-4,5.1-6.4,7.2-1.1.8-2.3,1.8-3.6,1.9h0,0Z"/>
          </g>
          <g id="Generatives_Objekt-2" class="cls-7">
            <g>
              <g id="Background-2" class="cls-7">
                <path class="cls-10" d="M-23.8,13.6c33.2-.7,146.8-.5,155.5,0,.2.2.3.8.3,1.9v85.6c0,1-.4,1.2-1.5,1.1-14-.3-143.6.6-154.3-.3-.2-.4-.2-1.3-.2-3.2v-19.3c.1-19.6-.3-48.3.2-65.6h0v-.2Z"/>
              </g>
              <g>
                <path class="cls-3" d="M48.6,11.1c.9-1.1,2.6-1,4-1.1,2.3,0,5,0,6.3.5,1.8.7,1.2,2.8,1.3,4.4,0,1.8,1.1,3.2,2.4,4.5,3.8,3.4,5.2,9.4,2.6,14.5-1.4,2.8-3.9,5.1-5.1,7.9-.8,1.7-1.3,3.4-2.4,4.8-1.2,1.6-3.9,1.9-5.5.8-2.5-1.8-3-5.3-4.7-7.7-1.4-2.3-3.6-4.7-4.5-7.4-1.4-3.7-.8-8,1.6-11.1,1.3-1.8,3.2-3.2,3.6-5.4.4-1.8,0-3.5.4-4.6h0Z"/>
                <g>
                  <path class="cls-3" d="M77.3,29c.9-.9,2.5-.7,3.8-.5,2.2.4,4.9.8,6.2,1.7,1.6,1,1.1,2.8,1,4.4-.2,2.6.9,5,1.8,7.4,1,3,.5,6.3-1,9-1.6,3-4.3,4.9-5.9,7.6-1.3,1.9-2.3,4.5-4.8,5-2.1.4-4.3-.7-4.9-2.8-.6-1.9-.7-4-1.4-5.9-3.4-7-4.6-12,1.5-18.2.7-.9,1.4-1.8,1.9-2.8,1-2,1-3.8,1.9-4.8h0Z"/>
                  <path class="cls-3" d="M94,64.9c1.5,1,1.3,3.3,2.4,5.8,1,2.1,2.3,4.1,2.5,6.5.2,2.9-.9,5.8-1.5,8.6-.7,2.7-1.4,5.4-3.3,6.2-1.4.6-2.9.2-3.9-1-1.7-1.9-2.5-4.5-3.6-6.7-1.6-3.1-2.8-6.7-1.2-10,.5-1.1,1-2.2,1.3-3.4.8-3.1.4-5.5,3-6.3,1.3-.4,3.1-.4,4.3.2h0-.1Z"/>
                </g>
                <g>
                  <path class="cls-3" d="M31.2,29c1.4,1.7,1.5,4.3,2.8,6.1,1.3,2.2,3.7,4.2,4.7,6.7.8,1.9.9,4,.6,6-.4,2.7-2.2,5.1-2.9,7.4-1,2.6-.3,6.1-3,7.7-4.4,2.4-6.9-2.5-8.9-5.6-4.7-5.8-8.8-9.3-5.1-17.2.7-1.6,1-3.4,1-5.1s-.3-3.2.8-4.4c.9-1.1,3.6-1.6,6-2,1.3-.2,2.9-.5,3.9.3h.1Z"/>
                  <path class="cls-3" d="M14.2,65.1c1.4-1.3,4-.8,5.4.3,1.8,1.3,2,4,3,6.9.6,1.9,1.4,3.8,1.3,5.8,0,2.7-1.7,5.1-2.7,7.6-1.3,2.8-2.3,5.6-4.8,6.3-3,.6-4.3-2.5-4.8-5-2.2-8.9-3.5-8.6,1-17.1.7-1.5.5-3.4,1.5-4.7h.1Z"/>
                </g>
              </g>
            </g>
            <g>
              <g id="Background-2-2" class="cls-7">
                <path class="cls-2" d="M-21.4,99.3c-.5-16.8,0-44.7,0-63.4v-17c0-1.7,0-2.5.3-2.8,10.9-.9,135,.1,149.2-.2.6,0,.9,0,1.3.2.3.3.3.8.3,1.3v80.3c0,1,0,1.5-.3,1.7-9,.3-118.3.7-150.6,0h-.2Z"/>
                <path class="cls-5" d="M-18.7,18.7c32.4-.9,133.7-.4,145.2,0,.3.2.5.7.5,1.7,0,17.7,0,46.7,0,66.1v7.1c0,3.5,0,3.4-2.3,3.5H-17.3c-1.9,0-1.6-.6-1.7-2.9V20.8c0-.7,0-1.4.3-2h0Z"/>
              </g>
              <path class="cls-4" d="M13.3,86.3c-2.7,3.1-1.3,4.6,2.3,6.3"/>
              <path class="cls-4" d="M15,69.9c-.5-.9-1.3-2.5-1.8-3.6-.3-.6-1-1.5,0-1.5,1.6,0,6.3.3,8.1.6.5.2.2.6,0,1.2-.4,1-1,2.6-1.3,3.4"/>
              <path class="cls-4" d="M15,69.9l5,.3"/>
              <path class="cls-4" d="M15,69.9c-7.1,3.7-6.6,10.7-1.7,16.5"/>
              <path class="cls-4" d="M19.9,70.1c6,4.9,4.9,12-1.1,16.3"/>
              <path class="cls-4" d="M13.3,86.3h5.6"/>
              <path class="cls-4" d="M18.8,86.5c1.5,3.7.6,4.9-3.2,6"/>
              <path class="cls-4" d="M15.6,92.6l-.3,12.2"/>
              <path class="cls-1" d="M34.5,56.5c1.1,1.8,1.9,3.1,1.5,4.1-.5,1.5-3.2,2.6-4.6,3"/>
              <path class="cls-1" d="M31.2,35c.1-1.2,2.5-5.9,1-6.4-3.3,0-7.5,1.3-11.2,1.8-.6.1-1.6.2-1.7.8.4,1.7,2.7,3.7,3.6,5.1"/>
              <path class="cls-1" d="M31.2,35l-8.3,1.4"/>
              <path class="cls-1" d="M31.2,35c13.7,5.1,8.9,22.3-4,22.3"/>
              <path class="cls-1" d="M22.8,36.4c-8.3,7.5-4.8,16.5,4.4,20.9"/>
              <path class="cls-1" d="M27.1,57.2c-1.4,4.1-.3,6.3,4.2,6.4"/>
              <path class="cls-1" d="M31.4,63.7c0,4.7.5,34,.6,40.4"/>
              <path class="cls-4" d="M50.1,42.2c-4.6,9,14.3,8.3,7.7-.8"/>
              <path class="cls-4" d="M49.9,16.2c-.7-1.2-1.9-3.3-2.4-4.6-.3-.7-.3-1,.4-1.1h12.4c.7,0,1.2.1.8,1-.5,1.3-1.9,3.6-2.6,4.8"/>
              <path class="cls-4" d="M48.4,39.7c-6.7-4.3-8.9-15-2.1-20.3,8.2-6,21.3-1,20.2,10.2-.7,8.3-10.2,15.3-17.8,10.2h-.3Z"/>
              <path class="cls-4" d="M54.2,49.4c0,9,.2,46.2.2,55.5"/>
              <path class="cls-1" d="M74.1,56.7c-3.1,3.8-1.2,5.5,3.2,7.1"/>
              <path class="cls-1" d="M77.6,35c-.4-1.4-1.1-4-1.4-5.4-.3-1,0-1.2.9-1,2.5.5,9.8,1.7,11.7,2.1.6.2.6.5.3,1.1-.7,1.2-2,2.9-2.8,4"/>
              <path class="cls-1" d="M77.6,35c3.5.8,7.8.8,10.3,3.5,5.9,6,.9,16.1-6.6,18.8"/>
              <path class="cls-1" d="M77.6,35c-13.5,4.4-9.5,22.7,3.8,22.2"/>
              <path class="cls-1" d="M77.2,63.8c4.5-.4,5.7-2.4,4.2-6.5"/>
              <path class="cls-1" d="M77.2,63.8c0,6.4-.5,35.6-.6,40.3"/>
              <path class="cls-4" d="M95.5,86.2c2.5,3.4,1,4.8-2.4,6.5"/>
              <path class="cls-4" d="M94.3,69c.4-1,2.2-3.4,1.2-4-2.6-.6-5.6.3-8.4.4-.4,0-1,0-1,.6.2.8,2.4,3.1,3.1,4"/>
              <path class="cls-4" d="M89.4,70c1.5,0,3-.2,4.5,0,4,1.1,6.2,6.5,4.4,11.3-.6,1.7-1.8,3.2-2.8,4.7"/>
              <path class="cls-4" d="M89.4,70c-6.6,4.2-5.8,11.7,0,16.3"/>
              <path class="cls-4" d="M95.5,86.2h-6"/>
              <path class="cls-4" d="M89.5,86.3c-.8,3.9-.5,4.9,3.7,6.2"/>
              <path class="cls-4" d="M93.1,92.7l.3,12.2"/>
            </g>
          </g>
          <g class="cls-7">
            <path class="cls-3" d="M123.4,74.5c3-3.2,3.7-8.1,2.2-12.2-.8-2.5-2.6-4.7-3.8-7.1-.6-1.5-1.5-3.3,0-4.3,1.4-.9,4-.7,4.6-2.6.8-1.9-1-6.6-3.7-8.5-4.5-3.7-10.7-2.6-15,.8-5.9,4.5-10.3,6.7-18,6.2H18.6c-5.5.2-9.5-.2-13.9-3.2-3.7-2.4-6.9-6.1-11.3-7-7-1.6-13.1,5.2-12.4,12,0,4.6,3.8,8.4,4.4,12.7.2,2.8-3.8,2.7-4.1,5.3-.5,2.9,2.9,8,6.4,9.1,3.8,1.7,8,.4,11.3-1.8,6.3-4.4,10.3-6.5,18.3-6h66.3c6.7.3,12.3-1.1,18.2,2.3,4,2.1,7.6,6,11.9,7,3.3.8,7.1-.3,9.3-2.6l.3-.3v.2ZM21.9,56.4c-2.1.3-6.2.3-8.2,0-1.7-.3-2.8-2.3-1.7-3.7.9-1.4,3.6-1.3,5.8-1.3s4.8,0,5.7,1.2c1.3,1.4.2,3.5-1.5,3.9h-.2.1ZM62.6,55.9c-2.1,1-4.3.6-8,.7h-10.1c-4.2-.3-8.7.7-11.8-.9-1.4-1.1-.9-3.2.7-3.8,1.7-.7,4.3-.5,7.9-.6h12.2c2.7,0,5.2-.2,7.8.3,2.8.5,3.2,3.1,1.5,4.2h-.2Z"/>
            <path d="M131.1,59.4c-.2-5.8,2.2-12.1-.7-17.7-3.1-6.7-11-10.8-18.2-9-5.6,1-11.3,7.6-16.3,8.9-3.9.8-6.8.2-11.1.4-21-.2-58.4.3-71.7-.2-5.8-1.1-10.1-7.3-15.6-9.3-10.2-4.1-21.5,4-21.5,14.9s.5,6.7.5,10.1-1.1,9,.3,13.4c2.2,7.4,10.2,12.6,17.8,11.1,7.3-1.1,12.8-9.2,20.3-8.5h79.2c6.6.3,12,8.4,18.9,9.3,6.3,1.2,13-1.9,16.2-7.4,3.1-4.8,2.5-10.4,2.1-15.8v-.2h-.2ZM107,74.1c-8.1-6.6-12.3-5.9-22.3-5.8H20.9c-4.5,0-8.6-.5-12.5.8-8.1,2.7-15,12.7-23.7,5-2.3-2.3-3.8-5.5-3.2-7.7.5-1.5,2.4-2,3.4-3.1,1.2-1.3.4-3-.3-4.6-.8-1.8-2.2-3.9-2.8-5.8-1.1-3-1.2-6.2-.1-9.2,2.5-7.3,11.2-9.1,17-4.4,6.8,5.5,10.7,8.4,19.9,7.8h71c5.8.3,10.2-.6,14.8-4,4.2-3.2,9.2-7,14.7-5,4.2,1,8.3,7,7.1,10.3-.4,1.3-1.8,1.6-3,2-3,.7-2.5,2.8-1.4,5.2,1.5,3,3.8,6,4.2,9.5,1.2,11.3-10.3,16.8-18.8,9.2l-.3-.2h.1Z"/>
            <path d="M21.9,51.6c-2.1-.3-6.2-.3-8.2,0-1.7.3-2.8,2.3-1.7,3.7.9,1.4,3.6,1.3,5.8,1.3s4.8,0,5.7-1.2c1.3-1.4.2-3.5-1.5-3.9h-.2.1ZM62.6,52.2c-2.1-1-4.3-.6-8-.7h-10.1c-4.2.3-8.7-.7-11.8.9-1.4,1.1-.9,3.2.7,3.8,1.7.7,4.3.5,7.9.6h12.2c2.7,0,5.2.2,7.8-.3,2.8-.5,3.2-3.1,1.5-4.2h-.2Z"/>
          </g>
          <g>
            <path class="cls-6" d="M29.9,56.4c12.1-1.3,14,7,21.6,13.3,3.7,3,9.1,3.8,13.6,1.9,5.5-2.4,7.8-9.1,12.4-12.3,4.3-3.4,11.2-1.9,14,2.6,3.3,5.2,1.3,12.4-1.2,17.7-5,10.2-13.4,17.6-24.6,20.8-18.3,5.7-41.7-2.5-48.9-20.4-3.7-10.4.7-22.2,12.8-23.5h.3Z"/>
            <path class="cls-8" d="M83,65.3c3.6,1.1-3.3,11.8-5.9,12.2-2.2.5-1.5-2.1-.6-3.2,1.7-2.1,3.5-4.3,4.6-6.8.4-.8.8-1.9,1.7-2.3h.2ZM27.7,66.4c1.6,0,3.1,3.6,4.2,5,5.9,9.5,17.9,13.6,28.6,12.6,2.1-.4,10.6-1.3,4.7,1.9-11.9,4.1-27.4-1.7-34.6-10.9-1.5-1.9-3-4.4-3.3-6.8-.1-.9,0-1.5.3-1.7h.1Z"/>
          </g>
          <g>
            <path class="cls-9" d="M97.5,45.3c-10.5,3.6-15.1-11.4-25.3-5.9-4.6,2.5-5.5,9.1-10.1,11.2-2.7,1.3-6.2.5-8-2.1-2.4-3.3-1.9-8.3-.8-12.2,5.4-19.6,32-26.5,46.6-13.4,7.2,5.9,8.3,19.3-2.1,22.3h-.3Z"/>
            <path class="cls-8" d="M60,45.5c-2.5-.4.9-8.9,2.8-9,1.4,0,.7,1.9.2,2.6-.8,1.4-1.6,3.1-2.1,4.8,0,.5-.4,1.3-.7,1.6,0,0-.2,0-.2,0ZM97.8,38.1c-1.2,0-3-2.3-4.2-3.3-5.4-5.5-13.9-6.6-20.9-4.6-.9.2-2.1.5-2.9.6-.9,0-1.4,0-1.4-.3s.4-.8,1.2-1.3c2.8-1.7,6.6-2.2,9.9-2.2,6.6.2,12.2,2.4,16.3,7,.8,1.1,2.2,2.9,1.9,4.1h0Z"/>
          </g>
        </g>
      </g>
    </g>
  </g>
</svg>