<?xml version="1.0" encoding="UTF-8"?>
<svg xmlns="http://www.w3.org/2000/svg" version="1.1" viewBox="0 0 120 120">
  <defs>
    <style>
      .cls-1, .cls-2, .cls-3 {
        fill-rule: evenodd;
      }

      .cls-1, .cls-3 {
        fill: #fff;
      }

      .cls-4 {
        fill: none;
      }

      .cls-5 {
        stroke: #19171a;
      }

      .cls-5, .cls-6, .cls-7, .cls-8, .cls-9, .cls-10, .cls-11 {
        stroke-linecap: round;
        stroke-linejoin: round;
        stroke-width: 1.8px;
      }

      .cls-6 {
        stroke: #191719;
      }

      .cls-7 {
        stroke: #191619;
      }

      .cls-12 {
        display: none;
      }

      .cls-8 {
        stroke: #19161a;
      }

      .cls-3, .cls-13 {
        stroke: #292b30;
        stroke-miterlimit: 10;
        stroke-width: 3px;
      }

      .cls-9 {
        stroke: #181619;
      }

      .cls-14 {
        fill: #fdfdfd;
      }

      .cls-10 {
        stroke: #18161a;
      }

      .cls-11 {
        stroke: #1a171a;
      }
    </style>
  </defs>
  <!-- Generator: Adobe Illustrator 28.6.0, SVG Export Plug-In . SVG Version: 1.2.0 Build 709)  -->
  <g>
    <g id="Ebene_1">
      <g id="Ebene_21">
        <g id="Ebene_1-5">
          <g class="cls-12">
            <path d="M81.6,108h-43.2c-2.2,0-3.9-1.8-3.9-3.9v-4l-1.6-.8h0c-14.9-9.5-23.8-25.6-23.8-43.2v-5.1c0-2.5,2.1-4.7,4.7-4.7h7.8c.9,0,1.7.6,1.7,1.5s-.6,1.7-1.5,1.7h-8c-.8,0-1.4.6-1.4,1.4v5.1c0,16.5,8.3,31.5,22.2,40.3l2.4,1.3c.5.3.9.8.9,1.4v4.9c0,.4.3.7.7.7h43.2c.4,0,.7-.3.7-.7v-2.4c0-.4-.3-.7-.7-.7h-38.4c-.9,0-1.6-.9-1.5-1.7,0-.8.7-1.4,1.5-1.5h38.4c2.2,0,3.9,1.8,3.9,3.9v2.4c0,2.2-1.8,3.9-3.9,3.9h0l-.2.2Z"/>
            <path d="M88.4,98.1c-.9,0-1.6-.7-1.6-1.6s.3-1,.7-1.3c12.7-8.9,20.3-23.5,20.3-39.1v-5.1c0-.8-.6-1.4-1.4-1.4H28.3c-.9,0-1.6-.9-1.5-1.7,0-.8.7-1.4,1.5-1.5h78c2.5,0,4.7,2.1,4.7,4.7v5.1c0,16.6-8.1,32.1-21.6,41.7-.3.2-.6.3-1,.3h0Z"/>
            <path d="M90.3,83.7c-.5,0-1-.4-.9-1,0-.3,0-.6.4-.7,7.3-5.1,11.6-13.4,11.6-22.3v-2.9c0-.4-.4-.8-.8-.8h-44.6c-.5,0-.9-.5-.9-1s.4-.8.9-.9h44.6c1.5,0,2.7,1.2,2.7,2.7v2.9c0,9.5-4.6,18.4-12.4,23.8-.2,0-.3.2-.6.2h0Z"/>
          </g>
          <g id="Generatives_Objekt-3">
            <g id="Background-3" class="cls-12">
              <rect class="cls-14" x="9" y="48.2" width="101.9" height="58"/>
            </g>
            <g>
              <path d="M79.2,71.8c2.3-.3,7.1,4.4,4.4,6.3-3.2,2.2-9.2-5.7-4.4-6.3Z"/>
              <path d="M61.1,74.6c3.2-.4,7.8,3.6,3.5,5.2-4.2,1.6-9.5-4.5-3.5-5.2Z"/>
              <path d="M30.6,45.8c5.2-.5,6.9,5.4.7,5.1-4.6-.3-5.4-4.6-.7-5.1Z"/>
              <path d="M85.6,92.1c4.9-.7,1,7.8-2.5,7.1-3.6-.7-.3-6.7,2.5-7.1Z"/>
              <path d="M54,87.3c2-.5,7.3,2.4,5.2,4.8-2.9,3.2-11.1-3.5-5.2-4.8Z"/>
              <path d="M27.4,60.1c2.9,0,6.5,3.1,1.6,4.9-5.5,2-8.1-4.7-1.6-4.9Z"/>
              <path d="M70.6,83.6c2.2-.6,7,4.4,4.4,6.4-2.7,2.2-8.9-5.2-4.4-6.4Z"/>
              <path d="M36.4,69.8c5.4-.5,0,8.3-3.5,6.5-3.3-1.7,1.1-6.3,3.5-6.5Z"/>
              <path d="M32,95.4c2.4-1,6.8,5.5,3.5,7.2-2.7,1.3-7.2-5.7-3.5-7.2Z"/>
              <path d="M45.7,58.7c2.7-.9,4.1,3.3.2,6.2-5,3.7-5-4.7-.2-6.2Z"/>
              <path d="M72.7,99.1c5.4-1.2.8,8.6-3,6.7-2.9-1.5.7-6.2,3-6.7Z"/>
              <path d="M97.6,80.4c3.6-.7,4.2,3.6-.5,5.8-5.3,2.4-4.7-4.8.5-5.8Z"/>
              <path d="M104.1,48c3.5,0,2.4,7.7-.9,7.8-3.8,0-2-7.7.9-7.8Z"/>
              <path d="M15.4,51.2c3.1-1.1,4.7,7.4.9,7.9-2.9.4-4-6.9-.9-7.9Z"/>
              <path d="M47.5,73.9c3.8-.7,3.2,8-.5,7.8-3-.2-2.4-7.2.5-7.8Z"/>
              <path d="M49.1,102.1c1.8-.5,7.1,1.1,5.4,3.7-2.8,4-12.3-1.8-5.4-3.7Z"/>
              <path d="M15.2,69.8c1.6-.7,5.7,2.6,5.3,5.1-.9,5.4-9.9-3.1-5.3-5.1Z"/>
              <path d="M103.4,65.4c2.6-1,4.6,5.3,2.2,7.3-3.3,2.9-5.7-6-2.2-7.3Z"/>
              <path d="M60.5,56.3c3.3-1.8,4.8,7.5.7,7.8-3.1.2-3.2-6.4-.7-7.8Z"/>
              <path d="M21.4,82.9c2.5-.9,5.9,5.8,2.5,7.4-2.9,1.3-6-6.2-2.5-7.4Z"/>
              <path d="M86.5,49.7c2.5-.6,6.5,5.1,3.9,6.8-2.9,1.9-8.1-5.8-3.9-6.8Z"/>
              <path d="M39.7,83.9c3.8-1.6,3.3,7.8-.5,7.6-3.2,0-2.3-6.5.5-7.6Z"/>
            </g>
            <g>
              <path class="cls-5" d="M15.4,51.2c3.1-1.1,4.7,7.4.9,7.9-2.9.4-4-6.9-.9-7.9Z"/>
              <path class="cls-9" d="M15.2,69.8c1.6-.7,5.7,2.6,5.3,5.1-.9,5.4-9.9-3.1-5.3-5.1Z"/>
              <path class="cls-10" d="M21.4,82.9c2.5-.9,5.9,5.8,2.5,7.4-2.9,1.3-6-6.2-2.5-7.4Z"/>
              <path class="cls-5" d="M27.4,60.1c2.9,0,6.5,3.1,1.6,4.9-5.5,2-8.1-4.7-1.6-4.9Z"/>
              <path class="cls-7" d="M32,95.4c2.4-1,6.8,5.5,3.5,7.2-2.7,1.3-7.2-5.7-3.5-7.2Z"/>
              <path class="cls-8" d="M36.4,69.8c5.4-.5,0,8.3-3.5,6.5-3.3-1.7,1.1-6.3,3.5-6.5Z"/>
              <path class="cls-5" d="M30.6,45.8c-4.7.5-3.9,4.8.7,5.1,6.2.3,4.5-5.6-.7-5.1Z"/>
              <path class="cls-5" d="M39.7,83.9c3.8-1.6,3.3,7.8-.5,7.6-3.2,0-2.3-6.5.5-7.6Z"/>
              <path class="cls-5" d="M45.7,58.7c2.7-.9,4.1,3.3.2,6.2-5,3.7-5-4.7-.2-6.2Z"/>
              <path class="cls-11" d="M47.5,73.9c3.8-.7,3.2,8-.5,7.8-3-.2-2.4-7.2.5-7.8Z"/>
              <path class="cls-5" d="M49.1,102.1c1.8-.5,7.1,1.1,5.4,3.7-2.8,4-12.3-1.8-5.4-3.7Z"/>
              <path class="cls-8" d="M54,87.3c2-.5,7.3,2.4,5.2,4.8-2.9,3.2-11.1-3.5-5.2-4.8Z"/>
              <path class="cls-5" d="M61.1,74.6c3.2-.4,7.8,3.6,3.5,5.2-4.2,1.6-9.5-4.5-3.5-5.2Z"/>
              <path class="cls-8" d="M60.5,56.3c3.3-1.8,4.8,7.5.7,7.8-3.1.2-3.2-6.4-.7-7.8Z"/>
              <path class="cls-5" d="M72.7,99.1c5.4-1.2.8,8.6-3,6.7-2.9-1.5.7-6.2,3-6.7Z"/>
              <path class="cls-6" d="M70.6,83.6c2.2-.6,7,4.4,4.4,6.4-2.7,2.2-8.9-5.2-4.4-6.4Z"/>
              <path class="cls-9" d="M79.2,71.8c2.3-.3,7.1,4.4,4.4,6.3-3.2,2.2-9.2-5.7-4.4-6.3Z"/>
              <path class="cls-5" d="M85.6,92.1c4.9-.7,1,7.8-2.5,7.1-3.6-.7-.3-6.7,2.5-7.1Z"/>
              <path class="cls-8" d="M86.5,49.7c2.5-.6,6.5,5.1,3.9,6.8-2.9,1.9-8.1-5.8-3.9-6.8Z"/>
              <path class="cls-10" d="M97.6,80.4c3.6-.7,4.2,3.6-.5,5.8-5.3,2.4-4.7-4.8.5-5.8Z"/>
              <path class="cls-5" d="M104.1,48c3.5,0,2.4,7.7-.9,7.8-3.8,0-2-7.7.9-7.8Z"/>
              <path class="cls-5" d="M103.4,65.4c2.6-1,4.6,5.3,2.2,7.3-3.3,2.9-5.7-6-2.2-7.3Z"/>
            </g>
          </g>
          <g class="cls-12">
            <path class="cls-4" d="M105,88.2c1.3-1.3,2.1-3.1,2.2-4.9,0-1,0-2-.6-3,0-.2-.2-.4-.3-.6-.6-1.3-1.8-3.3-3.9-5-.7-.6-.9-1.6-.3-2.4.6-.7,1.6-.9,2.4-.3s1.5,1.3,2.1,1.9c0,0,0-.3.2-.4.3-.9.7-1.7.7-2.4,0-3.8-3.5-7-7.4-7.1-2.3,0-4.4,1-5.8,2.7-1.9,2.4-4.7,3.8-7.7,3.8h-53c-3.2,0-6.2-1.5-8-4.1-1.4-1.9-3.6-3.1-6-3-1.9,0-3.6.8-5,2.1s-2.1,3.1-2.2,4.9c0,1,.1,2,.6,3,.1.3.2.6.3.9h0s.3.9.8,1.9c.4.9,1.2,2,2.3,2.5.8.5,1.1,1.5.7,2.3-.3.6-.9.9-1.5.9s-.6,0-.8-.2c-.7-.4-1.4-1-1.9-1.5-.3.8-.4,1.6-.3,2.5,0,1.7.8,3.5,2.2,4.8,1.3,1.3,3.1,2.1,4.8,2.2,2.2,0,4.4-.8,5.8-2.5,1.9-2.2,4.6-3.5,7.5-3.5h54c3,0,5.8,1.4,7.7,3.8,1.4,1.8,3.5,2.8,5.8,2.7,1.8,0,3.5-.6,4.8-2h-.2ZM38.8,76.5h-4.8c-1,0-1.7-.8-1.7-1.7s.8-1.7,1.7-1.7h4.8c1,0,1.7.8,1.7,1.7s-.8,1.7-1.7,1.7ZM64.6,76.5h-17.4c-1,0-1.7-.8-1.7-1.7s.8-1.7,1.7-1.7h17.4c1,0,1.7.8,1.7,1.7s-.8,1.7-1.7,1.7Z"/>
            <path d="M109.6,78.5c-.3-1-.2-2.2.2-3.2,0,0,0-.3.2-.4.5-1.1,1-2.4,1-3.9,0-2.7-1.3-5.3-3.4-7.3-2.1-1.9-4.7-3.1-7.4-3.1s-6.5,1.4-8.6,4.1c-1.3,1.6-3.1,2.5-5,2.5h-52.9c-2.1,0-4.1-1-5.2-2.6-2-2.9-5.4-4.5-8.9-4.4-2.8,0-5.4,1.1-7.3,3s-3.1,4.5-3.2,7.3c0,1.5.2,3,.8,4.4.5,1.2.5,2.5,0,3.7-.5,1.4-.8,2.9-.8,4.4,0,2.6,1.2,5.1,3.1,7.1,1.9,1.9,4.4,3.1,7.1,3.2,3.3,0,6.4-1.2,8.6-3.7,1.2-1.4,3-2.2,4.8-2.2h54c1.9,0,3.8.9,5,2.5,2,2.6,5.1,4.1,8.3,4.1h.2c2.7,0,5.3-1.2,7.3-3.1s3.1-4.5,3.2-7.3c0-1,0-2-.3-3,0-.2-.2-1-.6-1.9h0l-.2-.2ZM94.3,87.6c-1.9-2.4-4.7-3.8-7.7-3.8h-54c-2.9,0-5.6,1.3-7.5,3.5-1.5,1.7-3.6,2.6-5.8,2.5-1.7,0-3.5-.9-4.8-2.2s-2.1-3.1-2.2-4.8c0-.9,0-1.7.3-2.5.6.6,1.2,1.1,1.9,1.5.3,0,.6.2.8.2.6,0,1.2-.3,1.5-.9.5-.8.2-1.9-.7-2.3-1.1-.6-1.9-1.7-2.3-2.5-.5-1-.8-1.9-.8-1.9h0c0-.3-.2-.6-.3-.9-.4-1-.6-1.9-.6-3,0-1.9.8-3.6,2.2-4.9s3.1-2.1,5-2.1,4.6,1.1,6,3c1.8,2.5,4.8,4.1,8,4.1h53c3,0,5.8-1.4,7.7-3.8,1.4-1.8,3.5-2.8,5.8-2.7,3.9,0,7.3,3.3,7.4,7.1,0,.8-.3,1.6-.7,2.4,0,0,0,.3-.2.4-.6-.6-1.3-1.3-2.1-1.9-.7-.6-1.8-.4-2.4.3-.6.7-.4,1.8.3,2.4,2.2,1.6,3.3,3.6,3.9,5,0,.2,0,.4.3.6.4,1,.6,1.9.6,3,0,1.9-.8,3.6-2.2,4.9s-3.1,2.1-4.9,2.1-4.3-1-5.7-2.8h.2Z"/>
            <path d="M38.8,73.1h-4.8c-1,0-1.7.8-1.7,1.7s.8,1.7,1.7,1.7h4.8c1,0,1.7-.8,1.7-1.7s-.8-1.7-1.7-1.7ZM64.6,73.1h-17.4c-1,0-1.7.8-1.7,1.7s.8,1.7,1.7,1.7h17.4c1,0,1.7-.8,1.7-1.7s-.8-1.7-1.7-1.7Z"/>
          </g>
          <g class="cls-12">
            <path class="cls-13" d="M43.6,74.7c5.6-.5,9.3.9,11.2,4,1.3,2.2,2.9,4.1,4.8,5.5,1.1,1.3,3,1.8,5.7,1.6,2-.6,3.5-1.8,4.5-3.5,1.2-2.4,2.8-4.4,4.8-6,1.3-.9,2.9-1.3,5.1-1.3,2.7.6,4.7,1.9,6,3.8,1.1,1.4,1.6,3.4,1.6,5.9-1.3,6.7-4.1,12-8.4,15.6-4.7,4.9-11.8,7.4-21.4,7.5-8.6-1.1-15.1-4.4-19.5-9.7-3.3-2.8-4.9-7.3-4.6-13.7.6-3,2-5.3,4-6.8,1.6-1.4,3.7-2.3,6.2-2.9h0Z"/>
            <path class="cls-1" d="M44.1,76.2c4.6-.3,7.7.9,9.4,3.5,1.3,2.2,2.9,4,4.8,5.5,1.5,1.7,4,2.4,7.5,2.1,1.9-.4,3.3-1.3,4.3-2.7,1.5-2.7,3.3-5.1,5.5-7.1,1-.8,2.5-1,4.6-.8,1.8.6,3.2,1.6,4.3,3,1.1,1.3,1.4,3.4,1,6.2-1.4,5.6-4,10.1-7.9,13.3-4.4,4.3-10.7,6.7-19.1,7-8.6-.9-15-3.9-19.2-9.2-3-2.5-4.5-6.5-4.4-12.1.6-2.8,1.8-4.9,3.8-6.3,1.4-1.2,3.2-1.9,5.4-2.3h0ZM84,77.8l1,1.3-1-1.3Z"/>
            <path class="cls-2" d="M78.4,82.2l.9.4.3.5c-.7,2.6-2,5.1-4,6.8h0l-.8.3-.6-.4c0-1.6,1-1.8,1.8-2.9,1.1-1.4,1.9-3,2.5-4.8h-.1ZM43.1,82.5h1.2c.2,1,.5,1.8.8,2.5,3,6.9,10.9,9.3,17.9,9.3h0l5.1-1.3c.5,0,.7.5.6,1.2-2.3,1.6-5.6,2.2-9.9,1.7-5.7-.9-10-3.1-13-6.6-1.7-1.5-2.7-3.7-3.1-6.4l.4-.4h0Z"/>
          </g>
          <g class="cls-12">
            <path d="M89,70.1c-3.8,1-6.5.6-8.2-1.4-1.1-1.3-2.4-2.4-3.9-3.2-.9-.8-2.2-.9-4.1-.3-1.3.7-2.2,1.6-2.7,2.9-.6,1.8-1.4,3.4-2.5,4.8-.7.8-1.9,1.3-3.4,1.5-1.9,0-3.4-.7-4.6-1.8-.9-.8-1.5-2.1-1.8-3.9,0-4.8,1.3-8.7,3.8-11.7,2.6-3.9,7.2-6.5,13.7-7.7,6-.3,10.8,1.2,14.5,4.2,2.6,1.5,4.2,4.4,4.8,8.8,0,2.1-.7,3.8-1.9,5.2-.9,1.2-2.2,2.1-3.9,2.7h.2Z"/>
            <path class="cls-3" d="M88.4,69.1c-3.1.8-5.4.3-6.9-1.3-1.1-1.3-2.5-2.4-3.9-3.2-1.3-1-3-1.1-5.4-.5-1.2.5-2.1,1.3-2.6,2.4-.7,2.1-1.6,3.9-2.9,5.5-.6.7-1.6,1-3.1,1.1-1.3-.2-2.4-.7-3.3-1.5-.9-.8-1.4-2.2-1.5-4.1.3-4,1.5-7.4,3.8-10.1,2.5-3.5,6.5-5.9,12.2-7.1,6-.5,10.8.9,14.3,3.9,2.4,1.3,3.8,3.9,4.5,7.8,0,2-.6,3.6-1.8,4.8-.8,1-2,1.7-3.4,2.2h0ZM60.9,72.9l-.9-.8.9.8Z"/>
            <path class="cls-2" d="M64.3,69.3l-.6-.2-.3-.3c.2-1.9.7-3.7,1.9-5.2h0l.5-.3.5.2c.2,1-.4,1.4-.9,2.2-.6,1.1-1,2.3-1.1,3.5h0ZM88.4,64.8h-.8c-.3-.5-.5-1-.9-1.5-2.9-4.4-8.6-5.1-13.4-4.2h0l-3.4,1.5c-.3,0-.6-.2-.6-.7,1.3-1.4,3.5-2.2,6.6-2.4,4,0,7.2.9,9.7,2.9,1.3.8,2.3,2.2,2.9,4l-.2.3h.1Z"/>
          </g>
        </g>
        <g id="Ebene_1-6">
          <g class="cls-12">
            <path d="M81.5,13.3h0c2.2,0,3.9,1.8,3.9,3.9v2.4c0,2.2-1.8,3.9-3.9,3.9h-38.4c-.8,0-1.5-.7-1.5-1.5s.6-1.6,1.5-1.7h38.4c.4,0,.7-.3.7-.7v-2.4c0-.4-.3-.7-.7-.7h-43.2c-.4,0-.7.3-.7.7v4.9c0,.6-.3,1.1-.9,1.4l-2.4,1.3c-13.9,8.8-22.2,23.9-22.2,40.3v5.1c0,.8.6,1.4,1.4,1.4h8c.9,0,1.6.8,1.5,1.7,0,.9-.8,1.6-1.7,1.5h-7.8c-2.6,0-4.7-2.1-4.7-4.7v-5.1c0-17.6,8.9-33.7,23.8-43.2h0l1.6-.8v-4c0-2.2,1.8-3.9,3.9-3.9h43.2l.2.2Z"/>
            <path d="M88.2,23.2c.3,0,.6,0,1,.3,13.6,9.5,21.6,25.1,21.6,41.7v5.1c0,2.6-2.1,4.7-4.7,4.7H28.1c-.8,0-1.5-.7-1.5-1.5s.6-1.6,1.5-1.7h78c.8,0,1.4-.6,1.4-1.4v-5.1c0-15.6-7.6-30.1-20.3-39.1-.4-.3-.7-.8-.7-1.3,0-.9.7-1.6,1.6-1.6h0Z"/>
            <path d="M90.1,37.6c.2,0,.4,0,.6.2,7.7,5.5,12.4,14.3,12.4,23.8v2.9c0,1.5-1.2,2.7-2.7,2.7h-44.6c-.5,0-.9-.4-.9-.9s.3-1,.9-1h44.6c.4,0,.8-.4.8-.8v-2.9c0-8.9-4.3-17.2-11.6-22.3-.3-.2-.4-.4-.4-.7,0-.5.4-1,.9-1h0Z"/>
          </g>
          <g id="Generatives_Objekt-4">
            <g id="Background-4" class="cls-12">
              <rect class="cls-14" x="8.9" y="15.1" width="101.9" height="58"/>
            </g>
            <g>
              <path d="M83.4,43.2c2.7,1.9-2.1,6.6-4.4,6.3-4.8-.6,1.2-8.5,4.4-6.3Z"/>
              <path d="M64.5,41.5c4.3,1.6-.3,5.6-3.5,5.2-6-.7-.7-6.8,3.5-5.2Z"/>
              <path d="M80.4,60.4c2.7,1.9-2.1,6.4-4.1,6.4-5.1,0,.8-8.7,4.1-6.4Z"/>
              <path d="M83,22.1c3.6-.7,7.5,7.8,2.5,7.1-2.8-.4-6.1-6.4-2.5-7.1Z"/>
              <path d="M59.1,29.2c2.1,2.4-3.2,5.3-5.2,4.8-5.8-1.3,2.3-8,5.2-4.8Z"/>
              <path d="M74.9,31.2c2.5,2.1-2.2,7-4.4,6.4-4.5-1.3,1.7-8.6,4.4-6.4Z"/>
              <path d="M35.4,18.7c3.3,1.6-1,8.1-3.5,7.2-3.8-1.5.8-8.5,3.5-7.2Z"/>
              <path d="M69.5,15.5c3.8-1.9,8.4,7.9,3,6.7-2.3-.5-6-5.2-3-6.7Z"/>
              <path d="M97,35.1c4.7,2.2,4.1,6.5.5,5.8-5.1-1-5.7-8.2-.5-5.8Z"/>
              <path d="M103.1,65.4c3.3,0,4.4,7.9.9,7.8-2.9,0-4.7-7.9-.9-7.8Z"/>
              <path d="M46.9,39.6c3.7-.2,4.2,8.6.5,7.8-2.9-.6-3.5-7.6-.5-7.8Z"/>
              <path d="M54.4,15.5c1.8,2.6-3.6,4.2-5.4,3.7-6.9-1.9,2.6-7.7,5.4-3.7Z"/>
              <path d="M105.5,48.6c2.3,2,.4,8.3-2.2,7.3-3.5-1.3-1.1-10.2,2.2-7.3Z"/>
              <path d="M61,57.2c4.1.3,2.6,9.6-.7,7.8-2.5-1.4-2.4-7.9.7-7.8Z"/>
              <path d="M23.8,31c3.4,1.6,0,8.3-2.5,7.4-3.5-1.2-.3-8.7,2.5-7.4Z"/>
              <path d="M90.3,64.8c2.5,1.7-1.5,7.4-3.9,6.8-4.2-1,1.1-8.7,3.9-6.8Z"/>
              <path d="M39.1,29.8c3.8-.1,4.3,9.2.5,7.6-2.8-1.1-3.7-7.5-.5-7.6Z"/>
            </g>
            <g>
              <path class="cls-10" d="M23.8,31c3.4,1.6,0,8.3-2.5,7.4-3.5-1.2-.3-8.7,2.5-7.4Z"/>
              <path class="cls-7" d="M35.4,18.7c3.3,1.6-1,8.1-3.5,7.2-3.8-1.5.8-8.5,3.5-7.2Z"/>
              <path class="cls-5" d="M39.1,29.8c3.8-.1,4.3,9.2.5,7.6-2.8-1.1-3.7-7.5-.5-7.6Z"/>
              <path class="cls-11" d="M46.9,39.6c3.7-.2,4.2,8.6.5,7.8-2.9-.6-3.5-7.6-.5-7.8Z"/>
              <path class="cls-5" d="M54.4,15.5c1.8,2.6-3.6,4.2-5.4,3.7-6.9-1.9,2.6-7.7,5.4-3.7Z"/>
              <path class="cls-8" d="M59.1,29.2c2.1,2.4-3.2,5.3-5.2,4.8-5.8-1.3,2.3-8,5.2-4.8Z"/>
              <path class="cls-5" d="M64.5,41.5c4.3,1.6-.3,5.6-3.5,5.2-6-.7-.7-6.8,3.5-5.2Z"/>
              <path class="cls-8" d="M61,57.2c4.1.3,2.6,9.6-.7,7.8-2.5-1.4-2.4-7.9.7-7.8Z"/>
              <path class="cls-5" d="M69.5,15.5c3.8-1.9,8.4,7.9,3,6.7-2.3-.5-6-5.2-3-6.7Z"/>
              <path class="cls-6" d="M74.9,31.2c2.5,2.1-2.2,7-4.4,6.4-4.5-1.3,1.7-8.6,4.4-6.4Z"/>
              <path class="cls-8" d="M80.4,60.4c2.7,1.9-2.1,6.4-4.1,6.4-5.1,0,.8-8.7,4.1-6.4Z"/>
              <path class="cls-9" d="M83.4,43.2c2.7,1.9-2.1,6.6-4.4,6.3-4.8-.6,1.2-8.5,4.4-6.3Z"/>
              <path class="cls-5" d="M83,22.1c3.6-.7,7.5,7.8,2.5,7.1-2.8-.4-6.1-6.4-2.5-7.1Z"/>
              <path class="cls-8" d="M90.3,64.8c2.5,1.7-1.5,7.4-3.9,6.8-4.2-1,1.1-8.7,3.9-6.8Z"/>
              <path class="cls-10" d="M97,35.1c4.7,2.2,4.1,6.5.5,5.8-5.1-1-5.7-8.2-.5-5.8Z"/>
              <path class="cls-5" d="M103.1,65.4c3.3,0,4.4,7.9.9,7.8-2.9,0-4.7-7.9-.9-7.8Z"/>
              <path class="cls-5" d="M105.5,48.6c2.3,2,.4,8.3-2.2,7.3-3.5-1.3-1.1-10.2,2.2-7.3Z"/>
            </g>
          </g>
          <g class="cls-12">
            <path class="cls-4" d="M104.9,33.1c-1.3-1.3-3.1-2.1-4.8-2-2.3,0-4.4.9-5.8,2.7-1.9,2.4-4.7,3.8-7.7,3.8h-54c-2.9,0-5.6-1.3-7.5-3.5-1.5-1.7-3.6-2.6-5.8-2.5-1.7,0-3.5.9-4.8,2.2s-2.1,3.1-2.2,4.8c0,.8,0,1.7.3,2.5.5-.6,1.2-1.1,1.9-1.5.3,0,.2-.2.8-.2s1.2.3,1.5.9c.4.8.1,1.9-.7,2.3-1.1.6-1.9,1.7-2.3,2.5-.5,1-.8,1.9-.8,1.9h0c0,.3-.2.6-.3.9-.4,1-.6,1.9-.6,3,0,1.9.8,3.6,2.2,4.9s3.1,2.1,5,2.1,4.6-1.1,6-3c1.8-2.5,4.8-4.1,8-4.1h53c3,0,5.8,1.3,7.7,3.8,1.4,1.8,3.5,2.7,5.8,2.7,3.9,0,7.3-3.4,7.4-7.1,0-.7-.3-1.6-.7-2.4,0,0,0-.3-.2-.4-.6.6-1.3,1.3-2.1,1.9-.8.6-1.9.4-2.4-.3-.6-.8-.4-1.9.3-2.4,2.2-1.6,3.3-3.6,3.9-5,0-.2.2-.4.3-.6.4-1,.6-1.9.6-3,0-1.9-.8-3.6-2.2-4.9h.2ZM40.4,46.5c0,1-.8,1.7-1.7,1.7h-4.8c-1,0-1.7-.8-1.7-1.7s.8-1.7,1.7-1.7h4.8c1,0,1.7.8,1.7,1.7ZM66.2,46.5c0,1-.8,1.7-1.7,1.7h-17.4c-1,0-1.7-.8-1.7-1.7s.8-1.7,1.7-1.7h17.4c1,0,1.7.8,1.7,1.7Z"/>
            <path d="M109.4,42.8h0c.4-1,.6-1.7.6-1.9.3-1,.4-1.9.3-3,0-2.8-1.2-5.3-3.2-7.3s-4.5-3.1-7.3-3.1h-.2c-3.2,0-6.3,1.5-8.3,4.1-1.3,1.6-3.1,2.5-5,2.5h-54c-1.9,0-3.6-.8-4.8-2.2-2.1-2.5-5.3-3.8-8.6-3.7-2.6.1-5.1,1.3-7.1,3.2-1.9,2-3,4.5-3.1,7.1,0,1.5.3,3,.8,4.4.5,1.2.5,2.5,0,3.7-.6,1.4-.9,2.9-.8,4.4,0,2.7,1.3,5.3,3.2,7.3s4.5,3,7.3,3,6.8-1.6,8.9-4.4c1.2-1.6,3.2-2.6,5.2-2.6h52.9c1.9,0,3.8.9,5,2.5,2.1,2.6,5.2,4.1,8.6,4.1s5.4-1.2,7.4-3.1c2.1-2,3.3-4.6,3.4-7.3,0-1.5-.5-2.8-1-3.9,0,0,0-.3-.2-.4-.4-1-.5-2.1-.2-3.2h0l.2-.2ZM94.1,33.7c1.4-1.8,3.5-2.8,5.7-2.8s3.6.8,4.9,2.1,2.1,3.1,2.2,4.9c0,1-.2,2-.6,3,0,.2-.2.4-.3.6-.6,1.3-1.8,3.3-3.9,5-.7.6-.9,1.7-.3,2.4s1.7.9,2.4.3c.8-.6,1.5-1.3,2.1-1.9,0,0,0,.3.2.4.4.9.7,1.6.7,2.4,0,3.8-3.5,7-7.4,7.1-2.3,0-4.4-1-5.8-2.7-1.9-2.4-4.7-3.8-7.7-3.8h-53c-3.2,0-6.2,1.5-8,4.1-1.4,1.9-3.6,3-6,3s-3.6-.8-5-2.1-2.1-3.1-2.2-4.9c0-1,.2-2,.6-3,.1-.3.2-.6.3-.9h0s.3-.9.8-1.9,1.2-1.9,2.3-2.5c.9-.5,1.2-1.5.7-2.3-.3-.6-.9-.9-1.5-.9s-.6,0-.8.2c-.7.4-1.3,1-1.9,1.5-.3-.8-.4-1.6-.3-2.5,0-1.7.9-3.5,2.2-4.8s3-2.1,4.8-2.2c2.2-.1,4.4.8,5.8,2.5,1.9,2.2,4.6,3.5,7.5,3.5h54c3,0,5.8-1.4,7.7-3.8h-.2Z"/>
            <path d="M40.4,46.5c0-1-.8-1.7-1.7-1.7h-4.8c-1,0-1.7.8-1.7,1.7s.8,1.7,1.7,1.7h4.8c1,0,1.7-.8,1.7-1.7ZM66.2,46.5c0-1-.8-1.7-1.7-1.7h-17.4c-1,0-1.7.8-1.7,1.7s.8,1.7,1.7,1.7h17.4c1,0,1.7-.8,1.7-1.7Z"/>
          </g>
          <g class="cls-12">
            <path class="cls-13" d="M43.4,46.6c-2.5-.5-4.6-1.4-6.2-2.9-2-1.6-3.4-3.8-4-6.8-.3-6.4,1.3-10.9,4.6-13.7,4.4-5.3,10.9-8.6,19.5-9.7,9.6,0,16.7,2.5,21.4,7.5,4.3,3.6,7.1,8.9,8.4,15.6,0,2.5-.4,4.5-1.6,5.9-1.4,1.9-3.4,3.2-6,3.8-2.2,0-3.9-.4-5.1-1.3-1.9-1.6-3.5-3.7-4.8-6-1-1.7-2.5-2.9-4.5-3.5-2.7-.3-4.6.2-5.7,1.6-1.9,1.5-3.5,3.3-4.8,5.5-1.9,3.2-5.7,4.5-11.2,4h0Z"/>
            <path class="cls-1" d="M43.9,45c-2.2-.4-4-1.2-5.4-2.3-1.9-1.4-3.2-3.5-3.8-6.3,0-5.6,1.4-9.6,4.4-12.1,4.2-5.2,10.6-8.3,19.2-9.2,8.4.3,14.7,2.6,19.1,7,3.8,3.2,6.4,7.7,7.9,13.3.4,2.8,0,4.8-1,6.2s-2.5,2.4-4.3,3c-2.1.3-3.6,0-4.6-.8-2.2-2-4.1-4.4-5.5-7.1-1-1.4-2.4-2.3-4.3-2.7-3.5-.3-6,.4-7.5,2.1-1.9,1.5-3.5,3.4-4.8,5.5-1.7,2.6-4.8,3.8-9.4,3.5h0ZM84.9,42.2l-1,1.3,1-1.3Z"/>
            <path class="cls-2" d="M78.3,39.1h0c-.6-1.8-1.4-3.3-2.5-4.8-.8-1.1-1.8-1.3-1.8-2.9l.6-.4.8.3h0c2,1.8,3.3,4.2,4,6.8l-.3.5-.9.4h.1ZM42.9,38.8l-.4-.4c.4-2.8,1.4-4.9,3.1-6.4,3.1-3.5,7.4-5.7,13-6.6,4.4-.5,7.6,0,9.9,1.7,0,.7,0,1.1-.6,1.2l-5.1-1.3h0c-7,0-14.9,2.4-17.9,9.3-.3.8-.6,1.6-.8,2.4h-1.2c0,0,0,0,0,0h0Z"/>
          </g>
          <g class="cls-12">
            <path d="M88.9,51.1c1.7.6,3,1.5,3.9,2.7,1.2,1.3,1.8,3.1,1.9,5.2-.6,4.4-2.2,7.3-4.8,8.8-3.7,3.1-8.5,4.5-14.5,4.2-6.5-1.2-11.1-3.8-13.7-7.7-2.5-3-3.8-7-3.8-11.7.3-1.8.9-3.1,1.8-3.9,1.2-1.1,2.7-1.7,4.6-1.8,1.5.2,2.6.7,3.4,1.5,1.1,1.4,1.9,3,2.5,4.8.5,1.3,1.3,2.2,2.7,2.9,1.8.6,3.2.4,4.1-.3,1.5-.8,2.8-1.9,3.9-3.2,1.7-1.9,4.4-2.4,8.2-1.4h-.2Z"/>
            <path class="cls-3" d="M88.4,52.2c1.4.5,2.6,1.3,3.4,2.2,1.1,1.2,1.8,2.8,1.8,4.8-.6,3.8-2.1,6.4-4.5,7.8-3.5,3.1-8.3,4.4-14.3,3.9-5.7-1.2-9.8-3.6-12.2-7.1-2.2-2.7-3.5-6-3.8-10.1,0-1.9.6-3.3,1.5-4.1s1.9-1.3,3.3-1.5c1.5,0,2.5.4,3.1,1.1,1.3,1.6,2.2,3.5,2.9,5.5.5,1,1.4,1.9,2.6,2.4,2.3.6,4.1.4,5.4-.5,1.5-.8,2.8-1.9,3.9-3.2,1.5-1.6,3.8-2,6.9-1.3h0ZM59.9,49.2l.9-.8-.9.8Z"/>
            <path class="cls-2" d="M64.1,52c.2,1.3.6,2.4,1.1,3.5.4.8,1,1.2.9,2.2l-.5.2-.5-.3h0c-1.2-1.5-1.7-3.3-1.9-5.2l.3-.3.6-.2h0ZM88.2,56.6l.2.3c-.6,1.9-1.6,3.2-2.9,4-2.5,2-5.7,3-9.7,2.9-3.1-.2-5.3-1-6.6-2.4,0-.5.3-.7.6-.7l3.4,1.5h0c4.8.9,10.5.2,13.4-4.2.3-.5.6-1,.9-1.5h.8-.1Z"/>
          </g>
        </g>
      </g>
    </g>
  </g>
</svg>