<?xml version="1.0" encoding="UTF-8"?>
<svg xmlns="http://www.w3.org/2000/svg" version="1.1" viewBox="0 0 256 256">
  <defs>
    <style>
      .cls-1, .cls-2 {
        stroke-width: 3px;
      }

      .cls-1, .cls-2, .cls-3, .cls-4 {
        stroke: #000;
        stroke-miterlimit: 10;
      }

      .cls-1, .cls-5, .cls-3, .cls-6, .cls-4 {
        fill: #fff;
      }

      .cls-6, .cls-7 {
        display: none;
      }

      .cls-4 {
        stroke-width: .8px;
      }
    </style>
  </defs>
  <!-- Generator: Adobe Illustrator 28.6.0, SVG Export Plug-In . SVG Version: 1.2.0 Build 709)  -->
  <g>
    <g id="Ebene_1">
      <g class="cls-7">
        <path d="M192.4,10.5c-6,2.7-11.7,10.2-14.4,18.8-1.3,4.2-1.3,6.1,0,7.3.9.8,1.1.8,1.5.2.2-.4,1.8-3.1,3.4-6.1,5.6-10.1,9.5-14.9,11.1-13.6,1.1.9,1.4,5.2.8,10.8-1.1,10.8-4.7,23-10.8,37.1-1,2.3-2,4.6-2.3,5.3-.4,1.1-.5,1-2-2.4-2.6-5.9-3.9-8.3-5.6-9.9-3.3-3.1-7.1-3.4-12.2-.9-8,4-20.4,14.9-26.2,23.1-3.6,5.1-7.1,11.8-9,17.4-.9,2.5-1.6,4.6-1.6,4.7,0,0-1.9-1.1-4.1-2.8-7.4-5.3-16.9-9.4-27-11.6-4.2-.9-6.3-1.1-16.3-1.1s-11.6,0-13.9,1.1c-3,1.4-4,2.3-5.1,4.6-1.2,2.6-1.1,6.2.2,12.3,3.8,16.6,11.5,31.5,21.9,42.3,2.6,2.7,5.5,5.4,6.4,6s1.7,1.2,1.6,1.4c0,.1-1.7,1.5-3.8,3.1-11.4,8.6-22.2,23.7-28,39.4-1.4,3.9-1.7,5.3-1.7,8.3s0,4,.2,4.5c0,.8-1.3,1.8-7.7,5.4-16.9,9.8-26.4,16.1-32.2,21.8-3.5,3.4-6.3,7.7-5.5,8.5,1,1,28.8-10.6,46.4-19.3,5.3-2.7,7-3.4,6.3-2.5-.5.6-2.5,2.9-4.4,5-8.5,9.6-12.4,15.8-11.2,17.2.3.4,1.1.7,1.6.7,1.4,0,19.2-14,32.3-25.5l3.1-2.6,6.3-.3c3.5-.1,7.9-.6,9.7-1,9.4-2.1,18.9-6.2,26.3-11.6,2.4-1.7,4.4-3.1,4.5-3.1s1.1,1.7,2.3,3.7c4.7,8.5,13.9,18.6,23.1,25.1,5.2,3.6,16.9,9.7,23.1,11.8,6,2.1,8.3,2.3,11.1,1.1,5.5-2.4,8.2-10.6,8.8-26.2.4-11.9-1-21-4.7-30.4-.9-2.3-1.6-4.3-1.6-4.5s2-1,4.4-1.6c9.6-2.4,19.5-7.4,28.1-13.9,5.4-4.1,13.7-11.7,16.1-14.8,3.1-3.9,4.3-6.6,4.3-9.7,0-4.4-2.1-7.2-8.4-11.3-12.6-8-25.5-12.5-38-13.2l-6.3-.3,4.4-5.7c5.7-7.4,16-23.1,20.8-31.3,11.6-20.2,23.5-48.6,24.1-57.3.4-5.8-1.4-8.8-5.3-8.8-6.4,0-14.4,8.1-19.3,19.8-3,6.9-1.8,6.9,5.5-.3,4.6-4.5,8.5-7.5,9.9-7.5s-1.9,8-8.1,20.8c-8.2,16.7-17.5,31.7-32,51.2l-5.3,7.1-.3-5c-.8-11-.9-10.1,2.3-17.2,7.8-17.2,12.5-35.8,13.6-54.2.6-9.1.3-13.6-1.3-17-1.8-3.4-5.7-4.4-9.9-2.4ZM170.2,70.3c4.5,9.7,6.8,19.8,7.2,31.2.3,8.1-.6,16.1-1.9,19-.4.8-1.8,1.6-4.9,2.9l-4.4,1.7-1.5-3.4c-1.9-4.2-4.4-7.7-6.4-9-3.3-2-7.8-.4-14.4,5.2-1.6,1.4-3.1,2.5-3.2,2.5s-1.1-1.3-2.3-3c-1.1-1.6-2.7-3.9-3.5-5l-1.5-2.1,1.3-5.1c3.7-14.6,13.3-27.3,28.4-37.4,4.8-3.2,4.4-3.3,7.1,2.5ZM85,96.7c9.3,1,16.7,3.2,24,6.9,5.5,2.8,9.7,6.1,14.5,11.2,4.1,4.3,9.9,12.4,9.9,13.7s-1.4.7-8.6.7-15.2.6-17.8,1.8c-1.5.7-1.7,1-1.6,2.6,0,2.3,3.5,8.9,8.2,16.1,2.1,3.2,3.9,6.2,3.9,6.6,0,.9-1.2.7-5.9-.9-3.7-1.2-13.7-5.6-13.7-6.1s-1.4-1.3-3.1-2.6c-1.7-1.2-5-4.3-7.4-6.8-9.6-10-16.2-23.1-19.3-38-.5-2.6-1-4.9-1-5.1.3-.6,12.1-.8,17.9-.1ZM207.3,130.2c2.6.5,6.2,1.5,8.1,2.2,3.8,1.4,15,6.9,18.7,9.3l2.3,1.4-2.2,2.8c-5.1,6.7-16.4,16.1-24.3,20.2-6.5,3.4-14.9,6.4-21.1,7.4-1.6.3-1.9.1-3.1-1.5-.8-1-2.5-3.2-4-4.8-1.4-1.7-2.4-3.2-2.2-3.4s2.4-1.7,4.8-3.4c4.3-2.9,8.8-7.1,8.8-8.3s-1.1-1.7-2.5-3c-2.5-2.4-10.3-6.8-17.1-9.6-5.7-2.3-5.8-3.8-.6-5.9,6.8-2.7,11.3-3.8,18.8-4.6,3.3-.4,10.9.2,15.6,1.2ZM102.4,162.4c2,.9,5.4,2.2,7.6,2.8,3.4,1,3.9,1.3,3.7,2.1,0,.5-.9,3.4-1.7,6.5-1.7,6.3-1.9,9.6-.7,10.8.7.7,1.5.8,5.9.5,2.8-.2,8.1-1,12-1.7,3.8-.8,7-1.3,7.1-1.3.1.1-1.5,2.1-3.4,4.5-9.4,11.3-21,18.2-35.7,20.9-8.3,1.6-22.1,1.1-30.7-1.2l-1.8-.5,1.7-4.8c3.8-11,10-20.8,18.3-29.2,3.3-3.3,7.2-6.7,9.6-8.2,2.3-1.5,4.2-2.7,4.3-2.7s1.8.6,3.8,1.5ZM179,179.2c8,11.3,11.5,25,10.4,40.5-.4,5-2,14.6-2.6,15.2-.4.4-9-2.9-13.7-5.2-14.3-7.2-26.3-18.5-32.4-30.5l-2.2-4.4,3.3-4c1.8-2.2,3.4-4,3.5-3.9.1,0,2.4,1.5,5.1,3.3,5.3,3.6,11.8,6.9,13.5,6.9,2.9,0,5-5.9,6.4-18,.3-2.6.6-5.7.8-6.9l.3-2.2,2.6,2.9c1.5,1.7,3.8,4.5,5,6.3Z"/>
      </g>
      <g class="cls-7">
        <path class="cls-6" d="M5,139V4.6h246v128.2c-4.1-10.7-12.6-15.8-23.4-17.5,0-4.6.1-8.4,0-12.3-.3-7.8-3.3-9.9-10.6-7.9-11.4,3.2-22.8,6.4-34.3,9.4-1.9.5-4.1.8-5.9.4-8.8-1.8-17.5-3.8-25.6-5.6-.5-8.6-10.7-7.8-12.3-13.6,4.2-4.9,8.2-9.6,12.4-14.6-9.5-1.6-17.4-3-25.1-4.3.4-5.9.8-10.5,1.2-15.8-9.6,4-17.9,7.4-25.7,10.6-2.5-1.1-6.3-4.2-8.3-3.3-3,1.4-4.8,5.5-6,7-10.6,6.3-20.1,11.9-31,18.4,4.3,2.4,7.5,4.1,10.8,5.9-1.3,2.2-2.9,4.1-3.7,6.4-2.2,6.4-6,7.1-11.7,4.4-4.8-2.3-10.6-2.6-12.8,2.9-2.7,7-8.7,14.1-3.1,22.4.4.7,1.3,1,1.8,1.6.7.8,1.3,1.7,3,3.9-8.2,1-15.2,1.5-22.1,2.9-4.6.9-9,3.1-13.5,4.7Z"/>
        <path class="cls-6" d="M251,145.1v106H5c0-35.7,0-71.5,0-107.2,1,2.9,3.1,6,2.8,8.8-1.2,9.7,1.5,13,11.2,11.9,10.8-1.2,21.5-3,32.3-4.2,4.4-.5,9.2-1.5,13.2-.2,30.6,9.7,60.8,20.6,91.6,29.7,20.2,5.9,41,9.7,61.7,13.8,3.7.7,9.3-.2,11.7-2.6,9.7-9.6,4.5-28.4-8.5-32.6-1.4-.5-2.8-1.1-4.2-1.6,1.5-3.8,2.9-7.2,4.3-10.6,11.1-.7,24.8,5.6,29.9-11Z"/>
        <path d="M251,145.1c-5.1,16.6-18.8,10.2-29.9,11-1.4,3.5-2.8,6.8-4.3,10.6,1.4.5,2.8,1.2,4.2,1.6,12.9,4.2,18.2,23,8.5,32.6-2.5,2.4-8,3.4-11.7,2.6-20.7-4.1-41.5-7.9-61.7-13.8-30.8-9.1-61-20-91.6-29.7-4-1.3-8.8-.3-13.2.2-10.8,1.2-21.5,3-32.3,4.2-9.8,1.1-12.4-2.2-11.2-11.9.3-2.8-1.8-5.8-2.8-8.8,0-1.6,0-3.3,0-4.9,4.5-1.6,8.9-3.8,13.5-4.7,6.9-1.4,13.9-1.9,22.1-2.9-1.7-2.2-2.3-3.1-3-3.9-.5-.6-1.4-1-1.8-1.6-5.5-8.3.4-15.4,3.1-22.4,2.1-5.5,7.9-5.2,12.8-2.9,5.7,2.7,9.5,1.9,11.7-4.4.8-2.3,2.4-4.2,3.7-6.4-3.3-1.8-6.4-3.5-10.8-5.9,11-6.5,20.4-12.1,31-18.4,1.2-1.5,3-5.6,6-7,2-.9,5.7,2.2,8.3,3.3,7.8-3.2,16.1-6.6,25.7-10.6-.4,5.3-.7,9.8-1.2,15.8,7.7,1.3,15.6,2.7,25.1,4.3-4.2,4.9-8.2,9.7-12.4,14.6,1.6,5.9,11.8,5,12.3,13.6,8.1,1.8,16.8,3.8,25.6,5.6,1.9.4,4.1.1,5.9-.4,11.5-3,22.9-6.2,34.3-9.4,7.4-2,10.3,0,10.6,7.9.1,3.9,0,7.8,0,12.3,10.7,1.7,19.2,6.7,23.4,17.5v12.3ZM215.3,99.8c-68,20-137,31.3-204.9,39.5.3,7,.8,12.1.7,17.1-.1,4.5,2.8,4.6,5.7,4.4,5.5-.4,11-1.3,16.5-2,53.2-6.9,106.2-14.9,158.4-27.2,9.3-2.2,18.4-4.9,27.1-7.2-1.3-4.6-2.8-8.2-3.3-12-.5-3.8-.1-7.7-.1-12.6ZM69.9,158.2c40.3,15.9,80.3,26.9,120.9,35.8-5.7-2.8-11.6-5-17.6-7-24.3-7.9-48.7-15.7-73-23.7-2.1-.7-4-2.1-7.2-3.8,2.6-.9,3.2-1.4,3.7-1.3,4.1,1.3,8.2,2.6,12.2,4,35.4,12.2,70.7,24.5,106.1,36.7,2.1.7,4.4,1.3,6.6,1.3,1.7,0,3.8-.5,5-1.7,7.3-7.1,3.7-23.6-5.9-26.2-27.7-7.4-55.5-14.2-83.1-21.7-9.3-2.5-17.8-.9-28.2,1.4,4.1.8,6.5,1.1,8.8,1.7,12.1,3.5,25.4,5.1,36.1,11.2,17.6,9.9,36.4,15.6,55.4,21.2,1.5.4,3,.5,4.9.8,0-1.6-.4-2.8,0-3.5,1.4-2.6,2.7-6.5,4.9-7.2,4-1.4,6.6,2.1,6.9,5.9.3,3.6.2,7.5-1,10.8-1.9,5.4-6.8,5.6-10.3,1.2-1.3-1.6-3.2-2.8-5.1-3.6-3.2-1.3-6.7-1.9-10-3-17.2-5.3-33.4-12.8-49.8-20.3-24.5-11.2-51-16.3-80.2-9.1ZM40.5,122.5c3.7.2,7.9-.5,11.2.9,15.9,7.1,31.2,1.3,47.4-1-1.1-3.5-2.1-6.3-3.1-9.5-7.1,6.6-14.5,10.6-24.4,9.6,1.3-4.9,2.2-8.8,3.5-13.7-5,.8-9.3,1-13.3,2.2-5.1,1.5-6.9.2-5-5.2-5.3-.2-9.9-6.1-14.6-.5-3.9,4.7-4.8,15.1-1.5,17.1ZM205.7,140.5c-23.5-7.2-44,3.6-65.5,6.3,17,4.8,33.9,9.1,51,13.2,1.4.3,3.1-.9,4.7-1.4-.1-.6-.3-1.2-.4-1.8-10-3.7-21.1-4.6-30.5-10.3,2-1,3.7-.9,5.3-.5,7.5,1.9,15.1,3.5,22.5,5.8,4.7,1.4,6.3-.1,6.4-4.3-4.1-1.3-7.9-2.6-11.6-3.8,6-4,12.2,2.5,18.1-3.2ZM232.7,152.7c-1-5.9-1.8-10.9-2.6-15.7-4.4-.6-8.5-1.3-12.7-1.9,0-1,.2-2,.2-3,4,.2,8.5,1.7,11.8.2,3.5-1.5,5.8-5.8,9.5-9.8-4.1-1.1-6.7-1.8-8.3-2.2-8.5,11.1-22.1,8.6-32.3,14.5,5.4.8,10.2,1.4,15,2.3,7,1.4,8.6,3.6,8.2,10.5,0,1.2,0,2.4,0,4.1,3.7.3,7.3.6,11.1.9ZM138.3,109.4c.2-.7.3-1.4.5-2.1,9.6-1.7,19.4,6.1,29.9-.2-9.1-1.8-17.2-4.6-25.4-4.7-8.5,0-17,2.5-26.3,4.1-.2.5-.7,2.4-1.3,4.3,15.7,4,23.9,4.4,31.9,1.6-3.2-1-6.2-2-9.3-3ZM77.1,117.5c.5.7,1,1.4,1.5,2,4.5-2.9,9.1-5.6,13.4-8.8,1-.7,1.4-2.9,1.4-4.3-.5-8.2-1.2-16.3-1.9-23.9-11.4,7.8-11.4,22-14.4,34.9ZM142.5,97.4c-12.2-4.4-24.2-8.7-36.5-13.1,9.2,19.4,17.1,20.7,36.5,13.1ZM242,126.1c-7.3,5.6-9.4,13.4-5.8,22.1.7,1.7,2.3,4,3.6,4.1,1.6,0,3.7-1.6,4.8-3.1,4.5-6.3,3.1-17-2.6-23.1ZM104.4,76.4c-.3.7-.5,1.3-.8,2,10.9,4.4,21.7,8.7,32.6,13.1-8.2-10.9-17.6-18.7-31.8-15.1ZM99,81.3c-5.9,9.2-4.7,23.2,3.3,33.8.5-11.8,6.4-23.4-3.3-33.8ZM143.3,75.3c-11.9-.6-22.1-10.6-34.5-4.7,5,1.2,9.7,1.8,13.9,3.6,4.4,1.9,8.2,5.1,12.9,8.1,2.4-2.2,5.1-4.6,7.7-7ZM87.2,81.3c-10.5.7-21.2,12.5-24.2,25.2q13.4-1.8,13.9-10.5c-1.6,1.7-3,3.3-4.4,4.9-.6-.4-1.1-.8-1.7-1.3,1.2-8.8,9.4-12.5,16.3-18.3ZM197.5,160.8c.9.7,1.7,1.4,2.6,2.1,6.1-5.1,4.9-18.7,19-15.3-1.7-2.9-2.5-5.5-3.6-5.7-2.2-.3-5.5,0-6.6,1.5-4.2,5.5-7.6,11.6-11.3,17.4ZM65.8,83.1c.2.8.4,1.5.7,2.3,8.1-3.7,16.1-7.4,25.1-11.6-12.4-5.1-17.9,5.3-25.8,9.3ZM205.3,163.4c7.5,2.5,11.4-1.1,11.3-8.6,0-1.2-.7-3.1-1.5-3.4-1-.4-3.2.2-3.7,1.1-2.2,3.3-3.9,7-6,10.9ZM224.5,121.9c-.5-8.2-.9-15.8-1.5-25.1-6,8.9-4.9,19.3,1.5,25.1ZM123,58.5c-13.3,2.3-15.3,3.2-17.6,8.2,5.3-.8,10.7-1.6,16.5-2.5.3-1.5.6-3.2,1.1-5.6ZM105.9,115.9c8.5-7.1,9.3-12.8,2.6-18.3-.9,5.9-1.7,11.7-2.6,18.3ZM125.8,117.5c-10-3.6-12.9-3.1-16.8,3.1,5.6-1,10.7-1.9,16.8-3.1ZM219.1,194.1c5.2-5.9,5-11.5,0-14v14ZM99.8,68.2c-2.2-2.3-4-4.2-5.8-6.2-.6,1.6-2,3.4-1.8,4.9.7,4.1,3.4,3.6,7.6,1.2ZM54.3,129.6q-9.3-4.5-10.8,1.3c3.7-.5,7.2-.9,10.8-1.3Z"/>
        <path class="cls-3" d="M215.3,99.8c0,4.8-.4,8.8.1,12.6.5,3.8,2,7.4,3.3,12-8.8,2.3-17.9,5-27.1,7.2-52.2,12.4-105.2,20.3-158.4,27.2-5.5.7-11,1.6-16.5,2-2.9.2-5.8,0-5.7-4.4.1-5-.4-10.1-.7-17.1,67.9-8.2,136.9-19.5,204.9-39.5ZM42,148.5c.2,1.2.4,2.4.6,3.5,34.4-5,68.7-11.4,103.1-16.8,1-.2,1.9-1.3,2.8-2.1-.3-.7-.5-1.5-.8-2.2-35.2,5.8-70.4,11.7-105.6,17.5ZM205,123.3c-7.1-2.1-48.5,8.1-52,13.3,18.6-4.1,35.6-7.5,52-13.3ZM140.1,125.3c-9.4,1.3-18.7,2.6-29.6,4.1,5.3,3.9,25.8,1.2,29.6-4.1Z"/>
        <path class="cls-3" d="M69.9,158.2c29.2-7.2,55.7-2.1,80.2,9.1,16.4,7.5,32.6,15,49.8,20.3,3.3,1,6.8,1.7,10,3,1.9.7,3.9,2,5.1,3.6,3.5,4.4,8.4,4.2,10.3-1.2,1.2-3.3,1.3-7.2,1-10.8-.3-3.8-2.9-7.2-6.9-5.9-2.2.7-3.4,4.6-4.9,7.2-.4.7,0,1.9,0,3.5-1.9-.3-3.4-.4-4.9-.8-19-5.6-37.8-11.3-55.4-21.2-10.7-6.1-24-7.7-36.1-11.2-2.3-.7-4.8-1-8.8-1.7,10.4-2.3,18.9-3.9,28.2-1.4,27.6,7.6,55.5,14.4,83.1,21.7,9.6,2.6,13.2,19.1,5.9,26.2-1.2,1.1-3.3,1.7-5,1.7-2.2,0-4.5-.5-6.6-1.3-35.4-12.2-70.7-24.5-106.1-36.7-4.1-1.4-8.1-2.7-12.2-4-.5-.1-1.1.4-3.7,1.3,3.3,1.7,5.1,3.1,7.2,3.8,24.3,7.9,48.7,15.7,73,23.7,6,2,11.9,4.2,17.6,7-40.6-8.9-80.6-20-120.9-35.8ZM176,165.9c0,.5-.1,1.1-.2,1.6,1.3.7,2.6,1.6,4,2,7.4,2.2,14.8,4.5,22.3,6.4,1.4.4,3-.4,4.6-.7-1.1-1-2.1-2.5-3.4-2.9-7.8-2.4-15.6-4.7-23.5-6.9-1.2-.3-2.6.2-3.9.3Z"/>
        <path class="cls-5" d="M40.5,122.5c-3.3-2-2.4-12.5,1.5-17.1,4.7-5.6,9.3.2,14.6.5-1.9,5.5-.1,6.8,5,5.2,4-1.2,8.3-1.4,13.3-2.2-1.2,4.9-2.2,8.8-3.5,13.7,10,.9,17.3-3,24.4-9.6,1.1,3.3,2,6.1,3.1,9.5-16.2,2.3-31.5,8-47.4,1-3.2-1.4-7.4-.7-11.2-.9ZM60.9,119.4c.2-1.1.5-2.2.7-3.3-4.3-.8-8.7-1.6-13-2.5-.2,1-.4,2.1-.6,3.1,4.3.9,8.6,1.8,12.9,2.6Z"/>
        <path class="cls-5" d="M205.7,140.5c-5.9,5.6-12.1-.8-18.1,3.2,3.8,1.2,7.5,2.5,11.6,3.8-.2,4.2-1.7,5.7-6.4,4.3-7.4-2.3-15-4-22.5-5.8-1.6-.4-3.3-.5-5.3.5,9.4,5.7,20.5,6.6,30.5,10.3.1.6.3,1.2.4,1.8-1.6.5-3.3,1.8-4.7,1.4-17-4.1-34-8.3-51-13.2,21.5-2.6,42-13.5,65.5-6.3Z"/>
        <path class="cls-5" d="M232.7,152.7c-3.8-.3-7.4-.6-11.1-.9,0-1.7,0-2.9,0-4.1.4-6.9-1.2-9.1-8.2-10.5-4.8-1-9.7-1.5-15-2.3,10.2-5.9,23.8-3.4,32.3-14.5,1.7.4,4.3,1.1,8.3,2.2-3.7,4-6,8.3-9.5,9.8-3.3,1.4-7.8,0-11.8-.2,0,1-.2,2-.2,3,4.2.6,8.3,1.2,12.7,1.9.8,4.9,1.6,9.9,2.6,15.7Z"/>
        <path class="cls-5" d="M138.3,109.4c3.1,1,6.1,2,9.3,3-8,2.8-16.3,2.3-31.9-1.6.6-1.9,1.1-3.8,1.3-4.3,9.3-1.6,17.8-4.2,26.3-4.1,8.2,0,16.3,2.9,25.4,4.7-10.5,6.4-20.3-1.4-29.9.2-.2.7-.3,1.4-.5,2.1Z"/>
        <path class="cls-5" d="M77.1,117.5c3-12.9,3-27.1,14.4-34.9.6,7.6,1.4,15.7,1.9,23.9,0,1.4-.4,3.6-1.4,4.3-4.3,3.1-8.9,5.9-13.4,8.8-.5-.7-1-1.4-1.5-2ZM82.1,112.1c1.1.2,2.2.4,3.3.6.9-5.2,1.9-10.4,2.8-15.6-1.1-.2-2.2-.4-3.2-.6-.9,5.2-1.9,10.4-2.8,15.6Z"/>
        <path class="cls-5" d="M142.5,97.4c-19.4,7.5-27.2,6.2-36.5-13.1,12.3,4.4,24.3,8.8,36.5,13.1ZM128.7,98.8c.2-.8.5-1.7.7-2.5-4.4-1.6-8.8-3.1-13.2-4.7-.3.8-.5,1.5-.8,2.3,3.9,3.1,8.1,5.5,13.3,4.9Z"/>
        <path class="cls-5" d="M242,126.1c5.7,6.1,7.1,16.8,2.6,23.1-1.1,1.5-3.2,3.2-4.8,3.1-1.3,0-2.9-2.4-3.6-4.1-3.6-8.8-1.4-16.5,5.8-22.1ZM239.4,148.8c5.7-4.1,4.6-8.5,4-12.5-.2-1.5-2.1-2.8-4-5.2v17.7Z"/>
        <path class="cls-5" d="M104.4,76.4c14.2-3.7,23.6,4.2,31.8,15.1-10.9-4.4-21.7-8.7-32.6-13.1.3-.7.5-1.3.8-2Z"/>
        <path class="cls-5" d="M99,81.3c9.7,10.4,3.7,22,3.3,33.8-8-10.7-9.2-24.6-3.3-33.8ZM100.9,88.6c-.7,0-1.4,0-2.1.1v10.9h2.1v-11Z"/>
        <path class="cls-5" d="M143.3,75.3c-2.7,2.4-5.3,4.8-7.7,7-4.6-3-8.5-6.1-12.9-8.1-4.2-1.8-8.9-2.4-13.9-3.6,12.3-5.9,22.5,4.1,34.5,4.7Z"/>
        <path class="cls-5" d="M87.2,81.3c-6.9,5.7-15.1,9.5-16.3,18.3.6.4,1.1.8,1.7,1.3,1.4-1.6,2.8-3.2,4.4-4.9q-.5,8.7-13.9,10.5c3-12.7,13.7-24.5,24.2-25.2Z"/>
        <path class="cls-5" d="M197.5,160.8c3.7-5.9,7.2-11.9,11.3-17.4,1.1-1.4,4.5-1.8,6.6-1.5,1.1.2,1.9,2.9,3.6,5.7-14.1-3.4-12.9,10.2-19,15.3-.9-.7-1.7-1.4-2.6-2.1Z"/>
        <path class="cls-5" d="M65.8,83.1c7.9-4,13.4-14.4,25.8-9.3-9,4.1-17.1,7.9-25.1,11.6-.2-.8-.4-1.5-.7-2.3Z"/>
        <path class="cls-5" d="M205.3,163.4c2.1-4,3.9-7.6,6-10.9.6-.9,2.7-1.4,3.7-1.1.8.3,1.5,2.2,1.5,3.4.1,7.5-3.8,11.1-11.3,8.6Z"/>
        <path class="cls-5" d="M224.5,121.9c-6.4-5.7-7.5-16.2-1.5-25.1.6,9.3,1,16.8,1.5,25.1Z"/>
        <path class="cls-5" d="M123,58.5c-.5,2.4-.8,4.2-1.1,5.6-5.8.9-11.2,1.7-16.5,2.5,2.3-4.9,4.3-5.9,17.6-8.2Z"/>
        <path class="cls-5" d="M105.9,115.9c1-6.6,1.8-12.4,2.6-18.3,6.7,5.6,5.9,11.3-2.6,18.3Z"/>
        <path class="cls-5" d="M125.8,117.5c-6.2,1.1-11.3,2.1-16.8,3.1,3.9-6.2,6.8-6.7,16.8-3.1Z"/>
        <path class="cls-5" d="M219.1,194.1v-14c5,2.5,5.2,8.1,0,14Z"/>
        <path class="cls-5" d="M99.8,68.2c-4.2,2.3-6.9,2.8-7.6-1.2-.3-1.5,1.1-3.3,1.8-4.9,1.8,1.9,3.6,3.9,5.8,6.2Z"/>
        <path class="cls-5" d="M54.3,129.6c-3.5.4-7,.9-10.8,1.3q1.5-5.8,10.8-1.3Z"/>
        <path d="M42,148.5c35.2-5.8,70.4-11.7,105.6-17.5.3.7.5,1.5.8,2.2-.9.7-1.8,1.9-2.8,2.1-34.4,5.4-68.6,11.8-103.1,16.8-.2-1.2-.4-2.4-.6-3.5Z"/>
        <path d="M205,123.3c-16.4,5.8-33.5,9.2-52,13.3,3.6-5.2,45-15.4,52-13.3Z"/>
        <path d="M140.1,125.3c-3.8,5.4-24.3,8-29.6,4.1,10.9-1.5,20.2-2.8,29.6-4.1Z"/>
        <path d="M176,165.9c1.3-.1,2.7-.7,3.9-.3,7.9,2.2,15.7,4.4,23.5,6.9,1.3.4,2.3,1.9,3.4,2.9-1.5.3-3.2,1-4.6.7-7.5-2-14.9-4.2-22.3-6.4-1.4-.4-2.7-1.3-4-2,0-.5.1-1.1.2-1.6Z"/>
        <path d="M60.9,119.4c-4.3-.9-8.6-1.8-12.9-2.6.2-1,.4-2.1.6-3.1,4.3.8,8.7,1.6,13,2.5-.2,1.1-.5,2.2-.7,3.3Z"/>
        <path d="M82.1,112.1c.9-5.2,1.9-10.4,2.8-15.6,1.1.2,2.2.4,3.2.6-.9,5.2-1.9,10.4-2.8,15.6-1.1-.2-2.2-.4-3.3-.6Z"/>
        <path d="M128.7,98.8c-5.2.6-9.4-1.8-13.3-4.9.3-.8.5-1.5.8-2.3,4.4,1.6,8.8,3.1,13.2,4.7-.2.8-.5,1.7-.7,2.5Z"/>
        <path d="M239.4,148.8v-17.7c1.9,2.4,3.7,3.7,4,5.2.6,4,1.7,8.4-4,12.5Z"/>
        <path d="M100.9,88.6v10.9h-2.1v-10.8c.7,0,1.4,0,2.1-.1Z"/>
      </g>
      <g>
        <path class="cls-2" d="M5.5,110.3c2.2-4.4,5.7-6.5,10.5-8.1,49.5-15.5,98.9-31.3,148.3-47.2,2.3-.7,4.6-2.5,6.3-4.3,6.5-7.5,12.6-15.4,19.1-22.9,7.6-8.8,17.4-11.7,28.6-8.6,13.9,3.9,20.1,17.8,14,30.8-.5,1.1-1.1,2.1-1,1.9,5.1,3.6,11.1,6.1,14.2,10.6,2.8,4,3.4,10.3,3.4,15.5,0,3.4-1.9,7.6-4.3,10.2-43.3,47.3-87,94.3-130.1,141.8-8.3,9.1-17.6,10.6-28,7.9-9.7-2.5-19.4-5.9-28.2-10.6-8.9-4.8-13.3-13.4-12.8-23.9.3-5.8,2.5-10.2,7.2-14,10.6-8.8,20.7-18.3,31-27.4.6-.5,1.5-1.1,1.7-1.7,3.1-13.6,14-22,21.6-32.6.2-.2.1-.6.3-1.6-6.7,3.1-13.2,5.9-19.5,8.9-19,9-38,18.2-57,27.2-4.5,2.1-8.2.7-11.1-3.3-6.8-9.2-10.5-19.6-12.9-30.6-.3-1.6-.8-3.1-1.3-4.6,0-4.5,0-8.9,0-13.4ZM99.3,157.8c9.9-9.2,22.3-5.4,34.7-6.1-8.5-5-18.6-6.3-25.8-2.6-3.5,1.8-5.9,5.8-8.8,8.8-2.3,3.8-1.2,6.6,2.8,7.8,1.4.4,3.3-1.1,5-1.8-2.1-4.6-9.1,1.2-7.9-6.1ZM96.8,224.9c-5.6.8-9.6-1.2-11.3-6.8-1.7-5.5-1.6-10.1,3.2-14.8,10.3-10.2,19.7-21.2,29.5-31.9.5.7,1,1.4,1.5,2.1-6.2,1.7-12.4,4.5-18.7,4.9-7.6.4-11.9-5.7-15.2-12.4-8.7,7.7-16.9,15.1-25.3,22.6,4,1.5,7.2,2.3,10.1,3.7,6.4,3,11.3,7.8,11.8,15,.2,3.4-1.3,8.3-3.7,9.9-2.3,1.6-7.3.6-10.4-.8-5.8-2.6-7.8-7.7-5.3-14.1-4.2-.8-5.5.6-4.7,4.2,1.4,5.9,4.6,10.7,10.2,12.8,7.3,2.8,15,4.7,22.6,6.6,1.6.4,3.7-.8,5.5-1.2,4.8-.2,7.1-2.9,6.1-7.4-.8-3.5-3.5-4.4-8.3-2.6,7.7,2.9,5.1,6.5,2.4,10.1ZM154.9,161.3c10-15.3,19.5-29.9,29-44.5,14.3-21.9,28.7-43.7,42.9-65.7,7.4-11.4,3.1-23.7-9.5-27.7-9.5-3.1-18.3-.3-25.4,8.2-27.9,33.8-55.8,67.6-83.6,101.4-.9,1.1-1.6,2.4-2.6,4,29.6-1.5,42.4,4.8,49.2,24.3ZM115.7,223.9c2.4-3.2,3.8-5.2,5.4-6.9,39.7-43.2,79.2-86.4,119.1-129.4,5.7-6.2,6-12.7,3.8-19.6-1.7-5.3-5.9-8.5-11.6-9.6-5.5-1.1-7.4,3-9.7,6.6-23.5,36-47,72-70.3,108.1-4.8,7.3-11.4,10.3-19.7,9-3.6-.6-6.9-3-10.2-4.5-7.7,8.1-15.6,16.3-23,24.2,10.8,1.4,14.8,9.6,16.3,22.3ZM27,129c.3,0,1.9-.6,3.6-1.3,33-12.4,65.7-25.7,99-37,15.8-5.4,22.1-18.7,31.5-30.1-46.6,14.8-93.2,29.6-138,43.8,1.4,8.8,2.6,16.7,3.9,24.5ZM133.8,93.1c-34.6,13.1-69.3,26.2-104.7,39.6,8.2,5.5,8.5,12.9,7.3,21.1,2.3-.9,4.2-1.6,6-2.4,19.1-8.8,37.8-18.7,57.5-26.1,16.3-6.1,25-19,34-32.3ZM91.8,220.2c.3-3.1-.3-6.9,1.3-8.7,1.5-1.6,6.2-2.4,8.1-1.2,2.7,1.7,5.1,5.3,5.5,8.4.4,2.6-1.6,6.6-3.8,8.1-3.1,2.1-7.7,3.9-11.2,3.3-8.7-1.5-17.3-3.9-25.6-7.1-7.2-2.8-11.3-9.1-12.2-17-.2-2,.3-4.8,1.6-6,4-3.6,8.3-1.8,12.4.3,4,2,7,4.7,4.9,11.3-2-2.6-3.4-4.3-5.3-6.7-.7,1.4-1.6,2.7-1.3,2.9,2,2.3,4.1,4.7,6.5,6.5.8.6,3.9,0,4.1-.6.8-2.5,1.9-5.7,1.1-8-2.9-7.8-9.6-11.1-17.4-12.5-5.9-1-9.2,1.5-10.6,7.3-2.1,8.9,2,18.2,11.3,24.3,11,7.2,23.3,10.1,36.4,9.9,8.2-.2,12.8-4.5,13.3-12.6.5-8-4.5-15.4-11.7-15.9-3.3-.2-8,1.2-9.9,3.6-2.6,3.4-.7,7.6,2.4,10.3ZM136.3,160.1c-1.2-4.5-4.2-5.9-8.3-3.4-5.8,3.5-7.2,9.6-3.4,15.2,3.1,4.6,7.6,6.6,13.1,5.9,5.7-.8,9.8-3.7,11.7-9.3,2.6-7.7-.8-16.4-8.8-21.4-10.3-6.4-21.7-7.9-33.4-5.7-9.6,1.8-14.9,8.8-16.8,18-2,9.7,7.1,17.2,16.6,14.6,9.5-2.6,12.3-9.9,14.5-19.1-4.5.5-8.8.9-14.2,1.4,4.6,5,5.3,8.9.6,12.4-3.6,2.7-9.8,1.5-12.2-2.9-1.3-2.2-2.2-5.8-1.3-7.9,1.6-3.8,4-7.6,7.2-10.2,10.5-8.4,33.4-5.5,42,5,3.1,3.8,5,8.6,2.2,12.9-2,3.1-5.5,6.1-9,7-2.5.7-6.3-1.7-8.8-3.7-1-.7-.8-5,.4-5.9,1.9-1.7,4.9-2,8.1-3.1ZM16.9,135.4c1.2-2.3,2.1-4.2,3.1-6,3-5.7,3.8-11.7,0-17.2-1.4-2.1-4.1-3.2-6.3-4.8-1.4,2.2-4,4.5-4,6.7-.1,15.6,4.2,29.9,13.5,42.5,2.6,3.6,5.3,3.2,7.6-.6,6-10.1.9-19.6-10.8-20.1-.8,0-1.5-.3-3.2-.6ZM131.7,165.9c-.1.6-.3,1.1-.4,1.7,2.4.2,5.2,1.4,7.2.5,4.2-1.8,5.3-5.5,3-10.6-.9,8.6-2.7,10-9.8,8.4Z"/>
        <path class="cls-1" d="M154.9,161.3c-6.8-19.5-19.6-25.7-49.2-24.3,1-1.5,1.7-2.8,2.6-4,27.9-33.8,55.7-67.6,83.6-101.4,7.1-8.6,15.9-11.3,25.4-8.2,12.6,4,16.9,16.3,9.5,27.7-14.2,22-28.6,43.8-42.9,65.7-9.5,14.6-19,29.2-29,44.5Z"/>
        <path class="cls-1" d="M115.7,223.9c-1.4-12.7-5.5-20.9-16.3-22.3,7.5-7.8,15.3-16,23-24.2,3.3,1.5,6.6,3.9,10.2,4.5,8.3,1.3,14.9-1.7,19.7-9,23.4-36.1,46.9-72,70.3-108.1,2.3-3.6,4.2-7.6,9.7-6.6,5.7,1.1,10,4.3,11.6,9.6,2.2,6.9,2,13.4-3.8,19.6-39.9,43-79.5,86.2-119.1,129.4-1.6,1.8-2.9,3.8-5.4,6.9Z"/>
        <path class="cls-1" d="M27,129c-1.2-7.8-2.5-15.7-3.9-24.5,44.8-14.2,91.4-29,138-43.8-9.4,11.3-15.7,24.7-31.5,30.1-33.3,11.3-66,24.5-99,37-1.7.6-3.4,1.2-3.6,1.3Z"/>
        <path class="cls-1" d="M133.8,93.1c-9,13.3-17.8,26.1-34,32.3-19.6,7.4-38.4,17.3-57.5,26.1-1.8.8-3.6,1.5-6,2.4,1.2-8.3.9-15.6-7.3-21.1,35.4-13.4,70.1-26.5,104.7-39.6Z"/>
        <path class="cls-3" d="M96.7,224.7c-1.9.5-3.9,1.6-5.5,1.2-7.6-1.9-15.3-3.8-22.6-6.6-5.6-2.1-8.9-6.9-10.2-12.8-.8-3.6.6-4.9,4.7-4.2-2.5,6.4-.4,11.5,5.3,14.1,3.1,1.4,8.1,2.3,10.4.8,2.5-1.6,4-6.6,3.7-9.9-.5-7.2-5.5-12-11.8-15-2.9-1.4-6.1-2.2-10.1-3.7,8.5-7.6,16.7-14.9,25.3-22.6,3.3,6.7,7.6,12.8,15.2,12.4,6.3-.3,12.5-3.2,18.7-4.9-.5-.7-1-1.4-1.5-2.1-9.8,10.7-19.2,21.7-29.5,31.9-4.8,4.7-4.9,9.4-3.2,14.8,1.7,5.5,5.7,7.5,11.3,6.8l-.2-.2Z"/>
        <path class="cls-3" d="M91.8,220.2c-3.1-2.7-5-7-2.4-10.3,1.9-2.4,6.6-3.9,9.9-3.6,7.3.5,12.2,7.9,11.7,15.9-.5,8.1-5.1,12.4-13.3,12.6-13.1.2-25.4-2.7-36.4-9.9-9.3-6.1-13.4-15.3-11.3-24.3,1.4-5.8,4.7-8.3,10.6-7.3,7.7,1.3,14.5,4.6,17.4,12.5.8,2.3-.3,5.4-1.1,8-.2.6-3.3,1.3-4.1.6-2.5-1.8-4.5-4.2-6.5-6.5-.2-.3.7-1.6,1.3-2.9,1.8,2.3,3.2,4.1,5.3,6.7,2.1-6.6-.9-9.2-4.9-11.3-4-2.1-8.4-4-12.4-.3-1.3,1.2-1.9,4-1.6,6,.9,7.8,4.9,14.1,12.2,17,8.2,3.2,16.9,5.6,25.6,7.1,3.5.6,8.1-1.2,11.2-3.3,2.2-1.5,4.2-5.5,3.8-8.1-.4-3.1-2.9-6.7-5.5-8.4-1.8-1.2-6.6-.4-8.1,1.2-1.6,1.8-.9,5.6-1.3,8.7Z"/>
        <path class="cls-3" d="M136.3,160.1c-3.2,1.1-6.2,1.4-8.1,3.1-1.1,1-1.3,5.2-.4,5.9,2.5,1.9,6.3,4.4,8.8,3.7,3.4-.9,7-3.9,9-7,2.8-4.4.9-9.1-2.2-12.9-8.6-10.5-31.5-13.4-42-5-3.1,2.5-5.6,6.4-7.2,10.2-.9,2.1,0,5.7,1.3,7.9,2.4,4.3,8.6,5.5,12.2,2.9,4.7-3.5,4-7.5-.6-12.4,5.4-.5,9.6-1,14.2-1.4-2.1,9.2-4.9,16.5-14.5,19.1-9.5,2.6-18.6-5-16.6-14.6,1.9-9.2,7.2-16.2,16.8-18,11.7-2.2,23.1-.7,33.4,5.7,8,5,11.4,13.7,8.8,21.4-1.9,5.6-6,8.5-11.7,9.3-5.5.7-10-1.3-13.1-5.9-3.8-5.6-2.4-11.7,3.4-15.2,4.1-2.5,7.1-1,8.3,3.4Z"/>
        <path class="cls-1" d="M16.9,135.4c1.6.3,2.4.6,3.2.6,11.7.4,16.8,9.9,10.8,20.1-2.2,3.8-4.9,4.1-7.6.6-9.3-12.6-13.6-27-13.5-42.5,0-2.3,2.6-4.5,4-6.7,2.1,1.6,4.9,2.7,6.3,4.8,3.8,5.6,2.9,11.5,0,17.2-1,1.9-1.9,3.8-3.1,6Z"/>
        <path class="cls-3" d="M99.4,157.8c2.9-3,5.3-7,8.8-8.8,7.2-3.7,17.2-2.4,25.8,2.6-12.4.7-24.8-3.1-34.7,6.1h.1Z"/>
        <path class="cls-4" d="M96.8,224.9c2.7-3.6,5.3-7.3-2.4-10.1,4.9-1.8,7.5-.9,8.3,2.6,1,4.6-1.3,7.2-6.1,7.4,0,0,.1.2.1.2Z"/>
        <path class="cls-1" d="M131.7,165.9c7.1,1.6,8.9.3,9.8-8.4,2.3,5.2,1.1,8.8-3,10.6-1.9.9-4.8-.3-7.2-.5.1-.6.3-1.1.4-1.7Z"/>
        <path class="cls-1" d="M99.3,157.8c-1.2,7.4,5.8,1.5,7.9,6.1-1.6.6-3.6,2.2-5,1.8-4-1.2-5.2-4-2.8-7.8,0,0-.1,0-.1,0Z"/>
      </g>
    </g>
  </g>
</svg>