<?xml version="1.0" encoding="utf-8"?>
<!-- Svg Vector Icons : http://www.onlinewebfonts.com/icon -->
<!DOCTYPE svg PUBLIC "-//W3C//DTD SVG 1.1//EN" "http://www.w3.org/Graphics/SVG/1.1/DTD/svg11.dtd">
<svg version="1.1" xmlns="http://www.w3.org/2000/svg" xmlns:xlink="http://www.w3.org/1999/xlink" x="0px" y="0px" viewBox="0 0 256 256" enable-background="new 0 0 256 256" xml:space="preserve">
<metadata> Svg Vector Icons : http://www.onlinewebfonts.com/icon </metadata>
<g><g><g><path fill="#000000" d="M31,14c-7.3,0.4-10.2,0.8-10.5,1.3c-0.1,0.2,0.9,0.6,2.2,0.7c3.7,0.5,9.4,2.1,13.9,3.8C56.9,27.6,72.8,43.8,79.9,64c2.3,6.4,3.6,12.4,5.9,25.7c2.2,13.2,3.6,19.6,5.6,24.7c0.7,1.8,1.3,3.3,1.4,3.4c0.1,0.1,2.4-0.7,5-1.9c13.5-5.8,27.3-9,43.2-9.9l5.3-0.3l-0.3-2.1c-0.7-4.6-2.7-13.1-4.4-18.3c-5.2-15.6-13.6-29.4-24.9-40.7C94.7,22.6,64.9,11.9,31,14z"/><path fill="#000000" d="M11.2,25C10.7,25.8,10,36.8,10,43.6c0,25.2,8,48.9,23.2,68.1c6.3,8.1,17.4,17.8,26.4,23.3l3.9,2.4l3.7-3c3.3-2.7,15.3-11,16.5-11.4c0.3,0-0.2-2-1.1-4.4c-2.4-6.5-3.8-12.3-6.1-25.8c-2.3-13.6-3.3-18.4-5.2-24c-7.9-24.2-30.3-41.8-55.7-43.9C12.8,24.7,11.4,24.7,11.2,25z"/><path fill="#000000" d="M138.3,115.9c-0.9,0.1-3.6,0.4-6.1,0.7c-20.3,2.3-41,11.1-58.1,24.7c-7.4,5.9-21.1,20.1-24.4,25.4c-1.4,2.3-3.5,8.2-3.2,9c0,0.3,1.9-1.1,4.1-3c9.8-8.7,21-14.2,34.2-17.1c3.9-0.8,6.3-1,13.6-1c10.2,0,15.7,0.8,24.1,3.7c10.3,3.6,17.6,8.1,27.4,17c11,9.9,19.4,14.5,31.8,17.1c5.5,1.2,19.1,1.2,24.6,0c8.2-1.7,15.9-5,22.5-9.5c1.9-1.2,6.1-4.8,9.4-7.8l6-5.5l-1.3-2.4c-1.6-3-11.1-13.6-17.2-19.4c-18-16.9-39.9-27.7-63.8-31.2C157.3,116.1,141.5,115.5,138.3,115.9z"/><path fill="#000000" d="M91.2,164.6c-11.9,1.5-23.1,6.2-32,13.6c-2.1,1.7-5.5,4.6-7.6,6.3c-2.1,1.7-3.9,3.3-3.9,3.4c0,1,3.9,6.3,7.6,10.6c19,21.5,39.7,34.7,63.8,40.6c9.9,2.4,15.4,3,26.8,3.1c10.4,0,14.1-0.4,23.1-2.1c21-4.2,41.2-15.1,57.8-31c6.4-6.2,14.9-16,16.4-19c1.2-2.4,2.8-7.2,2.8-8.5c0-0.3-1,0.5-2.2,1.6c-10.1,9.7-22.5,16.1-36.4,18.9c-6.3,1.3-21.5,1.2-28-0.2c-13.7-3-24.8-8.9-35.8-19.2c-10.4-9.7-20.6-15.1-33-17.5C105.9,164.4,95.9,164,91.2,164.6z"/></g></g></g>
</svg>