<?xml version="1.0" encoding="UTF-8"?>
<svg xmlns="http://www.w3.org/2000/svg" version="1.1" viewBox="0 0 120 120">
  <!-- Generator: Adobe Illustrator 28.6.0, SVG Export Plug-In . SVG Version: 1.2.0 Build 709)  -->
  <g>
    <g id="Ebene_1">
      <g>
        <path d="M21.7,15c-2.9.2-4,.3-4.1.5,0,0,.4.2.9.3,1.5.2,3.7.8,5.5,1.5,8,3.1,14.3,9.5,17.1,17.4.9,2.5,1.4,4.9,2.3,10.1.9,5.2,1.4,7.7,2.2,9.7.3.7.5,1.3.6,1.3s.9-.3,2-.7c5.3-2.3,10.8-3.5,17-3.9h2.1c0-.1-.1-.9-.1-.9-.3-1.8-1.1-5.2-1.7-7.2-2-6.1-5.4-11.6-9.8-16-8.7-8.7-20.4-12.9-33.8-12.1Z"/>
        <path d="M13.9,19.4c-.2.3-.5,4.7-.5,7.3,0,9.9,3.2,19.3,9.1,26.8,2.5,3.2,6.9,7,10.4,9.2l1.5.9,1.5-1.2c1.3-1.1,6-4.3,6.5-4.5.1,0,0-.8-.4-1.7-.9-2.6-1.5-4.8-2.4-10.2-.9-5.4-1.3-7.3-2-9.5-3.1-9.5-11.9-16.5-22-17.3-1.1,0-1.7,0-1.7,0Z"/>
        <path d="M64,55.2c-.4,0-1.4.2-2.4.3-8,.9-16.2,4.4-22.9,9.7-2.9,2.3-8.3,7.9-9.6,10-.6.9-1.4,3.2-1.3,3.5,0,.1.7-.4,1.6-1.2,3.9-3.4,8.3-5.6,13.5-6.7,1.5-.3,2.5-.4,5.4-.4s6.2.3,9.5,1.5c4.1,1.4,6.9,3.2,10.8,6.7,4.3,3.9,7.6,5.7,12.5,6.7,2.2.5,7.5.5,9.7,0,3.2-.7,6.3-2,8.9-3.7.7-.5,2.4-1.9,3.7-3.1l2.4-2.2-.5-.9c-.6-1.2-4.4-5.4-6.8-7.6-7.1-6.7-15.7-10.9-25.1-12.3-1.8-.2-8-.4-9.3-.3Z"/>
        <path d="M45.4,74.4c-4.7.6-9.1,2.4-12.6,5.4-.8.7-2.2,1.8-3,2.5s-1.5,1.3-1.5,1.3c0,.4,1.5,2.5,3,4.2,7.5,8.5,15.6,13.7,25.1,16,3.9.9,6.1,1.2,10.6,1.2,4.1,0,5.6-.2,9.1-.8,8.3-1.7,16.2-6,22.8-12.2,2.5-2.4,5.9-6.3,6.5-7.5s1.1-2.8,1.1-3.3-.4.2-.9.6c-4,3.8-8.9,6.3-14.3,7.4-2.5.5-8.5.5-11,0-5.4-1.2-9.8-3.5-14.1-7.6-4.1-3.8-8.1-6-13-6.9-1.9-.3-5.8-.5-7.6-.2Z"/>
      </g>
    </g>
  </g>
</svg>