<?xml version="1.0" encoding="utf-8"?>
<!-- Svg Vector Icons : http://www.onlinewebfonts.com/icon -->
<!DOCTYPE svg PUBLIC "-//W3C//DTD SVG 1.1//EN" "http://www.w3.org/Graphics/SVG/1.1/DTD/svg11.dtd">
<svg version="1.1" xmlns="http://www.w3.org/2000/svg" xmlns:xlink="http://www.w3.org/1999/xlink" x="0px" y="0px" viewBox="0 0 256 256" enable-background="new 0 0 256 256" xml:space="preserve">
<metadata> Svg Vector Icons : http://www.onlinewebfonts.com/icon </metadata>
<g> <path fill="#f4a438" d="M241.3,118.4c-13.7-4.8-23-17.8-23-32.4c0.3-2.4-0.8-4.3-2.6-5.9c-1.5-1.2-3.9-1.8-5.8-1.5 c-11.6,1.7-22.7-1.7-31.1-8.4c-8.4-6.8-14.4-17-15.3-28.9c-0.1-2.1-1.4-4-3.2-5.3c-1.8-1.1-4-1.4-6.1-0.6 c-18.8,6.8-36.5-5.1-43.6-21.3c-1.4-3-4.6-4.7-7.9-4C76.2,16.1,52.3,32.8,36,53.8c-37.8,48.5-33.9,115.3,8.4,157.8 c46,45.9,120.3,45.9,166.2,0c21.3-21.3,35.4-51.7,35.4-84C245.7,123,245.6,120,241.3,118.4z"/> <path fill="#f2952c" d="M246,127.6c0,32.4-14.1,62.7-35.4,84c-45.9,45.9-120.2,45.9-166.2,0L178.8,70.2c8.4,6.8,19.5,10.1,31.1,8.4 c1.9-0.3,4.3,0.3,5.8,1.5c1.8,1.7,2.9,3.6,2.6,5.9c0,14.5,9.3,27.5,23,32.4C245.6,120,245.7,123,246,127.6L246,127.6z"/> <path fill="#944c23" d="M99.2,154c-3.5-3-8.2-4.8-13.1-4.8c-11.5,0-20.7,9.3-20.7,20.7c0,5.4,2.1,10.2,5.4,13.8 c3.7,4.3,9.3,6.9,15.4,6.9c11.5,0,20.7-9.3,20.7-20.7C106.8,163.4,103.9,157.8,99.2,154z"/> <path fill="#6e381c" d="M155.2,149.2c-11.4,0-20.7-9.3-20.7-20.7c0-11.4,9.3-20.7,20.7-20.7s20.7,9.3,20.7,20.7 C175.9,139.9,166.6,149.2,155.2,149.2z M148.3,204.5c-7.6,0-13.8-6.2-13.8-13.8c0-7.6,6.2-13.8,13.8-13.8c7.6,0,13.8,6.2,13.8,13.8 C162.1,198.3,155.9,204.5,148.3,204.5z"/> <path fill="#944c23" d="M93,107.7c-7.6,0-13.8-6.2-13.8-13.8c0-7.6,6.2-13.8,13.8-13.8s13.8,6.2,13.8,13.8 C106.8,101.5,100.6,107.7,93,107.7z"/> <path fill="#6e381c" d="M189.4,156.6c0,3.8,3.1,6.9,6.9,6.9c3.8,0,6.9-3.1,6.9-6.9c0-3.8-3.1-6.9-6.9-6.9 C192.5,149.7,189.4,152.8,189.4,156.6z"/> <path fill="#944c23" d="M51.1,129c0,3.8,3.1,6.9,6.9,6.9c3.8,0,6.9-3.1,6.9-6.9c0-3.8-3.1-6.9-6.9-6.9 C54.2,122.1,51.1,125.2,51.1,129L51.1,129z"/> <path fill="#6e381c" d="M106.8,169.9c0,11.5-9.3,20.7-20.7,20.7c-6.1,0-11.6-2.6-15.3-6.9L99.2,154 C103.9,157.8,106.8,163.4,106.8,169.9z"/></g>
</svg>