<?xml version="1.0" encoding="UTF-8"?>
<svg xmlns="http://www.w3.org/2000/svg" version="1.1" viewBox="0 0 256 256">
  <defs>
    <style>
      .cls-1 {
        fill: #944c23;
      }

      .cls-2 {
        fill: #fff;
      }

      .cls-3 {
        fill: #6e381c;
      }

      .cls-4 {
        fill: #f2952c;
      }

      .cls-5 {
        fill: #f4a438;
      }
    </style>
  </defs>
  <!-- Generator: Adobe Illustrator 28.6.0, SVG Export Plug-In . SVG Version: 1.2.0 Build 709)  -->
  <g>
    <g id="Ebene_1">
      <g>
        <path class="cls-5" d="M241.3,118.4c-1.6-.6-3.2-1.3-4.7-2.1-.6,2.1-2.2,3.9-4,5.6-.3.6-.7,1.1-1.1,1.6-.8,1-1.8,1.4-2.7,1.5-.6.4-1.1.9-1.7,1.3-2.5,1.9-5.1,3.7-7.8,5.2-.2.3-.4.6-.6.9-7.9,10.9-23.7,11.6-33.7,3.2-2.4-1.5-4.5-3.5-6.1-6.3-6.1-10.1-5.1-24-3.2-35.1,0,0,0-.2,0-.2-2.1.6-3.8,1.3-4.6,1.5-7.3,2.2-14.1,6-21.9,6.5-7.4.5-14.3-4.1-15.3-11.8-.4-3.3.3-6.3,1.3-9.3-.3-1.4-.5-2.9-.5-4.4,0-.4-.1-.8-.2-1.2,0-.2,0-.5,0-.7-5-10.1-6.6-22.4-4.9-32.9.1-.7.3-1.4.4-2.1-2.7-3.7-4.8-7.8-6.2-12.3-1.2-3.9-1.6-7.8-1.4-11.7-6.7-2.9-17.6-6.1-19.9-5.6-26.5,6-50.4,22.7-66.7,43.7C-1.8,102.3,2.1,169.1,44.4,211.6c46,45.9,120.3,45.9,166.2,0,21.3-21.3,35.4-51.7,35.4-84-.3-4.6-.4-7.6-4.7-9.2Z"/>
        <path class="cls-4" d="M241.3,118.4c-1.6-.6-3.2-1.3-4.7-2.1-.6,2.1-2.2,4-4,5.6-.3.6-.7,1.1-1.1,1.6-.8,1-1.8,1.4-2.7,1.5-.6.4-1.1.9-1.7,1.3-2.5,1.9-5.1,3.7-7.8,5.2-.2.3-.4.6-.6.9-7.9,10.9-23.7,11.6-33.7,3.2-2.4-1.5-4.5-3.5-6.1-6.3-6.1-10.1-5.1-24-3.2-35.1,0,0,0-.2,0-.2-2.1.6-3.8,1.3-4.6,1.5-7.3,2.2-14.1,6-21.9,6.5-.3,0-.6,0-.9,0l-104,109.5c46,45.9,120.3,45.9,166.2,0,21.3-21.3,35.4-51.6,35.4-84-.3-4.6-.4-7.6-4.7-9.2Z"/>
        <path class="cls-1" d="M99.2,154c-3.5-3-8.2-4.8-13.1-4.8-11.5,0-20.7,9.3-20.7,20.7s2.1,10.2,5.4,13.8c3.7,4.3,9.3,6.9,15.4,6.9,11.5,0,20.7-9.3,20.7-20.7-.1-6.5-3-12.1-7.7-15.9Z"/>
        <path class="cls-3" d="M148.5,190.3c10-5.5,22.6-1.8,28.1,8.2s1.8,22.6-8.2,28.1c-10,5.5-22.6,1.8-28.1-8.2-5.5-10-1.8-22.6,8.2-28.1ZM128,138.5c6.7-3.7,15.1-1.2,18.7,5.5s1.2,15.1-5.5,18.7-15.1,1.2-18.7-5.5-1.2-15.1,5.5-18.7Z"/>
        <path class="cls-1" d="M39.9,133.3c-7.6,0-13.8-6.2-13.8-13.8s6.2-13.8,13.8-13.8c7.6,0,13.8,6.2,13.8,13.8s-6.2,13.8-13.8,13.8Z"/>
        <path class="cls-1" d="M77.4,115.4c0,3.8,3.1,6.9,6.9,6.9s6.9-3.1,6.9-6.9-3.1-6.9-6.9-6.9-6.9,3.1-6.9,6.9h0Z"/>
        <path class="cls-3" d="M106.8,169.9c0,11.5-9.3,20.7-20.7,20.7s-11.6-2.6-15.3-6.9l28.4-29.7c4.7,3.8,7.6,9.4,7.6,15.9Z"/>
      </g>
      <g>
        <path class="cls-2" d="M101.8,73.3c-.5.6-1.3.9-2.3.9-1,0-1.8-.3-2.4-.8-1.5-1.3-3.8-3.3-6.8-5.9-3-2.6-5.3-4.6-6.8-5.9-1.2-1-1.3-2-.3-3l.5-.5c11.3-11.2,18-18.1,20.3-20.5l12.6-13.6c.8-.9,1-1.5.6-1.8-.6-.6-1.7-1.2-3.3-2-1.6-.8-2.7-1.4-3.4-2-1-.9-.9-1.8.1-3,1-1,2.4-2.6,4.3-4.7,1.9-2.1,3.3-3.7,4.3-4.7.6-.6,1.4-.7,2.4-.3,6.3,2.2,12.2,2.9,17.8,2.1,1.1-.2,1.9,0,2.2.2,0,0,.2.3.5.6,1,1.3,2.4,3.2,4.2,5.8,1.1,1.3,2.7,3.1,4.7,5.7.3.5.2,1-.3,1.6-.2.2-.5.5-1,.9-2.8,2.4-9.1,8.8-18.8,19.2-3.3,3.5-8.1,8.8-14.6,15.8-6.5,7.1-11.4,12.4-14.6,15.8Z"/>
        <path class="cls-2" d="M177.9,94.5c-7.3,7.8-16.2,12.3-26.6,13.3-10.8,1.1-20.3-1.9-28.2-9-8-7.1-12-15.9-11.9-26.5,0-10.3,3.6-19.3,10.9-27.2,7.3-7.9,16.2-12.3,26.6-13.2,10.7-1,20.1,2,28.1,9.1,8,7.1,12,15.8,12,26.3,0,10.2-3.6,19.3-10.9,27.1ZM160.6,79.2c2.9-3.1,4.5-6.7,4.8-10.6.3-4.2-1.1-7.7-4.3-10.5-3.2-2.8-6.9-3.9-11.2-3.2-3.9.6-7.4,2.5-10.4,5.8-2.9,3.2-4.6,6.7-4.9,10.7-.4,4.3,1.1,7.8,4.2,10.7,3.1,2.7,6.8,3.7,11.3,2.9,4.1-.7,7.6-2.6,10.5-5.6Z"/>
        <path class="cls-2" d="M227.4,138.3c-7.3,7.8-16.2,12.3-26.6,13.3-10.8,1.1-20.3-1.9-28.2-9-8-7.1-12-15.9-11.9-26.5,0-10.3,3.6-19.3,10.9-27.2,7.3-7.9,16.2-12.3,26.6-13.2,10.7-1,20.1,2,28.1,9.1,8,7.1,12,15.8,12,26.3,0,10.2-3.6,19.3-10.9,27.1ZM210,122.9c2.9-3.1,4.5-6.7,4.8-10.6.3-4.2-1.1-7.7-4.3-10.5-3.2-2.8-6.9-3.9-11.2-3.2-3.9.6-7.4,2.5-10.4,5.8-2.9,3.2-4.6,6.7-4.9,10.7-.4,4.3,1.1,7.8,4.2,10.7,3.1,2.7,6.8,3.7,11.3,2.9,4.1-.7,7.6-2.6,10.5-5.6Z"/>
      </g>
    </g>
  </g>
</svg>