<?xml version="1.0" encoding="UTF-8"?>
<svg xmlns="http://www.w3.org/2000/svg" version="1.1" viewBox="0 0 120 120">
  <defs>
    <style>
      .cls-1 {
        stroke: #000;
        stroke-miterlimit: 10;
        stroke-width: .8px;
      }
    </style>
  </defs>
  <!-- Generator: Adobe Illustrator 28.6.0, SVG Export Plug-In . SVG Version: 1.2.0 Build 709)  -->
  <g>
    <g id="Ebene_1">
      <g id="Ebene_8">
        <path d="M94.4,74.5l-.5-3.2c-.6-4-1.8-7.9-3.4-11.5v-.3c-3.9-8.5-5.3-17.9-4.3-27.3v-.2c.3-2.7.9-5.4,1.6-7.9l2.6-9.2c.3-1.2-.3-2.4-1.3-2.8s-2.2.3-2.5,1.5l-2.6,9.2c-.8,2.8-1.4,5.8-1.7,8.7v.2c-1.2,10.3.4,20.6,4.5,29.8v.3c1.6,3.3,2.6,6.7,3.2,10.3l.5,3.2c0,.3,0,.6,0,1H29.8c0-.3,0-.6.1-1l.5-3.2c.6-3.6,1.6-7.1,3.1-10.3v-.3c4.3-9.3,5.8-19.6,4.7-29.8v-.2c-.4-2.9-.9-5.9-1.7-8.7l-2.6-9.2c-.3-1.2-1.5-1.9-2.5-1.5s-1.7,1.6-1.3,2.8l2.6,9.2c.7,2.6,1.2,5.3,1.5,7.9v.2c1.1,9.4-.3,18.8-4.1,27.3v.3c-1.7,3.6-2.9,7.5-3.6,11.5l-.5,3.2c-.4,2.5-.6,5.1-.6,7.7,0,4.6.3,9.2,1,13.8l1.5,10.1c.2,1.1,1,1.9,2,1.9s.2,0,.3,0c1.1-.2,1.9-1.3,1.7-2.6l-1.5-10.1c-.2-1.2-.3-2.4-.4-3.6h14.4c3.9,0,7.6,1.8,10.1,5l3.4,4.1c0,.2.3.3.4.4v4.6c0,1.2.9,2.2,2,2.2s2-1,2-2.2v-4.6c.2,0,.3-.2.4-.4l3.4-4.1c2.6-3.2,6.3-5,10.1-5h14.1c0,1.2-.3,2.4-.4,3.6l-1.5,10.1c-.2,1.2.6,2.4,1.7,2.6h.3c1,0,1.8-.8,2-1.9l1.5-10.1c.7-4.5,1-9.2,1-13.8s-.2-5.1-.6-7.7h0ZM76.3,87.2c-5,0-9.8,2.4-13.2,6.5l-2.8,3.4h0l-2.8-3.4c-3.4-4.1-8.2-6.5-13.2-6.5h-14.7c0-1.7-.2-3.3-.2-5s0-.9,0-1.4h61.4v1.4c0,1.7,0,3.3-.2,5h-14.5.3Z"/>
        <path class="cls-1" d="M75.1,43.8c.2,1,.3,2,.3,3,0,7.2-5.2,13.3-12,14.6,0-.4,0-.8-.3-1.1-.5-.6-1.4-.7-2-.2l-2.3,1.9h0q0,0,0,.2h0s0,0,0,.2h0v.2h0v.2h0v.2h0v.2h0v.2h0c0,0,0,.2.2.3h0l2.3,1.8c.3.2.6.3.9.3s.9-.2,1.1-.6c.4-.4.4-1,.2-1.5,8.5-1.3,15.1-8.7,15.1-17.6s0-2.4-.4-3.5c-.2-.8-.9-1.3-1.7-1.1-.8.2-1.3.9-1.1,1.7v.6Z"/>
        <path class="cls-1" d="M43.5,41.7c-2.4,7.9,1,16.7,8.5,20.8.5.3,1.1.5,1.6.8.2,0,.4,0,.6,0,.6,0,1.1-.3,1.3-.9.3-.7,0-1.6-.8-1.9-.5-.2-.9-.4-1.3-.6-6.1-3.3-9-10.3-7.3-16.7.2,0,.5.2.7.2h.3c.8-.2,1.3-.9,1.1-1.7l-.6-2.9h0v-.2h0v-.3h0q0,0,0-.2h-1.2l-2.7,1.2c-.7.3-1,1.2-.7,1.9.2.5.8.8,1.3.8l-.6-.4Z"/>
        <path class="cls-1" d="M50.9,35.5c.4-.4.9-.7,1.4-1.1,6.1-4.1,14.1-3.1,19,2.1-.3.2-.6.5-.7.9-.2.8.2,1.6,1,1.8l2.9.9h1.2c0,0,0-.2,0-.3h0v-.2h0v-.2h0c0,0,.2-3,.2-3,0-.8-.5-1.5-1.3-1.6-.6,0-1.1.2-1.3.7-5.8-6.5-15.7-7.9-23.2-2.9-.6.4-1.2.8-1.7,1.3-.6.5-.7,1.4-.2,2s1.4.7,2.1.2l.5-.6Z"/>
      </g>
    </g>
  </g>
</svg>