<?xml version="1.0" encoding="UTF-8"?>
<svg xmlns="http://www.w3.org/2000/svg" version="1.1" viewBox="0 0 120 120">
  <!-- Generator: Adobe Illustrator 28.6.0, SVG Export Plug-In . SVG Version: 1.2.0 Build 709)  -->
  <g>
    <g id="Ebene_1">
      <g id="Ebene_14">
        <path d="M49,92c-.5,0-1-.2-1.4-.6-.8-.8-.8-2.1,0-2.9l30.3-30.9c.8-.8,2.1-.8,2.9,0s.8,2.1,0,2.9l-30.3,30.9c-.4.4-.9.6-1.4.6h0Z"/>
        <path d="M106,75.3h-26.6c-1.1,0-2-.9-2-2.1s.9-2.1,2-2.1h21.4l-18.9-18.4c-.8-.8-.8-2.1,0-2.9.8-.8,2.1-.9,2.9,0l22.6,22c.6.6.8,1.5.5,2.3s-1,1.3-1.9,1.3h0Z"/>
        <path d="M63.4,47.6c-.7,0-1.3-.3-1.7-.9-.6-1-.4-2.2.5-2.9l15.9-11c.8-.6,1.9-.4,2.6.3l3.7,3.8c.8.8.8,2.1,0,2.9s-2.1.8-2.9,0l-2.5-2.6-14.5,10c-.4.3-.8.4-1.1.4Z"/>
        <path d="M106,54.5h-9.2c-.6,0-1.1-.2-1.5-.6l-9-9.5c-.8-.8-.8-2.2,0-2.9.8-.8,2.1-.8,2.9,0l8.4,8.8h8.4c1.1,0,2,.9,2,2.1s-.9,2.1-2,2.1Z"/>
        <path d="M93.7,37.8c-3.4,0-6.1-2.8-6.1-6.3s2.7-6.3,6.1-6.3,6.1,2.8,6.1,6.3-2.8,6.3-6.1,6.3ZM93.7,29.4c-1.1,0-2,.9-2,2.1s.9,2.1,2,2.1,2-.9,2-2.1-.9-2.1-2-2.1Z"/>
        <path d="M38.6,79.5H14c-1.1,0-2-.9-2-2.1s.9-2.1,2-2.1h24.5c1.1,0,2,.9,2,2.1s-.9,2.1-2,2.1h0Z"/>
        <path d="M46.7,67H14c-1.1,0-2-.9-2-2.1s.9-2.1,2-2.1h32.7c1.1,0,2,.9,2,2.1s-.9,2.1-2,2.1Z"/>
        <path d="M54.9,54.5H14c-1.1,0-2-.9-2-2.1s.9-2.1,2-2.1h40.8c1.1,0,2,.9,2,2.1s-.9,2.1-2,2.1h.1Z"/>
      </g>
    </g>
  </g>
</svg>