<?xml version="1.0" encoding="UTF-8"?>
<svg xmlns="http://www.w3.org/2000/svg" version="1.1" viewBox="0 0 120 120">
  <defs>
    <style>
      .cls-1 {
        stroke: #19171a;
        stroke-width: 2px;
      }

      .cls-1, .cls-2, .cls-3, .cls-4 {
        stroke-miterlimit: 10;
      }

      .cls-5, .cls-6, .cls-3 {
        fill-rule: evenodd;
      }

      .cls-5, .cls-3 {
        fill: #fff;
      }

      .cls-7, .cls-2 {
        fill: none;
      }

      .cls-2 {
        stroke: #000;
        stroke-width: 4px;
      }

      .cls-8 {
        display: none;
      }

      .cls-9 {
        fill: #fefefe;
      }

      .cls-3, .cls-4 {
        stroke: #292b30;
        stroke-width: 3px;
      }
    </style>
  </defs>
  <!-- Generator: Adobe Illustrator 28.6.0, SVG Export Plug-In . SVG Version: 1.2.0 Build 709)  -->
  <g>
    <g id="Ebene_1">
      <g id="Ebene_22">
        <g id="Ebene_1-7">
          <g class="cls-8">
            <path d="M97.5,106H32.3c-3.3,0-5.9-2.7-5.9-5.9v-6l-2.3-1.2h-.1C1.4,78.6-12,54.3-12,27.8v-7.7c0-3.8,3.1-7,7-7H6.8c1.4-.1,2.5.9,2.6,2.3.1,1.4-.9,2.5-2.3,2.6H-5c-1.2,0-2.1,1-2.1,2.1v7.7c0,24.8,12.5,47.5,33.5,60.8l3.6,1.9c.8.5,1.3,1.2,1.3,2.1v7.4c0,.6.5,1,1,1h65.2c.6,0,1-.5,1-1v-3.6c0-.6-.5-1-1-1h-58c-1.4,0-2.3-1.3-2.3-2.6s1-2.1,2.3-2.3h57.9c3.3,0,5.9,2.7,5.9,5.9v3.6c0,3.3-2.7,5.9-5.9,5.9h0Z"/>
            <path d="M107.6,91.1c-1.4,0-2.5-1.1-2.4-2.5,0-.8.4-1.5,1-2,19.1-13.5,30.5-35.4,30.5-58.9v-7.7c0-1.2-1-2.1-2.1-2.1H17c-1.4-.1-2.3-1.3-2.3-2.6s1-2.1,2.3-2.3h117.6c3.8,0,7,3.1,7,7v7.7c0,25-12.2,48.4-32.6,62.8-.5.3-.9.5-1.4.5h0Z"/>
            <path d="M110.5,69.4c-.8,0-1.4-.7-1.4-1.4s.2-.8.6-1.1c10.9-7.7,17.5-20.3,17.5-33.7v-4.4c0-.7-.6-1.2-1.2-1.2H58.7c-.8,0-1.4-.7-1.3-1.5,0-.7.6-1.2,1.3-1.3h67.3c2.2,0,4,1.8,4,4v4.4c0,14.3-7,27.7-18.6,35.9-.3.2-.5.3-.8.3h0Z"/>
          </g>
          <g id="Generatives_Objekt-5">
            <g id="Background-5" class="cls-8">
              <rect class="cls-9" x="-12" y="16.3" width="153.7" height="87.5"/>
            </g>
            <g>
              <path class="cls-2" d="M33.7,52.5v.2h.2c5,3.9,15.1,8.2,3.6,13.3v.2c2.6-.3,8.3.7,8.2,3.9,0,2.1-2.2,5.5-3.5,7.2l.2.3c5.7-2.9,11.7-5.7,10.7,3.6-1.8,16.4-26.9,26.6-13.7-.8l-.3-.3c-23,8.9-19.6-6.1-8.2-12,0-.9-.7-.5-1.4-.7-19.2-3.8-15.9-12.1-.8-13.9,1.4-.2,2.7,1.2,4.9-.8v-.2h0Z"/>
              <path class="cls-2" d="M83.5,21.5c5.5-.3,3.7,8.3,2,12.3-1.4,3.2-2.7,4.5-3.3,5.6l.5.2c5.8-3.5,18.4-5.5,18.3.2,0,3.3-6.1,9.5-8.8,11.1v.4c4.1,0,17.8,4.5,13.3,9.6-4.6,5.1-11.6,4.1-13.4,4.4h0c0,0-.3,0-.3,0h-.7c-7.4-.9-16.7-6.5-6-12l-.3-.2c-3.1.2-8.1-.8-7.4-4.7,0-.7,2.1-5.5,2.5-6.2l-.3-.3c-14.5,8.4-10.9-8.7-4.8-15.4,1.8-1.9,5.9-4.9,8.6-5h.1Z"/>
              <path class="cls-2" d="M37.6,21.7c2.7-1.6,12.6,3.6,15.2,13.6,2.3,9.4-1.6,10.7-9.6,6.7l-.3.2c8,11.1-3.3,12.4-11.1,8.7h-.2s-.1,0-.2,0h-.1c-.1-.3-.3-.3-.4-.4h-.2c-13-7.7-12.8-19.4,8.6-11.7l.3-.3c-2-3.2-6.2-14.2-2-16.7Z"/>
              <path class="cls-2" d="M88.4,65.8v.5c3.2,3.4,9,4.2,12,10.6,3.7,7.9-10,6.8-17,3.3h0c2.9,4.8,7.5,19.7-1.4,17.1-11.2-3.3-16.3-22.8-8.9-22.4,1,0,5.8,1.8,6.9,2.5l.3-.3c-8.5-11.7,1.8-9.8,3.7-10.2,1.4-.3,2.9-.9,4.3-1.1h0Z"/>
              <path class="cls-2" d="M61,14.5c4.5-1,10.4,13,4.9,22.1-3.3,5.4-5.5,5.5-8.9,0-4.6-7.6-1.1-21,3.9-22.1h0Z"/>
              <path class="cls-2" d="M61,78.4c4-1.1,10.2,11.9,5.4,21.3-3.3,6.4-6.4,6.5-9.8,0-4.1-7.8,0-20.1,4.4-21.3Z"/>
            </g>
            <g>
              <path class="cls-2" d="M40.8,39.7l2.5,2.3c7.9,4,11.9,2.7,9.6-6.7-2.5-10-12.4-15.2-15.2-13.6-4.2,2.5,0,13.5,2,16.7,1,1.3,1.2,1.2-.3.3-21.4-7.7-21.6,4-8.6,11.7.3.2.8.4,1.2.6,7.7,3.6,19,2.3,11.1-8.7l-2.3-2.5h0Z"/>
              <path class="cls-2" d="M40.9,78.7c.5-.5.8-.9,1.2-1.4,1.3-1.7,3.5-5.1,3.5-7.2,0-3.2-5.6-4.2-8.1-3.9-1.6,0-5.1,1.2-6.6,2-11.4,6.1-14.7,21,8.2,12,1.4-.9,1.2-1,.3.3-13.2,27.4,11.8,17.2,13.7.8,1-9.3-4.9-6.6-10.7-3.6l-1.5,1.2h0v-.2Z"/>
              <path class="cls-2" d="M33.7,52.7c-2.2,2-3.5.6-4.9.8-15.2,1.9-18.5,10.2.8,13.9"/>
              <path class="cls-2" d="M36.3,66.4c.4,0,.8-.3,1.2-.4,11.5-5.1,1.4-9.4-3.6-13.3,0,0,0,0-.3-.2-.7-.5-1.3-1-1.9-1.5,0,0-.1,0-.2,0,0,0-.1,0-.1,0-.1,0-.3-.2-.4-.3h-.1"/>
              <path class="cls-2" d="M61,14.5c4.5-1,10.4,13,4.9,22.1-3.3,5.4-5.5,5.5-8.9,0-4.6-7.6-1.1-21,3.9-22.1h0Z"/>
              <path class="cls-2" d="M61,78.4c4-1.1,10.2,11.9,5.4,21.3-3.3,6.4-6.4,6.5-9.8,0-4.1-7.8,0-20.1,4.4-21.3Z"/>
              <path class="cls-2" d="M90.8,51.5c.5,0,1-.3,1.4-.6,2.7-1.6,8.7-7.9,8.8-11.1,0-5.7-12.5-3.7-18.3-.2-.7.4-1.3.8-1.8,1.4"/>
              <path class="cls-2" d="M80.9,41c-.4.3-.8.7-1.2.8-14.5,8.4-10.9-8.7-4.8-15.4,1.8-1.9,5.9-4.9,8.6-5,5.5-.3,3.7,8.3,2,12.3-1.4,3.2-2.7,4.5-3.3,5.6-.5.9-1.8,1.8-2.3,2.7-.4.7-2.4,5.5-2.5,6.2-.7,3.8,4.4,4.9,7.4,4.7,2.3,0,5.3-1.7,7.5-1.8,4,0,17.7,4.5,13.2,9.6-4.5,5.1-11.6,4.1-13.4,4.4,0,0-.3,0-.7,0h-.2c-1,0-2,.5-2.9.6-1.4.2-2.9.8-4.3,1.1-1.9.4-12.1-1.5-3.7,10.2.4.6.8,1.1,1.4,1.6"/>
              <path class="cls-2" d="M88.5,66.2c3.1,3.4,8.9,4.2,11.9,10.6,3.7,7.9-10,6.8-17,3.3-.8-.6-.7-.6,0,0,2.9,4.7,7.6,19.5-1.3,16.9-11.2-3.3-16.3-22.8-8.9-22.4,1,0,5.8,1.8,6.9,2.5.6.4,1.1.8,1.6,1.4"/>
              <path class="cls-2" d="M92.1,65.2h-.9c-7.4-.8-16.7-6.4-6-11.9.4-.2.8-.3,1.2-.5"/>
            </g>
          </g>
          <g class="cls-8">
            <path class="cls-7" d="M132.8,76.2c2-2,3.1-4.6,3.3-7.4,0-1.6-.2-3.1-.8-4.5-.1-.3-.3-.7-.4-1-.9-2-2.7-5-5.9-7.5-1.1-.8-1.4-2.5-.5-3.6.8-1.1,2.5-1.4,3.6-.5,1.2.9,2.3,2,3.2,2.9,0-.2.2-.4.3-.6.5-1.3,1-2.5,1-3.6-.2-5.7-5.3-10.6-11.2-10.7-3.5,0-6.6,1.4-8.8,4.1-2.9,3.6-7.1,5.7-11.6,5.7H25.1c-4.8,0-9.3-2.3-12-6.1-2.1-2.9-5.5-4.6-9.1-4.6s-5.5,1.2-7.5,3.2-3.2,4.6-3.3,7.4c0,1.6.2,3.1.8,4.5.2.5.3.9.5,1.4h0s.4,1.3,1.2,2.8c.7,1.3,1.8,3,3.5,3.8,1.2.7,1.7,2.3,1,3.5-.5.8-1.4,1.4-2.3,1.4s-.8,0-1.2-.3c-1.1-.7-2.1-1.4-2.9-2.3-.4,1.2-.6,2.5-.5,3.7,0,2.6,1.2,5.3,3.3,7.2,2,2,4.6,3.2,7.2,3.3,3.4,0,6.6-1.2,8.8-3.8,2.8-3.3,6.9-5.2,11.3-5.2h81.3c4.5,0,8.7,2.1,11.6,5.7,2.1,2.7,5.3,4.2,8.8,4.1,2.7,0,5.3-1,7.3-3h-.1ZM32.9,58.5h-7.2c-1.4,0-2.6-1.2-2.6-2.6s1.2-2.6,2.6-2.6h7.2c1.4,0,2.6,1.2,2.6,2.6s-1.2,2.6-2.6,2.6ZM71.8,58.5h-26.2c-1.4,0-2.6-1.2-2.6-2.6s1.2-2.6,2.6-2.6h26.2c1.4,0,2.6,1.2,2.6,2.6s-1.2,2.6-2.6,2.6Z"/>
            <path d="M139.7,61.5c-.5-1.6-.3-3.3.3-4.8,0-.2.2-.5.3-.7.7-1.7,1.6-3.6,1.4-5.9-.1-4.1-1.9-8-5.1-11-3.1-2.9-7-4.6-11.2-4.7-5.1,0-9.8,2.1-13,6.1-1.9,2.3-4.6,3.7-7.6,3.7H25.1c-3.1,0-6.1-1.5-7.9-4-3.1-4.3-8.1-6.8-13.3-6.7-4.2,0-8.1,1.6-11,4.6s-4.7,6.8-4.8,10.9c0,2.3.3,4.6,1.2,6.6.8,1.8.8,3.8,0,5.6-.8,2.1-1.2,4.4-1.2,6.6.1,4,1.8,7.7,4.7,10.7,2.9,2.9,6.7,4.7,10.7,4.9,4.9.2,9.7-1.8,12.9-5.6,1.8-2.1,4.5-3.4,7.3-3.4h81.3c2.9,0,5.7,1.4,7.6,3.7,3.1,3.9,7.7,6.1,12.6,6.1h.3c4.1,0,8-1.8,10.9-4.7s4.6-6.8,4.8-10.9c0-1.6-.1-3.1-.5-4.5,0-.3-.3-1.4-.9-2.9h0v.3ZM116.6,75.2c-2.9-3.6-7.1-5.7-11.6-5.7H23.6c-4.3,0-8.4,1.9-11.3,5.2-2.2,2.5-5.4,4-8.8,3.8-2.6,0-5.2-1.3-7.2-3.3s-3.2-4.6-3.3-7.2c0-1.3,0-2.5.5-3.7.8.8,1.8,1.7,2.9,2.3.4.2.8.3,1.2.3.9,0,1.8-.5,2.3-1.4.7-1.2.3-2.8-1-3.5-1.6-.9-2.8-2.6-3.5-3.8-.8-1.5-1.2-2.8-1.2-2.8h0c0-.5-.3-.9-.5-1.4-.6-1.4-.8-2.9-.8-4.5,0-2.8,1.2-5.5,3.3-7.4s4.7-3.1,7.5-3.2c3.6,0,7,1.6,9.1,4.6,2.7,3.8,7.2,6.1,12,6.1h79.9c4.5,0,8.7-2.1,11.6-5.7,2.1-2.7,5.3-4.2,8.8-4.1,5.9,0,11,5,11.2,10.7,0,1.2-.5,2.3-1,3.6,0,.2-.2.4-.3.6-.9-1-2-2-3.2-2.9-1.1-.8-2.7-.7-3.6.5-.8,1.1-.7,2.7.5,3.6,3.3,2.5,5,5.5,5.9,7.5.1.3.2.7.4,1,.6,1.4.8,2.9.8,4.5,0,2.8-1.2,5.4-3.3,7.4s-4.6,3.1-7.4,3.2c-3.3,0-6.5-1.5-8.7-4.2h.2Z"/>
            <path d="M32.9,53.4h-7.2c-1.4,0-2.6,1.2-2.6,2.6s1.2,2.6,2.6,2.6h7.2c1.4,0,2.6-1.2,2.6-2.6s-1.2-2.6-2.6-2.6ZM71.8,53.4h-26.2c-1.4,0-2.6,1.2-2.6,2.6s1.2,2.6,2.6,2.6h26.2c1.4,0,2.6-1.2,2.6-2.6s-1.2-2.6-2.6-2.6Z"/>
          </g>
          <g class="cls-8">
            <path class="cls-4" d="M40.2,55.8c8.4-.7,14,1.3,16.9,6.1,1.9,3.3,4.3,6.1,7.2,8.3,1.6,2,4.5,2.7,8.5,2.3,3.1-1,5.3-2.7,6.8-5.3,1.8-3.6,4.2-6.6,7.2-9.1,1.9-1.4,4.4-2,7.7-2,4,.9,7,2.8,9.1,5.7,1.7,2.1,2.4,5.1,2.3,8.9-1.9,10.2-6.1,18-12.6,23.5-7.1,7.4-17.8,11.1-32.3,11.3-13-1.7-22.7-6.6-29.4-14.6-5-4.2-7.4-11.1-7-20.6,1-4.5,3-7.9,6.1-10.3,2.4-2.1,5.5-3.5,9.3-4.3h.2Z"/>
            <path class="cls-5" d="M40.9,58.1c6.9-.5,11.7,1.3,14.2,5.3,2,3.3,4.4,6.1,7.2,8.3,2.3,2.5,6,3.6,11.3,3.1,2.8-.7,4.9-2,6.4-4.1,2.2-4.1,5-7.7,8.3-10.7,1.5-1.2,3.8-1.6,7-1.2,2.7.9,4.9,2.3,6.4,4.5,1.6,2,2.1,5.1,1.6,9.3-2.1,8.5-6.1,15.2-11.9,20.1-6.6,6.5-16.1,10-28.8,10.5-13-1.3-22.6-5.9-29-13.8-4.6-3.8-6.8-9.8-6.6-18.3.8-4.2,2.7-7.4,5.7-9.5,2.1-1.8,4.9-2.9,8.1-3.5h0ZM101.1,60.5l1.6,2-1.6-2Z"/>
            <path class="cls-6" d="M92.7,67.1l1.4.6.4.8c-1,3.9-3,7.6-6.1,10.3h0l-1.2.4-1-.6c0-2.3,1.4-2.7,2.7-4.4,1.7-2.1,2.9-4.5,3.8-7.2h0ZM39.4,67.5l1.8.2c.3,1.2.7,2.5,1.2,3.6,4.5,10.4,16.4,14.1,27,14.1h0l7.7-2c.8,0,1.1.7,1,1.8-3.5,2.4-8.4,3.3-15,2.5-8.5-1.4-15-4.6-19.7-9.9-2.5-2.3-4.1-5.5-4.7-9.7l.6-.6h.1Z"/>
          </g>
          <g class="cls-8">
            <path d="M108.6,48.9c-5.7,1.5-9.8.8-12.3-2.1-1.7-2-3.6-3.6-5.9-4.8-1.4-1.2-3.4-1.4-6.1-.5-2,1-3.3,2.5-4,4.4-.8,2.7-2.1,5.1-3.8,7.2-1.1,1.2-2.8,2-5.1,2.3-2.9,0-5.1-1-7-2.7-1.4-1.2-2.3-3.2-2.7-5.9,0-7.2,2-13.1,5.8-17.6,4-5.9,10.9-9.8,20.7-11.7,9.1-.4,16.3,1.8,21.9,6.4,4,2.3,6.4,6.7,7.3,13.3,0,3.2-1,5.8-2.9,7.8-1.4,1.8-3.3,3.1-5.9,4h0Z"/>
            <path class="cls-3" d="M107.8,47.4c-4.7,1.2-8.1.5-10.4-1.9-1.7-2-3.7-3.6-5.9-4.8-1.9-1.4-4.6-1.7-8.1-.8-1.8.8-3.1,2-3.9,3.6-1,3.1-2.5,5.9-4.4,8.3-.9,1-2.4,1.6-4.6,1.6-2-.3-3.6-1-4.9-2.3-1.4-1.2-2.1-3.3-2.2-6.2.4-6.1,2.3-11.1,5.7-15.2,3.7-5.3,9.8-8.9,18.4-10.7,9.1-.7,16.2,1.3,21.5,5.9,3.6,2,5.8,5.9,6.8,11.7,0,3-1,5.4-2.7,7.2-1.2,1.4-3,2.6-5.1,3.4h0l-.2.2ZM66.3,53.1l-1.3-1.2,1.3,1.2Z"/>
            <path class="cls-6" d="M71.3,47.6l-1-.3-.4-.5c.3-2.8,1.1-5.5,2.9-7.8h0l.8-.4.7.3c.3,1.6-.7,2.1-1.3,3.3-.8,1.7-1.4,3.5-1.7,5.3h0ZM107.7,40.8h-1.2c-.4-.7-.8-1.5-1.3-2.3-4.4-6.6-13-7.6-20.2-6.3h0l-5.1,2.3c-.5,0-.8-.3-.9-1.1,2-2.1,5.3-3.3,10-3.6,6-.1,10.9,1.4,14.7,4.4,2,1.2,3.5,3.3,4.4,6.1l-.3.5h0Z"/>
          </g>
          <g class="cls-8">
            <path class="cls-1" d="M24.5,37c0,9.6-5.9,14.8-13,14.8S-1.2,46.1-1.2,37.6s5.5-14.8,13-14.8,12.6,5.9,12.6,14.2h0ZM2.7,37.5c0,6,3.3,11.4,9,11.4s9-5.3,9-11.7-2.9-11.4-9-11.4-9,5.5-9,11.7h0Z"/>
            <path class="cls-1" d="M52.8,39.1c-.2-3.9-.5-8.6-.4-12.1h0c-1,3.3-2.1,6.8-3.5,10.7l-4.9,13.6h-2.7l-4.6-13.3c-1.3-4-2.5-7.6-3.3-10.9h0c0,3.5-.3,8.2-.5,12.4l-.8,12h-3.5l2-28.1h4.6l4.8,13.6c1.2,3.5,2.1,6.5,2.9,9.4h0c.7-2.9,1.7-5.9,2.9-9.4l5-13.6h4.6l1.8,28.1h-3.5l-.7-12.3h-.2Z"/>
            <path class="cls-1" d="M77.2,38.2h-10.9v10.2h12.2v3.1h-15.8v-28.1h15.2v3.1h-11.5v8.9h10.9v3-.2Z"/>
            <path class="cls-1" d="M104.6,50.1c-1.6.6-4.8,1.6-8.6,1.6s-7.7-1.1-10.5-3.7c-2.4-2.3-3.9-6.1-3.9-10.5,0-8.4,5.8-14.5,15.2-14.5s5.8.7,7,1.3l-.8,2.9c-1.5-.7-3.4-1.2-6.2-1.2-6.8,0-11.3,4.2-11.3,11.3s4.3,11.3,10.8,11.3,4-.3,4.8-.8v-8.4h-5.7v-2.9h9.2v13.7h0Z"/>
            <path class="cls-1" d="M114.6,42.5l-2.9,8.9h-3.8l9.6-28.1h4.4l9.6,28.1h-3.9l-3-8.9h-10ZM123.8,39.7l-2.7-8.1c-.7-1.8-1-3.5-1.4-5.1h0c-.4,1.7-.8,3.4-1.4,5.1l-2.7,8.1h8.5-.3Z"/>
            <path class="cls-1" d="M56.9,90.1c1,.7,3.5,1.7,6,1.7,4.7,0,6.2-3,6.1-5.3,0-3.8-3.5-5.4-7-5.4h-2v-2.7h2c2.7,0,6.1-1.4,6.1-4.6s-1.4-4.1-4.8-4.1-4.2,1-5.4,1.8l-1-2.7c1.4-1,4.2-2.1,7.1-2.1,5.3,0,7.7,3.2,7.7,6.4s-1.7,5.1-5,6.4h0c3.3.8,6.1,3.3,6.1,7s-3.4,8.1-9.9,8.1-5.7-1-7-1.8l1-2.9h0v.2Z"/>
          </g>
        </g>
      </g>
    </g>
  </g>
</svg>