<?xml version="1.0" encoding="UTF-8"?>
<svg xmlns="http://www.w3.org/2000/svg" version="1.1" viewBox="0 0 120 120">
  <defs>
    <style>
      .cls-1 {
        fill-rule: evenodd;
      }
    </style>
  </defs>
  <!-- Generator: Adobe Illustrator 28.6.0, SVG Export Plug-In . SVG Version: 1.2.0 Build 709)  -->
  <g>
    <g id="Ebene_1">
      <g id="Ebene_9">
        <g>
          <path class="cls-1" d="M99.5,25.3c-9.5-9.5-23.9-11-35-4.6-2.1,1.2-4.5,3.3-4.5,3.3-11.3-10-28.6-9.5-39.5,1.3-11.3,11.3-11.3,29.6,0,40.9l37.5,37.4c1.1,1.1,2.9,1.1,4,0l8.4-8.4c1.1-1.1,1.1-2.9,0-4s-2.9-1.1-4,0l-6.4,6.4L24.5,62.3c-9.1-9.1-9.1-23.8,0-32.9s23.8-9.1,32.9,0l.6.6c1.1,1.1,2.9,1.1,4,0l.6-.6c9.1-9.1,23.8-9.1,32.9,0,8.6,8.6,9.1,22.3,1.3,31.5-1,1.2-.9,3,.3,4,1.2,1,3,.9,4-.3,9.7-11.4,9.1-28.5-1.6-39.2h0Z"/>
          <path class="cls-1" d="M89.7,62c0-.8-.6-1.4-1.4-1.4h-8.5c-.8,0-1.4.6-1.4,1.4v9.9h-9.9c-.8,0-1.4.6-1.4,1.4v8.5c0,.8.6,1.4,1.4,1.4h9.9v9.9c0,.8.6,1.4,1.4,1.4h8.5c.8,0,1.4-.6,1.4-1.4v-9.9h9.9c.8,0,1.4-.6,1.4-1.4v-8.5c0-.8-.6-1.4-1.4-1.4h-9.9v-9.9Z"/>
        </g>
      </g>
    </g>
  </g>
</svg>