<?xml version="1.0" encoding="UTF-8"?>
<svg xmlns="http://www.w3.org/2000/svg" version="1.1" viewBox="0 0 120 120">
  <!-- Generator: Adobe Illustrator 28.6.0, SVG Export Plug-In . SVG Version: 1.2.0 Build 709)  -->
  <g>
    <g id="Ebene_1">
      <g id="Ebene_28">
        <g id="Ebene_1-11">
          <path d="M58.3,13.5c-3.6,9.7-5.3,17.9-5.5,27.4-.2,8.8.8,16.2,3.1,24.5.5,1.7.9,3.1,1,3.3,0,.2-.5-.8-1.3-2.1-3.8-7.2-7.2-11.9-12.2-17-4.4-4.5-8.6-7.8-13.8-11-2.3-1.5-7.4-4.1-7.6-3.9,0,0,.5,1,1.3,2.2,1.5,2.4,1.9,3.1,3.2,6,1.5,3.5,3.6,6.8,8.8,13.2,1.5,1.8,3.4,4,4.3,4.9,3,2.9,7.6,6.6,11.9,9.4,1.2.8,2.2,1.5,2.3,1.6,0,0-.7-.3-1.7-.8-9.5-4.7-19.6-6.5-30.4-5.1-2.3.3-3,.7-1.9,1.2,1.9.8,3.3,1.5,4.9,2.5,2.5,1.7,5.3,2.7,11.7,4.5,4.2,1.3,6.6,1.6,11.7,1.7h3.8c0,0-2.2.5-2.2.5-7.5,1.1-14.2,4.1-20.8,9.3-1,.8-1.8,1.4-1.8,1.5s4.8,0,7.4-.5c2.2-.3,5.7-1,7.7-1.5,1.2-.3,6-2.4,8.4-3.5l1.8-.9-2.1,2.1c-2.2,2.3-4,4.9-5.4,7.6s-1.9,4.1-1.7,4.1c.4,0,5.3-3.5,7-4.9,2.7-2.4,6.3-7.2,7.3-9.7l.5-1.3v3c.5,8.5,3.1,19.3,6,24.2.4.7.8,1.4,1,1.4s.2.3.2.6,0,.5.8.5h.9v-.8c-.2-.5-.6-1.3-1.1-2.1-3.2-4.7-6-17.1-6-25.9v-2.6l.3.5c.2.3.7,1.2,1,2.1,1.6,3.8,5.1,8.2,9.2,11.5,1,.8,4.9,3.4,5.1,3.4s-.6-2-1.7-4.2c-1.4-2.7-3.1-5.1-5.1-7.3l-1.9-1.9,1.8.9c2.6,1.3,7.2,3.1,8.5,3.5,2.2.6,4.9,1,7.1,1.3,2.4.3,7.4.6,7.4.5s-2.8-2.4-5.1-3.9c-5.1-3.5-11.1-5.8-17-6.8-1,0-1.8-.3-1.9-.3,0,0,1.5,0,3.3-.2,4.7,0,7.1-.6,10.7-1.6,6.6-1.9,9.4-3,12.8-5.1,1.1-.7,2.8-1.6,3.9-2q2.2-.8-1.6-1.3c-2.9-.4-9.9-.5-12.7,0-6,.8-12,2.6-17.4,5.2-1,.6-1.9.9-1.8.8,0,0,1-.8,2.3-1.6,4.3-2.9,8.8-6.5,11.9-9.4,2.7-2.6,9-10.8,11.1-14.3.6-1,1.5-2.8,2-4,1.1-2.7,1.9-4.2,3.3-6.3.6-.8,1-1.6,1-1.7,0,0-5.1,2.4-7.6,3.9-10.7,6.5-19,15.2-25.1,26.3-.8,1.5-1.9,3.7-2.4,4.9-.6,1.3-1,2.2-1,2.2,0,0,0-.6.3-1.3,1.8-5.6,3.3-13.9,4.1-21.3.3-3.3.3-6.1-.4-13.6-.6-7.4-1.1-9.9-2.8-14.9-1.2-3.4-2.2-7.8-2.2-9.4s-.3-.6-1.3,1.9h.4Z"/>
        </g>
      </g>
    </g>
  </g>
</svg>