<?xml version="1.0" encoding="UTF-8"?>
<svg xmlns="http://www.w3.org/2000/svg" version="1.1" viewBox="0 0 120 120">
  <!-- Generator: Adobe Illustrator 28.6.0, SVG Export Plug-In . SVG Version: 1.2.0 Build 709)  -->
  <g>
    <g id="Ebene_1">
      <g id="Ebene_11">
        <path d="M80.1,12.6c-.3,0-.5,1.7-.5,3.9s.2,3.9.5,3.9h13.6c-5.7,5.7-13.6,13.6-17.4,17.4-7-5.7-15.7-8.9-24.9-8.9s-20.3,4.1-27.7,11.5c-15.3,15.3-15.3,40.2,0,55.5,7.4,7.4,17.3,11.5,27.7,11.5s20.3-4.1,27.7-11.5c14.4-14.4,15.2-37.2,2.6-52.6,3.8-3.8,11.8-11.8,17.4-17.4v13.6c0,.3,1.8.5,3.9.5s3.8-.2,3.9-.5V12.6h-26.9.1ZM73.9,90.6c-6,6-14,9.3-22.5,9.3s-16.5-3.3-22.5-9.3c-12.4-12.4-12.4-32.5,0-44.9,6-6,14-9.3,22.5-9.3s16.5,3.3,22.5,9.3c12.4,12.4,12.4,32.5,0,44.9Z"/>
      </g>
    </g>
  </g>
</svg>