<?xml version="1.0" encoding="UTF-8"?>
<svg xmlns="http://www.w3.org/2000/svg" version="1.1" viewBox="0 0 120 120">
  <defs>
    <style>
      .cls-1 {
        stroke-width: 4px;
      }

      .cls-1, .cls-2, .cls-3, .cls-4, .cls-5, .cls-6 {
        fill: none;
      }

      .cls-1, .cls-2, .cls-3, .cls-5, .cls-6 {
        stroke-linecap: round;
        stroke-linejoin: round;
      }

      .cls-1, .cls-2, .cls-6 {
        stroke: #1b2122;
      }

      .cls-7 {
        stroke: #19171a;
        stroke-width: 2px;
      }

      .cls-7, .cls-8, .cls-9 {
        stroke-miterlimit: 10;
      }

      .cls-2 {
        stroke-width: 1.8px;
      }

      .cls-10, .cls-11, .cls-8 {
        fill-rule: evenodd;
      }

      .cls-10, .cls-8 {
        fill: #fff;
      }

      .cls-3 {
        stroke: #dcdddd;
        stroke-width: 7.1px;
      }

      .cls-12 {
        fill: #1d2022;
      }

      .cls-13 {
        fill: #fafdff;
      }

      .cls-5 {
        stroke: #9d9f9f;
        stroke-width: .4px;
      }

      .cls-14 {
        display: none;
      }

      .cls-6 {
        stroke-width: 5px;
      }

      .cls-8, .cls-9 {
        stroke: #292b30;
        stroke-width: 3px;
      }
    </style>
  </defs>
  <!-- Generator: Adobe Illustrator 28.6.0, SVG Export Plug-In . SVG Version: 1.2.0 Build 709)  -->
  <g>
    <g id="Ebene_1">
      <g id="Ebene_23">
        <g id="Ebene_1-8">
          <g class="cls-14">
            <path d="M92.2,102.2h-58.6c-2.9,0-5.3-2.4-5.3-5.3v-5.4l-2.1-1.1h-.1C5.9,77.5-6.2,55.7-6.2,31.8v-7c0-3.5,2.8-6.3,6.3-6.3h10.6c1.2-.1,2.3.8,2.3,2,.1,1.2-.8,2.3-2,2.3H.1c-1.1,0-1.9.9-1.9,1.9v7c0,22.3,11.2,42.7,30.1,54.7l3.2,1.7c.7.4,1.2,1.1,1.2,1.9v6.7c0,.5.4.9.9.9h58.6c.5,0,.9-.4.9-.9v-3.2c0-.5-.4-.9-.9-.9h-52.1c-1.2,0-2.1-1.2-2-2.3,0-1.1.9-1.9,2-2h52.1c2.9,0,5.3,2.4,5.3,5.3v3.2c0,2.9-2.4,5.3-5.3,5.3h0Z"/>
            <path d="M101.4,88.8c-1.2,0-2.2-1-2.2-2.2s.4-1.3.9-1.8c17.2-12.1,27.5-31.9,27.5-52.9v-7c0-1.1-.9-1.9-1.9-1.9H19.9c-1.2-.1-2.1-1.2-2-2.3,0-1.1.9-1.9,2-2h105.7c3.5,0,6.3,2.8,6.3,6.3v7c0,22.5-10.9,43.6-29.3,56.5-.4.3-.8.4-1.3.4h.1Z"/>
            <path d="M104,69.3c-.7,0-1.3-.6-1.2-1.3,0-.4.2-.8.5-1,9.8-6.9,15.7-18.2,15.7-30.3v-4c0-.6-.5-1.1-1.1-1.1h-60.5c-.7,0-1.2-.6-1.2-1.3s.5-1.1,1.2-1.2h60.5c2,0,3.6,1.6,3.6,3.6v4c0,12.9-6.3,24.9-16.7,32.3-.2.2-.5.2-.8.2h0Z"/>
          </g>
          <g id="Generatives_Objekt-6">
            <g id="Background-6" class="cls-14">
              <rect class="cls-13" x="-6.2" y="21.1" width="138.2" height="78.6"/>
            </g>
            <g>
              <g>
                <path class="cls-12" d="M21.2,83.9c1.3-.4,3.4,3.1,3.6,4.2.5,2.5-.6,8.4-3.6,4.7-2.8-3.5-.9-8.7-.1-8.8h.1Z"/>
                <path class="cls-12" d="M37.1,99.7c6.2-.8,11.7,6.5,3.2,5.4-2.8-.4-8.3-4.7-3.2-5.4Z"/>
                <path class="cls-12" d="M12,77c1.2-.2,5.9,3.7,4.7,8.5-.7,3.2-4.7-1.2-5.2-2.6-.6-1.5-.9-5.7.5-5.9Z"/>
                <path class="cls-12" d="M19.1,101c.6,0,2,0,2.6.2,2.8.7,1.5,2.3-.4,3.7-3.7,2.8-10.9,1.6-6.3-2.2.9-.8,3-1.6,4.1-1.7h0Z"/>
                <path class="cls-12" d="M29.1,94.2c2-.2,4.4,1.1,4.7,1.8.7,1.4-3.7,4.9-7.4,2.3-2.9-2,.8-4,2.6-4.1h.1Z"/>
              </g>
              <g>
                <path class="cls-12" d="M81.6,90.4c.2,0,.3,0,.5.3v3.6c-.5,1.6-14.9,3.7-17.1,3.8-7.1.5-18.6-.3-25.4-2.4-3.5-1.1-3-.7-2.8-5,11.5,4.4,24.1,5.6,36.2,2.8,4.6-1.1,8.1-3,8.6-3h0Z"/>
                <path class="cls-12" d="M63.6,33.7c1.3-.7,6.3,2.1,6.6,5.7.5,4.7-4.6,1.3-5.8-.6-.5-.8-1.8-4.6-.8-5.2h0Z"/>
                <path class="cls-12" d="M80.3,45.7c4.9-.5,10.8,7.1,3.7,6.1-3.2-.4-8-5.8-3.7-6.1Z"/>
                <path class="cls-12" d="M67.8,47.7c5.6-1.1,11.5,6.8,3.9,5.8-2.3-.3-7.7-5.1-3.9-5.8Z"/>
                <path class="cls-12" d="M55.1,33.7c6.2-.8.8,5.3-1.7,6.1-7.1,2.3-2.9-5.6,1.7-6.1Z"/>
                <path class="cls-12" d="M51.5,51.8c2.9-.4,8.5,1.5,4.9,3.9-3.5,2.3-8.6-.4-8.5-1.8,0-.9,2.9-2,3.6-2.2h0Z"/>
                <path class="cls-12" d="M52.7,43.6c2.6-.4,8,.6,4.1,3.6-3.3,2.5-7.7.8-8.1,0-.8-1.5,2.9-3.3,4-3.5Z"/>
                <path class="cls-12" d="M35,46.6c2.6,0,6.2,1.1,2.8,3.7-3.3,2.5-8.7,1.1-8-1.1.5-1.3,3.7-2.6,5.2-2.7h0Z"/>
                <g>
                  <path class="cls-12" d="M13.3,52.7c7.6,8,29.3,10.1,39.9,10.5,12.9.5,37.3-.8,48.4-7.5,1.8-1.1,3.8-3.3,4-2.9-1.6,53.5-91.4,53.5-92.3,0Z"/>
                  <path class="cls-13" d="M97.5,62.2c2.5-.8,1.1,2.7.5,4.2-2.6,7-8.5,14.2-15,17.8-1.3.8-8.5,4-9.5,3.2-2.3-1.9,3.9-2.1,9.1-5.2,12.1-7.1,13.7-19.6,14.9-20h0Z"/>
                </g>
              </g>
            </g>
            <g>
              <g id="Background-2-3" class="cls-14">
                <polygon class="cls-3" points="-4 97.6 -3.9 23.2 129.9 23.3 129.8 97.6 -4 97.6"/>
                <polygon class="cls-5" points="127.5 25.7 127.1 25.5 -1.6 25.6 -1.7 25.9 -1.7 95.1 -1.2 95.3 127.4 95.3 127.6 94.9 127.5 25.7"/>
              </g>
              <path class="cls-2" d="M32.6,38.9c-5.6,3.6-11.5,7.2-15.6,12.5"/>
              <path class="cls-1" d="M88,42c3.6-5.3,13.4-19.1,16.1-21.6,3-2.8.3-6.4-2.6-5.9-2.2.5-19.7,25.7-25,28.7"/>
              <path class="cls-6" d="M15.7,51c-5.4-7.6,12.6-9.9,16.9-12.1,27.2-17.5,28.8-16,55.4,1.5,16.3,2.2,24.7,9.7,4,16-15.2,4.6-41.5,4.7-57.1,1.8-4.6-.8-16.6-3.6-19.2-7.3h0Z"/>
              <path class="cls-2" d="M87.8,40.4c4.9,3.2,10.2,6.1,13.9,10.9"/>
            </g>
          </g>
          <g class="cls-14">
            <path class="cls-4" d="M124,75.3c1.8-1.8,2.8-4.2,2.9-6.7,0-1.4-.2-2.8-.8-4,0-.3-.2-.6-.4-.9-.8-1.8-2.4-4.5-5.3-6.7-1-.8-1.2-2.2-.4-3.3.8-1,2.2-1.2,3.3-.4,1.1.8,2,1.8,2.9,2.6,0-.2.2-.4.2-.5.5-1.2.9-2.3.9-3.3-.2-5.1-4.7-9.5-10.1-9.7-3.1,0-6,1.3-7.9,3.7-2.6,3.3-6.4,5.1-10.4,5.1H27.1c-4.3,0-8.4-2-10.8-5.5-1.9-2.6-4.9-4.2-8.1-4.1-2.5,0-4.9,1.1-6.7,2.9s-2.9,4.2-2.9,6.7.2,2.8.8,4c.2.4.3.8.4,1.2h0s.4,1.2,1.1,2.5c.6,1.2,1.6,2.7,3.1,3.5,1.1.6,1.5,2,.9,3.2-.4.8-1.2,1.2-2,1.2s-.8,0-1.1-.3c-1-.6-1.9-1.3-2.6-2-.4,1.1-.5,2.2-.5,3.3,0,2.3,1.1,4.7,2.9,6.5,1.8,1.8,4.2,2.9,6.4,3,3,0,5.9-1.1,7.9-3.4,2.5-2.9,6.2-4.7,10.1-4.7h73.1c4,0,7.8,1.9,10.4,5.1,1.9,2.5,4.8,3.8,7.9,3.7,2.4,0,4.7-.9,6.6-2.7h0ZM34.2,59.5h-6.5c-1.3,0-2.3-1.1-2.3-2.3s1.1-2.3,2.3-2.3h6.5c1.3,0,2.3,1.1,2.3,2.3s-1.1,2.3-2.3,2.3ZM69.2,59.5h-23.5c-1.3,0-2.3-1.1-2.3-2.3s1.1-2.3,2.3-2.3h23.5c1.3,0,2.3,1.1,2.3,2.3s-1.1,2.3-2.3,2.3Z"/>
            <path d="M130.2,62.1c-.4-1.4-.3-2.9.2-4.3,0-.2.2-.4.2-.6.6-1.5,1.4-3.2,1.3-5.3-.1-3.7-1.7-7.2-4.6-9.9-2.8-2.6-6.3-4.2-10.1-4.2-4.6,0-8.8,1.9-11.7,5.5-1.7,2.1-4.2,3.3-6.8,3.3H27.1c-2.8,0-5.5-1.3-7.1-3.6-2.8-3.9-7.3-6.1-12-6-3.7,0-7.3,1.5-9.9,4.1s-4.2,6.1-4.3,9.8c0,2,.3,4.1,1.1,6,.7,1.6.7,3.4,0,5-.7,1.9-1.1,3.9-1.1,6,0,3.6,1.6,7,4.2,9.7,2.6,2.6,6,4.2,9.6,4.4,4.5.2,8.7-1.6,11.6-5,1.6-1.9,4-3,6.6-3h73.1c2.6,0,5.1,1.2,6.8,3.3,2.8,3.5,6.9,5.5,11.3,5.5h.3c3.7,0,7.2-1.6,9.8-4.2,2.6-2.6,4.2-6.1,4.3-9.8,0-1.4-.1-2.8-.5-4,0-.3-.2-1.3-.8-2.6h0ZM109.4,74.5c-2.6-3.3-6.4-5.2-10.4-5.2H25.8c-3.9,0-7.6,1.7-10.1,4.7-2,2.3-4.9,3.6-7.9,3.4-2.3,0-4.7-1.2-6.4-3s-2.9-4.2-2.9-6.5.1-2.3.5-3.3c.8.8,1.6,1.5,2.6,2,.4.2.8.3,1.1.3.8,0,1.6-.4,2-1.2.6-1.1.2-2.5-.9-3.2-1.5-.8-2.5-2.3-3.1-3.5C0,57.7-.4,56.5-.4,56.5h0c0-.4-.2-.8-.4-1.2-.5-1.3-.8-2.6-.8-4,0-2.5,1.1-4.9,2.9-6.7s4.2-2.8,6.7-2.9c3.2,0,6.3,1.5,8.1,4.1,2.5,3.5,6.5,5.5,10.8,5.5h71.8c4,0,7.8-1.9,10.4-5.1,1.9-2.4,4.8-3.7,7.9-3.7,5.3,0,9.9,4.5,10.1,9.7,0,1.1-.4,2.1-.9,3.3,0,.2-.2.4-.2.5-.8-.9-1.8-1.8-2.9-2.6-1-.8-2.5-.6-3.3.4s-.6,2.5.4,3.3c2.9,2.2,4.5,4.9,5.3,6.7,0,.3.2.6.4.9.5,1.3.8,2.6.8,4,0,2.5-1.1,4.9-2.9,6.7s-4.2,2.8-6.7,2.9c-3,0-5.9-1.3-7.8-3.8h0Z"/>
            <path d="M34.2,54.8h-6.5c-1.3,0-2.3,1.1-2.3,2.3s1.1,2.3,2.3,2.3h6.5c1.3,0,2.3-1.1,2.3-2.3s-1.1-2.3-2.3-2.3ZM69.2,54.8h-23.5c-1.3,0-2.3,1.1-2.3,2.3s1.1,2.3,2.3,2.3h23.5c1.3,0,2.3-1.1,2.3-2.3s-1.1-2.3-2.3-2.3Z"/>
          </g>
          <g class="cls-14">
            <path class="cls-9" d="M40.7,57c7.6-.6,12.6,1.2,15.2,5.4,1.7,3,3.9,5.5,6.4,7.5,1.5,1.8,4,2.5,7.7,2.1,2.8-.9,4.8-2.4,6.1-4.7,1.6-3.2,3.8-6,6.4-8.2,1.7-1.2,4-1.8,7-1.8,3.6.8,6.3,2.5,8.2,5.1,1.5,1.9,2.2,4.6,2.1,8-1.7,9.1-5.5,16.2-11.4,21.1-6.4,6.7-16,10-29,10.1-11.7-1.5-20.4-5.9-26.4-13.1-4.5-3.7-6.6-10-6.3-18.6.9-4,2.7-7.1,5.4-9.3,2.2-1.9,5-3.2,8.4-3.9h0l.2.3Z"/>
            <path class="cls-10" d="M41.4,59.1c6.2-.4,10.5,1.2,12.8,4.7,1.8,2.9,3.9,5.4,6.4,7.5,2,2.3,5.4,3.2,10.1,2.8,2.5-.6,4.5-1.8,5.8-3.7,2-3.7,4.5-6.9,7.5-9.6,1.3-1.1,3.5-1.4,6.3-1.1,2.5.8,4.4,2.1,5.8,4,1.5,1.8,1.9,4.6,1.4,8.4-1.9,7.6-5.4,13.6-10.7,18-5.9,5.9-14.5,9-25.9,9.4-11.7-1.2-20.3-5.3-26.1-12.4-4.1-3.4-6.1-8.8-6-16.5.8-3.8,2.5-6.7,5.1-8.5,1.9-1.6,4.4-2.6,7.3-3.2h0l.2.2ZM95.5,61.2l1.4,1.8-1.4-1.8Z"/>
            <path class="cls-11" d="M87.9,67.2l1.2.5.4.7c-.9,3.5-2.7,6.9-5.4,9.3h0l-1.1.4-.9-.5c0-2.1,1.3-2.5,2.4-3.9,1.5-1.9,2.6-4,3.4-6.4h0ZM40,67.6l1.6.2c.3,1.1.6,2.2,1.1,3.3,4,9.4,14.8,12.6,24.2,12.6h0l7-1.8c.7,0,1,.6.9,1.6-3.1,2.2-7.6,2.9-13.5,2.3-7.7-1.2-13.5-4.2-17.7-8.9-2.3-2-3.7-5-4.2-8.7l.5-.5h.1Z"/>
          </g>
          <g class="cls-14">
            <path d="M102.3,50.8c-5.1,1.3-8.8.8-11.1-1.9-1.5-1.8-3.3-3.3-5.3-4.3-1.2-1.1-3-1.2-5.5-.5-1.8.9-3,2.2-3.6,4-.8,2.4-1.9,4.6-3.4,6.4-1,1.1-2.5,1.8-4.6,2-2.6,0-4.6-.9-6.3-2.5-1.2-1.1-2-2.9-2.4-5.3,0-6.4,1.8-11.8,5.2-15.9,3.6-5.3,9.8-8.8,18.6-10.5,8.1-.4,14.7,1.6,19.7,5.7,3.6,2,5.7,6,6.6,11.9,0,2.9-.9,5.2-2.6,7-1.2,1.6-3,2.8-5.3,3.6h0v.3Z"/>
            <path class="cls-8" d="M101.5,49.5c-4.2,1.1-7.3.5-9.3-1.7-1.5-1.8-3.3-3.2-5.3-4.3-1.7-1.3-4.1-1.5-7.3-.7-1.6.7-2.8,1.8-3.5,3.2-.9,2.8-2.2,5.3-4,7.5-.8.9-2.2,1.4-4.2,1.5-1.8-.2-3.3-.9-4.5-2-1.2-1.1-1.9-2.9-2-5.6.4-5.4,2-10,5.1-13.6,3.3-4.7,8.8-8,16.6-9.6,8.1-.6,14.6,1.2,19.3,5.3,3.2,1.8,5.2,5.3,6.1,10.5,0,2.7-.9,4.9-2.4,6.5-1.1,1.3-2.7,2.3-4.6,3h0ZM64.2,54.6l-1.2-1.1,1.2,1.1Z"/>
            <path class="cls-11" d="M68.7,49.6l-.9-.2-.4-.4c.2-2.5,1-5,2.6-7h0l.7-.4.6.2c.2,1.4-.6,1.9-1.2,3-.8,1.5-1.3,3.1-1.5,4.8h.1ZM101.4,43.5h-1.1c-.4-.6-.7-1.3-1.2-2-3.9-5.9-11.7-6.9-18.2-5.7h0l-4.6,2c-.5,0-.8-.3-.8-1,1.8-1.9,4.8-2.9,9-3.2,5.4,0,9.8,1.2,13.2,3.9,1.8,1.1,3.1,2.9,3.9,5.4l-.3.4h0v.2Z"/>
          </g>
          <g class="cls-14">
            <path class="cls-7" d="M26.6,40.2c0,8.7-5.3,13.3-11.7,13.3s-11.4-5.2-11.4-12.8,5-13.3,11.7-13.3,11.4,5.3,11.4,12.8h0ZM7,40.6c0,5.4,2.9,10.2,8.1,10.2s8.1-4.7,8.1-10.5-2.6-10.2-8.1-10.2-8.1,5-8.1,10.5h0Z"/>
            <path class="cls-7" d="M52.1,42c-.2-3.5-.4-7.7-.4-10.9h0c-.9,3-1.9,6.1-3.2,9.6l-4.5,12.2h-2.5l-4.1-12c-1.2-3.6-2.2-6.8-2.9-9.8h0c0,3.2-.2,7.4-.5,11.2l-.7,10.8h-3.1l1.8-25.2h4.2l4.3,12.2c1.1,3.1,1.9,5.9,2.6,8.5h0c.6-2.6,1.5-5.3,2.6-8.5l4.5-12.2h4.2l1.6,25.2h-3.2l-.6-11.1s0,0,0,0Z"/>
            <path class="cls-7" d="M74,41.2h-9.8v9.1h10.9v2.8h-14.2v-25.3h13.6v2.8h-10.4v8h9.8v2.7h0Z"/>
            <path class="cls-7" d="M98.6,51.9c-1.5.5-4.3,1.4-7.7,1.4s-7-1-9.4-3.3c-2.2-2.1-3.5-5.4-3.5-9.4,0-7.6,5.2-13.1,13.7-13.1s5.2.6,6.3,1.2l-.8,2.6c-1.3-.6-3-1.1-5.6-1.1-6.1,0-10.1,3.8-10.1,10.1s3.9,10.2,9.7,10.2,3.6-.3,4.3-.7v-7.6h-5.2v-2.6h8.3s0,12.3,0,12.3Z"/>
            <path class="cls-7" d="M107.6,45.1l-2.6,8h-3.4l8.6-25.2h3.9l8.6,25.2h-3.5l-2.7-8h-9,0ZM116,42.6l-2.5-7.3c-.6-1.6-.9-3.2-1.3-4.6h0c-.4,1.5-.8,3-1.3,4.6l-2.5,7.3h7.6Z"/>
            <path class="cls-7" d="M55.8,87.9c.9.6,3.1,1.5,5.4,1.5,4.2,0,5.6-2.7,5.5-4.7,0-3.4-3.1-4.9-6.3-4.9h-1.8v-2.5h1.8c2.4,0,5.4-1.2,5.4-4.1s-1.2-3.7-4.3-3.7-3.8.9-4.9,1.6l-.9-2.4c1.3-.9,3.7-1.9,6.4-1.9,4.8,0,7,2.9,7,5.8s-1.5,4.6-4.5,5.7h0c3,.7,5.4,2.9,5.4,6.3s-3,7.3-8.9,7.3-5.2-.9-6.3-1.6l.9-2.6h0v.2Z"/>
          </g>
        </g>
      </g>
    </g>
  </g>
</svg>