<?xml version="1.0" encoding="UTF-8"?>
<svg xmlns="http://www.w3.org/2000/svg" version="1.1" viewBox="0 0 120 120">
  <defs>
    <style>
      .cls-1 {
        fill: none;
        stroke: #222224;
        stroke-miterlimit: 10;
        stroke-width: 4px;
      }
    </style>
  </defs>
  <!-- Generator: Adobe Illustrator 28.6.0, SVG Export Plug-In . SVG Version: 1.2.0 Build 709)  -->
  <g>
    <g id="Ebene_1">
      <g id="Ebene_29">
        <g id="Ebene_1-12">
          <g id="Generatives_Objekt-8">
            <g>
              <path class="cls-1" d="M100.9,37c-.7-4.6-2.1-8.7-6.1-11.6-7.4-.8-10.3,1.8-16.4,5.6,6.4,2.1,11.8-.3,12.4,0,2,3.3,6.1,5.1,10.1,6.1h0Z"/>
              <path class="cls-1" d="M103,15c-6,5.5-8.3,9.1-12,15.8"/>
              <path class="cls-1" d="M33.9,101.2c17.7-1.9,35.6-18.9,46.2-31.3,9.8-11.6,18.7-23.1,10.3-36-.4-.3-3.6,1.8-4.1,2.2-11.3,7.3-24.7,24.8-39.2,36.4-13.7,10.9-23.3,12.6-31.9,22.6-.5,1,5.1,4.1,7.9,5,3.3,1.1,7.2,1.6,10.8,1.2h0Z"/>
              <line class="cls-1" x1="73.1" y1="52.1" x2="71.5" y2="51"/>
              <path class="cls-1" d="M72.4,61.4c5.4,6,1,14.3-8.3,11.9"/>
              <path class="cls-1" d="M72.4,61.4c-3.3.5-6.1-.8-9,1.9-7.4,6.8,6.2,14.1-2.6,20.2-2.6,1.8-5,1.3-7.8.6"/>
              <path class="cls-1" d="M50.2,81.9c-.8-6.6,3.3-10.9,10.7-9.1"/>
              <path class="cls-1" d="M50.2,81.9c-.2-.2-4.7-.8-5.7-.8-5.2.4-7,5.2-7.1,9.1,2.6,1.7,4.7,3.8,8.5,3,6.6-1.4,6.9-9.2,4.3-11.4h0Z"/>
              <path class="cls-1" d="M74.3,61.3c5.2,3.5,14.2-3.4,9.6-9.1-5.6-7.1-18.6,3.1-9.6,9.1Z"/>
              <path class="cls-1" d="M37.2,91.9c1.9,3.9-6,9.5-10,4.7-4.4-5.3,6.1-12.7,10-4.7Z"/>
            </g>
          </g>
        </g>
      </g>
    </g>
  </g>
</svg>