<?xml version="1.0" encoding="UTF-8"?>
<svg xmlns="http://www.w3.org/2000/svg" version="1.1" viewBox="0 0 120 120">
  <defs>
    <style>
      .cls-1 {
        stroke-width: 3px;
      }

      .cls-1, .cls-2, .cls-3, .cls-4, .cls-5, .cls-6, .cls-7 {
        fill: none;
        stroke-linecap: round;
        stroke-linejoin: round;
      }

      .cls-1, .cls-3 {
        stroke: #18191c;
      }

      .cls-2 {
        stroke-width: 1.6px;
      }

      .cls-2, .cls-4 {
        stroke: #16171a;
      }

      .cls-3, .cls-4, .cls-5, .cls-6, .cls-7 {
        stroke-width: 1.7px;
      }

      .cls-8 {
        fill: #18191c;
      }

      .cls-5 {
        stroke: #17181b;
      }

      .cls-6 {
        stroke: #16181a;
      }

      .cls-7 {
        stroke: #16181b;
      }
    </style>
  </defs>
  <!-- Generator: Adobe Illustrator 28.6.0, SVG Export Plug-In . SVG Version: 1.2.0 Build 709)  -->
  <g>
    <g id="Ebene_1">
      <g id="Ebene_24">
        <path class="cls-3" d="M42.4,30.2c2.6.5,5.2.9,7.7,1.6,6.7,2,42.3,17.2,48.3,20.7,1.9,1.1,3.7,2.4,5.5,3.6"/>
        <path class="cls-1" d="M48.3,51.5c-6.8-4.3-11.4-13.3-7.2-20.9s12.9-8.8,20.3-6.5,7.6,4,11.3,6.2c3.7,2.2,9.4,3.7,14.7,4.8,8.4,1.7,17.2,7.3,17.7,16.8.5,9.6-8.4,14.7-16.9,14.6"/>
        <path class="cls-3" d="M40.5,33c2.9,1.9,5.7,3.6,8.7,5.2,5.4,2.7,11.3,4.3,16.8,6.6,12,5,23.2,12.1,36.1,14.4"/>
        <path class="cls-1" d="M92.2,96.4c-6.9,1.4-12.2-.9-18.5-2-11.9-2-14.9,1.6-23.2.4-6.1-.8-13.2-4.7-15.4-10.8-.3-.7-.5-1.5-.6-2.3h0c-1.1-8.4,4.8-14.4,12.5-16.4,8.4-2.2,14.8,1.2,19.4,1.8,8.8,1,22.4-3.4,31.6,2.2,12.7,7.6,9.9,23.8-5.8,27.1Z"/>
        <path class="cls-8" d="M68.6,51.5c-8-1.2-15.3,3.7-23.3,3.6-6.2.3-11.7-1.2-17.5.6-8.9,2.4-15.9,11.6-10.5,20.4,3.4,5.5,10.8,7.3,17.1,6.6,1.2,0,2-.6,3,.7h.3c4.7,3.2,10.2,4.8,15.9,4.6,5.7,0,11.4-1.1,17.1-.2,8.4,1.1,16.8,3.4,25.2,1.4,2.7-.6,5.3-1.9,8.1-2.6.2,0,.4,0,.4.3s0,.4-.3.4c-2.7.7-5.3,2-8.1,2.7-2.8.7-5.7.9-8.6.8-8.6-.2-16.8-3.1-25.4-2.4-9,.8-17,1.2-24.9-4.2h.3c-.4.9-.8,1.2-1.4,1.3-7.8,1.3-17.1-.5-21.7-7.6-6.8-10.8,1.1-22.5,12.3-25.6,5.9-1.9,12.6-.4,18.3-.7,6,0,11.5-2.5,17.5-3.3,2.1-.2,4.3-.2,6.4.2.8,0,1.4.9,1.2,1.7,0,.8-.9,1.3-1.7,1.2h.3Z"/>
        <path class="cls-3" d="M14.5,68.9c7.6-2.3,15.4-3.4,23.4-4"/>
        <path class="cls-3" d="M104.2,78.3c-13.2-8.1-20.4-4.8-30.7-4.8s-18.5-4-28.1-1.9c-4.1.9-6.1,2.4-8.9,2.8"/>
        <line class="cls-3" x1="14.9" y1="73.2" x2="31.9" y2="73"/>
        <line class="cls-3" x1="35.2" y1="78.9" x2="105.3" y2="82.4"/>
        <path class="cls-5" d="M31.5,79.8c-3.7.4-7.3-1-10.6-2.6"/>
        <path class="cls-7" d="M62.5,54.6c-5.1,1.1-9.9,3-15.1,3.6-7,.8-14.4-1.3-21.2,1.3"/>
        <line class="cls-6" x1="71.7" y1="59" x2="59.2" y2="60.7"/>
        <path class="cls-4" d="M43.4,40.2c2.8,4.5,7.3,7.6,12.1,9.6"/>
        <line class="cls-4" x1="52.5" y1="27.4" x2="60.4" y2="28.7"/>
        <line class="cls-2" x1="93.3" y1="62.8" x2="83" y2="60.9"/>
        <path class="cls-2" d="M85.4,40.6c4.5.8,9.6,2,12.7,5.6"/>
      </g>
    </g>
  </g>
</svg>