<?xml version="1.0" encoding="UTF-8"?>
<svg xmlns="http://www.w3.org/2000/svg" version="1.1" viewBox="0 0 120 120">
  <defs>
    <style>
      .cls-1 {
        stroke: #19171a;
        stroke-width: 2px;
      }

      .cls-1, .cls-2, .cls-3 {
        stroke-miterlimit: 10;
      }

      .cls-4 {
        fill: #202226;
      }

      .cls-5, .cls-6, .cls-2 {
        fill-rule: evenodd;
      }

      .cls-5, .cls-2 {
        fill: #fff;
      }

      .cls-7, .cls-8, .cls-9, .cls-10, .cls-11, .cls-12, .cls-13, .cls-14 {
        fill: none;
      }

      .cls-8 {
        stroke: #222528;
      }

      .cls-8, .cls-9, .cls-10, .cls-11, .cls-12, .cls-13, .cls-14 {
        stroke-linecap: round;
        stroke-linejoin: round;
      }

      .cls-8, .cls-11, .cls-12 {
        stroke-width: 2.6px;
      }

      .cls-9, .cls-10 {
        stroke: #000;
      }

      .cls-9, .cls-2, .cls-3 {
        stroke-width: 3px;
      }

      .cls-10, .cls-13 {
        stroke-width: 4px;
      }

      .cls-11 {
        stroke: #212427;
      }

      .cls-12, .cls-13 {
        stroke: #212327;
      }

      .cls-15 {
        display: none;
      }

      .cls-16 {
        fill: #fefefe;
      }

      .cls-2, .cls-3 {
        stroke: #292b30;
      }

      .cls-14 {
        stroke: #202427;
        stroke-width: 2.4px;
      }
    </style>
  </defs>
  <!-- Generator: Adobe Illustrator 28.6.0, SVG Export Plug-In . SVG Version: 1.2.0 Build 709)  -->
  <g>
    <g id="Ebene_1">
      <g id="Ebene_25">
        <g id="Ebene_1-9">
          <g class="cls-15">
            <path d="M92,39.8v42c0,2.1-1.7,3.8-3.8,3.8h-3.9l-.8,1.5h0c-9.2,14.5-24.8,23.2-41.9,23.2h-5c-2.5,0-4.5-2-4.5-4.5v-7.6c0-.9.6-1.6,1.5-1.7.9,0,1.6.6,1.7,1.5v7.8c0,.8.6,1.3,1.4,1.3h5c16,0,30.6-8,39.2-21.5l1.2-2.3c.3-.5.8-.8,1.4-.8h4.8c.4,0,.7-.3.7-.7v-42c0-.4-.3-.7-.7-.7h-2.3c-.4,0-.7.3-.7.7v37.3c0,.9-.8,1.5-1.7,1.5s-1.4-.7-1.5-1.5v-37.3c0-2.1,1.7-3.8,3.8-3.8h2.3c2.1,0,3.8,1.7,3.8,3.8h0Z"/>
            <path d="M82.4,33.2c0,.9-.7,1.6-1.6,1.6s-1-.3-1.3-.7c-8.7-12.3-22.8-19.7-37.9-19.7h-5c-.8,0-1.4.6-1.4,1.4v75.7c0,.9-.8,1.5-1.7,1.5s-1.4-.7-1.5-1.5V15.9c0-2.5,2-4.5,4.5-4.5h5c16.1,0,31.2,7.8,40.5,21,.2.3.3.6.3.9h0Z"/>
            <path d="M68.4,31.4c0,.5-.4.9-.9.9s-.5,0-.7-.4c-4.9-7-13-11.2-21.7-11.2h-2.9c-.4,0-.8.4-.8.8v43.3c0,.5-.5.9-1,.8-.5,0-.8-.4-.8-.8V21.5c0-1.4,1.1-2.6,2.6-2.6h2.9c9.2,0,17.8,4.5,23.1,12,0,.2.2.3.2.5h0Z"/>
          </g>
          <g id="Generatives_Objekt-7">
            <g>
              <g id="Background-7" class="cls-15">
                <rect class="cls-16" x="33.8" y="12" width="55.8" height="98"/>
              </g>
              <g>
                <path class="cls-7" d="M66.4,100.9c2.5.3,2.3-.2,3.9-2.3,12.6-16.8,15-56.5,2.1-73.4-1.6-2-2.4-3.4-4.7-2.9.8-4.1,1-5.8,4.7-4.1,19.5,8.7,21.9,65.4,1.4,82.4-2.9,2.4-3.8,3.1-7.4,2.3h-.2.2v-2h0Z"/>
                <path class="cls-7" d="M67.2,26.3c-1.5,11.9-1.4,48.6-1.1,62.5-1,0-2.1.3-2.3-.4-.5-3.5-1.7-7-2.5-10.4-2.7-11.8-5.7-32-4.9-43.9.3-4.9,1.6-8.2,7.2-8.1.2,0,1.5.5,3.7.3h0Z"/>
                <path class="cls-7" d="M67.2,26.3c-2.3.3-3.6-.3-3.7-.3-5.6,0-6.8,3.2-7.2,8.1-.8,11.9,2.2,32,4.9,43.9.8,3.5,2,7,2.5,10.4.3.7,1.3.3,2.3.4,0,2.9.3,5.9.3,8.8-2.7-.6-3.8,2.1-3.5,4.4-.7-.2-1.3-.4-2-.4l-.3-.2c.4-1,.3-6.9.2-8.4-.5-4.3-3.4-15.4-4.6-22.1-2.8-15.8-4.1-30.8-1.8-46.7.6,0,1.2-.3,1.8-.5,5.1-1.8,4.7-2,10.2-.9.5,0,.9.2,1.4.4-.2,1-.3,2.1-.4,3.1h-.1Z"/>
                <path class="cls-4" d="M46.7,31.6c-.3-2.1,2-4.1,2.9-2.1.9,2.1-2.5,4.5-2.9,2.1Z"/>
              </g>
            </g>
            <g>
              <path class="cls-13" d="M56.1,23.7c5.1-1.8,4.7-2,10.2-.9"/>
              <path class="cls-9" d="M55.1,20.6c0-2,.3-3.6-2.5-2.8-2.8.9-6,4.1-7.8,6.4-14,17.9-11.4,68.8,8.9,78.6.8.4,3.3,1.3,4.1,1.1.8,0,2.6-1.8,2.8-2.5.4-1,.3-6.9.2-8.4-.5-4.3-3.4-15.4-4.6-22.1-2.8-15.8-4.1-30.8-1.8-46.7.2-1.1.7-2.3.8-3.6h0Z"/>
              <path class="cls-10" d="M66.4,100.9v-3.3c0-2.9-.3-5.9-.3-8.8-.3-13.9-.4-50.6,1.1-62.5,0-1,.2-2.1.4-3.1v-.8c.8-4.1,1-5.8,4.7-4.1,19.5,8.7,21.9,65.4,1.4,82.4-2.9,2.4-3.8,3.1-7.4,2.3h-.2c-1.1-.2-2.2-.6-3.3-.9-.7-.2-1.3-.4-2-.4"/>
              <line class="cls-14" x1="77.5" y1="46.5" x2="77.7" y2="47.3"/>
              <line class="cls-12" x1="46.2" y1="43.4" x2="46.4" y2="41.6"/>
              <line class="cls-11" x1="75.7" y1="36.1" x2="77" y2="41.8"/>
              <line class="cls-8" x1="47.2" y1="33.6" x2="46.6" y2="38"/>
              <line class="cls-11" x1="74.8" y1="33.5" x2="72.7" y2="29.2"/>
            </g>
          </g>
          <g class="cls-15">
            <path class="cls-7" d="M72.8,17.1c-1.3-1.3-3-2-4.8-2.1-1,0-2,.1-2.9.5-.2,0-.4.2-.6.3-1.3.6-3.2,1.7-4.8,3.8-.5.7-1.6.9-2.3.3-.7-.5-.9-1.6-.3-2.3.6-.8,1.3-1.5,1.9-2.1,0,0-.3-.1-.4-.2-.8-.3-1.6-.7-2.3-.7-3.6.1-6.8,3.4-6.9,7.2,0,2.2.9,4.3,2.6,5.7,2.3,1.8,3.6,4.6,3.6,7.5v51.4c0,3.1-1.5,6-3.9,7.8-1.9,1.3-3,3.5-2.9,5.8,0,1.8.8,3.5,2.1,4.8s3,2.1,4.8,2.1,2,0,2.9-.5c.3,0,.6-.2.9-.3h0s.8-.3,1.8-.8c.8-.4,1.9-1.2,2.5-2.2.5-.8,1.5-1.1,2.3-.7.5.3.9.9.9,1.5s0,.5-.2.8c-.4.7-.9,1.3-1.5,1.8.8.3,1.6.4,2.4.3,1.7,0,3.4-.8,4.7-2.1s2.1-3,2.1-4.6-.8-4.2-2.4-5.7c-2.1-1.8-3.4-4.4-3.4-7.3v-52.4c0-2.9,1.3-5.6,3.6-7.5,1.8-1.4,2.7-3.4,2.6-5.7,0-1.7-.6-3.4-1.9-4.7h0l-.2.3ZM61.4,81.4v4.7c0,.9-.8,1.7-1.7,1.7s-1.7-.8-1.7-1.7v-4.7c0-.9.8-1.7,1.7-1.7s1.7.8,1.7,1.7ZM61.4,56.3v16.9c0,.9-.8,1.7-1.7,1.7s-1.7-.8-1.7-1.7v-16.9c0-.9.8-1.7,1.7-1.7s1.7.8,1.7,1.7Z"/>
            <path d="M63.3,12.6c-1,.3-2.1.2-3.1-.2,0,0-.3-.1-.4-.2-1.1-.5-2.3-1-3.8-.9-2.6,0-5.2,1.2-7.1,3.3-1.9,2-3,4.5-3,7.2s1.4,6.3,3.9,8.3c1.5,1.2,2.4,3,2.4,4.9v51.3c0,2-1,3.9-2.6,5.1-2.8,2-4.4,5.2-4.3,8.6,0,2.7,1,5.2,2.9,7.1s4.4,3,7,3.1c1.5,0,2.9-.2,4.3-.8,1.2-.5,2.4-.5,3.6,0,1.4.5,2.8.8,4.3.8,2.6,0,5-1.1,6.9-3s3-4.3,3.1-6.9c0-3.2-1.2-6.2-3.6-8.3-1.4-1.2-2.2-2.9-2.2-4.7v-52.4c0-1.9.9-3.6,2.4-4.9,2.5-2,3.9-4.9,3.9-8.1v-.2c0-2.6-1.1-5.2-3-7s-4.4-3-7-3.1c-1,0-2,0-2.9.3-.2,0-.9.2-1.9.6h.2ZM72.2,27.5c-2.3,1.8-3.7,4.6-3.7,7.5v52.4c0,2.8,1.2,5.4,3.4,7.3,1.6,1.4,2.6,3.5,2.4,5.7,0,1.7-.8,3.4-2.1,4.6s-3,2.1-4.7,2.1-1.6,0-2.4-.3c.5-.5,1.1-1.1,1.5-1.8,0-.3.2-.5.2-.8,0-.6-.3-1.1-.9-1.5-.8-.5-1.8-.2-2.3.7-.6,1-1.7,1.8-2.5,2.2-1,.5-1.8.8-1.8.8h0c-.3,0-.6.2-.9.3-.9.4-1.9.5-2.9.5-1.8,0-3.5-.8-4.8-2.1s-2-3-2.1-4.8c0-2.3,1-4.5,2.9-5.8,2.5-1.8,3.9-4.7,3.9-7.8v-51.4c0-2.9-1.3-5.6-3.6-7.5-1.7-1.4-2.7-3.4-2.6-5.7,0-3.8,3.2-7.1,6.9-7.2.8,0,1.5.3,2.3.7,0,0,.3.1.4.2-.6.6-1.3,1.3-1.9,2.1-.5.7-.4,1.8.3,2.3s1.8.4,2.3-.3c1.6-2.1,3.5-3.2,4.8-3.8.2,0,.4-.1.6-.3.9-.4,1.9-.5,2.9-.5,1.8,0,3.5.8,4.8,2.1s2,3,2.1,4.8c0,2.1-1,4.2-2.7,5.6h0l.2-.3Z"/>
            <path d="M58.1,81.4v4.7c0,.9.8,1.7,1.7,1.7s1.7-.8,1.7-1.7v-4.7c0-.9-.8-1.7-1.7-1.7s-1.7.8-1.7,1.7ZM58.1,56.3v16.9c0,.9.8,1.7,1.7,1.7s1.7-.8,1.7-1.7v-16.9c0-.9-.8-1.7-1.7-1.7s-1.7.8-1.7,1.7Z"/>
          </g>
          <g class="cls-15">
            <path class="cls-3" d="M59.7,76.7c-.5-5.4.8-9,3.9-10.9,2.1-1.2,3.9-2.8,5.4-4.6,1.3-1,1.8-2.9,1.5-5.5-.6-2-1.7-3.4-3.4-4.4-2.3-1.2-4.3-2.7-5.9-4.6-.9-1.2-1.3-2.9-1.3-5,.6-2.6,1.8-4.5,3.6-5.9,1.3-1.1,3.3-1.6,5.7-1.5,6.5,1.2,11.6,3.9,15.1,8.1,4.8,4.6,7.2,11.5,7.3,20.8-1.1,8.3-4.2,14.6-9.4,18.9-2.7,3.2-7.1,4.7-13.3,4.5-2.9-.6-5.1-1.9-6.6-3.9-1.4-1.6-2.3-3.6-2.8-6h.2Z"/>
            <path class="cls-5" d="M61.2,76.2c-.3-4.4.8-7.5,3.4-9.1,2.1-1.3,3.9-2.8,5.4-4.6,1.6-1.5,2.3-3.9,2-7.3-.4-1.8-1.3-3.2-2.6-4.1-2.6-1.4-4.9-3.2-6.9-5.4-.8-1-1-2.5-.8-4.5.6-1.8,1.5-3.1,2.9-4.1,1.3-1,3.3-1.4,6-1,5.4,1.4,9.8,3.9,12.9,7.6,4.2,4.2,6.5,10.4,6.7,18.5-.8,8.3-3.8,14.5-8.9,18.7-2.4,2.9-6.3,4.4-11.8,4.3-2.7-.5-4.8-1.8-6.1-3.6-1.1-1.4-1.9-3.1-2.3-5.2h0v-.2ZM62.7,37.4l1.3-1-1.3,1Z"/>
            <path class="cls-6" d="M67,42.9l.4-.9.5-.3c2.5.7,4.9,1.9,6.6,3.9h0l.3.8-.4.6c-1.5,0-1.8-.9-2.8-1.7-1.4-1.1-2.9-1.9-4.6-2.4h0ZM67.2,77.2v-1.1c.9-.2,1.7-.5,2.5-.8,6.7-2.9,9.1-10.6,9.1-17.4h0l-1.3-5c0-.5.5-.7,1.1-.6,1.6,2.2,2.1,5.4,1.6,9.6-.9,5.5-3,9.7-6.4,12.7-1.5,1.6-3.6,2.6-6.2,3l-.4-.4h0Z"/>
          </g>
          <g class="cls-15">
            <path d="M55.2,32.6c1,3.6.5,6.3-1.3,7.9-1.3,1.1-2.3,2.3-3.1,3.8-.8.9-.9,2.2-.3,3.9.7,1.3,1.6,2.1,2.9,2.6,1.7.5,3.3,1.3,4.6,2.4.8.7,1.3,1.8,1.5,3.3,0,1.8-.7,3.3-1.8,4.5-.8.9-2.1,1.5-3.8,1.7-4.6,0-8.4-1.3-11.4-3.7-3.8-2.6-6.3-7-7.5-13.3-.3-5.8,1.1-10.5,4.1-14.1,1.5-2.6,4.3-4.1,8.6-4.7,2.1,0,3.7.7,5,1.8,1.1.9,2,2.1,2.6,3.8h-.1Z"/>
            <path class="cls-2" d="M54.3,33.2c.8,3,.3,5.2-1.2,6.7-1.3,1.1-2.3,2.4-3.1,3.8-.9,1.2-1.1,2.9-.5,5.2.5,1.2,1.3,2,2.3,2.5,2,.7,3.8,1.6,5.4,2.9.7.6,1,1.6,1,3-.2,1.3-.7,2.3-1.5,3.2s-2.1,1.3-4,1.4c-3.9-.3-7.2-1.5-9.8-3.6-3.4-2.4-5.7-6.3-6.9-11.9-.5-5.8.8-10.4,3.8-13.8,1.3-2.3,3.8-3.7,7.5-4.4,1.9,0,3.5.6,4.7,1.7.9.8,1.7,1.9,2.2,3.3h0ZM58,59.9l-.8.8.8-.8Z"/>
            <path class="cls-6" d="M54.4,56.6l-.2.6-.3.3c-1.8-.2-3.6-.7-5-1.8h0l-.3-.5.2-.5c1-.2,1.3.4,2.1.8,1.1.5,2.2.9,3.4,1.1h0ZM50,33.2v.8c-.5.3-1,.5-1.5.8-4.2,2.8-4.9,8.3-4.1,13h0l1.5,3.3c0,.3-.2.5-.7.6-1.3-1.3-2.1-3.4-2.3-6.4,0-3.9.9-7,2.8-9.4.8-1.3,2.1-2.2,3.9-2.8l.3.2h0Z"/>
          </g>
          <g class="cls-15">
            <path class="cls-1" d="M47.6,86.8c6.2,0,9.5,3.8,9.5,8.4s-3.7,8.1-9.2,8.1-9.5-3.6-9.5-8.4,3.8-8.1,9.1-8.1h0ZM47.9,100.8c3.9,0,7.3-2.1,7.3-5.8s-3.4-5.8-7.5-5.8-7.3,1.9-7.3,5.8,3.6,5.8,7.5,5.8h0Z"/>
            <path class="cls-1" d="M48.9,68.5c-2.5,0-5.5.3-7.8.3h0c2.1.7,4.4,1.5,6.9,2.3l8.8,3.2v1.8l-8.6,2.9c-2.6.8-4.9,1.6-7,2.1h0c2.3,0,5.3.2,8,.4l7.8.5v2.2l-18.1-1.3v-3l8.8-3.1c2.2-.8,4.2-1.4,6.1-1.8h0c-1.8-.5-3.8-1.2-6.1-2l-8.8-3.2v-3l18.1-1.1v2.3l-7.9.5h-.2Z"/>
            <path class="cls-1" d="M48.4,52.8v7h6.5v-7.8h2v10.2h-18.1v-9.8h2v7.4h5.7v-7s1.9,0,1.9,0Z"/>
            <path class="cls-1" d="M56,35.2c.4,1,1,3.1,1,5.5s-.7,5-2.4,6.7c-1.5,1.6-3.9,2.5-6.7,2.5-5.4,0-9.3-3.7-9.3-9.8s.5-3.7.8-4.5l1.9.5c-.4,1-.8,2.2-.8,4,0,4.4,2.7,7.3,7.3,7.3s7.3-2.8,7.3-7-.2-2.6-.5-3.1h-5.4v3.7h-1.9v-6h8.8v.2Z"/>
            <path class="cls-1" d="M51.1,28.8l5.7,1.9v2.4l-18.1-6.2v-2.8l18.1-6.2v2.5l-5.7,1.9v6.4h0ZM49.3,22.8l-5.2,1.8c-1.2.4-2.3.7-3.3.9h0c1.1.3,2.2.6,3.3,1l5.2,1.8v-5.4h0Z"/>
            <path class="cls-1" d="M81.8,65.9c.4-.7,1.1-2.2,1.1-3.9,0-3-1.9-4-3.4-3.9-2.4,0-3.5,2.2-3.5,4.5v1.3h-1.8v-1.3c0-1.7-.9-3.9-2.9-3.9s-2.6.9-2.6,3.1.6,2.7,1.2,3.5l-1.7.6c-.7-.9-1.3-2.7-1.3-4.6,0-3.4,2.1-5,4.1-5s3.3,1.1,4.1,3.2h0c.5-2.1,2.1-3.9,4.5-3.9s5.2,2.2,5.2,6.4-.6,3.7-1.2,4.5l-1.8-.6h0Z"/>
          </g>
        </g>
      </g>
    </g>
  </g>
</svg>