<?xml version="1.0" encoding="UTF-8"?>
<svg xmlns="http://www.w3.org/2000/svg" version="1.1" viewBox="0 0 120 120">
  <defs>
    <style>
      .cls-1 {
        stroke-width: 7.2px;
      }

      .cls-1, .cls-2 {
        fill: none;
        stroke: #252425;
        stroke-linecap: round;
        stroke-linejoin: round;
      }

      .cls-2 {
        stroke-width: 6px;
      }
    </style>
  </defs>
  <!-- Generator: Adobe Illustrator 28.6.0, SVG Export Plug-In . SVG Version: 1.2.0 Build 709)  -->
  <g>
    <g id="Ebene_1">
      <g id="Ebene_30">
        <g id="Ebene_1-13">
          <g id="Generatives_Objekt-9">
            <g>
              <path class="cls-1" d="M59.3,40c2.7-13.8-.8-14.7,12.6-16.4"/>
              <path class="cls-2" d="M51.6,94c-6.9-9.8-7.8-27.5-3.9-38.8,2.7-7.9,5.4-10.2,11.7-15,7.2,4.4,9.6,4.8,13.1,13.4,6.1,15.1,2.3,43.6-11,45.6-4,.6-7.6-2-9.9-5.2h0Z"/>
              <path class="cls-2" d="M52.1,44.8c-24.3-7.7-31.9,39.6-10.4,51.1"/>
              <path class="cls-2" d="M68.5,44.8c5.6-2.4,9.1,0,10.6,0,17.1-5.7,26.8,14.5,24.6,30-1.7,12.1-11.2,24.7-23.6,20.5-1.5,0-5.1,3-11.3,1.1"/>
              <path class="cls-2" d="M42.7,44.5c-5.7,0-9.9-2.6-16.3,2.1-17.7,13.1-11.8,49.8,10.4,49.7,5.5-2.4,7.9,2.4,15.2,0"/>
              <path class="cls-2" d="M79.2,95.6c16.7-8.9,16.6-42.6-.8-50.9"/>
            </g>
          </g>
        </g>
      </g>
    </g>
  </g>
</svg>