<?xml version="1.0" encoding="UTF-8"?>
<svg xmlns="http://www.w3.org/2000/svg" version="1.1" viewBox="0 0 120 120">
  <defs>
    <style>
      .cls-1 {
        stroke: #000;
        stroke-miterlimit: 10;
        stroke-width: .5px;
      }
    </style>
  </defs>
  <!-- Generator: Adobe Illustrator 28.6.0, SVG Export Plug-In . SVG Version: 1.2.0 Build 709)  -->
  <g>
    <g id="Ebene_1">
      <g id="Ebene_17">
        <g>
          <path class="cls-1" d="M29,56c1.4.3,2.9.5,4.3.5,4,0,8.1-1.2,11.6-3.4,4.8-3.1,8.1-7.9,9.2-13.5,1.1-5.6.2-11.2-3.1-16s-7.9-8.1-13.5-9.2c-5.6-1.1-11.2-.2-16,3.1-4.8,3.1-8.1,7.9-9.2,13.5-1.1,5.6-.2,11.2,3.1,16,3.3,4.8,7.9,7.9,13.5,9h0ZM16.3,31.6c1.7-8.2,9-13.8,17.1-13.8s2.3.2,3.6.3c9.5,2,15.5,11.2,13.5,20.6-2,9.5-11.2,15.5-20.6,13.5-9.3-2-15.4-11.2-13.5-20.6h-.1Z"/>
          <path class="cls-1" d="M87.5,29.9c1.1,0,2.2-.2,3.4-.3,1.1-.2,1.7-1.2,1.6-2.3s-1.2-1.7-2.3-1.6c-2.2.5-4.2.3-5.7-.3-.5-.2-.9-.5-1.2-.6-.9-.5-2.2-1.1-3.7-1.2-1.1-.2-2,0-2.9.3-.6-1.2-1.6-2.2-2.8-2.9-1.7-.9-3.7-1.2-5.6-.8-1.9.5-3.9,1.7-5.3,3.4-1.9,2-2.6,4.2-2,6.2.5,2,2.3,3.6,4.8,4.3,1.2.5,2.6.6,3.9.6s1.7-.2,2.5-.3c1.9-.5,3.6-1.7,4.5-3.4.6-1.1.9-2.3.9-3.4.6-.2,1.2-.2,1.9-.2s1.4.5,2.2.8c.6.3,1.1.6,1.7.8,1.2.8,2.6.9,4.3.9h-.2ZM73.1,29.3c-.5.8-1.2,1.4-2.2,1.7-1.1.3-2.8.2-4.2-.3-1.2-.5-2.2-1.1-2.3-1.7-.2-.6.3-1.7,1.2-2.6.9-1.1,2.3-2,3.4-2.3h0c.3-.2.6-.2.9-.2.6,0,1.2.2,1.7.5.8.5,1.4,1.2,1.7,2.2.2.9.2,2-.3,2.8h.1Z"/>
          <path class="cls-1" d="M76.6,66.1c-.2-.5-.3-.9-.5-1.4-.3-1.1-.8-2.3-1.7-3.4-.6-.8-1.6-1.4-2.3-1.9.3-1.2.5-2.6,0-4-.5-1.9-1.7-3.6-3.4-4.5-3.3-1.9-9.8-2.3-12.1,1.6-2.2,3.9,1.2,9.3,4.7,11.3,1.1.6,2.5.9,3.7.9s1.2-.2,1.9-.3c1.2-.3,2.3-.9,3.1-1.7.6.3,1.1.8,1.4,1.1.5.6.8,1.2.9,2.2.2.6.3,1.2.6,1.7.9,2.2,2.8,4.2,5.3,5.9.6.3.9.3,1.4.3s1.2-.3,1.6-.9c.6-.9.3-2.2-.5-2.6-2-1.2-3.3-2.6-4-4.2h-.1ZM63.3,60.3c-2.2-1.2-3.9-4.7-3.3-5.9.5-.6,1.7-1.1,3.1-1.1s2.6.3,3.7.9c.8.5,1.4,1.2,1.7,2.2.3.9.2,1.9-.3,2.6-1.1,1.7-3.3,2.3-5,1.2h.1Z"/>
          <path class="cls-1" d="M103.5,57.9c-.2-.5-.3-.9-.5-1.4-.3-1.1-.8-2.3-1.7-3.4-.6-.8-1.6-1.4-2.3-1.9.3-1.2.5-2.6,0-4-.5-1.9-1.7-3.6-3.4-4.5-1.6-.9-4-1.4-6.2-1.4-2.8.2-4.8,1.2-5.9,2.9s-.9,4.2.3,6.5c.9,2,2.6,3.7,4.2,4.7,1.2.6,2.5.9,3.7.9,1.9,0,3.7-.8,5.1-2,.6.3,1.1.8,1.4,1.1.5.6.8,1.2.9,2.2.2.6.5,1.2.6,1.7.9,2.2,2.8,4.2,5.3,5.9.3.2.8.3,1.1.3.6,0,1.2-.3,1.6-.9.6-.9.3-2.2-.5-2.6-1.7-1.1-2.9-2.5-3.7-4h0ZM90.1,52.1c-.9-.6-2.2-1.9-2.8-3.1-.6-1.2-.8-2.3-.5-2.8.3-.6,1.4-.9,2.6-1.1h.3c1.4,0,2.8.3,3.7.9h0c.8.5,1.4,1.2,1.7,2.2s.2,1.9-.3,2.6c-.9,1.6-3.1,2.2-4.8,1.2h.1Z"/>
          <path class="cls-1" d="M83.3,87.3c-.5-1.9-1.7-3.6-3.4-4.5-1.6-.9-4-1.4-6.2-1.4-2.8.2-4.8,1.2-5.9,2.9-1.1,1.7-.9,4.2.3,6.5.9,2,2.6,3.7,4.2,4.7,1.1.6,2.5.9,3.7.9s1.2-.2,1.9-.3c1.2-.3,2.3-.9,3.1-1.7.6.3,1.1.8,1.4,1.1.5.6.8,1.2.9,2.2.2.6.3,1.2.6,1.7.9,2.2,2.8,4.2,5.3,5.9.3.2.8.3,1.1.3.6,0,1.2-.3,1.6-.9.6-.9.3-2.2-.5-2.6-1.9-1.2-3.3-2.6-3.9-4.2-.2-.5-.3-.9-.5-1.4-.3-1.1-.8-2.3-1.7-3.4-.6-.8-1.6-1.4-2.3-1.9.6-1.1.6-2.5.3-3.9ZM77.1,92.6c-.9.3-1.9.2-2.6-.3-.9-.6-2.2-1.9-2.8-3.1-.6-1.2-.8-2.3-.5-2.8s1.4-.9,2.6-1.1h.3c1.4,0,2.8.3,3.7.9.8.5,1.4,1.2,1.7,2.2.3.9.2,1.9-.3,2.6-.5.8-1.2,1.4-2.2,1.6h.1Z"/>
          <path class="cls-1" d="M52.5,72c-.9-3.7-5.3-8.5-9.6-7.4-2,.5-3.6,2.3-4.3,4.8-.6,2-.8,4.5-.3,6.4.8,3.3,3.7,5.4,7,5.6.2.6.2,1.2.2,1.7,0,.8-.5,1.4-.8,2.2-.3.6-.6,1.1-.8,1.7-.9,2.3-.9,5-.5,7.9.2.9.9,1.6,1.9,1.6h.3c1.1-.2,1.7-1.2,1.6-2.3-.5-2.2-.3-4.2.3-5.7.2-.5.5-.9.6-1.2.5-.9,1.1-2.2,1.2-3.7.2-1.1,0-2-.3-2.9,1.2-.6,2.2-1.6,2.9-2.8.8-1.7,1.1-3.7.6-5.6h0v-.3ZM46.1,77.3c-1.9.5-3.9-.6-4.3-2.5-.3-1.1-.2-2.8.3-4.2.5-1.2,1.1-2.2,1.7-2.3h.3c.6,0,1.6.5,2.3,1.2,1.1.9,2,2.3,2.3,3.4.5,1.9-.8,3.9-2.6,4.3h0Z"/>
        </g>
      </g>
    </g>
  </g>
</svg>