<?xml version="1.0" encoding="UTF-8"?>
<svg xmlns="http://www.w3.org/2000/svg" version="1.1" viewBox="0 0 120 120">
  <defs>
    <style>
      .cls-1, .cls-2 {
        stroke-width: 3px;
      }

      .cls-1, .cls-2, .cls-3, .cls-4 {
        stroke: #000;
        stroke-miterlimit: 10;
      }

      .cls-1, .cls-5, .cls-3, .cls-6, .cls-4 {
        fill: #fff;
      }

      .cls-6, .cls-7 {
        display: none;
      }

      .cls-4 {
        stroke-width: .8px;
      }

      .cls-8 {
        fill: #1d191a;
      }
    </style>
  </defs>
  <!-- Generator: Adobe Illustrator 28.6.0, SVG Export Plug-In . SVG Version: 1.2.0 Build 709)  -->
  <g>
    <g id="Ebene_1">
      <g id="Ebene_1-2" data-name="Ebene_1">
        <g id="Ebene_27">
          <g id="Ebene_1-10">
            <g class="cls-7">
              <path d="M84.8,14.3c-2.3,1.1-4.6,4-5.6,7.3-.5,1.6-.5,2.4,0,2.8.3.2.5.2.6,0,0-.2.7-1.2,1.3-2.4,2.2-3.9,3.7-5.8,4.3-5.3.4.4.5,2,.3,4.2-.4,4.2-1.8,9-4.2,14.4-.4.9-.8,1.8-.9,2.1-.1.3-.4,0-.8-.9-1-2.3-1.5-3.2-2.2-3.9-1.3-1.2-2.8-1.3-4.8-.4-3.1,1.6-7.9,5.8-10.2,9-1.4,2-2.8,4.6-3.5,6.8-.4,1-.6,1.8-.6,1.8,0,0-.7-.4-1.6-1.1-2.9-2.1-6.6-3.7-10.5-4.5-1.6-.4-2.5-.4-6.3-.4s-4.5,0-5.4.4c-1.2.5-1.6.9-2,1.8-.5,1-.4,2.4,0,4.8,1.5,6.5,4.5,12.3,8.5,16.5,1,1.1,2.1,2.1,2.5,2.3s.7.5.6.5c0,0-.7.6-1.5,1.2-4.4,3.3-8.6,9.2-10.9,15.3-.5,1.5-.7,2.1-.7,3.2v1.8c0,.3-.5.7-3,2.1-6.6,3.8-10.3,6.3-12.5,8.5-1.4,1.3-2.5,3-2.1,3.3.4.4,11.2-4.1,18.1-7.5,2.1-1.1,2.7-1.3,2.5-1-.2.2-1,1.1-1.7,1.9-3.3,3.7-4.8,6.2-4.4,6.7.1.2.4.3.6.3.5,0,7.5-5.5,12.6-9.9l1.2-1h2.5c1.4-.2,3.1-.4,3.8-.5,3.7-.8,7.4-2.4,10.2-4.5.9-.7,1.7-1.2,1.8-1.2s.4.7.9,1.4c1.8,3.3,5.4,7.2,9,9.8,2,1.4,6.6,3.8,9,4.6,2.3.8,3.2.9,4.3.4,2.1-.9,3.2-4.1,3.4-10.2.2-4.6-.4-8.2-1.8-11.8-.4-.9-.6-1.7-.6-1.8s.8-.4,1.7-.6c3.7-.9,7.6-2.9,10.9-5.4,2.1-1.6,5.3-4.6,6.3-5.8,1.2-1.5,1.7-2.6,1.7-3.8,0-1.7-.8-2.8-3.3-4.4-4.9-3.1-9.9-4.9-14.8-5.1h-2.5l1.7-2.3c2.2-2.9,6.2-9,8.1-12.2,4.5-7.9,9.2-18.9,9.4-22.3.2-2.3-.5-3.4-2.1-3.4-2.5,0-5.6,3.2-7.5,7.7-1.2,2.7-.7,2.7,2.1-.1,1.8-1.8,3.3-2.9,3.9-2.9s-.7,3.1-3.2,8.1c-3.2,6.5-6.8,12.3-12.5,19.9l-2.1,2.8v-1.9c-.4-4.3-.5-3.9.8-6.7,3-6.7,4.9-13.9,5.3-21.1.2-3.5,0-5.3-.5-6.6-.7-1.3-2.2-1.7-3.9-.9h.3,0ZM76.1,37.6c1.8,3.8,2.6,7.7,2.8,12.1,0,3.2-.2,6.3-.7,7.4-.2.3-.7.6-1.9,1.1l-1.7.7-.6-1.3c-.7-1.6-1.7-3-2.5-3.5-1.3-.8-3-.2-5.6,2l-1.2,1s-.4-.5-.9-1.2c-.4-.6-1.1-1.5-1.4-1.9l-.6-.8.5-2c1.4-5.7,5.2-10.6,11.1-14.6,1.9-1.2,1.7-1.3,2.8,1h-.1ZM43,47.9c3.6.4,6.5,1.2,9.3,2.7,2.1,1.1,3.8,2.4,5.6,4.4,1.6,1.7,3.9,4.8,3.9,5.3s-.5.3-3.3.3-5.9.2-6.9.7-.7.4-.6,1c0,.9,1.4,3.5,3.2,6.3.8,1.2,1.5,2.4,1.5,2.6,0,.4-.5.3-2.3-.4-1.4-.5-5.3-2.2-5.3-2.4s-.5-.5-1.2-1-1.9-1.7-2.9-2.6c-3.7-3.9-6.3-9-7.5-14.8-.2-1-.4-1.9-.4-2,0-.2,4.7-.3,7,0h0ZM90.6,60.9c1,.2,2.4.6,3.2.9,1.5.5,5.8,2.7,7.3,3.6l.9.5-.9,1.1c-2,2.6-6.4,6.3-9.5,7.9-2.5,1.3-5.8,2.5-8.2,2.9-.6,0-.7,0-1.2-.6-.3-.4-1-1.2-1.6-1.9-.5-.7-.9-1.2-.9-1.3s.9-.7,1.9-1.3c1.7-1.1,3.4-2.8,3.4-3.2s-.4-.7-1-1.2c-1-.9-4-2.6-6.7-3.7-2.2-.9-2.3-1.5-.2-2.3,2.6-1.1,4.4-1.5,7.3-1.8,1.3-.2,4.2,0,6.1.5h0ZM49.7,73.4c.8.4,2.1.9,3,1.1,1.3.4,1.5.5,1.4.8,0,.2-.4,1.3-.7,2.5-.7,2.5-.7,3.7-.3,4.2.3.3.6.3,2.3.2,1.1,0,3.2-.4,4.7-.7,1.5-.3,2.7-.5,2.8-.5,0,0-.6.8-1.3,1.8-3.7,4.4-8.2,7.1-13.9,8.1-3.2.6-8.6.4-12-.5l-.7-.2.7-1.9c1.5-4.3,3.9-8.1,7.1-11.4,1.3-1.3,2.8-2.6,3.7-3.2s1.6-1.1,1.7-1.1.7.2,1.5.6h0s0,.2,0,.2ZM79.6,80c3.1,4.4,4.5,9.7,4,15.8-.2,1.9-.8,5.7-1,5.9-.2.2-3.5-1.1-5.3-2-5.6-2.8-10.2-7.2-12.6-11.9l-.9-1.7,1.3-1.6c.7-.9,1.3-1.6,1.4-1.5,0,0,.9.6,2,1.3,2.1,1.4,4.6,2.7,5.3,2.7,1.1,0,1.9-2.3,2.5-7,0-1,.2-2.2.3-2.7v-.9l1.1,1.1c.6.7,1.5,1.8,1.9,2.5h0Z"/>
            </g>
            <g class="cls-7">
              <path class="cls-6" d="M11.8,64.3V12h95.8v49.9c-1.6-4.2-4.9-6.2-9.1-6.8v-4.8c0-3-1.3-3.9-4.1-3.1-4.4,1.2-8.9,2.5-13.4,3.7-.7.2-1.6.3-2.3.2-3.4-.7-6.8-1.5-10-2.2-.2-3.3-4.2-3-4.8-5.3,1.6-1.9,3.2-3.7,4.8-5.7-3.7-.6-6.8-1.2-9.8-1.7.2-2.3.3-4.1.5-6.2-3.7,1.6-7,2.9-10,4.1-1-.4-2.5-1.6-3.2-1.3-1.2.5-1.9,2.1-2.3,2.7-4.1,2.5-7.8,4.6-12.1,7.2,1.7.9,2.9,1.6,4.2,2.3-.5.9-1.1,1.6-1.4,2.5-.9,2.5-2.3,2.8-4.6,1.7-1.9-.9-4.1-1-5,1.1-1.1,2.7-3.4,5.5-1.2,8.7.2.3.5.4.7.6.3.3.5.7,1.2,1.5-3.2.4-5.9.6-8.6,1.1-1.8.4-3.5,1.2-5.3,1.8h0s0,.3,0,.3Z"/>
              <path class="cls-6" d="M107.6,66.7v41.3H11.8v-41.7c.4,1.1,1.2,2.3,1.1,3.4-.5,3.8.6,5.1,4.4,4.6,4.2-.5,8.4-1.2,12.6-1.6,1.7-.2,3.6-.6,5.1,0,11.9,3.8,23.7,8,35.7,11.6,7.9,2.3,16,3.8,24,5.4,1.4.3,3.6,0,4.6-1,3.8-3.7,1.8-11.1-3.3-12.7-.5-.2-1.1-.4-1.6-.6.6-1.5,1.1-2.8,1.7-4.1,4.3-.3,9.7,2.2,11.6-4.3h0v-.3h0Z"/>
              <path d="M107.6,66.7c-2,6.5-7.3,4-11.6,4.3-.5,1.4-1.1,2.6-1.7,4.1.5.2,1.1.5,1.6.6,5,1.6,7.1,9,3.3,12.7-1,.9-3.1,1.3-4.6,1-8.1-1.6-16.2-3.1-24-5.4-12-3.5-23.8-7.8-35.7-11.6-1.6-.5-3.4,0-5.1,0-4.2.5-8.4,1.2-12.6,1.6-3.8.4-4.8-.9-4.4-4.6.1-1.1-.7-2.3-1.1-3.4v-1.9c1.8-.6,3.5-1.5,5.3-1.8,2.7-.5,5.4-.7,8.6-1.1-.7-.9-.9-1.2-1.2-1.5-.2-.2-.5-.4-.7-.6-2.1-3.2.2-6,1.2-8.7.8-2.1,3.1-2,5-1.1,2.2,1.1,3.7.7,4.6-1.7.3-.9.9-1.6,1.4-2.5-1.3-.7-2.5-1.4-4.2-2.3,4.3-2.5,7.9-4.7,12.1-7.2.5-.6,1.2-2.2,2.3-2.7.8-.4,2.2.9,3.2,1.3,3-1.2,6.3-2.6,10-4.1-.2,2.1-.3,3.8-.5,6.2,3,.5,6.1,1.1,9.8,1.7-1.6,1.9-3.2,3.8-4.8,5.7.6,2.3,4.6,1.9,4.8,5.3,3.2.7,6.5,1.5,10,2.2.7.2,1.6,0,2.3-.2,4.5-1.2,8.9-2.4,13.4-3.7,2.9-.8,4,0,4.1,3.1v4.8c4.2.7,7.5,2.6,9.1,6.8v4.8h0ZM93.7,49.1c-26.5,7.8-53.3,12.2-79.8,15.4.1,2.7.3,4.7.3,6.7s1.1,1.8,2.2,1.7c2.1-.2,4.3-.5,6.4-.8,20.7-2.7,41.4-5.8,61.7-10.6,3.6-.9,7.2-1.9,10.6-2.8-.5-1.8-1.1-3.2-1.3-4.7s0-3,0-4.9h0ZM37.1,71.8c15.7,6.2,31.3,10.5,47.1,13.9-2.2-1.1-4.5-1.9-6.9-2.7-9.5-3.1-19-6.1-28.4-9.2-.8-.3-1.6-.8-2.8-1.5,1-.4,1.2-.5,1.4-.5,1.6.5,3.2,1,4.8,1.6,13.8,4.8,27.5,9.5,41.3,14.3.8.3,1.7.5,2.6.5s1.5-.2,1.9-.7c2.8-2.8,1.4-9.2-2.3-10.2-10.8-2.9-21.6-5.5-32.4-8.5-3.6-1-6.9-.4-11,.5,1.6.3,2.5.4,3.4.7,4.7,1.4,9.9,2,14.1,4.4,6.9,3.9,14.2,6.1,21.6,8.3.6.2,1.2.2,1.9.3,0-.6-.2-1.1,0-1.4.5-1,1.1-2.5,1.9-2.8,1.6-.5,2.6.8,2.7,2.3,0,1.4,0,2.9-.4,4.2-.7,2.1-2.6,2.2-4,.5-.5-.6-1.2-1.1-2-1.4-1.2-.5-2.6-.7-3.9-1.2-6.7-2.1-13-5-19.4-7.9-9.5-4.4-19.9-6.3-31.2-3.5h0ZM25.6,57.9c1.4,0,3.1-.2,4.4.4,6.2,2.8,12.1.5,18.5-.4-.4-1.4-.8-2.5-1.2-3.7-2.8,2.6-5.6,4.1-9.5,3.7.5-1.9.9-3.4,1.4-5.3-1.9.3-3.6.4-5.2.9-2,.6-2.7,0-1.9-2-2.1,0-3.9-2.4-5.7-.2-1.5,1.8-1.9,5.9-.6,6.7h-.2,0ZM90,64.9c-9.2-2.8-17.1,1.4-25.5,2.5,6.6,1.9,13.2,3.5,19.9,5.1.5,0,1.2-.4,1.8-.5,0-.2,0-.5-.2-.7-3.9-1.4-8.2-1.8-11.9-4,.8-.4,1.4-.4,2.1-.2,2.9.7,5.9,1.4,8.8,2.3,1.8.5,2.5,0,2.5-1.7-1.6-.5-3.1-1-4.5-1.5,2.3-1.6,4.8,1,7-1.2h0ZM100.5,69.7c-.4-2.3-.7-4.2-1-6.1-1.7-.2-3.3-.5-4.9-.7v-1.2c1.6,0,3.3.7,4.6,0,1.4-.6,2.3-2.3,3.7-3.8-1.6-.4-2.6-.7-3.2-.9-3.3,4.3-8.6,3.3-12.6,5.6,2.1.3,4,.5,5.8.9,2.7.5,3.3,1.4,3.2,4.1v1.6c1.4,0,2.8.2,4.3.4h0ZM63.7,52.8c0-.3,0-.5.2-.8,3.7-.7,7.6,2.4,11.6,0-3.5-.7-6.7-1.8-9.9-1.8s-6.6,1-10.2,1.6c0,.2-.3.9-.5,1.7,6.1,1.6,9.3,1.7,12.4.6-1.2-.4-2.4-.8-3.6-1.2h0ZM39.9,56c.2.3.4.5.6.8,1.8-1.1,3.5-2.2,5.2-3.4.4-.3.5-1.1.5-1.7-.2-3.2-.5-6.3-.7-9.3-4.4,3-4.4,8.6-5.6,13.6h0ZM65.3,48.1c-4.8-1.7-9.4-3.4-14.2-5.1,3.6,7.6,6.7,8.1,14.2,5.1ZM104.1,59.3c-2.8,2.2-3.7,5.2-2.3,8.6.3.7.9,1.6,1.4,1.6s1.4-.6,1.9-1.2c1.8-2.5,1.2-6.6-1-9ZM50.5,40c0,.3-.2.5-.3.8,4.2,1.7,8.5,3.4,12.7,5.1-3.2-4.2-6.9-7.3-12.4-5.9ZM48.4,41.9c-2.3,3.6-1.8,9,1.3,13.2.2-4.6,2.5-9.1-1.3-13.2ZM65.7,39.5c-4.6-.2-8.6-4.1-13.4-1.8,1.9.5,3.8.7,5.4,1.4,1.7.7,3.2,2,5,3.2.9-.9,2-1.8,3-2.7h0ZM43.8,41.9c-4.1.3-8.3,4.9-9.4,9.8,3.5-.5,5.3-1.8,5.4-4.1-.6.7-1.2,1.3-1.7,1.9-.2-.2-.4-.3-.7-.5.5-3.4,3.7-4.9,6.3-7.1h0ZM86.8,72.8c.4.3.7.5,1,.8,2.4-2,1.9-7.3,7.4-6-.7-1.1-1-2.1-1.4-2.2-.9,0-2.1,0-2.6.6-1.6,2.1-3,4.5-4.4,6.8h0ZM35.5,42.6c0,.3.2.6.3.9,3.2-1.4,6.3-2.9,9.8-4.5-4.8-2-7,2.1-10,3.6h0ZM89.8,73.8c2.9,1,4.4-.4,4.4-3.3s-.3-1.2-.6-1.3c-.4-.2-1.2,0-1.4.4-.9,1.3-1.5,2.7-2.3,4.2h0ZM97.3,57.7c-.2-3.2-.4-6.2-.6-9.8-2.3,3.5-1.9,7.5.6,9.8ZM57.8,33c-5.2.9-6,1.2-6.9,3.2,2.1-.3,4.2-.6,6.4-1,0-.6.2-1.2.4-2.2h0ZM51.1,55.3c3.3-2.8,3.6-5,1-7.1-.4,2.3-.7,4.6-1,7.1ZM58.8,56c-3.9-1.4-5-1.2-6.5,1.2,2.2-.4,4.2-.7,6.5-1.2ZM95.2,85.8c2-2.3,1.9-4.5,0-5.5v5.5ZM48.7,36.8c-.9-.9-1.6-1.6-2.3-2.4-.2.6-.8,1.3-.7,1.9.3,1.6,1.3,1.4,3,.5h0ZM31,60.7c-2.4-1.2-3.8-1-4.2.5,1.4-.2,2.8-.4,4.2-.5Z"/>
              <path class="cls-3" d="M93.7,49.1c0,1.9-.2,3.4,0,4.9s.8,2.9,1.3,4.7c-3.4.9-7,1.9-10.6,2.8-20.3,4.8-41,7.9-61.7,10.6-2.1.3-4.3.6-6.4.8-1.1,0-2.3,0-2.2-1.7,0-1.9-.2-3.9-.3-6.7,26.4-3.2,53.3-7.6,79.8-15.4h0ZM26.2,68c0,.5.2.9.2,1.4,13.4-1.9,26.8-4.4,40.1-6.5.4,0,.7-.5,1.1-.8,0-.3-.2-.6-.3-.9-13.7,2.3-27.4,4.6-41.1,6.8h0ZM89.7,58.2c-2.8-.8-18.9,3.2-20.2,5.2,7.2-1.6,13.9-2.9,20.2-5.2ZM64.4,59c-3.7.5-7.3,1-11.5,1.6,2.1,1.5,10,.5,11.5-1.6Z"/>
              <path class="cls-3" d="M37.1,71.8c11.4-2.8,21.7-.8,31.2,3.5,6.4,2.9,12.7,5.8,19.4,7.9,1.3.4,2.6.7,3.9,1.2.7.3,1.5.8,2,1.4,1.4,1.7,3.3,1.6,4-.5.5-1.3.5-2.8.4-4.2,0-1.5-1.1-2.8-2.7-2.3-.9.3-1.3,1.8-1.9,2.8-.2.3,0,.7,0,1.4-.7,0-1.3-.2-1.9-.3-7.4-2.2-14.7-4.4-21.6-8.3-4.2-2.4-9.3-3-14.1-4.4-.9-.3-1.9-.4-3.4-.7,4-.9,7.4-1.5,11-.5,10.7,3,21.6,5.6,32.4,8.5,3.7,1,5.1,7.4,2.3,10.2-.5.4-1.3.7-1.9.7s-1.8-.2-2.6-.5c-13.8-4.8-27.5-9.5-41.3-14.3-1.6-.5-3.2-1.1-4.8-1.6-.2,0-.4.2-1.4.5,1.3.7,2,1.2,2.8,1.5,9.5,3.1,19,6.1,28.4,9.2,2.3.8,4.6,1.6,6.9,2.7-15.8-3.5-31.4-7.8-47.1-13.9h0ZM78.4,74.8v.6c.5.3,1,.6,1.6.8,2.9.9,5.8,1.8,8.7,2.5.5.2,1.2-.2,1.8-.3-.4-.4-.8-1-1.3-1.1-3-.9-6.1-1.8-9.2-2.7h-1.5v.2Z"/>
              <path class="cls-5" d="M25.6,57.9c-1.3-.8-.9-4.9.6-6.7,1.8-2.2,3.6,0,5.7.2-.7,2.1,0,2.6,1.9,2,1.6-.5,3.2-.5,5.2-.9-.5,1.9-.9,3.4-1.4,5.3,3.9.4,6.7-1.2,9.5-3.7.4,1.3.8,2.4,1.2,3.7-6.3.9-12.3,3.1-18.5.4-1.2-.5-2.9-.3-4.4-.4h.2,0ZM33.6,56.7c0-.4.2-.9.3-1.3-1.7-.3-3.4-.6-5.1-1,0,.4-.2.8-.2,1.2,1.7.4,3.3.7,5,1h0Z"/>
              <path class="cls-5" d="M90,64.9c-2.3,2.2-4.7-.3-7,1.2,1.5.5,2.9,1,4.5,1.5,0,1.6-.7,2.2-2.5,1.7-2.9-.9-5.8-1.6-8.8-2.3-.6-.2-1.3-.2-2.1.2,3.7,2.2,8,2.6,11.9,4,0,.2,0,.5.2.7-.6.2-1.3.7-1.8.5-6.6-1.6-13.2-3.2-19.9-5.1,8.4-1,16.4-5.3,25.5-2.5h0Z"/>
              <path class="cls-5" d="M100.5,69.7c-1.5,0-2.9-.2-4.3-.4v-1.6c.2-2.7-.5-3.5-3.2-4.1-1.9-.4-3.8-.6-5.8-.9,4-2.3,9.3-1.3,12.6-5.6.7.2,1.7.4,3.2.9-1.4,1.6-2.3,3.2-3.7,3.8-1.3.5-3,0-4.6,0v1.2c1.6.2,3.2.5,4.9.7.3,1.9.6,3.9,1,6.1h0Z"/>
              <path class="cls-5" d="M63.7,52.8c1.2.4,2.4.8,3.6,1.2-3.1,1.1-6.3.9-12.4-.6.2-.7.4-1.5.5-1.7,3.6-.6,6.9-1.6,10.2-1.6s6.3,1.1,9.9,1.8c-4.1,2.5-7.9-.5-11.6,0,0,.3,0,.5-.2.8h0Z"/>
              <path class="cls-5" d="M39.9,56c1.2-5,1.2-10.6,5.6-13.6.2,3,.5,6.1.7,9.3,0,.5-.2,1.4-.5,1.7-1.7,1.2-3.5,2.3-5.2,3.4-.2-.3-.4-.5-.6-.8h0ZM41.8,53.9c.4,0,.9.2,1.3.2.4-2,.7-4,1.1-6.1-.4,0-.9-.2-1.2-.2-.4,2-.7,4-1.1,6.1h0Z"/>
              <path class="cls-5" d="M65.3,48.1c-7.6,2.9-10.6,2.4-14.2-5.1,4.8,1.7,9.5,3.4,14.2,5.1ZM60,48.7c0-.3.2-.7.3-1-1.7-.6-3.4-1.2-5.1-1.8,0,.3-.2.6-.3.9,1.5,1.2,3.2,2.1,5.2,1.9,0,0,0,0-.1,0Z"/>
              <path class="cls-5" d="M104.1,59.3c2.2,2.4,2.8,6.5,1,9-.4.6-1.2,1.2-1.9,1.2s-1.1-.9-1.4-1.6c-1.4-3.4-.5-6.4,2.3-8.6ZM103.1,68.2c2.2-1.6,1.8-3.3,1.6-4.9,0-.6-.8-1.1-1.6-2v6.9Z"/>
              <path class="cls-5" d="M50.5,40c5.5-1.4,9.2,1.6,12.4,5.9-4.2-1.7-8.5-3.4-12.7-5.1,0-.3.2-.5.3-.8Z"/>
              <path class="cls-5" d="M48.4,41.9c3.8,4,1.4,8.6,1.3,13.2-3.1-4.2-3.6-9.6-1.3-13.2ZM49.1,44.7h-.8v4.2h.8v-4.3h0Z"/>
              <path class="cls-5" d="M65.7,39.5c-1.1.9-2.1,1.9-3,2.7-1.8-1.2-3.3-2.4-5-3.2-1.6-.7-3.5-.9-5.4-1.4,4.8-2.3,8.8,1.6,13.4,1.8h0Z"/>
              <path class="cls-5" d="M43.8,41.9c-2.7,2.2-5.9,3.7-6.3,7.1.2.2.4.3.7.5.5-.6,1.1-1.2,1.7-1.9,0,2.3-1.9,3.6-5.4,4.1,1.2-4.9,5.3-9.5,9.4-9.8,0,0,0,0-.1,0Z"/>
              <path class="cls-5" d="M86.8,72.8c1.4-2.3,2.8-4.6,4.4-6.8.4-.5,1.8-.7,2.6-.6.4,0,.7,1.1,1.4,2.2-5.5-1.3-5,4-7.4,6-.4-.3-.7-.5-1-.8h0Z"/>
              <path class="cls-5" d="M35.5,42.6c3.1-1.6,5.2-5.6,10-3.6-3.5,1.6-6.7,3.1-9.8,4.5,0-.3-.2-.6-.3-.9h0Z"/>
              <path class="cls-5" d="M89.8,73.8c.8-1.6,1.5-3,2.3-4.2.2-.4,1.1-.5,1.4-.4s.6.9.6,1.3c0,2.9-1.5,4.3-4.4,3.3h0Z"/>
              <path class="cls-5" d="M97.3,57.7c-2.5-2.2-2.9-6.3-.6-9.8.2,3.6.4,6.5.6,9.8Z"/>
              <path class="cls-5" d="M57.8,33c-.2.9-.3,1.6-.4,2.2-2.3.4-4.4.7-6.4,1,.9-1.9,1.7-2.3,6.9-3.2h0Z"/>
              <path class="cls-5" d="M51.1,55.3c.4-2.6.7-4.8,1-7.1,2.6,2.2,2.3,4.4-1,7.1Z"/>
              <path class="cls-5" d="M58.8,56c-2.4.4-4.4.8-6.5,1.2,1.5-2.4,2.6-2.6,6.5-1.2Z"/>
              <path class="cls-5" d="M95.2,85.8v-5.5c1.9,1,2,3.2,0,5.5Z"/>
              <path class="cls-5" d="M48.7,36.8c-1.6.9-2.7,1.1-3-.5,0-.6.4-1.3.7-1.9.7.7,1.4,1.5,2.3,2.4h0Z"/>
              <path class="cls-5" d="M31,60.7c-1.4.2-2.7.4-4.2.5.4-1.5,1.8-1.7,4.2-.5Z"/>
              <path d="M26.2,68c13.7-2.3,27.4-4.6,41.1-6.8,0,.3.2.6.3.9-.4.3-.7.7-1.1.8-13.4,2.1-26.7,4.6-40.1,6.5,0-.5-.2-.9-.2-1.4h0Z"/>
              <path d="M89.7,58.2c-6.4,2.3-13,3.6-20.2,5.2,1.4-2,17.5-6,20.2-5.2Z"/>
              <path d="M64.4,59c-1.5,2.1-9.5,3.1-11.5,1.6,4.2-.6,7.9-1.1,11.5-1.6Z"/>
              <path d="M78.4,74.8c.5,0,1.1-.3,1.5,0,3.1.9,6.1,1.7,9.2,2.7.5.2.9.7,1.3,1.1-.6,0-1.2.4-1.8.3-2.9-.8-5.8-1.6-8.7-2.5-.5-.2-1.1-.5-1.6-.8v-.6h0v-.2Z"/>
              <path d="M33.6,56.7c-1.7-.4-3.3-.7-5-1,0-.4.2-.8.2-1.2,1.7.3,3.4.6,5.1,1,0,.4-.2.9-.3,1.3h0Z"/>
              <path d="M41.8,53.9c.4-2,.7-4,1.1-6.1.4,0,.9.2,1.2.2-.4,2-.7,4-1.1,6.1-.4,0-.9-.2-1.3-.2h0Z"/>
              <path d="M60,48.7c-2,.2-3.7-.7-5.2-1.9,0-.3.2-.6.3-.9,1.7.6,3.4,1.2,5.1,1.8,0,.3-.2.7-.3,1,0,0,0,0,.1,0Z"/>
              <path d="M103.1,68.2v-6.9c.7.9,1.4,1.4,1.6,2,.2,1.6.7,3.3-1.6,4.9Z"/>
              <path d="M49.1,44.7v4.2h-.8v-4.2h.8Z"/>
            </g>
            <g class="cls-7">
              <path class="cls-2" d="M12,53.2c.9-1.7,2.2-2.5,4.1-3.2,19.3-6,38.5-12.2,57.7-18.4.9-.3,1.8-1,2.5-1.7,2.5-2.9,4.9-6,7.4-8.9,3-3.4,6.8-4.6,11.1-3.3,5.4,1.5,7.8,6.9,5.5,12-.2.4-.4.8-.4.7,2,1.4,4.3,2.4,5.5,4.1,1.1,1.6,1.3,4,1.3,6s-.7,3-1.7,4c-16.9,18.4-33.9,36.7-50.7,55.2-3.2,3.5-6.9,4.1-10.9,3.1-3.8-1-7.6-2.3-11-4.1-3.5-1.9-5.2-5.2-5-9.3.1-2.3,1-4,2.8-5.5,4.1-3.4,8.1-7.1,12.1-10.7.2-.2.6-.4.7-.7,1.2-5.3,5.5-8.6,8.4-12.7v-.6c-2.6,1.2-5.1,2.3-7.6,3.5-7.4,3.5-14.8,7.1-22.2,10.6-1.8.8-3.2.3-4.3-1.3-2.6-3.6-4.1-7.6-5-11.9-.1-.6-.3-1.2-.5-1.8v-5.2h.2ZM48.5,71.7c3.9-3.6,8.7-2.1,13.5-2.4-3.3-1.9-7.2-2.5-10-1-1.4.7-2.3,2.3-3.4,3.4-.9,1.5-.5,2.6,1.1,3,.5.2,1.3-.4,1.9-.7-.8-1.8-3.5.5-3.1-2.4h0ZM47.5,97.8c-2.2.3-3.7-.5-4.4-2.6s-.6-3.9,1.2-5.8c4-4,7.7-8.3,11.5-12.4.2.3.4.5.6.8-2.4.7-4.8,1.8-7.3,1.9-3,.2-4.6-2.2-5.9-4.8-3.4,3-6.6,5.9-9.9,8.8,1.6.6,2.8.9,3.9,1.4,2.5,1.2,4.4,3,4.6,5.8,0,1.3-.5,3.2-1.4,3.9-.9.6-2.8.2-4-.3-2.3-1-3-3-2.1-5.5-1.6-.3-2.1.2-1.8,1.6.5,2.3,1.8,4.2,4,5,2.8,1.1,5.8,1.8,8.8,2.6.6.2,1.4-.3,2.1-.5,1.9,0,2.8-1.1,2.4-2.9-.3-1.4-1.4-1.7-3.2-1,3,1.1,2,2.5.9,3.9h0ZM70.2,73c3.9-6,7.6-11.6,11.3-17.3,5.6-8.5,11.2-17,16.7-25.6,2.9-4.4,1.2-9.2-3.7-10.8-3.7-1.2-7.1-.1-9.9,3.2-10.9,13.2-21.7,26.3-32.6,39.5-.4.4-.6.9-1,1.6,11.5-.6,16.5,1.9,19.2,9.5h0ZM54.9,97.4c.9-1.2,1.5-2,2.1-2.7,15.5-16.8,30.8-33.6,46.4-50.4,2.2-2.4,2.3-4.9,1.5-7.6-.7-2.1-2.3-3.3-4.5-3.7-2.1-.4-2.9,1.2-3.8,2.6-9.2,14-18.3,28-27.4,42.1-1.9,2.8-4.4,4-7.7,3.5-1.4-.2-2.7-1.2-4-1.8-3,3.2-6.1,6.3-9,9.4,4.2.5,5.8,3.7,6.3,8.7h.1ZM20.4,60.4c.1,0,.7-.2,1.4-.5,12.9-4.8,25.6-10,38.6-14.4,6.2-2.1,8.6-7.3,12.3-11.7-18.1,5.8-36.3,11.5-53.7,17.1.5,3.4,1,6.5,1.5,9.5h0ZM62,46.5c-13.5,5.1-27,10.2-40.8,15.4,3.2,2.1,3.3,5,2.8,8.2.9-.4,1.6-.6,2.3-.9,7.4-3.4,14.7-7.3,22.4-10.2,6.3-2.4,9.7-7.4,13.2-12.6h.1ZM45.6,96c0-1.2,0-2.7.5-3.4.6-.6,2.4-.9,3.2-.5,1.1.7,2,2.1,2.1,3.3.2,1-.6,2.6-1.5,3.2-1.2.8-3,1.5-4.4,1.3-3.4-.6-6.7-1.5-10-2.8-2.8-1.1-4.4-3.5-4.8-6.6,0-.8.1-1.9.6-2.3,1.6-1.4,3.2-.7,4.8,0,1.6.8,2.7,1.8,1.9,4.4-.8-1-1.3-1.7-2.1-2.6-.3.5-.6,1.1-.5,1.1.8.9,1.6,1.8,2.5,2.5.3.2,1.5,0,1.6-.2.3-1,.7-2.2.4-3.1-1.1-3-3.7-4.3-6.8-4.9-2.3-.4-3.6.6-4.1,2.8-.8,3.5.8,7.1,4.4,9.5,4.3,2.8,9.1,3.9,14.2,3.9s5-1.8,5.2-4.9-1.8-6-4.6-6.2c-1.3,0-3.1.5-3.9,1.4-1,1.3-.3,3,.9,4h.4,0ZM62.9,72.6c-.5-1.8-1.6-2.3-3.2-1.3-2.3,1.4-2.8,3.7-1.3,5.9,1.2,1.8,3,2.6,5.1,2.3,2.2-.3,3.8-1.4,4.6-3.6,1-3-.3-6.4-3.4-8.3-4-2.5-8.5-3.1-13-2.2-3.7.7-5.8,3.4-6.5,7-.8,3.8,2.8,6.7,6.5,5.7s4.8-3.9,5.6-7.4c-1.8.2-3.4.4-5.5.5,1.8,1.9,2.1,3.5.2,4.8-1.4,1.1-3.8.6-4.8-1.1-.5-.9-.9-2.3-.5-3.1.6-1.5,1.6-3,2.8-4,4.1-3.3,13-2.1,16.4,1.9,1.2,1.5,1.9,3.3.9,5-.8,1.2-2.1,2.4-3.5,2.7-1,.3-2.5-.7-3.4-1.4-.4-.3-.3-1.9.2-2.3.7-.7,1.9-.8,3.2-1.2h-.4,0ZM16.4,62.9c.5-.9.8-1.6,1.2-2.3,1.2-2.2,1.5-4.6,0-6.7-.5-.8-1.6-1.2-2.5-1.9-.5.9-1.6,1.8-1.6,2.6,0,6.1,1.6,11.6,5.3,16.5,1,1.4,2.1,1.2,3-.2,2.3-3.9.4-7.6-4.2-7.8-.3,0-.6,0-1.2-.2h0ZM61.1,74.8c0,.2,0,.4-.2.7.9,0,2,.5,2.8.2,1.6-.7,2.1-2.1,1.2-4.1-.4,3.3-1.1,3.9-3.8,3.3h0Z"/>
              <path class="cls-1" d="M70.2,73c-2.6-7.6-7.6-10-19.2-9.5.4-.6.7-1.1,1-1.6,10.9-13.2,21.7-26.3,32.6-39.5,2.8-3.3,6.2-4.4,9.9-3.2,4.9,1.6,6.6,6.3,3.7,10.8-5.5,8.6-11.1,17.1-16.7,25.6-3.7,5.7-7.4,11.4-11.3,17.3h0Z"/>
              <path class="cls-1" d="M54.9,97.4c-.5-4.9-2.1-8.1-6.3-8.7,2.9-3,6-6.2,9-9.4,1.3.6,2.6,1.5,4,1.8,3.2.5,5.8-.7,7.7-3.5,9.1-14.1,18.3-28,27.4-42.1.9-1.4,1.6-3,3.8-2.6,2.2.4,3.9,1.7,4.5,3.7.9,2.7.8,5.2-1.5,7.6-15.5,16.7-31,33.6-46.4,50.4-.6.7-1.1,1.5-2.1,2.7h-.1Z"/>
              <path class="cls-1" d="M20.4,60.4c-.5-3-1-6.1-1.5-9.5,17.4-5.5,35.6-11.3,53.7-17.1-3.7,4.4-6.1,9.6-12.3,11.7-13,4.4-25.7,9.5-38.6,14.4-.7.2-1.3.5-1.4.5h0Z"/>
              <path class="cls-1" d="M62,46.5c-3.5,5.2-6.9,10.2-13.2,12.6-7.6,2.9-15,6.7-22.4,10.2-.7.3-1.4.6-2.3.9.5-3.2.4-6.1-2.8-8.2,13.8-5.2,27.3-10.3,40.8-15.4h0Z"/>
              <path class="cls-3" d="M47.5,97.7c-.7.2-1.5.6-2.1.5-3-.7-6-1.5-8.8-2.6-2.2-.8-3.5-2.7-4-5-.3-1.4.2-1.9,1.8-1.6-1,2.5-.2,4.5,2.1,5.5,1.2.5,3.2.9,4,.3,1-.6,1.6-2.6,1.4-3.9-.2-2.8-2.1-4.7-4.6-5.8-1.1-.5-2.4-.9-3.9-1.4,3.3-3,6.5-5.8,9.9-8.8,1.3,2.6,3,5,5.9,4.8,2.5,0,4.9-1.2,7.3-1.9-.2-.3-.4-.5-.6-.8-3.8,4.2-7.5,8.5-11.5,12.4-1.9,1.8-1.9,3.7-1.2,5.8.7,2.1,2.2,2.9,4.4,2.6h-.1Z"/>
              <path class="cls-3" d="M45.6,96c-1.2-1.1-1.9-2.7-.9-4,.7-.9,2.6-1.5,3.9-1.4,2.8.2,4.8,3.1,4.6,6.2-.2,3.2-2,4.8-5.2,4.9-5.1,0-9.9-1.1-14.2-3.9-3.6-2.4-5.2-6-4.4-9.5.5-2.3,1.8-3.2,4.1-2.8,3,.5,5.6,1.8,6.8,4.9.3.9,0,2.1-.4,3.1,0,.2-1.3.5-1.6.2-1-.7-1.8-1.6-2.5-2.5,0,0,.3-.6.5-1.1.7.9,1.2,1.6,2.1,2.6.8-2.6-.4-3.6-1.9-4.4s-3.3-1.6-4.8,0-.7,1.6-.6,2.3c.4,3,1.9,5.5,4.8,6.6,3.2,1.2,6.6,2.2,10,2.8,1.4.2,3.2-.5,4.4-1.3.9-.6,1.6-2.1,1.5-3.2-.2-1.2-1.1-2.6-2.1-3.3-.7-.5-2.6-.2-3.2.5-.6.7-.4,2.2-.5,3.4h-.4,0Z"/>
              <path class="cls-3" d="M62.9,72.6c-1.2.4-2.4.5-3.2,1.2-.4.4-.5,2-.2,2.3,1,.7,2.5,1.7,3.4,1.4,1.3-.4,2.7-1.5,3.5-2.7,1.1-1.7.4-3.5-.9-5-3.3-4.1-12.3-5.2-16.4-1.9-1.2,1-2.2,2.5-2.8,4-.4.8,0,2.2.5,3.1.9,1.7,3.3,2.1,4.8,1.1,1.8-1.4,1.6-2.9-.2-4.8,2.1-.2,3.7-.4,5.5-.5-.8,3.6-1.9,6.4-5.6,7.4-3.7,1-7.2-1.9-6.5-5.7.7-3.6,2.8-6.3,6.5-7,4.6-.9,9-.3,13,2.2,3.1,1.9,4.4,5.3,3.4,8.3-.7,2.2-2.3,3.3-4.6,3.6-2.1.3-3.9-.5-5.1-2.3-1.5-2.2-.9-4.6,1.3-5.9,1.6-1,2.8-.4,3.2,1.3h.4,0Z"/>
              <path class="cls-1" d="M16.4,62.9c.6,0,.9.2,1.2.2,4.6.2,6.5,3.9,4.2,7.8-.9,1.5-1.9,1.6-3,.2-3.6-4.9-5.3-10.5-5.3-16.5s1-1.8,1.6-2.6c.8.6,1.9,1.1,2.5,1.9,1.5,2.2,1.1,4.5,0,6.7-.4.7-.7,1.5-1.2,2.3h0Z"/>
              <path class="cls-3" d="M48.6,71.7c1.1-1.2,2.1-2.7,3.4-3.4,2.8-1.4,6.7-.9,10,1-4.8.3-9.7-1.2-13.5,2.4h0Z"/>
              <path class="cls-4" d="M47.5,97.8c1.1-1.4,2.1-2.8-.9-3.9,1.9-.7,2.9-.4,3.2,1,.4,1.8-.5,2.8-2.4,2.9h.1Z"/>
              <path class="cls-1" d="M61.1,74.8c2.8.6,3.5,0,3.8-3.3.9,2,.4,3.4-1.2,4.1-.7.4-1.9,0-2.8-.2,0-.2,0-.4.2-.7h0Z"/>
              <path class="cls-1" d="M48.5,71.7c-.5,2.9,2.3.6,3.1,2.4-.6.2-1.4.9-1.9.7-1.6-.5-2-1.6-1.1-3h0Z"/>
            </g>
            <g class="cls-7">
              <g>
                <path d="M29.4,79.8c-1.6,0-2.8,1.3-2.8,2.8s1.3,2.8,2.8,2.8,2.8-1.3,2.8-2.8-1.3-2.8-2.8-2.8Z"/>
                <path d="M39.4,86.5c-1.7,0-3.1,1.4-3.1,3.1s1.4,3.1,3.1,3.1,3.1-1.4,3.1-3.1-1.4-3.1-3.1-3.1Z"/>
                <path d="M68.6,82.6c-1.6,0-2.8,1.2-2.8,2.8s1.2,2.8,2.8,2.8,2.8-1.2,2.8-2.8-1.3-2.8-2.8-2.8Z"/>
                <path d="M57.7,87.2c-1.7,0-3.1,1.4-3.1,3s1.4,3,3.1,3,3.1-1.4,3.1-3-1.4-3-3.1-3Z"/>
                <path d="M49.1,57.7c.8-2,1.1-2.3,2-4.3,1.6-3.7,0-4.3-3.3-4.2-8.8.2-17.6.3-26.4,0-5.7-.2-7.9,1.7-7.7,7.5.3,12,0,23.9,0,35.9,5.9,2.8,6.5,1.9,6.5-4.2s.5-10.7-.4-16c-.3-1.3,0-2.1,1.5-2.6,2.8-.7,5.6-4.6,5.5-7.6,0-1.7.3-3.4,2.4-3.5,2.4-.2,2.9,1.7,3,3.6.2,3.2,1.5,5.6,4.9,5.6s4.6-2.5,4.8-5.7c.2-2.5,1.3-4.9,4-2.8,3,2.3,2.7-.3,3.2-1.6h0Z"/>
                <path d="M105,50.7c-6.5-3.2-13.4-1.3-20.1-1.4-19-.3-19-2.8-17.1,16.2,0,.3.4.5.8,1.1,2.7-.7,3.5-2.8,3.5-5.4s.5-3.3,2.5-3.3,2.7,1.4,2.7,3.2c0,3.5,1.4,6.1,5.1,6,3.3,0,4.7-2.5,4.6-5.8,0-1.9.9-3.2,2.7-3.3,1.9,0,2.9,1.4,2.8,3.2,0,3.6,3.3,8.3,6.6,9.1,1.5,6.7.3,13.5.6,20.2,0,2.6,1.4,3.6,3.7,3.5,2,0,1.9-.9,1.9-3.2-.3-13.4.7-26.7-.5-40h.2Z"/>
                <path d="M62.9,53.2c3.6-14.9,12-26.8,23.5-36.9-5.1.2-8.5,3-11.9,5.6-12.2,9.9-17.6,23.4-20.4,38.3-2.6,6-7.4,10.9-8.7,17.6-1,4.9,1.4,8.1,5.6,7.3,6.3-1.1,13.2-9.5,12.4-15.9-.7-5.4-.5-10.7-.5-16.1h0Z"/>
                <path d="M39.9,75.7c.2-1.8-.8-2.9-2.5-3.4-1.9,0-3.1,1.1-3.2,2.8-.2,1.9,1.3,3,2.9,3.1,1.5,0,2.6-1,2.8-2.5Z"/>
                <path d="M86.8,72.9c-1.5,0-2.7,1-2.8,2.6,0,1.8.8,3.1,2.8,3.1s2.6-.8,2.7-2c.2-2.5-.9-3.6-2.7-3.7h0Z"/>
                <path d="M91.8,82.1c-1.6,0-2.6,1-2.7,2.5-.2,1.8.7,3,2.6,3.2s2.7-1.2,3.1-2.8c-.3-1.8-1.1-3-3-3h0Z"/>
                <path d="M80.9,86.5c-2,0-3,1.1-2.8,3,.2,1.6,1.3,2.4,2.9,2.3,1.6-.2,2.5-1.1,2.5-2.7-.2-1.6-1.1-2.5-2.7-2.6h0Z"/>
                <path d="M73.7,72.2c-2,0-2.8,1.4-2.6,3.2.2,1.6,1.4,2.3,3,2.1,1.6-.2,2.4-1.2,2.3-2.9-.3-1.5-1.1-2.5-2.8-2.4h0Z"/>
              </g>
            </g>
            <g>
              <path class="cls-8" d="M12.3,53.2h95c2.4.8-2,11.5-2.8,13.4-5.4,11.7-15.3,20.4-26,24.8,2,.8,6.7-.9,7.4,2.7.4,2.1-.8,4.1-2.5,4.7-7.5-.5-44,.6-47.2,0-2.3-.4-3.3-3.7-2-5.8,1.3-2.3,5-.6,6.9-1.5-9.9-3.8-19.4-11.9-24.8-22.3-1.2-2.3-6.8-15.3-3.8-15.9h-.2Z"/>
              <path d="M45.6,27s0-.2.2-.2c.5-.5.9-1.1,1.4-1.6s1.4-1.3,2.1-1.9c.9-.7,1.8-1.2,2.8-1.6,1.1-.4,2.3-.7,3.5-.7s2.9.3,4.2.9c.8.3,1.6.7,2.3,1.2.6.4,1.1.7,1.7,1.2,1-.5,2.1-1,3.2-1.3,1.2-.4,2.3-.5,3.5-.5s2.8.3,4.2.9c1.1.5,2.2,1.2,3.2,2.2.8.8,1.6,1.6,2.2,2.6.5.7,1,1.4,1.4,2.2,0,0,0,.2.2.2.9-.1,1.7-.2,2.6-.2h0c1.3,0,2.5.2,3.8.6,1.2.4,2.4,1,3.4,1.9,1.1.9,2,1.9,2.8,3.2.7,1.2,1.4,2.4,1.9,3.7h.2c.6,0,1.2.3,1.8.5.8.3,1.6.7,2.3,1.3.9.7,1.6,1.6,2.3,2.5.8,1.2,1.4,2.6,1.9,4.1v1.3c-.2.4-.5.7-.8.9h-.5c-.2,0-.4,0-.6-.2-.4-.2-.6-.5-.8-1-.4-1.2-.9-2.3-1.5-3.2-.5-.7-1-1.3-1.6-1.8-.5-.4-1-.7-1.5-.9s-.9-.3-1.4-.4c-.2,0-.5,0-.7-.2-.5-.2-.9-.5-1.3-.9-.5-1.4-1.1-2.7-1.9-3.9-.6-.9-1.3-1.8-2.1-2.4-.8-.6-1.6-1.1-2.5-1.4-1-.3-2-.5-3-.5h0c-1.1,0-2.2,0-3.2.4-.5,0-.9-.3-1.2-.7h0l-.2-.3h0c-.2-.3-.4-.5-.5-.8-.4-.7-.8-1.3-1.2-1.9-.5-.8-1.1-1.4-1.8-2.1-.7-.7-1.5-1.2-2.4-1.6-1-.4-2-.7-3.1-.7s-1.9.2-2.8.4c-1.5.5-2.9,1.2-4.2,2.1-.9-.8-1.8-1.6-2.8-2.2-.6-.4-1.2-.7-1.9-1-1.1-.4-2.1-.7-3.3-.7s-1.8.2-2.6.5-1.5.7-2.1,1.2-1.2,1-1.8,1.5c-.4.5-.9.9-1.3,1.4-.2.2-.4.5-.6.7s-.2.2-.3.3c-.4.3-.8.5-1.2.5-.9-.4-1.9-.7-2.9-.9-.7-.2-1.5-.2-2.2-.2h0c-.7,0-1.4,0-2,.2s-1.2.4-1.7.6c-1,.5-1.8,1.2-2.6,2.1-.7.8-1.2,1.7-1.7,2.6s-.7,1.6-1.1,2.4c-.1.3-.2.6-.4.9s-.2.3-.2.4c-.1.2-.3.4-.5.6-.2.2-.5.3-.9.3h-.5c-1.2,0-2.4.2-3.6.6-1.1.4-2,.9-2.9,1.7s-1.6,1.7-2.2,2.8c-.7,1.2-1.2,2.6-1.5,4,0,.4-.4.8-.7,1.1-.2.2-.5.2-.7.2s0,0-.1,0h-.2c-.4,0-.7-.4-.9-.8-.2-.3-.2-.6-.2-.9s0,0,0,0h0v-.3c.4-1.8,1-3.5,1.8-5,.8-1.4,1.8-2.7,3-3.7s2.5-1.8,3.9-2.2c1.3-.5,2.7-.7,4-.7v-.2c.5-.9.9-1.8,1.3-2.7.6-1.2,1.3-2.3,2.2-3.3,1-1.2,2.2-2.1,3.5-2.8.7-.4,1.5-.7,2.3-.9.9-.2,1.7-.3,2.6-.3h0c.9,0,1.8,0,2.7.3.7.2,1.5.4,2.2.6h-.2Z"/>
            </g>
          </g>
        </g>
      </g>
    </g>
  </g>
</svg>