<?xml version="1.0" encoding="UTF-8"?>
<svg xmlns="http://www.w3.org/2000/svg" version="1.1" viewBox="0 0 120 120">
  <defs>
    <style>
      .cls-1 {
        stroke-width: .4px;
      }

      .cls-1, .cls-2, .cls-3, .cls-4, .cls-5, .cls-6, .cls-7 {
        fill: none;
        stroke-linecap: round;
        stroke-linejoin: round;
      }

      .cls-1, .cls-2, .cls-3, .cls-4, .cls-5, .cls-6, .cls-7, .cls-8, .cls-9 {
        stroke: #000;
      }

      .cls-2 {
        stroke-width: 1.9px;
      }

      .cls-4 {
        stroke-width: 2px;
      }

      .cls-5 {
        stroke-width: 3px;
      }

      .cls-6 {
        stroke-width: 4px;
      }

      .cls-7 {
        stroke-width: 7.1px;
      }

      .cls-10 {
        display: none;
      }

      .cls-8 {
        fill: #fefefe;
      }

      .cls-8, .cls-9 {
        stroke-miterlimit: 10;
      }

      .cls-9 {
        fill: #f36025;
      }
    </style>
  </defs>
  <!-- Generator: Adobe Illustrator 28.6.0, SVG Export Plug-In . SVG Version: 1.2.0 Build 709)  -->
  <g>
    <g id="Ebene_1">
      <g id="Ebene_19">
        <g id="Ebene_1-3">
          <g id="Generatives_Objekt">
            <g id="Background" class="cls-10">
              <path class="cls-8" d="M17.2,17.8h117.8v85.3H-12.8v-54.9h4.8l25.2-25.6v-4.9h0Z"/>
              <path class="cls-9" d="M17.2,17.8v4.9l-25.2,25.6h-4.8v-30.5h30Z"/>
            </g>
            <g>
              <g id="Background-2" class="cls-10">
                <path class="cls-7" d="M-10.5,100.9V20.3c9.2-.1,18.4,0,27.6,0h115.5v80.6H-10.5c0,0,0,0,0,0Z"/>
                <line class="cls-1" x1="-8" y1="49" x2="-8" y2="97.7"/>
                <line class="cls-1" x1="-7.2" y1="98.4" x2="129.5" y2="98.4"/>
                <polyline class="cls-1" points="17.8 22.7 130.1 22.7 130.4 23.1 130.4 97.7"/>
              </g>
              <path class="cls-6" d="M75,95.2c-2.5-8.5,2.4-16.6-2.6-24.3-2.4-3.8-8.1-8.8-9.3-17.7-.4-3.5.7-28.9.3-35.7.3-.7,6.6.6,7.6.8,24.1,5.8,39.9,29.8,32.8,53.9-7.6,25.6-35.9,37.9-59.9,28.9C1.9,85.1,6.3,24.1,56.3,17l.4.3c-.4,8,.7,31.1-.2,36.4-1.3,7.9-7.5,15.6-8.2,23.4-.6,5.7,2.8,11.8,2,19.3"/>
              <path class="cls-6" d="M45.7,55.9c-3.8,12.7-10.6,15-20.9,21.2"/>
              <path class="cls-6" d="M54.9,49.4c-14.8,11.4-21.1,3.1-34.1,12.8"/>
              <path class="cls-6" d="M65.3,51.7c2.4.6,7.2,2.9,8.9,3.1,2.4.4,11.2-1.1,13.8-.4,4.4,1.1,8.2,4.6,12.1,6.7"/>
              <path class="cls-4" d="M52.8,66.4c5.9,5.2,5.8,19.6,4.1,27.1"/>
              <path class="cls-5" d="M75.9,56c6.5,10.7,9.9,14.6,22,18.4"/>
              <path class="cls-4" d="M67.7,66.3c-1.8,3.2-4.3,6.5-4.4,10.3,0,2.2,3,17.5,4.9,20"/>
              <path class="cls-5" d="M87.4,55.7c2.1,5.8,5.3,11.3,11.9,12.1"/>
              <path class="cls-5" d="M32.3,58.1c-1.3,5.4-5.2,9.5-10.1,11.7"/>
              <path class="cls-4" d="M42.4,65.2c3.4,7.9-2,18.8-7.8,24.2"/>
              <path class="cls-2" d="M81.3,65.9c-3.5,8.8,5.1,12.7,8.4,20"/>
              <path class="cls-6" d="M33.5,73.1c0,4.1-1.3,8-3.4,11.4"/>
              <line class="cls-3" x1="92" y1="73.5" x2="94.5" y2="81.1"/>
              <path class="cls-6" d="M75.8,79.1c5.4,3.7,6.4,7.5,5.3,13.7"/>
              <path class="cls-6" d="M47.5,82.6c-3,3.3-3.9,7.8-3.3,12.1"/>
            </g>
          </g>
        </g>
      </g>
    </g>
  </g>
</svg>