<?xml version="1.0" encoding="UTF-8"?>
<svg xmlns="http://www.w3.org/2000/svg" version="1.1" viewBox="0 0 120 120">
  <defs>
    <style>
      .cls-1, .cls-2, .cls-3 {
        fill: #fff;
      }

      .cls-2, .cls-4 {
        display: none;
      }

      .cls-5 {
        stroke: #fff;
      }

      .cls-5, .cls-6, .cls-3 {
        stroke-miterlimit: 10;
      }

      .cls-6, .cls-3 {
        stroke: #000;
        stroke-width: .2px;
      }
    </style>
  </defs>
  <!-- Generator: Adobe Illustrator 28.6.0, SVG Export Plug-In . SVG Version: 1.2.0 Build 709)  -->
  <g>
    <g id="Ebene_1">
      <g id="Ebene_16">
        <g id="Ebene_1-2">
          <g class="cls-4">
            <path d="M86.2,16.7c-2.4,1.1-4.8,4.2-5.9,7.8-.5,1.7-.5,2.5,0,3q.4.3.6,0c0-.2.7-1.3,1.4-2.5,2.3-4.2,3.9-6.2,4.5-5.6.4.4.6,2.1.3,4.5-.4,4.5-1.9,9.5-4.4,15.3-.4.9-.8,1.9-.9,2.2-.2.5-.2.4-.8-1-1.1-2.4-1.6-3.4-2.3-4.1-1.3-1.3-2.9-1.4-5-.4-3.3,1.7-8.3,6.2-10.7,9.5-1.5,2.1-2.9,4.9-3.7,7.2-.4,1-.7,1.9-.7,1.9,0,0-.8-.5-1.7-1.2-3-2.2-6.9-3.9-11-4.8-1.7-.4-2.6-.5-6.6-.5s-4.7,0-5.7.5c-1.2.6-1.6.9-2.1,1.9-.5,1.1-.4,2.6,0,5.1,1.5,6.9,4.7,13,8.9,17.5,1.1,1.1,2.2,2.2,2.6,2.5s.7.5.7.6c0,0-.7.6-1.5,1.3-4.6,3.6-9,9.8-11.4,16.3-.6,1.6-.7,2.2-.7,3.4v1.9c0,.3-.5.7-3.1,2.2-6.9,4-10.7,6.6-13.1,9-1.4,1.4-2.6,3.2-2.2,3.5.4.4,11.7-4.4,18.9-8,2.2-1.1,2.8-1.4,2.6-1-.2.2-1,1.2-1.8,2.1-3.5,4-5,6.5-4.6,7.1.1.2.4.3.7.3.6,0,7.8-5.8,13.1-10.5l1.3-1.1h2.6c1.4-.2,3.2-.4,3.9-.5,3.8-.9,7.7-2.6,10.7-4.8,1-.7,1.8-1.3,1.8-1.3,0,0,.4.7.9,1.5,1.9,3.5,5.7,7.7,9.4,10.4,2.1,1.5,6.9,4,9.4,4.9,2.4.9,3.4.9,4.5.5,2.2-1,3.3-4.4,3.6-10.8.2-4.9-.4-8.7-1.9-12.6-.4-.9-.7-1.8-.7-1.9s.8-.4,1.8-.7c3.9-1,7.9-3.1,11.4-5.7,2.2-1.7,5.6-4.8,6.5-6.1,1.3-1.6,1.7-2.7,1.7-4s-.9-3-3.4-4.7c-5.1-3.3-10.4-5.2-15.4-5.5h-2.6c0,0,1.8-2.5,1.8-2.5,2.3-3.1,6.5-9.5,8.5-12.9,4.7-8.3,9.6-20.1,9.8-23.7.2-2.4-.6-3.6-2.2-3.6-2.6,0-5.9,3.3-7.8,8.2-1.2,2.8-.7,2.8,2.2-.1,1.9-1.9,3.5-3.1,4-3.1s-.8,3.3-3.3,8.6c-3.3,6.9-7.1,13.1-13,21.1l-2.2,2.9v-2.1c-.4-4.5-.5-4.2.8-7.1,3.2-7.1,5.1-14.8,5.5-22.4.2-3.8,0-5.6-.5-7-.7-1.4-2.3-1.8-4-1h.5ZM77.2,41.3c1.8,4,2.8,8.2,2.9,12.9,0,3.3-.2,6.6-.8,7.8-.2.3-.7.7-2,1.2l-1.8.7-.6-1.4c-.8-1.7-1.8-3.2-2.6-3.7-1.3-.8-3.2-.2-5.9,2.1-.7.6-1.3,1-1.3,1,0,0-.4-.5-.9-1.2-.4-.7-1.1-1.6-1.4-2.1l-.6-.9.5-2.1c1.5-6,5.4-11.3,11.5-15.4,2-1.3,1.8-1.4,2.9,1h.1ZM42.5,52.2c3.8.4,6.8,1.3,9.8,2.8,2.2,1.2,3.9,2.5,5.9,4.6,1.7,1.8,4,5.1,4,5.7s-.6.3-3.5.3-6.2.2-7.2.7c-.6.3-.7.4-.7,1.1s1.4,3.7,3.3,6.6c.9,1.3,1.6,2.6,1.6,2.7,0,.4-.5.3-2.4-.4-1.5-.5-5.6-2.3-5.6-2.5s-.6-.5-1.3-1.1c-.7-.5-2-1.8-3-2.8-3.9-4.1-6.6-9.5-7.8-15.7-.2-1.1-.4-2-.4-2.1,0-.2,4.9-.3,7.3,0h0ZM92.2,66.1c1.1.2,2.5.6,3.3.9,1.5.6,6.1,2.8,7.6,3.8l.9.6-.9,1.2c-2.1,2.8-6.7,6.6-9.9,8.3-2.6,1.4-6.1,2.6-8.6,3.1-.7,0-.8,0-1.3-.6-.3-.4-1-1.3-1.6-2s-1-1.3-.9-1.4,1-.7,2-1.4c1.7-1.2,3.6-2.9,3.6-3.4s-.4-.7-1-1.2c-1-1-4.2-2.8-7-4-2.3-.9-2.4-1.6-.2-2.4,2.8-1.1,4.6-1.6,7.6-1.9,1.3-.2,4.4,0,6.3.5h0ZM49.6,79.4c.8.4,2.2.9,3.1,1.2,1.4.4,1.6.5,1.5.9,0,.2-.4,1.4-.7,2.7-.7,2.6-.8,4-.3,4.5.3.3.6.3,2.4.2,1.1,0,3.3-.4,4.9-.7,1.5-.3,2.8-.5,2.9-.5,0,0-.6.9-1.4,1.9-3.8,4.7-8.5,7.5-14.5,8.6-3.4.7-9,.5-12.5-.5l-.7-.2.7-2c1.5-4.5,4.1-8.6,7.4-12.1,1.3-1.4,2.9-2.8,3.9-3.4.9-.6,1.7-1.1,1.7-1.1,0,0,.7.2,1.5.6h0ZM80.7,86.3c3.3,4.7,4.7,10.3,4.2,16.7-.2,2.1-.8,6-1.1,6.3-.2.2-3.7-1.2-5.6-2.1-5.8-3-10.7-7.6-13.2-12.6l-.9-1.8,1.3-1.7c.7-.9,1.4-1.7,1.4-1.6,0,0,1,.6,2.1,1.4,2.2,1.5,4.8,2.8,5.5,2.8,1.2,0,2-2.4,2.6-7.4,0-1.1.2-2.4.3-2.8v-.9c0,0,1.2,1.2,1.2,1.2.6.7,1.5,1.9,2,2.6h.2Z"/>
          </g>
          <g class="cls-4">
            <path class="cls-2" d="M10,69.7V14.2h100v52.9c-1.7-4.4-5.1-6.5-9.5-7.2v-5.1c0-3.2-1.3-4.1-4.3-3.3-4.6,1.3-9.3,2.6-13.9,3.9-.8.2-1.7.3-2.4.2-3.6-.7-7.1-1.6-10.4-2.3-.2-3.6-4.3-3.2-5-5.6,1.7-2,3.3-4,5-6-3.9-.7-7.1-1.2-10.2-1.8.2-2.4.3-4.3.5-6.5-3.9,1.7-7.3,3.1-10.4,4.4-1-.5-2.6-1.7-3.4-1.4-1.2.6-2,2.3-2.4,2.9-4.3,2.6-8.2,4.9-12.6,7.6,1.7,1,3,1.7,4.4,2.4-.5.9-1.2,1.7-1.5,2.6-.9,2.6-2.4,2.9-4.8,1.8-2-.9-4.3-1.1-5.2,1.2-1.1,2.9-3.5,5.8-1.3,9.2.2.3.5.4.7.7.3.3.5.7,1.2,1.6-3.3.4-6.2.6-9,1.2-1.9.4-3.7,1.3-5.5,1.9h0v.2Z"/>
            <path class="cls-2" d="M110,72.2v43.8H10v-44.3c.4,1.2,1.3,2.5,1.1,3.6-.5,4,.6,5.4,4.6,4.9,4.4-.5,8.7-1.2,13.1-1.7,1.8-.2,3.7-.6,5.4,0,12.4,4,24.7,8.5,37.2,12.3,8.2,2.4,16.7,4,25.1,5.7,1.5.3,3.8,0,4.8-1.1,3.9-4,1.8-11.7-3.5-13.5-.6-.2-1.1-.5-1.7-.7.6-1.6,1.2-3,1.7-4.4,4.5-.3,10.1,2.3,12.2-4.5h0Z"/>
            <path d="M110,72.2c-2.1,6.9-7.6,4.2-12.2,4.5-.6,1.4-1.1,2.8-1.7,4.4.6.2,1.1.5,1.7.7,5.2,1.7,7.4,9.5,3.5,13.5-1,1-3.3,1.4-4.8,1.1-8.4-1.7-16.9-3.3-25.1-5.7-12.5-3.8-24.8-8.3-37.2-12.3-1.6-.5-3.6,0-5.4,0-4.4.5-8.7,1.2-13.1,1.7-4,.5-5-.9-4.6-4.9.1-1.2-.7-2.4-1.1-3.6v-2c1.8-.7,3.6-1.6,5.5-1.9,2.8-.6,5.7-.8,9-1.2-.7-.9-.9-1.3-1.2-1.6s-.6-.4-.7-.7c-2.2-3.4.2-6.4,1.3-9.2.9-2.3,3.2-2.1,5.2-1.2,2.3,1.1,3.9.8,4.8-1.8.3-.9,1-1.7,1.5-2.6-1.3-.7-2.6-1.4-4.4-2.4,4.5-2.7,8.3-5,12.6-7.6.5-.6,1.2-2.3,2.4-2.9.8-.4,2.3.9,3.4,1.4,3.2-1.3,6.5-2.7,10.4-4.4-.2,2.2-.3,4-.5,6.5,3.1.5,6.3,1.1,10.2,1.8-1.7,2-3.3,4-5,6,.7,2.4,4.8,2.1,5,5.6,3.3.7,6.8,1.6,10.4,2.3.8.2,1.7,0,2.4-.2,4.7-1.2,9.3-2.6,13.9-3.9,3-.8,4.2,0,4.3,3.3v5.1c4.3.7,7.8,2.8,9.5,7.2v5.1h0ZM95.5,53.5c-27.6,8.3-55.7,12.9-83.3,16.3.1,2.9.3,5,.3,7.1s1.1,1.9,2.3,1.8c2.2-.2,4.5-.5,6.7-.8,21.6-2.8,43.2-6.2,64.4-11.2,3.8-.9,7.5-2,11-3-.5-1.9-1.1-3.4-1.3-5s0-3.2,0-5.2h0ZM36.4,77.6c16.4,6.6,32.6,11.1,49.1,14.8-2.3-1.2-4.7-2.1-7.2-2.9-9.9-3.3-19.8-6.5-29.7-9.8-.9-.3-1.6-.9-2.9-1.6,1.1-.4,1.3-.6,1.5-.5,1.7.5,3.3,1.1,5,1.7,14.4,5,28.7,10.1,43.1,15.2.9.3,1.8.5,2.7.5s1.5-.2,2-.7c3-2.9,1.5-9.7-2.4-10.8-11.3-3.1-22.6-5.9-33.8-9-3.8-1-7.2-.4-11.5.6,1.7.3,2.6.5,3.6.7,4.9,1.4,10.3,2.1,14.7,4.6,7.2,4.1,14.8,6.4,22.5,8.8.6.2,1.2.2,2,.3,0-.7-.2-1.2,0-1.4.6-1.1,1.1-2.7,2-3,1.6-.6,2.7.9,2.8,2.4,0,1.5,0,3.1-.4,4.5-.8,2.2-2.8,2.3-4.2.5-.5-.7-1.3-1.2-2.1-1.5-1.3-.5-2.7-.8-4.1-1.2-7-2.2-13.6-5.3-20.2-8.4-10-4.6-20.7-6.7-32.6-3.8h0ZM24.4,62.9c1.5,0,3.2-.2,4.6.4,6.5,2.9,12.7.5,19.3-.4-.4-1.4-.9-2.6-1.3-3.9-2.9,2.7-5.9,4.4-9.9,4,.5-2,.9-3.6,1.4-5.7-2,.3-3.8.4-5.4.9-2.1.6-2.8,0-2-2.1-2.2,0-4-2.5-5.9-.2-1.6,1.9-2,6.2-.6,7.1h-.2ZM91.6,70.3c-9.6-3-17.9,1.5-26.6,2.6,6.9,2,13.8,3.8,20.7,5.5.6,0,1.3-.4,1.9-.6,0-.2,0-.5-.2-.7-4.1-1.5-8.6-1.9-12.4-4.3.8-.4,1.5-.4,2.2-.2,3,.8,6.1,1.4,9.1,2.4,1.9.6,2.6,0,2.6-1.8-1.7-.5-3.2-1.1-4.7-1.6,2.4-1.7,5,1,7.4-1.3ZM102.6,75.4c-.4-2.4-.7-4.5-1.1-6.5-1.8-.2-3.5-.5-5.2-.8v-1.2c1.6,0,3.5.7,4.8,0,1.4-.6,2.4-2.4,3.9-4-1.7-.5-2.7-.7-3.4-.9-3.5,4.6-9,3.6-13.1,6,2.2.3,4.1.6,6.1.9,2.8.6,3.5,1.5,3.3,4.3v1.7c1.5,0,3,.2,4.5.4h.2ZM64.2,57.5c0-.3,0-.6.2-.9,3.9-.7,7.9,2.5,12.2,0-3.7-.7-7-1.9-10.3-1.9s-6.9,1-10.7,1.7c0,.2-.3,1-.5,1.8,6.4,1.7,9.7,1.8,13,.7-1.3-.4-2.5-.8-3.8-1.2h0v-.2ZM39.3,60.8c.2.3.4.6.6.8,1.8-1.2,3.7-2.3,5.4-3.6.4-.3.6-1.2.6-1.8-.2-3.4-.5-6.7-.8-9.9-4.6,3.2-4.6,9.1-5.9,14.4h.1ZM65.9,52.5c-5-1.8-9.8-3.6-14.8-5.4,3.7,8,7,8.5,14.8,5.4ZM106.3,64.4c-3,2.3-3.8,5.5-2.4,9.1.3.7.9,1.7,1.5,1.7s1.5-.7,2-1.3c1.8-2.6,1.3-7-1.1-9.5ZM50.4,43.9c0,.3-.2.5-.3.8,4.4,1.8,8.8,3.6,13.3,5.4-3.3-4.5-7.2-7.7-12.9-6.2h0ZM48.2,45.9c-2.4,3.8-1.9,9.6,1.3,14,.2-4.9,2.6-9.7-1.3-14ZM66.2,43.4c-4.8-.2-9-4.4-14-1.9,2,.5,3.9.7,5.7,1.5s3.3,2.1,5.2,3.3c1-.9,2.1-1.9,3.1-2.9ZM43.4,45.9c-4.3.3-8.6,5.2-9.8,10.4,3.6-.5,5.5-1.9,5.7-4.3-.7.7-1.2,1.4-1.8,2-.2-.2-.4-.3-.7-.5.5-3.6,3.8-5.2,6.6-7.6h0ZM88.3,78.7c.4.3.7.6,1.1.9,2.5-2.1,2-7.7,7.7-6.3-.7-1.2-1-2.3-1.5-2.4-.9,0-2.2,0-2.7.6-1.7,2.3-3.1,4.8-4.6,7.2h0ZM34.7,46.6c0,.3.2.6.3.9,3.3-1.5,6.5-3.1,10.2-4.8-5-2.1-7.3,2.2-10.5,3.8h0ZM91.4,79.8c3,1,4.6-.5,4.6-3.6s-.3-1.3-.6-1.4c-.4-.2-1.3,0-1.5.5-.9,1.4-1.6,2.9-2.4,4.5h0ZM99.2,62.7c-.2-3.4-.4-6.5-.6-10.4-2.4,3.7-2,8,.6,10.4ZM58,36.5c-5.4.9-6.2,1.3-7.2,3.4,2.2-.3,4.3-.7,6.7-1,0-.6.2-1.3.4-2.3h0ZM51,60.2c3.5-2.9,3.8-5.3,1.1-7.6-.4,2.4-.7,4.8-1.1,7.6ZM59.1,60.8c-4.1-1.5-5.2-1.3-6.8,1.3,2.3-.4,4.3-.8,6.8-1.3ZM97,92.5c2.1-2.4,2-4.7,0-5.8v5.8ZM48.5,40.5c-.9-.9-1.6-1.7-2.4-2.6-.2.7-.8,1.4-.7,2,.3,1.7,1.4,1.5,3.1.5h0ZM30,65.8c-2.5-1.2-4-1.1-4.4.5,1.5-.2,2.9-.4,4.4-.5Z"/>
            <path class="cls-3" d="M95.5,53.5c0,2-.2,3.6,0,5.2.2,1.6.8,3.1,1.3,5-3.6.9-7.3,2.1-11,3-21.2,5.1-42.8,8.4-64.4,11.2-2.2.3-4.5.7-6.7.8-1.2,0-2.4,0-2.3-1.8,0-2.1-.2-4.2-.3-7.1,27.6-3.4,55.7-8.1,83.3-16.3h0ZM25,73.6c0,.5.2,1,.2,1.4,14-2.1,27.9-4.7,41.9-6.9.4,0,.8-.5,1.1-.9,0-.3-.2-.6-.3-.9-14.3,2.4-28.6,4.8-42.9,7.2h0ZM91.3,63.2c-2.9-.9-19.7,3.3-21.1,5.5,7.6-1.7,14.5-3.1,21.1-5.5ZM64.9,64.1c-3.8.5-7.6,1.1-12,1.7,2.2,1.6,10.5.5,12-1.7Z"/>
            <path class="cls-3" d="M36.4,77.6c11.9-3,22.6-.9,32.6,3.8,6.7,3.1,13.3,6.2,20.2,8.4,1.3.4,2.8.7,4.1,1.2.8.3,1.6.8,2.1,1.5,1.4,1.8,3.4,1.7,4.2-.5.5-1.4.5-3,.4-4.5,0-1.6-1.2-3-2.8-2.4-.9.3-1.4,1.9-2,3-.2.3,0,.8,0,1.4-.8,0-1.4-.2-2-.3-7.7-2.3-15.4-4.7-22.5-8.8-4.3-2.5-9.8-3.2-14.7-4.6-.9-.3-2-.4-3.6-.7,4.2-.9,7.7-1.6,11.5-.6,11.2,3.1,22.6,5.9,33.8,9,3.9,1.1,5.4,7.9,2.4,10.8-.5.5-1.3.7-2,.7s-1.8-.2-2.7-.5c-14.4-5-28.7-10.1-43.1-15.2-1.7-.6-3.3-1.1-5-1.7-.2,0-.4.2-1.5.5,1.3.7,2.1,1.3,2.9,1.6,9.9,3.3,19.8,6.5,29.7,9.8,2.4.8,4.8,1.7,7.2,2.9-16.5-3.7-32.8-8.3-49.1-14.8h0ZM79.5,80.8v.7c.5.3,1.1.7,1.6.8,3,.9,6,1.9,9.1,2.6.6.2,1.2-.2,1.9-.3-.4-.4-.9-1-1.4-1.2-3.2-1-6.3-1.9-9.6-2.8-.5,0-1.1,0-1.6,0h0Z"/>
            <path class="cls-1" d="M24.4,62.9c-1.3-.8-1-5.2.6-7.1,1.9-2.3,3.8,0,5.9.2-.8,2.3,0,2.8,2,2.1,1.6-.5,3.4-.6,5.4-.9-.5,2-.9,3.6-1.4,5.7,4.1.4,7-1.2,9.9-4,.4,1.4.8,2.5,1.3,3.9-6.6.9-12.8,3.3-19.3.4-1.3-.6-3-.3-4.6-.4h.2ZM32.7,61.6c0-.5.2-.9.3-1.4-1.7-.3-3.5-.7-5.3-1,0,.4-.2.9-.2,1.3,1.7.4,3.5.7,5.2,1.1h0Z"/>
            <path class="cls-1" d="M91.6,70.3c-2.4,2.3-4.9-.3-7.4,1.3,1.5.5,3,1,4.7,1.6,0,1.7-.7,2.4-2.6,1.8-3-.9-6.1-1.7-9.1-2.4-.7-.2-1.3-.2-2.2.2,3.8,2.4,8.3,2.7,12.4,4.3,0,.2,0,.5.2.7-.7.2-1.3.7-1.9.6-6.9-1.7-13.8-3.4-20.7-5.5,8.7-1.1,17.1-5.6,26.6-2.6Z"/>
            <path class="cls-1" d="M102.6,75.4c-1.5,0-3-.2-4.5-.4v-1.7c.2-2.8-.5-3.8-3.3-4.3-2-.4-3.9-.6-6.1-.9,4.1-2.4,9.7-1.4,13.1-6,.7.2,1.7.5,3.4.9-1.5,1.7-2.4,3.4-3.9,4-1.3.6-3.2,0-4.8,0v1.2c1.7.2,3.4.5,5.2.8.3,2,.7,4.1,1.1,6.5h-.2Z"/>
            <path class="cls-1" d="M64.2,57.5c1.3.4,2.5.8,3.8,1.2-3.3,1.2-6.6.9-13-.7.2-.8.4-1.6.5-1.8,3.8-.7,7.2-1.7,10.7-1.7s6.6,1.2,10.3,1.9c-4.3,2.6-8.3-.6-12.2,0,0,.3,0,.6-.2.9v.2Z"/>
            <path class="cls-1" d="M39.3,60.8c1.2-5.3,1.2-11.2,5.9-14.4.2,3.1.6,6.5.8,9.9,0,.6-.2,1.5-.6,1.8-1.7,1.3-3.6,2.4-5.4,3.6-.2-.3-.4-.6-.6-.8h-.1ZM41.3,58.6c.4,0,.9.2,1.3.2.4-2.1.8-4.3,1.1-6.4-.4,0-.9-.2-1.3-.2-.4,2.1-.8,4.3-1.1,6.4h0Z"/>
            <path class="cls-1" d="M65.9,52.5c-7.9,3.1-11.1,2.6-14.8-5.4,5,1.8,9.9,3.6,14.8,5.4ZM60.3,53.1c0-.3.2-.7.3-1-1.8-.7-3.6-1.3-5.4-1.9,0,.3-.2.6-.3.9,1.6,1.3,3.3,2.3,5.4,2Z"/>
            <path class="cls-1" d="M106.3,64.4c2.3,2.5,2.9,6.9,1.1,9.5-.4.6-1.3,1.3-2,1.3s-1.2-1-1.5-1.7c-1.5-3.6-.6-6.8,2.4-9.1ZM105.3,73.8c2.3-1.7,1.9-3.5,1.6-5.2,0-.6-.9-1.2-1.6-2.1,0,0,0,7.3,0,7.3Z"/>
            <path class="cls-1" d="M50.4,43.9c5.8-1.5,9.6,1.7,12.9,6.2-4.4-1.8-8.8-3.6-13.3-5.4,0-.3.2-.5.3-.8h0Z"/>
            <path class="cls-1" d="M48.2,45.9c3.9,4.3,1.5,9.1,1.3,14-3.3-4.4-3.7-10.2-1.3-14ZM49,48.9h-.9v4.5h.9v-4.5Z"/>
            <path class="cls-1" d="M66.2,43.4c-1.1,1-2.2,2-3.1,2.9-1.9-1.2-3.5-2.5-5.2-3.3-1.7-.7-3.6-1-5.7-1.5,5-2.4,9.1,1.7,14,1.9Z"/>
            <path class="cls-1" d="M43.4,45.9c-2.8,2.4-6.1,3.9-6.6,7.6.2.2.4.3.7.5.6-.7,1.1-1.3,1.8-2,0,2.4-2,3.8-5.7,4.3,1.2-5.2,5.6-10.1,9.8-10.4h0Z"/>
            <path class="cls-1" d="M88.3,78.7c1.5-2.4,2.9-4.9,4.6-7.2.4-.6,1.8-.7,2.7-.6.4,0,.8,1.2,1.5,2.4-5.7-1.4-5.2,4.2-7.7,6.3-.4-.3-.7-.6-1.1-.9h0Z"/>
            <path class="cls-1" d="M34.7,46.6c3.2-1.7,5.4-5.9,10.5-3.8-3.7,1.7-7,3.3-10.2,4.8,0-.3-.2-.6-.3-.9h0Z"/>
            <path class="cls-1" d="M91.4,79.8c.9-1.7,1.6-3.1,2.4-4.5.2-.4,1.1-.6,1.5-.5.3,0,.6.9.6,1.4,0,3.1-1.5,4.6-4.6,3.6h0Z"/>
            <path class="cls-1" d="M99.2,62.7c-2.6-2.4-3-6.7-.6-10.4.2,3.8.4,6.9.6,10.4Z"/>
            <path class="cls-1" d="M58,36.5c-.2,1-.3,1.7-.4,2.3-2.4.4-4.6.7-6.7,1,.9-2,1.7-2.4,7.2-3.4h0Z"/>
            <path class="cls-1" d="M51,60.2c.4-2.7.7-5.1,1.1-7.6,2.7,2.3,2.4,4.7-1.1,7.6Z"/>
            <path class="cls-1" d="M59.1,60.8c-2.5.5-4.6.9-6.8,1.3,1.6-2.6,2.8-2.8,6.8-1.3Z"/>
            <path class="cls-1" d="M97,92.5v-5.8c2,1,2.1,3.3,0,5.8Z"/>
            <path class="cls-1" d="M48.5,40.5c-1.7.9-2.8,1.2-3.1-.5,0-.6.4-1.4.7-2,.7.8,1.5,1.6,2.4,2.6h0Z"/>
            <path class="cls-1" d="M30,65.8c-1.4.2-2.8.4-4.4.5.4-1.6,1.9-1.8,4.4-.5Z"/>
            <path d="M25,73.6c14.3-2.4,28.6-4.8,42.9-7.2,0,.3.2.6.3.9-.4.3-.7.8-1.1.9-14,2.2-27.9,4.9-41.9,6.9,0-.5-.2-1-.2-1.4h0Z"/>
            <path d="M91.3,63.2c-6.7,2.4-13.6,3.8-21.1,5.5,1.5-2.1,18.3-6.4,21.1-5.5Z"/>
            <path d="M64.9,64.1c-1.5,2.2-9.9,3.3-12,1.7,4.4-.6,8.2-1.2,12-1.7Z"/>
            <path d="M79.5,80.8c.5,0,1.1-.3,1.6,0,3.2.9,6.4,1.8,9.6,2.8.5.2.9.8,1.4,1.2-.6,0-1.3.4-1.9.3-3-.8-6.1-1.7-9.1-2.6-.6-.2-1.1-.5-1.6-.8v-.7h0Z"/>
            <path d="M32.7,61.6c-1.7-.4-3.5-.7-5.2-1.1,0-.4.2-.9.2-1.3,1.7.3,3.5.7,5.3,1,0,.5-.2.9-.3,1.4h0Z"/>
            <path d="M41.3,58.6c.4-2.1.8-4.3,1.1-6.4.4,0,.9.2,1.3.2-.4,2.1-.8,4.3-1.1,6.4-.4,0-.9-.2-1.3-.2h0Z"/>
            <path d="M60.3,53.1c-2.1.2-3.8-.7-5.4-2,0-.3.2-.6.3-.9,1.8.7,3.6,1.3,5.4,1.9,0,.3-.2.7-.3,1Z"/>
            <path d="M105.3,73.8v-7.3c.8,1,1.5,1.5,1.6,2.1.2,1.7.7,3.5-1.6,5.2Z"/>
            <path d="M49,48.9v4.5h-.9v-4.5h.9Z"/>
          </g>
          <g class="cls-4">
            <path class="cls-6" d="M10.2,57.9c.9-1.8,2.3-2.7,4.3-3.3,20.1-6.4,40.2-12.9,60.3-19.5.9-.3,1.9-1,2.6-1.8,2.6-3.1,5.1-6.4,7.8-9.5,3.1-3.6,7.1-4.8,11.6-3.6,5.7,1.6,8.2,7.4,5.7,12.7-.2.5-.4.9-.4.8,2.1,1.5,4.5,2.5,5.8,4.4,1.1,1.7,1.4,4.3,1.4,6.4s-.8,3.1-1.7,4.2c-17.6,19.5-35.4,38.9-52.9,58.6-3.4,3.8-7.2,4.4-11.4,3.3-3.9-1-7.9-2.4-11.5-4.4-3.6-2-5.4-5.5-5.2-9.9.1-2.4,1-4.2,2.9-5.8,4.3-3.6,8.4-7.6,12.6-11.3.2-.2.6-.5.7-.7,1.3-5.6,5.7-9.1,8.8-13.5,0,0,0-.2,0-.7-2.7,1.3-5.4,2.4-7.9,3.7-7.7,3.7-15.4,7.5-23.2,11.2-1.8.9-3.3.3-4.5-1.4-2.8-3.8-4.3-8.1-5.2-12.6-.1-.7-.3-1.3-.5-1.9v-5.5h-.2ZM48.3,77.5c4-3.8,9.1-2.2,14.1-2.5-3.5-2.1-7.6-2.6-10.5-1.1-1.4.7-2.4,2.4-3.6,3.6-.9,1.6-.5,2.7,1.1,3.2.6.2,1.3-.5,2-.7-.9-1.9-3.7.5-3.2-2.5h0ZM47.3,105.2c-2.3.3-3.9-.5-4.6-2.8-.7-2.3-.7-4.2,1.3-6.1,4.2-4.2,8-8.8,12-13.2.2.3.4.6.6.9-2.5.7-5,1.9-7.6,2-3.1.2-4.8-2.4-6.2-5.1-3.5,3.2-6.9,6.2-10.3,9.3,1.6.6,2.9.9,4.1,1.5,2.6,1.2,4.6,3.2,4.8,6.2,0,1.4-.5,3.4-1.5,4.1-.9.7-3,.2-4.2-.3-2.4-1.1-3.2-3.2-2.2-5.8-1.7-.3-2.2.2-1.9,1.7.6,2.4,1.9,4.4,4.1,5.3,3,1.2,6.1,1.9,9.2,2.7.7.2,1.5-.3,2.2-.5,2,0,2.9-1.2,2.5-3.1-.3-1.4-1.4-1.8-3.4-1.1,3.1,1.2,2.1,2.7,1,4.2h.1ZM70.9,78.9c4.1-6.3,7.9-12.3,11.8-18.4,5.8-9,11.7-18,17.4-27.1,3-4.7,1.3-9.8-3.9-11.4-3.9-1.3-7.4-.1-10.3,3.4-11.3,14-22.7,27.9-34,41.9-.4.5-.7,1-1.1,1.7,12-.6,17.2,2,20,10h0ZM55,104.8c1-1.3,1.5-2.1,2.2-2.8,16.1-17.8,32.2-35.7,48.4-53.4,2.3-2.6,2.4-5.2,1.5-8.1-.7-2.2-2.4-3.5-4.7-4-2.2-.5-3,1.2-3.9,2.7-9.6,14.9-19.1,29.7-28.6,44.6-2,3-4.6,4.3-8,3.7-1.5-.2-2.8-1.2-4.1-1.9-3.1,3.3-6.3,6.7-9.3,10,4.4.6,6,4,6.6,9.2h-.1ZM18.9,65.6c.1,0,.8-.2,1.5-.5,13.4-5.1,26.7-10.6,40.2-15.3,6.4-2.2,9-7.7,12.8-12.4-18.9,6.1-37.9,12.2-56.1,18.1.6,3.6,1.1,6.9,1.6,10.1h0ZM62.4,50.8c-14.1,5.4-28.2,10.8-42.6,16.4,3.3,2.3,3.5,5.3,3,8.7.9-.4,1.7-.7,2.4-1,7.8-3.6,15.4-7.7,23.4-10.8,6.6-2.5,10.2-7.8,13.8-13.3h0ZM45.3,103.2c0-1.3,0-2.8.5-3.6.6-.7,2.5-1,3.3-.5,1.1.7,2.1,2.2,2.2,3.5.2,1.1-.7,2.7-1.5,3.3-1.3.9-3.1,1.6-4.6,1.4-3.5-.6-7-1.6-10.4-2.9-2.9-1.2-4.6-3.8-5-7,0-.8.1-2,.7-2.5,1.6-1.5,3.4-.7,5,0,1.6.8,2.8,1.9,2,4.7-.8-1.1-1.4-1.8-2.2-2.8-.3.6-.7,1.1-.5,1.2.8.9,1.7,1.9,2.6,2.7.3.2,1.6,0,1.7-.2.3-1,.8-2.4.4-3.3-1.2-3.2-3.9-4.6-7.1-5.2-2.4-.4-3.7.6-4.3,3-.9,3.7.8,7.5,4.6,10,4.5,3,9.5,4.2,14.8,4.1,3.3,0,5.2-1.9,5.4-5.2.2-3.3-1.8-6.4-4.8-6.6-1.3,0-3.3.5-4,1.5-1.1,1.4-.3,3.1,1,4.3h.2ZM63.4,78.4c-.5-1.9-1.7-2.4-3.4-1.4-2.4,1.4-2.9,4-1.4,6.3,1.3,1.9,3.1,2.7,5.3,2.4,2.3-.3,4-1.5,4.8-3.8,1.1-3.2-.3-6.8-3.6-8.8-4.2-2.6-8.8-3.3-13.6-2.4-3.9.7-6.1,3.6-6.8,7.4-.8,4,2.9,7.1,6.7,6,3.9-1.1,5-4.1,5.9-7.9-1.8.2-3.6.4-5.8.6,1.9,2.1,2.2,3.7.2,5.1-1.5,1.1-4,.6-5-1.2-.5-.9-.9-2.4-.5-3.3.7-1.6,1.6-3.1,2.9-4.2,4.3-3.5,13.6-2.3,17.1,2.1,1.3,1.6,2,3.6.9,5.3-.8,1.3-2.2,2.5-3.7,2.9-1,.3-2.6-.7-3.6-1.5-.4-.3-.3-2.1.2-2.4.8-.7,2-.8,3.3-1.3h0ZM14.8,68.2c.5-.9.9-1.7,1.3-2.5,1.2-2.4,1.5-4.8,0-7.1-.6-.9-1.7-1.3-2.6-2-.6.9-1.6,1.9-1.6,2.8,0,6.4,1.7,12.3,5.5,17.5,1.1,1.5,2.2,1.3,3.1-.2,2.4-4.2.4-8.1-4.4-8.3-.3,0-.6,0-1.3-.2h0ZM61.5,80.8c0,.2,0,.5-.2.7,1,0,2.1.6,2.9.2,1.7-.7,2.2-2.3,1.2-4.4-.4,3.6-1.1,4.1-4,3.5h.1Z"/>
            <path class="cls-3" d="M70.9,78.9c-2.8-8.1-8-10.6-20-10,.4-.6.7-1.2,1.1-1.7,11.3-14,22.6-27.9,34-41.9,2.9-3.6,6.5-4.7,10.3-3.4,5.1,1.7,6.9,6.7,3.9,11.4-5.8,9.1-11.6,18.1-17.4,27.1-3.9,6-7.7,12.1-11.8,18.4h0Z"/>
            <path class="cls-3" d="M55,104.8c-.6-5.2-2.2-8.6-6.6-9.2,3-3.2,6.2-6.6,9.3-10,1.3.6,2.7,1.6,4.1,1.9,3.4.5,6.1-.7,8-3.7,9.5-14.9,19.1-29.7,28.6-44.6.9-1.5,1.7-3.1,3.9-2.7,2.3.5,4.1,1.8,4.7,4,.9,2.8.8,5.5-1.5,8.1-16.2,17.8-32.3,35.6-48.4,53.4-.7.7-1.2,1.6-2.2,2.8h.1Z"/>
            <path class="cls-3" d="M18.9,65.6c-.5-3.2-1-6.5-1.6-10.1,18.2-5.9,37.2-12,56.1-18.1-3.8,4.7-6.4,10.2-12.8,12.4-13.5,4.7-26.8,10.1-40.2,15.3-.7.2-1.4.5-1.5.5h0Z"/>
            <path class="cls-3" d="M62.4,50.8c-3.7,5.5-7.2,10.8-13.8,13.3-8,3.1-15.6,7.1-23.4,10.8-.7.3-1.5.6-2.4,1,.5-3.4.4-6.4-3-8.7,14.4-5.5,28.5-10.9,42.6-16.4h0Z"/>
            <path class="cls-3" d="M47.3,105.1c-.8.2-1.6.7-2.2.5-3.1-.8-6.2-1.6-9.2-2.7-2.3-.9-3.6-2.8-4.1-5.3-.3-1.5.2-2,1.9-1.7-1,2.6-.2,4.7,2.2,5.8,1.3.6,3.3.9,4.2.3,1-.7,1.6-2.7,1.5-4.1-.2-3-2.2-5-4.8-6.2-1.2-.6-2.5-.9-4.1-1.5,3.5-3.1,6.8-6.2,10.3-9.3,1.3,2.8,3.1,5.3,6.2,5.1,2.6,0,5.1-1.3,7.6-2-.2-.3-.4-.6-.6-.9-4,4.4-7.8,9-12,13.2-2,1.9-2,3.9-1.3,6.1.7,2.3,2.3,3.1,4.6,2.8h-.2Z"/>
            <path class="cls-3" d="M45.3,103.2c-1.3-1.1-2-2.9-1-4.3.8-1,2.7-1.6,4-1.5,3,.2,5,3.3,4.8,6.6-.2,3.3-2.1,5.1-5.4,5.2-5.3,0-10.3-1.1-14.8-4.1-3.8-2.5-5.4-6.3-4.6-10,.6-2.4,1.9-3.4,4.3-3,3.1.5,5.9,1.9,7.1,5.2.3.9,0,2.2-.4,3.3,0,.2-1.3.5-1.7.2-1-.7-1.8-1.7-2.6-2.7,0,0,.3-.7.5-1.2.7.9,1.3,1.7,2.2,2.8.9-2.7-.4-3.8-2-4.7s-3.4-1.7-5,0-.8,1.7-.7,2.5c.4,3.2,2,5.8,5,7,3.3,1.3,6.9,2.3,10.4,2.9,1.4.2,3.3-.5,4.6-1.4.9-.6,1.7-2.3,1.5-3.3-.2-1.3-1.2-2.8-2.2-3.5-.7-.5-2.7-.2-3.3.5-.7.7-.4,2.3-.5,3.6h-.2Z"/>
            <path class="cls-3" d="M63.4,78.4c-1.3.5-2.5.6-3.3,1.3-.4.4-.5,2.1-.2,2.4,1,.8,2.6,1.8,3.6,1.5,1.4-.4,2.8-1.6,3.7-2.9,1.1-1.8.4-3.8-.9-5.3-3.5-4.3-12.8-5.5-17.1-2.1-1.3,1-2.3,2.6-2.9,4.2-.4.9,0,2.4.5,3.3,1,1.8,3.5,2.3,5,1.2,1.9-1.4,1.6-3.1-.2-5.1,2.2-.2,3.9-.4,5.8-.6-.9,3.8-2,6.8-5.9,7.9s-7.6-2.1-6.7-6c.8-3.8,2.9-6.7,6.8-7.4,4.8-.9,9.4-.3,13.6,2.4,3.3,2.1,4.6,5.7,3.6,8.8-.8,2.3-2.4,3.5-4.8,3.8-2.2.3-4.1-.5-5.3-2.4-1.5-2.3-1-4.8,1.4-6.3,1.7-1,2.9-.4,3.4,1.4h0Z"/>
            <path class="cls-3" d="M14.8,68.2c.7,0,1,.2,1.3.2,4.8.2,6.8,4.1,4.4,8.3-.9,1.6-2,1.7-3.1.2-3.8-5.2-5.5-11.1-5.5-17.5s1.1-1.9,1.6-2.8c.9.7,2,1.1,2.6,2,1.5,2.3,1.2,4.7,0,7.1-.4.8-.8,1.6-1.3,2.5h0Z"/>
            <path class="cls-3" d="M48.4,77.5c1.2-1.2,2.2-2.9,3.6-3.6,2.9-1.5,7-1,10.5,1.1-5,.3-10.1-1.3-14.1,2.5h0Z"/>
            <path class="cls-3" d="M47.3,105.2c1.1-1.5,2.2-3-1-4.2,2-.7,3-.4,3.4,1.1.4,1.9-.5,3-2.5,3.1h0Z"/>
            <path class="cls-3" d="M61.5,80.8c2.9.7,3.6,0,4-3.5.9,2.1.4,3.6-1.2,4.4s-2,0-2.9-.2c0-.2,0-.5.2-.7h-.1Z"/>
            <path class="cls-3" d="M48.3,77.5c-.5,3.1,2.4.6,3.2,2.5-.7.2-1.5.9-2,.7-1.6-.5-2.1-1.7-1.1-3.2h-.1Z"/>
          </g>
          <g>
            <path d="M28.4,86.1c-1.6,0-3,1.4-3,3s1.3,3,3,3,3-1.4,3-3-1.3-3-3-3Z"/>
            <path d="M38.8,93.2c-1.8,0-3.2,1.5-3.2,3.3s1.5,3.3,3.2,3.3,3.2-1.5,3.2-3.3-1.4-3.3-3.2-3.3Z"/>
            <path d="M69.3,89.1c-1.6,0-2.9,1.3-2.9,3s1.3,3,2.9,3,2.9-1.3,2.9-3-1.3-3-2.9-3Z"/>
            <path d="M57.9,93.9c-1.7,0-3.2,1.4-3.2,3.2s1.4,3.2,3.2,3.2,3.2-1.4,3.2-3.2-1.5-3.2-3.2-3.2Z"/>
            <path class="cls-5" d="M48.9,62.7c.8-2.1,1.2-2.4,2.1-4.5,1.7-3.9,0-4.6-3.5-4.5-9.2.2-18.3.3-27.5,0-6-.2-8.2,1.8-8,8,.3,12.7,0,25.4,0,38.1,6.1,3,6.8,2,6.7-4.5,0-5.7.5-11.3-.4-17-.3-1.4,0-2.3,1.6-2.7,2.9-.8,5.8-4.8,5.7-8.1,0-1.8.3-3.6,2.5-3.7,2.5-.2,3,1.8,3.1,3.8.2,3.4,1.6,5.9,5.1,5.9s4.8-2.7,5-6.1c.2-2.7,1.4-5.2,4.2-3,3.2,2.4,2.8-.3,3.3-1.7h0Z"/>
            <path class="cls-5" d="M107.3,55.3c-6.7-3.4-14-1.4-20.9-1.5-19.9-.3-19.9-3-17.8,17.2,0,.3.4.6.8,1.1,2.8-.8,3.7-2.9,3.7-5.7s.5-3.5,2.6-3.6c2.2,0,2.8,1.4,2.8,3.3,0,3.7,1.5,6.5,5.3,6.4,3.5,0,4.9-2.7,4.8-6.2,0-2,1-3.4,2.8-3.5,2,0,3,1.5,2.9,3.4,0,3.8,3.4,8.8,6.9,9.7,1.5,7.1.3,14.3.7,21.4,0,2.7,1.5,3.8,3.9,3.8s2-.9,2-3.4c-.3-14.2.7-28.3-.5-42.4h0Z"/>
            <path class="cls-5" d="M63.4,57.9c3.7-15.8,12.5-28.5,24.6-39.1-5.3.2-8.9,3.1-12.4,6-12.7,10.5-18.3,24.9-21.3,40.6-2.7,6.4-7.7,11.6-9.1,18.7-1.1,5.2,1.5,8.6,5.9,7.8,6.5-1.2,13.8-10.1,13-16.8-.7-5.7-.5-11.4-.6-17.1h0Z"/>
            <path d="M39.3,81.8c.2-1.9-.8-3.1-2.6-3.6-2,0-3.3,1.2-3.4,3-.2,2,1.3,3.2,3,3.3,1.5,0,2.7-1.1,2.9-2.7h0Z"/>
            <path d="M88.3,78.8c-1.6,0-2.8,1-2.9,2.7,0,1.9.8,3.3,2.9,3.3s2.7-.9,2.8-2.1c.2-2.6-1-3.8-2.8-3.9h0Z"/>
            <path d="M93.5,88.6c-1.6,0-2.7,1-2.8,2.7-.2,1.9.8,3.2,2.7,3.4,2,.2,2.8-1.3,3.3-3-.3-1.9-1.1-3.2-3.1-3.1h0Z"/>
            <path d="M82.2,93.2c-2.1,0-3.1,1.2-2.9,3.2.2,1.7,1.3,2.6,3,2.4s2.6-1.2,2.6-2.8c-.2-1.7-1.1-2.7-2.8-2.7h.1Z"/>
            <path d="M74.6,78.1c-2.1,0-2.9,1.4-2.7,3.3.2,1.7,1.5,2.5,3.1,2.3,1.7-.2,2.5-1.3,2.4-3.1-.3-1.6-1.2-2.6-2.9-2.6h0Z"/>
          </g>
        </g>
      </g>
    </g>
  </g>
</svg>