<?xml version="1.0" encoding="UTF-8"?>
<svg xmlns="http://www.w3.org/2000/svg" version="1.1" viewBox="0 0 120 120">
  <defs>
    <style>
      .cls-1, .cls-2, .cls-3, .cls-4, .cls-5, .cls-6 {
        stroke: #000;
        stroke-miterlimit: 10;
        stroke-width: 4px;
      }

      .cls-1, .cls-4 {
        fill: #fff;
      }

      .cls-1, .cls-7 {
        display: none;
      }

      .cls-3 {
        fill: #1d191a;
      }

      .cls-5 {
        fill: none;
      }

      .cls-6 {
        fill: #fefefe;
      }
    </style>
  </defs>
  <!-- Generator: Adobe Illustrator 28.6.0, SVG Export Plug-In . SVG Version: 1.2.0 Build 709)  -->
  <g>
    <g id="Ebene_1">
      <g id="Ebene_31">
        <g id="Ebene_1-14">
          <g class="cls-7">
            <path class="cls-2" d="M85,15.6c-2.4,1.1-4.6,4-5.7,7.4-.5,1.7-.5,2.4,0,2.9q.4.3.6,0c0-.2.7-1.2,1.3-2.4,2.2-4,3.7-5.9,4.4-5.4.4.4.6,2.1.3,4.3-.4,4.3-1.9,9.1-4.3,14.6-.4.9-.8,1.8-.9,2.1q-.2.4-.8-.9c-1-2.3-1.5-3.3-2.2-3.9-1.3-1.2-2.8-1.3-4.8-.4-3.2,1.6-8,5.9-10.3,9.1-1.4,2-2.8,4.7-3.5,6.9-.4,1-.6,1.8-.6,1.9,0,0-.7-.4-1.6-1.1-2.9-2.1-6.7-3.7-10.6-4.6-1.7-.4-2.5-.4-6.4-.4s-4.6,0-5.5.4c-1.2.6-1.6.9-2,1.8-.5,1-.4,2.4,0,4.8,1.5,6.5,4.5,12.4,8.6,16.7,1,1.1,2.2,2.1,2.5,2.4s.7.5.6.6c0,0-.7.6-1.5,1.2-4.5,3.4-8.8,9.3-11,15.5-.6,1.5-.7,2.1-.7,3.3v1.8c0,.3-.5.7-3,2.1-6.7,3.9-10.4,6.3-12.7,8.6-1.4,1.3-2.5,3-2.2,3.4.4.4,11.4-4.2,18.3-7.6,2.1-1.1,2.8-1.3,2.5-1-.2.2-1,1.1-1.7,2-3.4,3.8-4.9,6.2-4.4,6.8.1.2.4.3.6.3.6,0,7.6-5.5,12.7-10.1l1.2-1h2.5c1.4-.2,3.1-.4,3.8-.5,3.7-.8,7.5-2.4,10.4-4.6.9-.7,1.7-1.2,1.8-1.2s.4.7.9,1.5c1.9,3.4,5.5,7.3,9.1,9.9,2.1,1.4,6.7,3.8,9.1,4.7,2.4.8,3.3.9,4.4.4,2.2-.9,3.2-4.2,3.5-10.3.2-4.7-.4-8.3-1.9-12-.4-.9-.6-1.7-.6-1.8s.8-.4,1.7-.6c3.8-.9,7.7-2.9,11.1-5.5,2.1-1.6,5.4-4.6,6.3-5.8,1.2-1.5,1.7-2.6,1.7-3.8,0-1.7-.8-2.8-3.3-4.5-5-3.2-10.1-4.9-15-5.2h-2.5c0,0,1.7-2.4,1.7-2.4,2.2-2.9,6.3-9.1,8.2-12.3,4.6-8,9.3-19.2,9.5-22.6.2-2.3-.6-3.5-2.1-3.5-2.5,0-5.7,3.2-7.6,7.8-1.2,2.7-.7,2.7,2.2-.1,1.8-1.8,3.4-3,3.9-3s-.7,3.2-3.2,8.2c-3.2,6.6-6.9,12.5-12.6,20.2l-2.1,2.8v-2c-.4-4.3-.5-4,.8-6.8,3.1-6.8,4.9-14.1,5.4-21.4.2-3.6,0-5.4-.5-6.7-.7-1.3-2.2-1.7-3.9-.9h.1ZM76.2,39.2c1.8,3.8,2.7,7.8,2.8,12.3,0,3.2-.2,6.3-.7,7.5-.2.3-.7.6-1.9,1.1l-1.7.7-.6-1.3c-.7-1.7-1.7-3-2.5-3.5-1.3-.8-3.1-.2-5.7,2.1-.6.6-1.2,1-1.3,1s-.4-.5-.9-1.2c-.4-.6-1.1-1.5-1.4-2l-.6-.8.5-2c1.5-5.8,5.2-10.8,11.2-14.7,1.9-1.3,1.7-1.3,2.8,1h0v-.2ZM42.7,49.6c3.7.4,6.6,1.3,9.5,2.7,2.2,1.1,3.8,2.4,5.7,4.4,1.6,1.7,3.9,4.9,3.9,5.4s-.6.3-3.4.3-6,.2-7,.7-.7.4-.6,1c0,.9,1.4,3.5,3.2,6.3.8,1.3,1.5,2.4,1.5,2.6,0,.4-.5.3-2.3-.4-1.5-.5-5.4-2.2-5.4-2.4s-.6-.5-1.2-1c-.7-.5-2-1.7-2.9-2.7-3.8-3.9-6.4-9.1-7.6-15-.2-1-.4-1.9-.4-2,0-.2,4.8-.3,7.1,0h0ZM90.9,62.8c1,.2,2.4.6,3.2.9,1.5.6,5.9,2.7,7.4,3.7l.9.6-.9,1.1c-2,2.6-6.5,6.3-9.6,8-2.6,1.3-5.9,2.5-8.3,2.9-.6,0-.7,0-1.2-.6-.3-.4-1-1.3-1.6-1.9-.6-.7-.9-1.3-.9-1.3,0,0,.9-.7,1.9-1.3,1.7-1.1,3.5-2.8,3.5-3.3s-.4-.7-1-1.2c-1-.9-4.1-2.7-6.7-3.8-2.2-.9-2.3-1.5-.2-2.3,2.7-1.1,4.5-1.5,7.4-1.8,1.3-.2,4.3,0,6.2.5h0v-.2ZM49.5,75.5c.8.4,2.1.9,3,1.1,1.3.4,1.5.5,1.5.8s-.4,1.3-.7,2.6c-.7,2.5-.7,3.8-.3,4.3.3.3.6.3,2.3.2,1.1,0,3.2-.4,4.7-.7,1.5-.3,2.8-.5,2.8-.5,0,0-.6.8-1.3,1.8-3.7,4.5-8.3,7.2-14.1,8.2-3.3.6-8.7.4-12.1-.5l-.7-.2.7-1.9c1.5-4.3,3.9-8.2,7.2-11.5,1.3-1.3,2.8-2.6,3.8-3.2.9-.6,1.7-1.1,1.7-1.1,0,0,.7.2,1.5.6h0ZM79.7,82.1c3.2,4.5,4.5,9.9,4.1,16-.2,2-.8,5.8-1,6s-3.5-1.1-5.4-2.1c-5.6-2.8-10.4-7.3-12.8-12l-.9-1.7,1.3-1.6c.7-.9,1.3-1.6,1.4-1.5,0,0,.9.6,2,1.3,2.1,1.4,4.7,2.7,5.3,2.7,1.1,0,2-2.3,2.5-7.1,0-1,.2-2.2.3-2.7v-.9c0,0,1.1,1.1,1.1,1.1.6.7,1.5,1.8,2,2.5h0Z"/>
          </g>
          <g class="cls-7">
            <path class="cls-1" d="M11.1,66.3V13.3h97v50.5c-1.6-4.2-5-6.2-9.2-6.9v-4.8c0-3.1-1.3-3.9-4.2-3.1-4.5,1.3-9,2.5-13.5,3.7-.7.2-1.6.3-2.3.2-3.5-.7-6.9-1.5-10.1-2.2-.2-3.4-4.2-3.1-4.8-5.4,1.7-1.9,3.2-3.8,4.9-5.8-3.7-.6-6.9-1.2-9.9-1.7.2-2.3.3-4.1.5-6.2-3.8,1.6-7.1,2.9-10.1,4.2-1-.4-2.5-1.7-3.3-1.3-1.2.6-1.9,2.2-2.4,2.8-4.2,2.5-7.9,4.7-12.2,7.3,1.7.9,3,1.6,4.3,2.3-.5.9-1.1,1.6-1.5,2.5-.9,2.5-2.4,2.8-4.6,1.7-1.9-.9-4.2-1-5,1.1-1.1,2.8-3.4,5.6-1.2,8.8.2.3.5.4.7.6.3.3.5.7,1.2,1.5-3.2.4-6,.6-8.7,1.1-1.8.4-3.5,1.2-5.3,1.9h0l-.3.2Z"/>
            <path class="cls-1" d="M108.1,68.7v41.8H11.1v-42.3c.4,1.1,1.2,2.4,1.1,3.5-.5,3.8.6,5.1,4.4,4.7,4.3-.5,8.5-1.2,12.7-1.7,1.7-.2,3.6-.6,5.2,0,12.1,3.8,24,8.1,36.1,11.7,8,2.3,16.2,3.8,24.3,5.4,1.5.3,3.7,0,4.6-1,3.8-3.8,1.8-11.2-3.4-12.9-.6-.2-1.1-.4-1.7-.6.6-1.5,1.1-2.8,1.7-4.2,4.4-.3,9.8,2.2,11.8-4.3h.2Z"/>
            <path class="cls-2" d="M108.1,68.7c-2,6.5-7.4,4-11.8,4.3-.6,1.4-1.1,2.7-1.7,4.2.6.2,1.1.5,1.7.6,5.1,1.7,7.2,9.1,3.4,12.9-1,.9-3.2,1.3-4.6,1-8.2-1.6-16.4-3.1-24.3-5.4-12.1-3.6-24.1-7.9-36.1-11.7-1.6-.5-3.5,0-5.2,0-4.3.5-8.5,1.2-12.7,1.7-3.9.4-4.9-.9-4.4-4.7.1-1.1-.7-2.3-1.1-3.5v-1.9c1.8-.6,3.5-1.5,5.3-1.9,2.7-.6,5.5-.7,8.7-1.1-.7-.9-.9-1.2-1.2-1.5-.2-.2-.6-.4-.7-.6-2.2-3.3.2-6.1,1.2-8.8.8-2.2,3.1-2.1,5-1.1,2.2,1.1,3.7.7,4.6-1.7.3-.9.9-1.7,1.5-2.5-1.3-.7-2.5-1.4-4.3-2.3,4.3-2.6,8-4.8,12.2-7.3.5-.6,1.2-2.2,2.4-2.8.8-.4,2.2.9,3.3,1.3,3.1-1.3,6.3-2.6,10.1-4.2-.2,2.1-.3,3.9-.5,6.2,3,.5,6.2,1.1,9.9,1.7-1.7,1.9-3.2,3.8-4.9,5.8.6,2.3,4.7,2,4.8,5.4,3.2.7,6.6,1.5,10.1,2.2.7.2,1.6,0,2.3-.2,4.5-1.2,9-2.4,13.5-3.7,2.9-.8,4.1,0,4.2,3.1v4.8c4.2.7,7.6,2.6,9.2,6.9v4.8h0ZM94,50.8c-26.8,7.9-54,12.3-80.8,15.6.1,2.8.3,4.8.3,6.7s1.1,1.8,2.2,1.7c2.2-.2,4.3-.5,6.5-.8,21-2.7,41.9-5.9,62.5-10.7,3.7-.9,7.3-1.9,10.7-2.8-.5-1.8-1.1-3.2-1.3-4.7s0-3,0-5h0ZM36.7,73.8c15.9,6.3,31.7,10.6,47.7,14.1-2.2-1.1-4.6-2-6.9-2.8-9.6-3.1-19.2-6.2-28.8-9.3-.8-.3-1.6-.8-2.8-1.5,1-.4,1.3-.6,1.5-.5,1.6.5,3.2,1,4.8,1.6,14,4.8,27.9,9.7,41.8,14.5.8.3,1.7.5,2.6.5s1.5-.2,2-.7c2.9-2.8,1.5-9.3-2.3-10.3-10.9-2.9-21.9-5.6-32.8-8.6-3.7-1-7-.4-11.1.6,1.6.3,2.6.4,3.5.7,4.8,1.4,10,2,14.2,4.4,6.9,3.9,14.4,6.2,21.8,8.4.6.2,1.2.2,1.9.3,0-.6-.2-1.1,0-1.4.6-1,1.1-2.6,1.9-2.8,1.6-.6,2.6.8,2.7,2.3,0,1.4,0,3-.4,4.3-.7,2.1-2.7,2.2-4.1.5-.5-.6-1.3-1.1-2-1.4-1.3-.5-2.6-.7-3.9-1.2-6.8-2.1-13.2-5-19.6-8-9.7-4.4-20.1-6.4-31.6-3.6h0ZM25.1,59.8c1.5,0,3.1-.2,4.4.4,6.3,2.8,12.3.5,18.7-.4-.4-1.4-.8-2.5-1.2-3.7-2.8,2.6-5.7,4.2-9.6,3.8.5-1.9.9-3.5,1.4-5.4-2,.3-3.7.4-5.2.9-2,.6-2.7,0-2-2.1-2.1,0-3.9-2.4-5.8-.2-1.5,1.9-1.9,6-.6,6.7h-.1ZM90.2,66.9c-9.3-2.8-17.3,1.4-25.8,2.5,6.7,1.9,13.4,3.6,20.1,5.2.6,0,1.2-.4,1.9-.6,0-.2,0-.5-.2-.7-3.9-1.5-8.3-1.8-12-4.1.8-.4,1.5-.4,2.1-.2,3,.7,6,1.4,8.9,2.3,1.9.6,2.5,0,2.5-1.7-1.6-.5-3.1-1-4.6-1.5,2.4-1.6,4.8,1,7.1-1.3h0ZM100.9,71.7c-.4-2.3-.7-4.3-1-6.2-1.7-.2-3.4-.5-5-.7v-1.2c1.6,0,3.4.7,4.7,0,1.4-.6,2.3-2.3,3.7-3.9-1.6-.4-2.6-.7-3.3-.9-3.4,4.4-8.7,3.4-12.7,5.7,2.1.3,4,.6,5.9.9,2.8.6,3.4,1.4,3.2,4.1v1.6c1.5,0,2.9.2,4.4.4h0v.2ZM63.7,54.6c0-.3,0-.6.2-.8,3.8-.7,7.6,2.4,11.8,0-3.6-.7-6.8-1.8-10-1.9-3.4,0-6.7,1-10.4,1.6,0,.2-.3.9-.5,1.7,6.2,1.6,9.4,1.7,12.6.6-1.3-.4-2.4-.8-3.7-1.2h0ZM39.5,57.8c.2.3.4.6.6.8,1.8-1.1,3.6-2.2,5.3-3.5.4-.3.6-1.1.6-1.7-.2-3.2-.5-6.4-.7-9.4-4.5,3.1-4.5,8.7-5.7,13.8h0ZM65.3,49.9c-4.8-1.7-9.5-3.4-14.4-5.2,3.6,7.6,6.7,8.2,14.4,5.2ZM104.6,61.2c-2.9,2.2-3.7,5.3-2.3,8.7.3.7.9,1.6,1.4,1.6s1.5-.6,1.9-1.2c1.8-2.5,1.2-6.7-1-9.1ZM50.3,41.6c0,.3-.2.5-.3.8,4.3,1.7,8.6,3.4,12.9,5.2-3.2-4.3-6.9-7.4-12.5-6h-.1ZM48.2,43.5c-2.3,3.6-1.9,9.1,1.3,13.3.2-4.7,2.5-9.2-1.3-13.3ZM65.6,41.1c-4.7-.2-8.7-4.2-13.6-1.9,2,.5,3.8.7,5.5,1.4s3.2,2,5.1,3.2c.9-.9,2-1.8,3-2.8h0ZM43.5,43.5c-4.1.3-8.4,4.9-9.5,9.9,3.5-.5,5.3-1.9,5.5-4.1-.6.7-1.2,1.3-1.7,1.9-.2-.2-.4-.3-.7-.5.5-3.5,3.7-4.9,6.4-7.2h0ZM87,74.9c.4.3.7.6,1,.8,2.4-2,1.9-7.4,7.5-6-.7-1.1-1-2.2-1.4-2.2-.9,0-2.2,0-2.6.6-1.7,2.2-3,4.6-4.5,6.9h0ZM35.1,44.2c0,.3.2.6.3.9,3.2-1.5,6.3-2.9,9.9-4.6-4.9-2-7.1,2.1-10.2,3.7ZM90.1,75.9c3,1,4.5-.4,4.5-3.4s-.3-1.2-.6-1.3c-.4-.2-1.3,0-1.5.4-.9,1.3-1.5,2.8-2.4,4.3h0ZM97.7,59.5c-.2-3.2-.4-6.2-.6-9.9-2.4,3.5-1.9,7.6.6,9.9ZM57.6,34.5c-5.2.9-6,1.3-6.9,3.2,2.1-.3,4.2-.6,6.5-1,0-.6.2-1.3.4-2.2h0ZM50.9,57.2c3.4-2.8,3.7-5,1-7.2-.4,2.3-.7,4.6-1,7.2ZM58.7,57.8c-3.9-1.4-5.1-1.2-6.6,1.2,2.2-.4,4.2-.7,6.6-1.2ZM95.5,88c2.1-2.3,2-4.5,0-5.5v5.5ZM48.5,38.3c-.9-.9-1.6-1.7-2.3-2.4-.2.6-.8,1.3-.7,1.9.3,1.6,1.3,1.4,3,.5h0ZM30.6,62.6c-2.4-1.2-3.9-1-4.3.5,1.5-.2,2.8-.4,4.3-.5Z"/>
            <path class="cls-4" d="M94,50.8c0,1.9-.2,3.5,0,5s.8,2.9,1.3,4.7c-3.5.9-7.1,2-10.7,2.8-20.6,4.9-41.5,8-62.5,10.7-2.2.3-4.3.6-6.5.8-1.1,0-2.3,0-2.2-1.7,0-2-.2-4-.3-6.7,26.8-3.2,54-7.7,80.8-15.6h0ZM25.7,70c0,.5.2.9.2,1.4,13.6-2,27.1-4.5,40.7-6.6.4,0,.7-.5,1.1-.8,0-.3-.2-.6-.3-.9-13.9,2.3-27.8,4.6-41.6,6.9h-.1ZM90,60.1c-2.8-.8-19.1,3.2-20.5,5.2,7.3-1.6,14-3,20.5-5.2ZM64.4,60.9c-3.7.5-7.4,1-11.7,1.6,2.1,1.5,10.2.5,11.7-1.6Z"/>
            <path class="cls-4" d="M36.7,73.8c11.5-2.8,22-.8,31.6,3.6,6.5,3,12.9,5.9,19.6,8,1.3.4,2.7.7,3.9,1.2.7.3,1.5.8,2,1.4,1.4,1.7,3.3,1.7,4.1-.5.5-1.3.5-2.8.4-4.3s-1.1-2.8-2.7-2.3c-.9.3-1.3,1.8-1.9,2.8-.2.3,0,.7,0,1.4-.7,0-1.3-.2-1.9-.3-7.5-2.2-14.9-4.5-21.8-8.4-4.2-2.4-9.5-3-14.2-4.4-.9-.3-1.9-.4-3.5-.7,4.1-.9,7.5-1.5,11.1-.6,10.9,3,21.9,5.7,32.8,8.6,3.8,1,5.2,7.5,2.3,10.3-.5.4-1.3.7-2,.7s-1.8-.2-2.6-.5c-14-4.8-27.9-9.7-41.8-14.5-1.6-.6-3.2-1.1-4.8-1.6-.2,0-.4.2-1.5.5,1.3.7,2,1.2,2.8,1.5,9.6,3.1,19.2,6.2,28.8,9.3,2.4.8,4.7,1.7,6.9,2.8-16-3.5-31.8-7.9-47.7-14.1h0ZM78.5,76.9v.6c.5.3,1,.6,1.6.8,2.9.9,5.8,1.8,8.8,2.5.6.2,1.2-.2,1.8-.3-.4-.4-.8-1-1.3-1.1-3.1-.9-6.2-1.9-9.3-2.7-.5,0-1,0-1.5,0h0Z"/>
            <path class="cls-4" d="M25.1,59.8c-1.3-.8-.9-4.9.6-6.7,1.9-2.2,3.7,0,5.8.2-.7,2.2,0,2.7,2,2.1,1.6-.5,3.3-.6,5.2-.9-.5,1.9-.9,3.5-1.4,5.4,3.9.4,6.8-1.2,9.6-3.8.4,1.3.8,2.4,1.2,3.7-6.4.9-12.4,3.2-18.7.4-1.3-.6-2.9-.3-4.4-.4h0ZM33.2,58.5c0-.4.2-.9.3-1.3-1.7-.3-3.4-.6-5.1-1,0,.4-.2.8-.2,1.2,1.7.4,3.4.7,5.1,1h0Z"/>
            <path class="cls-4" d="M90.2,66.9c-2.3,2.2-4.8-.3-7.1,1.3,1.5.5,3,1,4.6,1.5,0,1.7-.7,2.2-2.5,1.7-2.9-.9-5.9-1.6-8.9-2.3-.6-.2-1.3-.2-2.1.2,3.7,2.2,8.1,2.6,12,4.1,0,.2,0,.5.2.7-.6.2-1.3.7-1.9.6-6.7-1.6-13.4-3.3-20.1-5.2,8.5-1,16.6-5.3,25.8-2.5h0Z"/>
            <path class="cls-4" d="M100.9,71.7c-1.5,0-2.9-.2-4.4-.4v-1.6c.2-2.7-.5-3.6-3.2-4.1-1.9-.4-3.8-.6-5.9-.9,4-2.3,9.4-1.3,12.7-5.7.7.2,1.7.4,3.3.9-1.5,1.6-2.4,3.3-3.7,3.9-1.3.6-3.1,0-4.7,0v1.2c1.7.2,3.3.5,5,.7.3,1.9.6,3.9,1,6.2h0v-.2Z"/>
            <path class="cls-4" d="M63.7,54.6c1.2.4,2.4.8,3.7,1.2-3.2,1.1-6.4.9-12.6-.6.2-.7.4-1.5.5-1.7,3.7-.6,7-1.7,10.4-1.6,3.2,0,6.4,1.1,10,1.9-4.1,2.5-8-.6-11.8,0,0,.3,0,.6-.2.8Z"/>
            <path class="cls-4" d="M39.5,57.8c1.2-5.1,1.2-10.7,5.7-13.8.2,3,.6,6.2.7,9.4,0,.6-.2,1.4-.6,1.7-1.7,1.2-3.5,2.3-5.3,3.5-.2-.3-.4-.6-.6-.8h0ZM41.5,55.7c.4,0,.9.2,1.3.2.4-2.1.7-4.1,1.1-6.2-.4,0-.9-.2-1.3-.2-.4,2.1-.7,4.1-1.1,6.2h0Z"/>
            <path class="cls-4" d="M65.3,49.9c-7.6,3-10.7,2.4-14.4-5.2,4.8,1.7,9.6,3.5,14.4,5.2ZM59.9,50.4c0-.3.2-.7.3-1-1.7-.6-3.5-1.2-5.2-1.9,0,.3-.2.6-.3.9,1.5,1.2,3.2,2.2,5.2,1.9h0Z"/>
            <path class="cls-4" d="M104.6,61.2c2.2,2.4,2.8,6.6,1,9.1-.4.6-1.3,1.3-1.9,1.2-.5,0-1.1-.9-1.4-1.6-1.4-3.5-.6-6.5,2.3-8.7ZM103.5,70.1c2.2-1.6,1.8-3.4,1.6-4.9,0-.6-.8-1.1-1.6-2.1v7Z"/>
            <path class="cls-4" d="M50.3,41.6c5.6-1.5,9.3,1.7,12.5,6-4.3-1.7-8.6-3.4-12.9-5.2,0-.3.2-.5.3-.8h0Z"/>
            <path class="cls-4" d="M48.2,43.5c3.8,4.1,1.5,8.7,1.3,13.3-3.2-4.2-3.6-9.7-1.3-13.3ZM48.9,46.4h-.8v4.3h.8v-4.3Z"/>
            <path class="cls-4" d="M65.6,41.1c-1.1.9-2.1,1.9-3,2.8-1.8-1.2-3.4-2.4-5.1-3.2-1.7-.7-3.5-.9-5.5-1.4,4.8-2.3,8.9,1.6,13.6,1.9h0Z"/>
            <path class="cls-4" d="M43.5,43.5c-2.7,2.2-6,3.7-6.4,7.2.2.2.4.3.7.5.6-.6,1.1-1.3,1.7-1.9,0,2.3-2,3.7-5.5,4.1,1.2-5,5.4-9.7,9.5-9.9h0Z"/>
            <path class="cls-4" d="M87,74.9c1.5-2.3,2.8-4.7,4.5-6.9.4-.6,1.8-.7,2.6-.6.4,0,.7,1.1,1.4,2.2-5.6-1.3-5.1,4-7.5,6-.4-.3-.7-.6-1-.8h0Z"/>
            <path class="cls-4" d="M35.1,44.2c3.1-1.6,5.3-5.7,10.2-3.7-3.5,1.6-6.7,3.1-9.9,4.6,0-.3-.2-.6-.3-.9Z"/>
            <path class="cls-4" d="M90.1,75.9c.8-1.6,1.5-3,2.4-4.3.2-.4,1.1-.6,1.5-.4.3,0,.6.9.6,1.3,0,3-1.5,4.4-4.5,3.4h0Z"/>
            <path class="cls-4" d="M97.7,59.5c-2.5-2.2-3-6.4-.6-9.9.2,3.7.4,6.6.6,9.9Z"/>
            <path class="cls-4" d="M57.6,34.5c-.2.9-.3,1.7-.4,2.2-2.3.4-4.4.7-6.5,1,.9-1.9,1.7-2.3,6.9-3.2h0Z"/>
            <path class="cls-4" d="M50.9,57.2c.4-2.6.7-4.9,1-7.2,2.6,2.2,2.3,4.5-1,7.2Z"/>
            <path class="cls-4" d="M58.7,57.8c-2.4.4-4.5.8-6.6,1.2,1.5-2.4,2.7-2.6,6.6-1.2Z"/>
            <path class="cls-4" d="M95.5,88v-5.5c2,1,2.1,3.2,0,5.5Z"/>
            <path class="cls-4" d="M48.5,38.3c-1.7.9-2.7,1.1-3-.5,0-.6.4-1.3.7-1.9.7.7,1.4,1.5,2.3,2.4h0Z"/>
            <path class="cls-4" d="M30.6,62.6c-1.4.2-2.8.4-4.3.5.4-1.5,1.8-1.7,4.3-.5Z"/>
            <path class="cls-2" d="M25.7,70c13.9-2.3,27.8-4.6,41.6-6.9,0,.3.2.6.3.9-.4.3-.7.7-1.1.8-13.6,2.1-27,4.7-40.7,6.6,0-.5-.2-.9-.2-1.4h0Z"/>
            <path class="cls-2" d="M90,60.1c-6.5,2.3-13.2,3.6-20.5,5.2,1.4-2.1,17.7-6.1,20.5-5.2Z"/>
            <path class="cls-2" d="M64.4,60.9c-1.5,2.1-9.6,3.2-11.7,1.6,4.3-.6,8-1.1,11.7-1.6Z"/>
            <path class="cls-2" d="M78.5,76.9c.5,0,1.1-.3,1.5,0,3.1.9,6.2,1.7,9.3,2.7.5.2.9.7,1.3,1.1-.6,0-1.3.4-1.8.3-3-.8-5.9-1.7-8.8-2.5-.6-.2-1.1-.5-1.6-.8v-.6h0Z"/>
            <path class="cls-2" d="M33.2,58.5c-1.7-.4-3.4-.7-5.1-1,0-.4.2-.8.2-1.2,1.7.3,3.4.6,5.1,1,0,.4-.2.9-.3,1.3h0Z"/>
            <path class="cls-2" d="M41.5,55.7c.4-2.1.7-4.1,1.1-6.2.4,0,.9.2,1.3.2-.4,2.1-.7,4.1-1.1,6.2-.4,0-.9-.2-1.3-.2h0Z"/>
            <path class="cls-2" d="M59.9,50.4c-2.1.2-3.7-.7-5.2-1.9,0-.3.2-.6.3-.9,1.7.6,3.5,1.2,5.2,1.9,0,.3-.2.7-.3,1h0Z"/>
            <path class="cls-2" d="M103.5,70.1v-7c.7.9,1.5,1.5,1.6,2.1.2,1.6.7,3.3-1.6,4.9Z"/>
            <path class="cls-2" d="M48.9,46.4v4.3h-.8v-4.3h.8Z"/>
          </g>
          <g class="cls-7">
            <path class="cls-2" d="M11.3,54.9c.9-1.7,2.2-2.6,4.1-3.2,19.5-6.1,39-12.3,58.5-18.6.9-.3,1.8-1,2.5-1.7,2.6-3,5-6.1,7.5-9,3-3.5,6.9-4.6,11.3-3.4,5.5,1.5,7.9,7,5.5,12.1-.2.4-.4.8-.4.7,2,1.4,4.4,2.4,5.6,4.2,1.1,1.6,1.3,4.1,1.3,6.1s-.7,3-1.7,4c-17.1,18.7-34.3,37.2-51.3,55.9-3.3,3.6-6.9,4.2-11,3.1-3.8-1-7.6-2.3-11.1-4.2-3.5-1.9-5.2-5.3-5-9.4.1-2.3,1-4,2.8-5.5,4.2-3.5,8.2-7.2,12.2-10.8.2-.2.6-.4.7-.7,1.2-5.4,5.5-8.7,8.5-12.9,0,0,0-.2,0-.6-2.6,1.2-5.2,2.3-7.7,3.5-7.5,3.5-15,7.2-22.5,10.7-1.8.8-3.2.3-4.4-1.3-2.7-3.6-4.1-7.7-5.1-12.1-.1-.6-.3-1.2-.5-1.8v-5.3h0v.2ZM48.3,73.7c3.9-3.6,8.8-2.1,13.7-2.4-3.4-2-7.3-2.5-10.2-1-1.4.7-2.3,2.3-3.5,3.5-.9,1.5-.5,2.6,1.1,3.1.6.2,1.3-.4,2-.7-.8-1.8-3.6.5-3.1-2.4h0ZM47.3,100.1c-2.2.3-3.8-.5-4.5-2.7s-.6-4,1.3-5.8c4.1-4,7.8-8.4,11.6-12.6.2.3.4.6.6.8-2.4.7-4.9,1.8-7.4,1.9-3,.2-4.7-2.2-6-4.9-3.4,3-6.7,6-10,8.9,1.6.6,2.8.9,4,1.5,2.5,1.2,4.5,3.1,4.7,5.9,0,1.3-.5,3.3-1.5,3.9-.9.6-2.9.2-4.1-.3-2.3-1-3.1-3-2.1-5.6-1.7-.3-2.2.2-1.9,1.7.6,2.3,1.8,4.2,4,5,2.9,1.1,5.9,1.9,8.9,2.6.6.2,1.5-.3,2.2-.5,1.9,0,2.8-1.1,2.4-2.9-.3-1.4-1.4-1.7-3.3-1,3,1.1,2,2.6.9,4h.2ZM70.2,75.1c3.9-6,7.7-11.8,11.4-17.5,5.6-8.6,11.3-17.2,16.9-25.9,2.9-4.5,1.2-9.3-3.7-10.9-3.7-1.2-7.2-.1-10,3.2-11,13.3-22,26.7-33,40-.4.4-.6.9-1,1.6,11.7-.6,16.7,1.9,19.4,9.6h0ZM54.8,99.7c.9-1.3,1.5-2.1,2.1-2.7,15.7-17,31.2-34.1,47-51,2.2-2.4,2.4-5,1.5-7.7-.7-2.1-2.3-3.4-4.6-3.8-2.2-.4-2.9,1.2-3.8,2.6-9.3,14.2-18.5,28.4-27.7,42.6-1.9,2.9-4.5,4.1-7.8,3.5-1.4-.2-2.7-1.2-4-1.8-3,3.2-6.2,6.4-9.1,9.5,4.3.6,5.8,3.8,6.4,8.8h0ZM19.8,62.3c.1,0,.7-.2,1.4-.5,13-4.9,25.9-10.1,39-14.6,6.2-2.1,8.7-7.4,12.4-11.9-18.4,5.8-36.7,11.7-54.4,17.3.6,3.5,1,6.6,1.5,9.7h.1ZM61.9,48.2c-13.6,5.2-27.3,10.3-41.3,15.6,3.2,2.2,3.4,5.1,2.9,8.3.9-.4,1.7-.6,2.4-.9,7.5-3.5,14.9-7.4,22.7-10.3,6.4-2.4,9.9-7.5,13.4-12.7h0ZM45.3,98.3c0-1.2,0-2.7.5-3.4.6-.6,2.4-.9,3.2-.5,1.1.7,2,2.1,2.2,3.3.2,1-.6,2.6-1.5,3.2-1.2.8-3,1.5-4.4,1.3-3.4-.6-6.8-1.5-10.1-2.8-2.8-1.1-4.5-3.6-4.8-6.7,0-.8.1-1.9.6-2.4,1.6-1.4,3.3-.7,4.9,0,1.6.8,2.8,1.9,1.9,4.5-.8-1-1.3-1.7-2.1-2.6-.3.6-.6,1.1-.5,1.1.8.9,1.6,1.9,2.6,2.6.3.2,1.5,0,1.6-.2.3-1,.7-2.2.4-3.2-1.1-3.1-3.8-4.4-6.9-4.9-2.3-.4-3.6.6-4.2,2.9-.8,3.5.8,7.2,4.5,9.6,4.3,2.8,9.2,4,14.4,3.9,3.2,0,5-1.8,5.2-5s-1.8-6.1-4.6-6.3c-1.3,0-3.2.5-3.9,1.4-1,1.3-.3,3,.9,4.1h0ZM62.9,74.6c-.5-1.8-1.7-2.3-3.3-1.3-2.3,1.4-2.8,3.8-1.3,6,1.2,1.8,3,2.6,5.2,2.3,2.2-.3,3.9-1.5,4.6-3.7,1-3-.3-6.5-3.5-8.4-4.1-2.5-8.6-3.1-13.2-2.2-3.8.7-5.9,3.5-6.6,7.1-.8,3.8,2.8,6.8,6.5,5.8s4.8-3.9,5.7-7.5c-1.8.2-3.5.4-5.6.6,1.8,2,2.1,3.5.2,4.9-1.4,1.1-3.9.6-4.8-1.1-.5-.9-.9-2.3-.5-3.1.6-1.5,1.6-3,2.8-4,4.1-3.3,13.2-2.2,16.6,2,1.2,1.5,2,3.4.9,5.1-.8,1.2-2.2,2.4-3.5,2.8-1,.3-2.5-.7-3.5-1.5-.4-.3-.3-2,.2-2.3.7-.7,1.9-.8,3.2-1.2h0v-.3ZM15.8,64.8c.5-.9.8-1.7,1.2-2.4,1.2-2.2,1.5-4.6,0-6.8-.6-.8-1.6-1.3-2.5-1.9-.6.9-1.6,1.8-1.6,2.6,0,6.2,1.7,11.8,5.3,16.8,1,1.4,2.1,1.3,3-.2,2.4-4,.4-7.7-4.3-7.9-.3,0-.6,0-1.3-.2h.2ZM61.1,76.9c0,.2,0,.4-.2.7.9,0,2.1.6,2.8.2,1.7-.7,2.1-2.2,1.2-4.2-.4,3.4-1.1,3.9-3.9,3.3h.1Z"/>
            <path class="cls-4" d="M70.2,75.1c-2.7-7.7-7.7-10.1-19.4-9.6.4-.6.7-1.1,1-1.6,11-13.3,22-26.7,33-40,2.8-3.4,6.3-4.5,10-3.2,5,1.6,6.7,6.4,3.7,10.9-5.6,8.7-11.3,17.3-16.9,25.9-3.7,5.8-7.5,11.5-11.4,17.5h0Z"/>
            <path class="cls-4" d="M54.8,99.7c-.6-5-2.2-8.2-6.4-8.8,3-3.1,6-6.3,9.1-9.5,1.3.6,2.6,1.5,4,1.8,3.3.5,5.9-.7,7.8-3.5,9.2-14.2,18.5-28.4,27.7-42.6.9-1.4,1.7-3,3.8-2.6,2.2.4,3.9,1.7,4.6,3.8.9,2.7.8,5.3-1.5,7.7-15.7,17-31.3,34-47,51-.6.7-1.1,1.5-2.1,2.7h0Z"/>
            <path class="cls-4" d="M19.8,62.3c-.5-3.1-1-6.2-1.5-9.7,17.7-5.6,36-11.4,54.4-17.3-3.7,4.5-6.2,9.7-12.4,11.9-13.1,4.5-26,9.7-39,14.6-.7.2-1.3.5-1.4.5h0Z"/>
            <path class="cls-4" d="M61.9,48.2c-3.5,5.2-7,10.3-13.4,12.7-7.7,2.9-15.1,6.8-22.7,10.3-.7.3-1.4.6-2.4.9.5-3.3.4-6.2-2.9-8.3,14-5.3,27.6-10.4,41.3-15.6h.1Z"/>
            <path class="cls-4" d="M47.3,100.1c-.7.2-1.5.6-2.2.5-3-.7-6-1.5-8.9-2.6-2.2-.8-3.5-2.7-4-5-.3-1.4.2-1.9,1.9-1.7-1,2.5-.2,4.5,2.1,5.6,1.2.6,3.2.9,4.1.3,1-.6,1.6-2.6,1.5-3.9-.2-2.8-2.2-4.7-4.7-5.9-1.1-.6-2.4-.9-4-1.5,3.4-3,6.6-5.9,10-8.9,1.3,2.6,3,5,6,4.9,2.5,0,4.9-1.3,7.4-1.9-.2-.3-.4-.6-.6-.8-3.9,4.2-7.6,8.6-11.6,12.6-1.9,1.9-1.9,3.7-1.3,5.8.7,2.2,2.2,3,4.5,2.7h0l-.2-.2Z"/>
            <path class="cls-4" d="M45.3,98.3c-1.2-1.1-2-2.8-.9-4.1.7-.9,2.6-1.5,3.9-1.4,2.9.2,4.8,3.1,4.6,6.3-.2,3.2-2,4.9-5.2,5-5.2,0-10-1.1-14.4-3.9-3.7-2.4-5.3-6-4.5-9.6.6-2.3,1.9-3.3,4.2-2.9,3,.5,5.7,1.8,6.9,4.9.3.9,0,2.1-.4,3.2,0,.2-1.3.5-1.6.2-1-.7-1.8-1.7-2.6-2.6,0,0,.3-.6.5-1.1.7.9,1.3,1.6,2.1,2.6.8-2.6-.4-3.6-1.9-4.5s-3.3-1.6-4.9,0c-.5.5-.7,1.6-.6,2.4.4,3.1,1.9,5.6,4.8,6.7,3.2,1.3,6.7,2.2,10.1,2.8,1.4.2,3.2-.5,4.4-1.3.9-.6,1.7-2.2,1.5-3.2-.2-1.2-1.1-2.6-2.2-3.3-.7-.5-2.6-.2-3.2.5-.6.7-.4,2.2-.5,3.4h0Z"/>
            <path class="cls-4" d="M62.9,74.6c-1.3.4-2.4.6-3.2,1.2-.4.4-.5,2.1-.2,2.3,1,.7,2.5,1.7,3.5,1.5,1.3-.4,2.8-1.5,3.5-2.8,1.1-1.7.4-3.6-.9-5.1-3.4-4.1-12.4-5.3-16.6-2-1.2,1-2.2,2.5-2.8,4-.4.8,0,2.2.5,3.1.9,1.7,3.4,2.2,4.8,1.1,1.9-1.4,1.6-3-.2-4.9,2.1-.2,3.8-.4,5.6-.6-.8,3.6-1.9,6.5-5.7,7.5-3.7,1-7.3-2-6.5-5.8.7-3.6,2.8-6.4,6.6-7.1,4.6-.9,9.1-.3,13.2,2.2,3.2,2,4.5,5.4,3.5,8.4-.7,2.2-2.4,3.4-4.6,3.7-2.2.3-3.9-.5-5.2-2.3-1.5-2.2-.9-4.6,1.3-6,1.6-1,2.8-.4,3.3,1.3h0v.3Z"/>
            <path class="cls-4" d="M15.8,64.8c.6,0,.9.2,1.3.2,4.6.2,6.6,3.9,4.3,7.9-.9,1.5-1.9,1.6-3,.2-3.7-5-5.4-10.6-5.3-16.8,0-.9,1-1.8,1.6-2.6.8.6,1.9,1.1,2.5,1.9,1.5,2.2,1.1,4.5,0,6.8-.4.7-.7,1.5-1.2,2.4h-.2Z"/>
            <path class="cls-4" d="M48.3,73.7c1.1-1.2,2.1-2.8,3.5-3.5,2.8-1.5,6.8-.9,10.2,1-4.9.3-9.8-1.2-13.7,2.4h0Z"/>
            <path class="cls-4" d="M47.3,100.1c1.1-1.4,2.1-2.9-.9-4,1.9-.7,3-.4,3.3,1,.4,1.8-.5,2.8-2.4,2.9h0Z"/>
            <path class="cls-4" d="M61.1,76.9c2.8.6,3.5,0,3.9-3.3.9,2.1.4,3.5-1.2,4.2-.7.4-1.9,0-2.8-.2,0-.2,0-.4.2-.7h-.1Z"/>
            <path class="cls-4" d="M48.3,73.7c-.5,2.9,2.3.6,3.1,2.4-.6.2-1.4.9-2,.7-1.6-.5-2.1-1.6-1.1-3.1h0Z"/>
          </g>
          <g class="cls-7">
            <g>
              <path class="cls-2" d="M29,81.9c-1.6,0-2.9,1.3-2.9,2.9s1.3,2.8,2.9,2.8,2.9-1.3,2.9-2.8-1.3-2.9-2.9-2.9Z"/>
              <path class="cls-2" d="M39,88.7c-1.7,0-3.1,1.4-3.1,3.1s1.4,3.1,3.1,3.1,3.1-1.4,3.1-3.1-1.4-3.1-3.1-3.1Z"/>
              <path class="cls-2" d="M68.6,84.8c-1.6,0-2.8,1.3-2.8,2.8s1.3,2.8,2.8,2.8,2.8-1.3,2.8-2.8-1.3-2.8-2.8-2.8Z"/>
              <path class="cls-2" d="M57.6,89.4c-1.7,0-3.1,1.4-3.1,3.1s1.4,3.1,3.1,3.1,3.1-1.4,3.1-3.1-1.4-3.1-3.1-3.1Z"/>
              <path class="cls-2" d="M48.9,59.6c.8-2.1,1.1-2.3,2.1-4.3,1.7-3.7,0-4.4-3.4-4.3-8.9.2-17.8.3-26.7,0-5.8-.2-8,1.7-7.8,7.6.3,12.1,0,24.2,0,36.4,6,2.8,6.6,1.9,6.5-4.3,0-5.4.5-10.8-.4-16.2-.3-1.3,0-2.2,1.5-2.6,2.8-.7,5.6-4.6,5.5-7.7,0-1.7.3-3.4,2.4-3.5,2.4-.2,3,1.7,3,3.6.2,3.3,1.5,5.7,5,5.6s4.7-2.6,4.9-5.8c.2-2.6,1.3-5,4.1-2.9,3.1,2.3,2.8-.3,3.2-1.6h.1Z"/>
              <path class="cls-2" d="M105.5,52.5c-6.5-3.2-13.6-1.3-20.3-1.4-19.3-.3-19.3-2.9-17.3,16.4,0,.3.4.6.8,1.1,2.8-.7,3.6-2.8,3.6-5.4s.5-3.4,2.6-3.4,2.8,1.4,2.8,3.2c0,3.5,1.4,6.2,5.2,6.1,3.4,0,4.8-2.6,4.7-5.9,0-1.9.9-3.2,2.8-3.4,2,0,2.9,1.4,2.8,3.2,0,3.7,3.3,8.4,6.7,9.2,1.5,6.8.3,13.6.6,20.5,0,2.6,1.4,3.7,3.8,3.6,2.1,0,2-.9,1.9-3.2-.3-13.5.7-27-.5-40.5h-.2Z"/>
              <path class="cls-2" d="M62.9,54.9c3.6-15.1,12.1-27.2,23.8-37.3-5.2.2-8.6,3-12,5.7-12.3,10-17.8,23.7-20.7,38.8-2.6,6.1-7.5,11.1-8.8,17.8-1,5,1.4,8.2,5.7,7.4,6.3-1.1,13.4-9.6,12.6-16.1-.7-5.4-.5-10.9-.6-16.3h0Z"/>
              <path class="cls-2" d="M39.6,77.8c.2-1.9-.8-3-2.5-3.4-2,0-3.2,1.1-3.3,2.8-.2,1.9,1.3,3,3,3.2,1.5,0,2.6-1,2.8-2.6Z"/>
              <path class="cls-2" d="M87,74.9c-1.5,0-2.7,1-2.8,2.6,0,1.8.8,3.1,2.8,3.2,1.7,0,2.6-.8,2.8-2,.2-2.5-.9-3.6-2.7-3.7h-.1Z"/>
              <path class="cls-2" d="M92.1,84.3c-1.6,0-2.6,1-2.7,2.6-.2,1.8.7,3.1,2.6,3.3,2,.2,2.8-1.2,3.2-2.8-.3-1.8-1.1-3-3-3h0Z"/>
              <path class="cls-2" d="M81.1,88.7c-2,0-3,1.1-2.8,3,.2,1.6,1.3,2.4,3,2.3,1.6-.2,2.5-1.1,2.6-2.7-.2-1.7-1.1-2.6-2.7-2.6h0Z"/>
              <path class="cls-2" d="M73.8,74.2c-2,0-2.8,1.4-2.6,3.2.2,1.7,1.5,2.4,3,2.2,1.6-.2,2.4-1.3,2.4-2.9-.3-1.5-1.1-2.5-2.8-2.4h0Z"/>
            </g>
          </g>
          <g class="cls-7">
            <path class="cls-3" d="M11.6,55h96.2c2.4.8-2,11.7-2.9,13.6-5.4,11.9-15.5,20.7-26.3,25.1,2.1.8,6.8-.9,7.5,2.7.4,2.1-.8,4.1-2.6,4.7-7.6-.5-44.6.6-47.7,0-2.3-.4-3.4-3.7-2.1-5.9,1.3-2.3,5-.6,6.9-1.5-10-3.8-19.6-12-25.1-22.6-1.2-2.4-6.9-15.5-3.9-16.1h0Z"/>
            <g>
              <path class="cls-2" d="M45.3,28.4s0-.2.2-.2c.5-.6.9-1.1,1.5-1.6.7-.7,1.4-1.3,2.1-1.9.9-.7,1.9-1.2,2.8-1.6,1.1-.4,2.3-.7,3.5-.7s2.9.3,4.3.9c.8.3,1.6.7,2.3,1.2.6.4,1.1.7,1.7,1.2,1-.6,2.1-1,3.2-1.3,1.2-.4,2.4-.6,3.6-.6s2.9.3,4.2.9c1.1.6,2.2,1.3,3.2,2.2.8.8,1.6,1.7,2.2,2.6.5.7,1,1.5,1.4,2.2,0,0,0,.2.2.2.9-.1,1.7-.2,2.6-.2h0c1.3,0,2.6.2,3.8.6,1.2.4,2.4,1,3.5,1.9s2.1,2,2.8,3.2c.7,1.2,1.4,2.4,1.9,3.7h.2c.6,0,1.2.3,1.8.5.8.3,1.6.7,2.3,1.3.9.7,1.7,1.6,2.3,2.6.8,1.3,1.5,2.7,1.9,4.2v.6c0,.2,0,.5,0,.7-.2.4-.5.7-.8.9-.2,0-.3,0-.5,0s-.4,0-.6-.2c-.4-.2-.6-.6-.8-1-.4-1.2-.9-2.3-1.5-3.3-.5-.7-1-1.3-1.6-1.8-.5-.4-1-.7-1.5-.9s-.9-.3-1.4-.4c-.2,0-.5,0-.7-.2-.5-.2-.9-.5-1.3-.9-.5-1.4-1.1-2.8-1.9-4-.6-.9-1.3-1.8-2.2-2.4-.8-.6-1.7-1.1-2.6-1.4-1-.3-2-.5-3-.5h0c-1.1,0-2.2,0-3.3.4-.5,0-.9-.3-1.2-.7h0l-.2-.3h0c-.2-.3-.4-.6-.5-.8-.4-.7-.8-1.3-1.3-1.9-.6-.8-1.1-1.5-1.8-2.1-.7-.7-1.5-1.3-2.4-1.7-1-.4-2.1-.7-3.1-.7s-1.9.2-2.8.4c-1.5.5-2.9,1.2-4.2,2.1-.9-.8-1.9-1.6-2.8-2.2-.6-.4-1.3-.7-1.9-1-1.1-.4-2.2-.7-3.3-.7s-1.8.2-2.6.5-1.5.7-2.2,1.2c-.6.5-1.2,1-1.8,1.5-.4.5-.9.9-1.3,1.5-.2.2-.4.5-.6.7s-.2.2-.3.3c-.4.3-.8.5-1.2.5-.9-.4-1.9-.7-2.9-.9-.7-.2-1.5-.2-2.2-.2h0c-.7,0-1.4,0-2.1.2-.6.2-1.2.4-1.7.6-1,.5-1.9,1.2-2.6,2.1-.7.8-1.3,1.7-1.7,2.6s-.7,1.6-1.1,2.4c-.1.3-.2.6-.4.9s-.2.3-.2.4c-.1.2-.3.4-.5.6-.2.2-.6.3-.9.3h-.5c-1.2,0-2.4.2-3.6.6-1.1.4-2.1.9-3,1.7s-1.7,1.7-2.2,2.8c-.7,1.3-1.2,2.6-1.5,4.1,0,.4-.4.8-.7,1.1-.2.2-.5.2-.7.2s0,0-.1,0h-.2c-.4,0-.7-.4-.9-.8-.2-.3-.2-.6-.2-.9s0,0,0,0h0v-.3c.4-1.8,1-3.5,1.9-5.1.8-1.5,1.8-2.7,3-3.7s2.5-1.8,3.9-2.2c1.3-.5,2.7-.7,4.1-.7v-.2c.5-.9.9-1.9,1.3-2.8.6-1.2,1.3-2.3,2.2-3.3,1-1.2,2.2-2.2,3.5-2.8.7-.4,1.5-.7,2.3-.9.9-.2,1.7-.3,2.6-.3h0c.9,0,1.8,0,2.7.3.7.2,1.5.4,2.2.6h0Z"/>
              <path class="cls-5" d="M21.3,62.9c3.2,9.4,8.5,16.5,16.4,20.8" vector-effect="non-scaling-stroke"/>
              <path class="cls-5" d="M21.3,62.9c3.2,9.4,8.5,16.5,16.4,20.8"/>
            </g>
          </g>
          <g id="Ebene_1-2">
            <g id="Generatives_Objekt-10">
              <g id="Background-8" class="cls-7">
                <rect class="cls-6" x="9.1" y="29.2" width="100.9" height="63.6"/>
              </g>
              <g>
                <path class="cls-5" d="M74.4,42.1c5.2-11.2-8.7-18.9-14.4-8"/>
                <path class="cls-5" d="M67.7,47.5c6-5.4,11-6.8,16.2.8"/>
                <path class="cls-5" d="M44.5,42.2c-4.3-8.4,3.8-16.2,10.7-12.3,4.7,2.7,3.3,7.1,4.3,11.9"/>
                <path class="cls-5" d="M35,48.2c5.2-7.3,9.7-6.2,16-1.1"/>
                <line class="cls-5" x1="59.5" y1="41.8" x2="51" y2="47.1"/>
                <line class="cls-5" x1="59.5" y1="41.8" x2="67.7" y2="47.5"/>
                <line class="cls-5" x1="51" y1="47.1" x2="51" y2="55.5"/>
                <line class="cls-5" x1="67.7" y1="47.5" x2="68" y2="55.5"/>
                <path class="cls-5" d="M18.3,53.8c-1.1-15.1,18.8-13.6,16.1,1.3"/>
                <path class="cls-5" d="M100.6,53.8c1.6-12.5-16.4-16.3-16.2,1.3"/>
                <path class="cls-5" d="M15.1,61.7c-.6-2.2-1-4.5-1.5-6.7.5-1.4,15,1.2,19.5,1.5,20.5,1.6,52,.9,72.4-2.4-2.1,15-10.5,26.5-23.5,33.2-1.2,1.1.4,4.7-4.8,5.7-1.7.3-33.9.3-35.7,0-4.9-1-3.6-4.7-4.7-5.7-1.2-1.2-16.1-6.8-21.8-25.5h.1Z"/>
                <path class="cls-5" d="M102.4,62.9c-28.5,3.8-57.4,3.3-85.9.3"/>
              </g>
            </g>
          </g>
        </g>
      </g>
    </g>
  </g>
</svg>