<?xml version="1.0" encoding="UTF-8"?>
<svg xmlns="http://www.w3.org/2000/svg" version="1.1" viewBox="0 0 120 120">
  <!-- Generator: Adobe Illustrator 28.6.0, SVG Export Plug-In . SVG Version: 1.2.0 Build 709)  -->
  <g>
    <g id="Ebene_1">
      <g id="Ebene_32">
        <path d="M99.9,48.3c-4.9-1.6-9.8-3-15.1-4.6,5-6.9,9.8-13.5,14.6-20,2.3-3.1,3.5-5.7-.4-8.7-3.7-2.9-6.4-2.7-9.4,1-4,5-8.3,9.8-12.5,14.7-6.1,7.2-12.2,14.5-19.1,22.5h16.3c4.5,0,9-6,13.5,0,2.4,9-59.4,6.4-63.3,2.6,7.8-6.6,28.3-2.5,35.4-13.3-14.1,0-27,1-39.6,5.5-5.6,2-7.6,5.4-6.7,11.3,2.2,14.1,8.2,25.8,21.2,32.9,1.9,1.1,4.2,1.8,4.6,4.4.8,5.6,5,7.1,9.6,7.6,5.6.6,11.4.9,17,.6,6.4-.4,13.2-.7,14.7-9.3.3-1.5,1.9-2.1,3.3-2.8,13.8-7.1,20-19,22.2-33.8.9-5.8-1.2-9-6.3-10.7ZM95,64.8c-4.1,13.3-16.2,22.5-29.6,23.4-3,.2-8,.2-11,0-17.4-1.7-30.5-12.9-33.1-23.2-.5-2.1.7-3.3,2.8-2.7,20.2,6.1,45.5,6.1,68.2,0,2.1-.6,3.3.6,2.6,2.7h0Z"/>
      </g>
    </g>
  </g>
</svg>