<?xml version="1.0" encoding="utf-8"?>
<!-- Svg Vector Icons : http://www.onlinewebfonts.com/icon -->
<!DOCTYPE svg PUBLIC "-//W3C//DTD SVG 1.1//EN" "http://www.w3.org/Graphics/SVG/1.1/DTD/svg11.dtd">
<svg version="1.1" xmlns="http://www.w3.org/2000/svg" xmlns:xlink="http://www.w3.org/1999/xlink" x="0px" y="0px" viewBox="0 0 256 256" enable-background="new 0 0 256 256" xml:space="preserve">
<metadata> Svg Vector Icons : http://www.onlinewebfonts.com/icon </metadata>
<g><g><g><path fill="#000000" d="M192.4,10.5c-6,2.7-11.7,10.2-14.4,18.8c-1.3,4.2-1.3,6.1,0,7.3c0.9,0.8,1.1,0.8,1.5,0.2c0.2-0.4,1.8-3.1,3.4-6.1c5.6-10.1,9.5-14.9,11.1-13.6c1.1,0.9,1.4,5.2,0.8,10.8c-1.1,10.8-4.7,23-10.8,37.1c-1,2.3-2,4.6-2.3,5.3c-0.4,1.1-0.5,1-2-2.4c-2.6-5.9-3.9-8.3-5.6-9.9c-3.3-3.1-7.1-3.4-12.2-0.9c-8,4-20.4,14.9-26.2,23.1c-3.6,5.1-7.1,11.8-9,17.4c-0.9,2.5-1.6,4.6-1.6,4.7c-0.1,0.1-1.9-1.1-4.1-2.8c-7.4-5.3-16.9-9.4-27-11.6c-4.2-0.9-6.3-1.1-16.3-1.1c-11,0-11.6,0-13.9,1.1c-3,1.4-4,2.3-5.1,4.6c-1.2,2.6-1.1,6.2,0.2,12.3c3.8,16.6,11.5,31.5,21.9,42.3c2.6,2.7,5.5,5.4,6.4,6c0.9,0.6,1.7,1.2,1.6,1.4c0,0.1-1.7,1.5-3.8,3.1C73.6,166.2,62.8,181.3,57,197c-1.4,3.9-1.7,5.3-1.7,8.3c0,2,0.1,4,0.2,4.5c0.1,0.8-1.3,1.8-7.7,5.4C30.9,225,21.4,231.3,15.6,237c-3.5,3.4-6.3,7.7-5.5,8.5c1,1,28.8-10.6,46.4-19.3c5.3-2.7,7-3.4,6.3-2.5c-0.5,0.6-2.5,2.9-4.4,5c-8.5,9.6-12.4,15.8-11.2,17.2c0.3,0.4,1.1,0.7,1.6,0.7c1.4,0,19.2-14,32.3-25.5l3.1-2.6l6.3-0.3c3.5-0.1,7.9-0.6,9.7-1c9.4-2.1,18.9-6.2,26.3-11.6c2.4-1.7,4.4-3.1,4.5-3.1c0.1,0,1.1,1.7,2.3,3.7c4.7,8.5,13.9,18.6,23.1,25.1c5.2,3.6,16.9,9.7,23.1,11.8c6,2.1,8.3,2.3,11.1,1.1c5.5-2.4,8.2-10.6,8.8-26.2c0.4-11.9-1-21-4.7-30.4c-0.9-2.3-1.6-4.3-1.6-4.5c0-0.2,2-1,4.4-1.6c9.6-2.4,19.5-7.4,28.1-13.9c5.4-4.1,13.7-11.7,16.1-14.8c3.1-3.9,4.3-6.6,4.3-9.7c0-4.4-2.1-7.2-8.4-11.3c-12.6-8-25.5-12.5-38-13.2l-6.3-0.3l4.4-5.7c5.7-7.4,16-23.1,20.8-31.3C230.1,61.1,242,32.7,242.6,24c0.4-5.8-1.4-8.8-5.3-8.8c-6.4,0-14.4,8.1-19.3,19.8c-3,6.9-1.8,6.9,5.5-0.3c4.6-4.5,8.5-7.5,9.9-7.5c1.2,0-1.9,8-8.1,20.8c-8.2,16.7-17.5,31.7-32,51.2l-5.3,7.1l-0.3-5c-0.8-11-0.9-10.1,2.3-17.2c7.8-17.2,12.5-35.8,13.6-54.2c0.6-9.1,0.3-13.6-1.3-17C200.5,9.5,196.6,8.5,192.4,10.5z M170.2,70.3c4.5,9.7,6.8,19.8,7.2,31.2c0.3,8.1-0.6,16.1-1.9,19c-0.4,0.8-1.8,1.6-4.9,2.9l-4.4,1.7l-1.5-3.4c-1.9-4.2-4.4-7.7-6.4-9c-3.3-2-7.8-0.4-14.4,5.2c-1.6,1.4-3.1,2.5-3.2,2.5s-1.1-1.3-2.3-3c-1.1-1.6-2.7-3.9-3.5-5l-1.5-2.1l1.3-5.1c3.7-14.6,13.3-27.3,28.4-37.4C167.9,64.6,167.5,64.5,170.2,70.3z M85,96.7c9.3,1,16.7,3.2,24,6.9c5.5,2.8,9.7,6.1,14.5,11.2c4.1,4.3,9.9,12.4,9.9,13.7c0,0.6-1.4,0.7-8.6,0.7c-9.4,0-15.2,0.6-17.8,1.8c-1.5,0.7-1.7,1-1.6,2.6c0.1,2.3,3.5,8.9,8.2,16.1c2.1,3.2,3.9,6.2,3.9,6.6c0,0.9-1.2,0.7-5.9-0.9c-3.7-1.2-13.7-5.6-13.7-6.1c0-0.2-1.4-1.3-3.1-2.6c-1.7-1.2-5-4.3-7.4-6.8c-9.6-10-16.2-23.1-19.3-38c-0.5-2.6-1-4.9-1-5.1C67.4,96.2,79.2,96,85,96.7z M207.3,130.2c2.6,0.5,6.2,1.5,8.1,2.2c3.8,1.4,15,6.9,18.7,9.3l2.3,1.4l-2.2,2.8c-5.1,6.7-16.4,16.1-24.3,20.2c-6.5,3.4-14.9,6.4-21.1,7.4c-1.6,0.3-1.9,0.1-3.1-1.5c-0.8-1-2.5-3.2-4-4.8c-1.4-1.7-2.4-3.2-2.2-3.4c0.2-0.2,2.4-1.7,4.8-3.4c4.3-2.9,8.8-7.1,8.8-8.3c0-0.3-1.1-1.7-2.5-3c-2.5-2.4-10.3-6.8-17.1-9.6c-5.7-2.3-5.8-3.8-0.6-5.9c6.8-2.7,11.3-3.8,18.8-4.6C195,128.6,202.6,129.2,207.3,130.2z M102.4,162.4c2,0.9,5.4,2.2,7.6,2.8c3.4,1,3.9,1.3,3.7,2.1c-0.1,0.5-0.9,3.4-1.7,6.5c-1.7,6.3-1.9,9.6-0.7,10.8c0.7,0.7,1.5,0.8,5.9,0.5c2.8-0.2,8.1-1,12-1.7c3.8-0.8,7-1.3,7.1-1.3c0.1,0.1-1.5,2.1-3.4,4.5c-9.4,11.3-21,18.2-35.7,20.9c-8.3,1.6-22.1,1.1-30.7-1.2l-1.8-0.5l1.7-4.8c3.8-11,10-20.8,18.3-29.2c3.3-3.3,7.2-6.7,9.6-8.2c2.3-1.5,4.2-2.7,4.3-2.7S100.4,161.5,102.4,162.4z M179,179.2c8,11.3,11.5,25,10.4,40.5c-0.4,5-2,14.6-2.6,15.2c-0.4,0.4-9-2.9-13.7-5.2c-14.3-7.2-26.3-18.5-32.4-30.5l-2.2-4.4l3.3-4c1.8-2.2,3.4-4,3.5-3.9c0.1,0,2.4,1.5,5.1,3.3c5.3,3.6,11.8,6.9,13.5,6.9c2.9,0,5-5.9,6.4-18c0.3-2.6,0.6-5.7,0.8-6.9l0.3-2.2l2.6,2.9C175.5,174.6,177.8,177.4,179,179.2z"/></g></g></g>
</svg>