<?xml version="1.0" encoding="UTF-8"?>
<svg xmlns="http://www.w3.org/2000/svg" version="1.1" viewBox="0 0 120 120">
  <!-- Generator: Adobe Illustrator 28.6.0, SVG Export Plug-In . SVG Version: 1.2.0 Build 709)  -->
  <g>
    <g id="Ebene_1">
      <g id="Ebene_33">
        <path d="M86.3,12.4c-2.4,1.1-4.7,4.1-5.8,7.5-.5,1.7-.5,2.4,0,2.9q.4.3.6,0c0-.2.7-1.2,1.4-2.4,2.2-4,3.8-6,4.4-5.4.4.4.6,2.1.3,4.3-.4,4.3-1.9,9.2-4.3,14.9-.4.9-.8,1.8-.9,2.1q-.2.4-.8-1c-1-2.4-1.6-3.3-2.2-4-1.3-1.2-2.8-1.4-4.9-.4-3.2,1.6-8.2,6-10.5,9.3-1.4,2-2.8,4.7-3.6,7-.4,1-.6,1.8-.6,1.9,0,0-.8-.4-1.6-1.1-3-2.1-6.8-3.8-10.8-4.6-1.7-.4-2.5-.4-6.5-.4s-4.6,0-5.6.4c-1.2.6-1.6.9-2,1.8-.5,1-.4,2.5,0,4.9,1.5,6.6,4.6,12.6,8.8,16.9,1,1.1,2.2,2.2,2.6,2.4s.7.5.6.6c0,0-.7.6-1.5,1.2-4.6,3.4-8.9,9.5-11.2,15.8-.6,1.6-.7,2.1-.7,3.3v1.8c0,.3-.5.7-3.1,2.2-6.8,3.9-10.6,6.4-12.9,8.7-1.4,1.4-2.5,3.1-2.2,3.4.4.4,11.5-4.2,18.6-7.7,2.1-1.1,2.8-1.4,2.5-1-.2.2-1,1.2-1.8,2-3.4,3.8-5,6.3-4.5,6.9.1.2.4.3.6.3.6,0,7.7-5.6,12.9-10.2l1.2-1h2.5c1.4-.2,3.2-.4,3.9-.5,3.8-.8,7.6-2.5,10.5-4.6,1-.7,1.8-1.2,1.8-1.2,0,0,.4.7.9,1.5,1.9,3.4,5.6,7.5,9.3,10.1,2.1,1.4,6.8,3.9,9.3,4.7,2.4.8,3.3.9,4.4.4,2.2-1,3.3-4.2,3.5-10.5.2-4.8-.4-8.4-1.9-12.2-.4-.9-.6-1.7-.6-1.8s.8-.4,1.8-.6c3.8-1,7.8-3,11.3-5.6,2.2-1.6,5.5-4.7,6.4-5.9,1.2-1.6,1.7-2.6,1.7-3.9s-.8-2.9-3.4-4.5c-5-3.2-10.2-5-15.2-5.3h-2.5c0,0,1.8-2.4,1.8-2.4,2.3-3,6.4-9.3,8.3-12.5,4.6-8.1,9.4-19.5,9.7-23,.2-2.3-.6-3.5-2.1-3.5-2.6,0-5.8,3.2-7.7,7.9-1.2,2.8-.7,2.8,2.2-.1,1.8-1.8,3.4-3,4-3s-.8,3.2-3.2,8.3c-3.3,6.7-7,12.7-12.8,20.5l-2.1,2.8v-2c-.4-4.4-.5-4,.8-6.9,3.1-6.9,5-14.3,5.4-21.7.2-3.6,0-5.4-.5-6.8-.7-1.4-2.3-1.8-4-1h0ZM77.4,36.4c1.8,3.9,2.7,7.9,2.9,12.5,0,3.2-.2,6.4-.8,7.6-.2.3-.7.6-2,1.2l-1.8.7-.6-1.4c-.8-1.7-1.8-3.1-2.6-3.6-1.3-.8-3.1-.2-5.8,2.1-.6.6-1.2,1-1.3,1s-.4-.5-.9-1.2c-.4-.6-1.1-1.6-1.4-2l-.6-.8.5-2c1.5-5.8,5.3-10.9,11.4-15,1.9-1.3,1.8-1.3,2.8,1h.2ZM43.3,46.9c3.7.4,6.7,1.3,9.6,2.8,2.2,1.1,3.9,2.4,5.8,4.5,1.6,1.7,4,5,4,5.5s-.6.3-3.4.3-6.1.2-7.1.7-.7.4-.6,1c0,.9,1.4,3.6,3.3,6.4.8,1.3,1.6,2.5,1.6,2.6,0,.4-.5.3-2.4-.4-1.5-.5-5.5-2.2-5.5-2.4s-.6-.5-1.2-1c-.7-.5-2-1.7-3-2.7-3.8-4-6.5-9.3-7.7-15.2l-.4-2c0-.2,4.8-.3,7.2,0h-.2ZM92.3,60.4c1,.2,2.5.6,3.2.9,1.5.6,6,2.8,7.5,3.7l.9.6-.9,1.1c-2,2.7-6.6,6.4-9.7,8.1-2.6,1.4-6,2.6-8.5,3-.6,0-.8,0-1.2-.6-.3-.4-1-1.3-1.6-1.9-.6-.7-1-1.3-.9-1.4s1-.7,1.9-1.4c1.7-1.2,3.5-2.8,3.5-3.3s-.4-.7-1-1.2c-1-1-4.1-2.7-6.8-3.8-2.3-.9-2.3-1.5-.2-2.4,2.7-1.1,4.5-1.5,7.5-1.8,1.3-.2,4.4,0,6.2.5h0ZM50.2,73.3c.8.4,2.2.9,3,1.1,1.4.4,1.6.5,1.5.8,0,.2-.4,1.4-.7,2.6-.7,2.5-.8,3.8-.3,4.3.3.3.6.3,2.4.2,1.1,0,3.2-.4,4.8-.7,1.5-.3,2.8-.5,2.8-.5,0,0-.6.8-1.4,1.8-3.8,4.5-8.4,7.3-14.3,8.4-3.3.6-8.9.4-12.3-.5l-.7-.2.7-1.9c1.5-4.4,4-8.3,7.3-11.7,1.3-1.3,2.9-2.7,3.8-3.3.9-.6,1.7-1.1,1.7-1.1,0,0,.7.2,1.5.6h.2ZM80.9,80c3.2,4.5,4.6,10,4.2,16.2-.2,2-.8,5.8-1,6.1-.2.2-3.6-1.2-5.5-2.1-5.7-2.9-10.5-7.4-13-12.2l-.9-1.8,1.3-1.6c.7-.9,1.4-1.6,1.4-1.6,0,0,1,.6,2,1.3,2.1,1.4,4.7,2.8,5.4,2.8,1.2,0,2-2.4,2.6-7.2,0-1,.2-2.3.3-2.8v-.9c0,0,1.2,1.2,1.2,1.2.6.7,1.5,1.8,2,2.5h0Z"/>
      </g>
    </g>
  </g>
</svg>