<?xml version="1.0" encoding="UTF-8"?>
<svg xmlns="http://www.w3.org/2000/svg" version="1.1" viewBox="0 0 120 120">
  <defs>
    <style>
      .cls-1, .cls-2, .cls-3, .cls-4 {
        fill: none;
      }

      .cls-2 {
        stroke: #2e4d6d;
        stroke-width: 5.5px;
      }

      .cls-2, .cls-3, .cls-4 {
        stroke-linecap: round;
        stroke-linejoin: round;
      }

      .cls-3 {
        stroke-width: 3px;
      }

      .cls-3, .cls-4 {
        stroke: #000;
      }

      .cls-4 {
        stroke-width: 4px;
      }
    </style>
  </defs>
  <!-- Generator: Adobe Illustrator 28.6.0, SVG Export Plug-In . SVG Version: 1.2.0 Build 709)  -->
  <g>
    <g id="Ebene_1">
      <g id="Ebene_26">
        <g id="Generatives_Objekt-2">
          <g>
            <path class="cls-1" d="M104.8,69.1c1.3,8.4-4.4,15.4-12.3,17.7-.9,9.9-11.2,15.8-19.8,10.6l-.9-.5c-6.4,5.6-15.6,5.7-21.9,0l-.8.5c-9.2,5-19,0-20.5-10.3-1-1.2-7.2-1.6-11-9.2-2-4.2-1.9-12.2,1.1-13.8l83.1-.2c2.3.4,2.7,3.3,3,5.2h0Z"/>
            <path class="cls-1" d="M104.8,47.5c.4,2.7.2,8.8-3,9.5l-83.1-.2c-2.7-1.5-2.7-7.2-2.3-9.9,1.2-6.4,5.7-11,12.1-12.4,1.8-11,10.3-15.5,20.4-10.9.4.2.7.2,1,.5,6.9-6.2,14.9-5.1,22.1,0l.2-.2c8.7-5.8,19.3.1,20.5,10.3.6.8,10.6,2.3,12.1,13.4h0Z"/>
          </g>
          <g>
            <path class="cls-3" d="M71.9,24l.2-.2c8.7-5.8,19.3.1,20.5,10.3.6.8,10.6,2.3,12.1,13.4.4,2.7.2,8.8-3,9.5l-83.1-.2c-2.7-1.5-2.7-7.2-2.3-9.9,1.2-6.4,5.7-11,12.1-12.4,1.8-11,10.3-15.5,20.4-10.9"/>
            <path class="cls-2" d="M71.9,24"/>
            <path class="cls-4" d="M71.9,24c-7.2-5.1-15.1-6.1-22.1,0-.9.8-1.6,1.7-2.5,2.5"/>
            <path class="cls-4" d="M84.8,40.2c-6.2,7.2-16.2,3.8-20.5-4.1"/>
            <path class="cls-4" d="M56.9,35.9c-2.6,3.8-4.5,6.4-9.1,7.8-3.5,1-9.7,0-11.2-3.6"/>
            <path class="cls-3" d="M72.7,97.4c8.6,5.2,18.9-.7,19.8-10.6,7.9-2.3,13.6-9.3,12.3-17.7-.3-1.9-.8-4.7-3-5.2l-83.1.2c-3,1.6-3.2,9.6-1.1,13.8,3.7,7.5,10,8,11,9.2,1.6,10.4,11.4,15.3,20.5,10.3"/>
            <path class="cls-4" d="M73.5,94.8c-.6.7-1,1.5-1.6,2.1-6.4,5.6-15.6,5.7-21.9,0-.9-.8-1.6-1.7-2.5-2.5"/>
            <path class="cls-4" d="M85,80.4c-6.1-6-15.1-4.1-19.6,3"/>
            <path class="cls-4" d="M56.2,84.4c-3.7-7.7-12.9-9.9-19.5-4.6"/>
          </g>
        </g>
      </g>
    </g>
  </g>
</svg>